<svg width="486" height="1249" viewBox="0 0 486 1249" fill="none" xmlns="http://www.w3.org/2000/svg">
<path d="M443.5 397.5L76 137.5L297 397.5L51 752.5L443.5 397.5Z" fill="#DD430F"/>
<rect x="235" y="170" width="16" height="1079" fill="#DD430F"/>
<path d="M477 295.625C413.688 265.181 325.242 247 241.967 247C158.411 247 70.4315 264.994 7 295.625L55.6207 368C113.111 345.116 170.654 332.008 241.967 332.008C313.009 332.008 372.446 345.277 429.789 368L477 295.625Z" fill="#F3E1B8"/>
<path fill-rule="evenodd" clip-rule="evenodd" d="M473.168 299.905C409.822 271.632 324.091 254.721 242.966 254.721C161.596 254.721 76.3404 271.443 12.9497 299.833L53.6234 360.322C111.835 337.906 170.733 325.098 242.966 325.098C314.871 325.098 375.548 338.04 433.735 360.297L473.168 299.905ZM486 296.232C483.374 294.97 480.705 293.729 477.997 292.508C413.203 263.305 325.621 246 242.966 246C160.03 246 72.8796 263.128 8.01095 292.489C5.30111 293.715 2.63015 294.963 0 296.232L50.2759 371C109.723 347.359 169.225 333.819 242.966 333.819C316.426 333.819 377.887 347.526 437.181 371L486 296.232Z" fill="#345E5A"/>
<path d="M44.0347 298.938L55.103 295.428C58.8813 294.23 61.9192 294.245 64.2167 295.473C66.5 296.657 68.2196 299.072 69.3755 302.717L69.9676 304.584C70.7288 306.984 70.949 309.067 70.6281 310.832C70.3517 312.583 69.5191 314.046 68.1303 315.22L68.1726 315.354C72.2123 315.442 75.0638 318.109 76.7272 323.355L77.9958 327.355C79.1376 330.956 79.0559 334.015 77.7506 336.533C76.4757 338.992 74.0158 340.799 70.3708 341.955L58.8357 345.613L44.0347 298.938ZM60.2624 314.707C61.7292 314.241 62.6985 313.518 63.1701 312.537C63.6861 311.542 63.6622 310.155 63.0983 308.377L62.2737 305.776C61.738 304.087 61.0392 302.963 60.1773 302.405C59.3598 301.833 58.3065 301.751 57.0174 302.16L53.4835 303.28L57.3953 315.616L60.2624 314.707ZM68.2564 335.287C69.5454 334.879 70.3954 334.242 70.8063 333.378C71.2031 332.469 71.1336 331.171 70.598 329.481L69.3082 325.414C68.6315 323.28 67.7885 321.933 66.7791 321.373C65.8001 320.754 64.466 320.712 62.7768 321.248L59.5097 322.284L64.0557 336.62L68.2564 335.287Z" fill="#345E5A"/>
<path d="M95.9812 335.361C92.3759 336.319 89.3797 336.03 86.9928 334.493C84.5939 332.911 82.8853 330.205 81.8669 326.374L81.148 323.67L88.1785 321.801L89.0411 325.046C89.8558 328.11 91.5476 329.301 94.1165 328.618C95.3783 328.283 96.2289 327.671 96.6681 326.782C97.1405 325.836 97.155 324.529 96.7117 322.862C96.1845 320.879 95.2725 319.263 93.9758 318.016C92.6671 316.723 90.5144 315.341 87.5176 313.87C83.7342 311.98 80.9465 310.116 79.1546 308.276C77.3507 306.391 76.0833 304.074 75.3525 301.325C74.358 297.584 74.5376 294.448 75.8913 291.917C77.233 289.341 79.7065 287.573 83.3119 286.615C86.8722 285.668 89.8293 285.992 92.1831 287.586C94.57 289.123 96.2727 291.806 97.2911 295.637L97.8123 297.598L90.7818 299.467L90.1348 297.033C89.7035 295.411 89.0765 294.323 88.2538 293.769C87.4192 293.171 86.3935 293.034 85.1767 293.357C82.698 294.016 81.86 295.855 82.6627 298.875C83.118 300.588 83.994 302.068 85.2908 303.315C86.6326 304.551 88.8018 305.904 91.7986 307.376C95.6271 309.253 98.4208 311.14 100.18 313.037C101.938 314.934 103.213 317.369 104.004 320.344C105.034 324.22 104.856 327.452 103.469 330.04C102.128 332.617 99.6317 334.39 95.9812 335.361Z" fill="#345E5A"/>
<path d="M122.609 329.065C118.963 329.852 115.961 329.426 113.604 327.788C111.237 326.105 109.635 323.326 108.798 319.451L100.917 282.938L108.438 281.314L116.438 318.374C116.792 320.015 117.367 321.132 118.162 321.723C119.004 322.305 120.04 322.463 121.27 322.197C122.501 321.932 123.357 321.365 123.838 320.498C124.364 319.621 124.45 318.362 124.096 316.721L116.096 279.661L123.344 278.097L131.225 314.61C132.062 318.484 131.749 321.677 130.287 324.187C128.815 326.651 126.256 328.277 122.609 329.065Z" fill="#345E5A"/>
<path d="M131.173 276.785L138.752 275.459L147.192 323.692L139.612 325.018L131.173 276.785Z" fill="#345E5A"/>
<path d="M149.805 273.666L161.105 272.144C165.033 271.615 168.023 272.153 170.075 273.759C172.12 275.319 173.397 277.994 173.908 281.784L174.309 284.765C174.988 289.802 173.753 293.215 170.606 295.004L170.625 295.142C172.548 295.448 173.995 296.406 174.964 298.017C175.98 299.621 176.681 301.856 177.067 304.721L178.215 313.248C178.402 314.635 178.601 315.761 178.811 316.626C179.016 317.446 179.359 318.247 179.841 319.029L172.076 320.074C171.693 319.326 171.409 318.611 171.223 317.93C171.037 317.25 170.823 316.008 170.58 314.206L169.385 305.332C169.087 303.114 168.509 301.615 167.651 300.837C166.839 300.052 165.556 299.778 163.799 300.014L161.165 300.369L163.966 321.166L156.34 322.193L149.805 273.666ZM163.004 293.063C164.53 292.858 165.609 292.312 166.243 291.427C166.922 290.536 167.138 289.165 166.889 287.317L166.385 283.573C166.148 281.817 165.654 280.59 164.901 279.891C164.194 279.186 163.171 278.924 161.831 279.105L158.364 279.571L160.232 293.436L163.004 293.063Z" fill="#345E5A"/>
<path d="M210.56 317.403C206.789 317.626 203.839 316.726 201.711 314.703C199.583 312.68 198.403 309.713 198.172 305.803L196.653 280.106C196.421 276.195 197.243 273.11 199.118 270.85C200.994 268.591 203.816 267.349 207.587 267.126C211.358 266.903 214.307 267.803 216.436 269.826C218.564 271.85 219.744 274.816 219.975 278.727L221.494 304.424C221.725 308.334 220.903 311.419 219.028 313.679C217.153 315.939 214.33 317.18 210.56 317.403ZM210.147 310.42C212.8 310.263 214.032 308.579 213.842 305.367L212.265 278.692C212.075 275.48 210.653 273.952 208 274.109C205.347 274.266 204.115 275.951 204.305 279.163L205.882 305.837C206.072 309.05 207.493 310.577 210.147 310.42Z" fill="#345E5A"/>
<path d="M227.386 266.99L238.717 266.867C242.541 266.826 245.42 267.821 247.354 269.852C249.288 271.883 250.276 274.88 250.319 278.844L250.372 283.67C250.414 287.634 249.491 290.652 247.601 292.724C245.712 294.797 242.855 295.854 239.032 295.895L235.394 295.935L235.61 315.869L227.916 315.953L227.386 266.99ZM238.956 288.901C240.215 288.887 241.144 288.527 241.742 287.821C242.388 287.115 242.701 285.922 242.683 284.243L242.62 278.438C242.602 276.759 242.263 275.573 241.602 274.881C240.988 274.188 240.052 273.848 238.793 273.862L235.156 273.901L235.319 288.94L238.956 288.901Z" fill="#345E5A"/>
<path d="M257.045 266.987L278.017 267.73L277.769 274.721L264.487 274.25L264.028 287.183L274.584 287.557L274.336 294.548L263.781 294.173L263.248 309.203L276.53 309.674L276.282 316.665L255.31 315.922L257.045 266.987Z" fill="#345E5A"/>
<path d="M285.572 268.275L295.191 269.081L300.2 298.914L300.34 298.925L302.789 269.718L309.62 270.291L305.528 319.086L297.652 318.425L291.437 282.034L291.298 282.022L288.311 317.642L281.48 317.069L285.572 268.275Z" fill="#345E5A"/>
<path d="M326.437 316.507C326.993 313.054 328.019 310.196 329.516 307.933C331.021 305.625 333.441 303.203 336.777 300.67C340.067 298.129 342.412 295.884 343.811 293.937C345.257 291.996 346.165 289.875 346.535 287.573C346.868 285.501 346.752 284.018 346.188 283.124C345.676 282.192 344.776 281.622 343.487 281.415C340.863 280.993 339.295 282.37 338.784 285.547L337.951 290.727L330.769 289.572L331.524 284.876C332.153 280.962 333.601 278.125 335.868 276.364C338.143 274.557 341.121 273.949 344.805 274.542C348.488 275.134 351.126 276.645 352.719 279.074C354.32 281.457 354.805 284.605 354.176 288.518C353.702 291.465 352.526 294.228 350.647 296.807C348.814 299.394 345.879 302.228 341.841 305.31C339.2 307.341 337.366 309.054 336.339 310.447C335.319 311.795 334.672 313.32 334.398 315.024L334.232 316.06L348.665 318.381L347.555 325.287L325.593 321.756L326.437 316.507Z" fill="#345E5A"/>
<path d="M364.582 329.558C360.887 328.775 358.281 327.127 356.763 324.613C355.246 322.099 354.893 318.926 355.704 315.094L361.037 289.91C361.848 286.078 363.457 283.32 365.863 281.637C368.269 279.953 371.32 279.503 375.015 280.286C378.71 281.068 381.317 282.716 382.834 285.23C384.351 287.744 384.704 290.917 383.893 294.75L378.561 319.933C377.749 323.766 376.14 326.523 373.734 328.207C371.328 329.89 368.278 330.34 364.582 329.558ZM366.031 322.714C368.632 323.265 370.265 321.966 370.932 318.818L376.467 292.677C377.133 289.529 376.166 287.68 373.566 287.129C370.966 286.578 369.332 287.877 368.666 291.025L363.13 317.167C362.464 320.315 363.431 322.164 366.031 322.714Z" fill="#345E5A"/>
<path d="M382.913 327.562C383.805 324.18 385.107 321.437 386.819 319.333C388.544 317.183 391.19 315.012 394.759 312.818C398.282 310.613 400.836 308.609 402.42 306.809C404.05 305.02 405.161 302.998 405.756 300.744C406.291 298.715 406.322 297.227 405.848 296.283C405.43 295.304 404.59 294.649 403.328 294.316C400.758 293.638 399.062 294.855 398.242 297.966L396.904 303.039L389.87 301.184L391.083 296.584C392.094 292.751 393.814 290.07 396.243 288.54C398.683 286.966 401.707 286.654 405.315 287.605C408.922 288.557 411.399 290.32 412.746 292.893C414.104 295.422 414.278 298.603 413.267 302.435C412.506 305.321 411.064 307.955 408.941 310.337C406.863 312.731 403.663 315.263 399.342 317.933C396.514 319.695 394.52 321.219 393.361 322.505C392.214 323.746 391.421 325.201 390.981 326.869L390.713 327.884L404.849 331.612L403.065 338.376L381.557 332.703L382.913 327.562Z" fill="#345E5A"/>
<path d="M419.391 344.235C415.79 343.094 413.374 341.226 412.141 338.634C410.953 336.056 410.951 332.9 412.135 329.166L413.34 325.365L420.275 327.564L418.964 331.698C417.991 334.765 418.772 336.701 421.305 337.504C422.55 337.899 423.603 337.817 424.465 337.259C425.386 336.67 426.156 335.398 426.776 333.442L427.982 329.641C428.658 327.507 428.76 325.876 428.286 324.747C427.826 323.574 426.752 322.72 425.063 322.184L422.596 321.402L424.71 314.734L427.377 315.58C428.844 316.045 430.053 316.013 431.004 315.482C431.999 314.966 432.779 313.819 433.342 312.041L434.421 308.641C434.928 307.04 434.968 305.757 434.541 304.789C434.114 303.822 433.345 303.163 432.234 302.81C429.878 302.063 428.242 303.134 427.325 306.024L426.353 309.091L419.418 306.892L420.201 304.425C421.385 300.691 423.205 298.112 425.662 296.69C428.163 295.282 431.148 295.127 434.615 296.227C438.127 297.34 440.476 299.186 441.665 301.765C442.867 304.299 442.876 307.433 441.692 311.167L441.163 312.834C440.36 315.367 439.289 317.278 437.951 318.566C436.627 319.81 434.971 320.483 432.981 320.586L432.939 320.719C434.625 322.037 435.636 323.629 435.973 325.498C436.31 327.366 436.084 329.544 435.295 332.034L433.984 336.168C432.8 339.902 430.957 342.473 428.456 343.881C426.013 345.259 422.991 345.377 419.391 344.235Z" fill="#345E5A"/>
<path d="M243 246V124M243 0V71V124M120 124H190H243M366 124H296H243M225 29.7027L243 124M243 124L217 57.9114M243 124L192.5 42.5048M243 124L185 65M243 124L165.068 68.5M243 124L178.173 95M243 124L150 102.084M243 124L261 29.7M243 124L269 57.9096M243 124L293.5 42.5025M243 124L301 64.9983M243 124L320.932 68.4984M243 124L307.827 94.9992M243 124L336 102.083M243 124L225 218.297M243 124L217 190.089M243 124L192.5 205.495M243 124L185 183M243 124L165.068 179.5M243 124L178.173 153M243 124L150 145.916M243 124L261 218.3M243 124L269 190.09M243 124L293.5 205.497M243 124L301 183.002M243 124L320.932 179.502M243 124L307.827 153.001M243 124L336 145.917" stroke="#DD430F" stroke-width="2"/>
<path fill-rule="evenodd" clip-rule="evenodd" d="M243 174C270.614 174 293 151.614 293 124C293 96.3858 270.614 74 243 74C215.386 74 193 96.3858 193 124C193 151.614 215.386 174 243 174Z" fill="#DD430F"/>
<path d="M286.77 136.297C286.77 127.807 286.729 119.359 286.77 110.868C287.142 110.33 287.68 109.916 288.135 109.419C287.597 108.839 286.48 107.762 286.48 107.762L285.984 108.301L270.677 87.2201L271.421 86.4746L269.849 84.9423L268.815 85.9362L244.407 77.943L244.613 77.736L243.083 76.1622L241.345 77.6945L241.593 77.9845C241.593 77.9845 225.293 83.327 217.185 85.8948C216.854 85.5635 216.109 84.9008 216.109 84.9008L214.496 86.516C214.496 86.516 214.992 87.013 215.24 87.2615C214.579 88.2555 213.834 89.208 213.131 90.202C208.745 96.2073 204.401 102.213 200.016 108.218C199.851 108.052 199.685 107.886 199.52 107.679C198.982 108.259 198.361 108.756 197.865 109.377C198.361 109.833 198.816 110.33 199.271 110.827C199.23 119.276 199.271 136.215 199.271 136.215L197.948 137.581L197.865 137.664C197.865 137.664 198.982 138.782 199.52 139.321C199.685 139.155 199.892 138.989 200.058 138.865C204.815 145.409 209.573 151.952 214.33 158.538C214.62 158.952 215.24 159.821 215.24 159.821L214.454 160.608C214.454 160.608 215.571 161.685 216.109 162.265C216.44 161.934 217.143 161.23 217.143 161.23C217.143 161.23 220.412 162.265 222.067 162.803C228.52 164.916 241.428 169.099 241.428 169.099L241.262 169.264L243 170.962L244.572 169.388L244.365 169.14C244.365 169.14 259.59 164.211 267.16 161.768C267.698 161.602 268.236 161.395 268.774 161.271C269.187 161.561 269.477 161.934 269.849 162.265C270.387 161.685 271.008 161.188 271.504 160.567C271.256 160.318 271.008 160.07 270.76 159.821C275.807 152.905 280.854 145.947 285.901 138.989C286.149 138.907 286.315 139.238 286.522 139.362C287.06 138.824 287.597 138.285 288.135 137.706C287.721 137.209 287.266 136.753 286.77 136.297ZM268.277 123.831H278.413L279.075 124.494L270.884 142.965L270.594 142.717L270.346 142.965L266.333 132.943L266.085 133.481C266.085 133.481 268.732 139.983 270.015 143.255C269.808 143.462 269.353 143.876 269.353 143.876C269.353 143.876 267.119 143.794 266.043 143.669C263.478 143.545 258.059 143.255 258.059 143.255L257.438 143.628L269.229 144.332C269.229 144.332 269.477 144.581 269.643 144.705C264.637 149.178 259.631 153.692 254.625 158.206C254.418 157.999 254.253 157.833 254.046 157.626C253.963 157.668 253.839 157.709 253.756 157.751C252.639 154.479 251.481 151.248 250.364 148.018C250.281 148.059 250.074 148.142 249.992 148.184C251.109 151.538 252.308 154.852 253.425 158.206C253.219 158.413 253.053 158.579 252.846 158.786C246.351 158.165 232.947 156.798 232.947 156.798L232.492 156.467C232.492 156.467 237.456 152.325 239.897 150.337C240.683 149.716 242.504 148.225 242.504 148.225L241.966 148.142L241.718 148.349L232.202 156.218L231.54 155.721C231.54 155.721 229.265 147.562 228.189 143.669C228.148 143.338 227.817 143.172 227.569 142.965C228.644 147.273 231.127 156.053 231.127 156.053L230.92 156.301L213.586 145.864L213.875 145.45L213.337 144.953L222.273 138.285L222.067 138.037C222.067 138.037 216.523 142.137 213.668 144.291C213.503 144.415 213.048 144.746 213.048 144.746L212.386 144.166C212.386 144.166 209.49 131.038 208.042 124.618C208.166 124.494 208.249 124.37 208.373 124.287C212.138 126.73 215.861 129.215 219.626 131.659C219.584 131.41 219.543 131.162 219.295 131.079C215.737 128.76 212.179 126.399 208.621 124.08C208.745 123.914 208.911 123.749 209.035 123.583C208.911 123.417 208.745 123.252 208.621 123.127C212.262 120.767 215.861 118.406 219.46 116.045C219.502 115.921 219.584 115.673 219.667 115.548C215.902 117.992 212.138 120.477 208.332 122.92C208.207 122.796 208.125 122.672 208.001 122.589C209.449 116.17 212.262 103.289 212.262 103.289L213.089 102.544L222.273 109.377L222.398 109.087L213.296 102.295L213.834 101.757C213.834 101.757 213.586 101.508 213.462 101.426C218.881 98.2366 224.301 95.089 229.679 91.9415C230.051 91.7344 230.713 91.3617 230.713 91.3617L231.003 91.7758C231.003 91.7758 228.727 100.059 227.569 104.159C227.734 104.076 227.941 103.952 228.107 103.828C229.141 99.8932 231.334 92.0657 231.334 92.0657L232.202 91.3617L241.221 98.8579L241.842 98.8993L232.533 91.0717C232.533 91.0717 232.864 90.6576 233.154 90.6162C233.154 90.6162 246.227 89.2909 252.763 88.6282C252.97 88.8353 253.136 89.001 253.343 89.208C252.184 92.6455 249.785 99.5205 249.785 99.5205L250.24 99.5619C250.24 99.5619 250.654 98.3195 250.86 97.6982C251.771 95.0062 253.715 89.498 253.715 89.498L253.963 89.705C253.963 89.705 254.335 89.3323 254.542 89.1252C259.548 93.5981 269.56 102.627 269.56 102.627L269.146 103.041C269.146 103.041 261.41 103.455 257.604 103.703C257.728 103.786 257.976 103.993 258.1 104.118C261.865 103.911 265.588 103.662 269.353 103.496C269.56 103.703 269.725 103.869 269.932 104.076C268.815 106.975 267.615 109.833 266.457 112.732C266.209 113.395 265.754 114.057 266.043 114.803C267.45 111.407 270.222 104.408 270.222 104.408L270.429 104.573L270.76 104.325L278.951 122.796L278.248 123.459L267.988 123.5L268.277 123.831ZM271.256 103.952L271.215 103.869L271.421 103.662C271.421 103.662 278.082 106.313 281.392 107.597C282.633 108.094 285.156 109.087 285.156 109.087L284.867 109.377C284.867 109.377 285.487 109.999 285.818 110.289C283.957 114.223 280.068 122.382 280.068 122.382L279.737 122.051L279.447 122.299C279.447 122.34 273.986 110.081 271.256 103.952ZM270.304 87.6343L270.387 87.5514L270.801 88.1312L285.653 108.632L285.529 108.756L271.752 103.289L272.042 102.999C272.042 102.999 271.215 102.171 270.842 101.798C270.677 98.3195 270.553 94.882 270.387 91.4031C270.387 90.1606 270.18 88.9181 270.304 87.6343ZM269.725 87.7999C269.725 87.7999 270.139 97.2841 270.387 101.84C270.263 101.964 270.139 102.088 270.056 102.213C265.05 97.7396 260.045 93.2253 255.039 88.7111C255.204 88.5454 255.328 88.3797 255.494 88.2555C259.879 87.7999 268.732 86.8888 268.732 86.8888L269.725 87.7999ZM251.977 80.9664C257.149 82.6644 262.361 84.3624 267.533 86.0191C267.822 86.1433 268.567 86.3918 268.567 86.3918C268.567 86.3918 259.631 87.3444 255.204 87.7999C254.832 87.4272 254.046 86.6403 254.046 86.6403L253.343 87.2615C253.343 87.2615 247.054 81.3391 243.952 78.3572C246.682 79.1855 249.33 80.0966 251.977 80.9664ZM243.041 79.434C243.041 79.434 243.538 78.9784 243.786 78.7299C246.847 81.629 253.177 87.5514 253.177 87.5514L252.681 88.0484C252.681 88.0484 239.484 89.4151 232.864 90.0364C232.782 89.9535 232.657 89.8293 232.575 89.7464C235.843 86.1019 242.421 78.7713 242.421 78.7713L243.041 79.434ZM217.557 86.309C217.557 86.309 233.568 81.132 241.511 78.5229L241.883 78.3572L242.048 78.5229C242.048 78.5229 237.663 83.4513 235.429 85.9362C234.354 87.0959 233.319 88.3383 232.202 89.498C232.037 89.3323 231.665 88.9596 231.665 88.9596L230.506 89.9121L217.392 86.6403L217.599 86.4332L217.557 86.309ZM216.068 87.9656L217.102 86.9716C217.102 86.9716 225.914 89.1666 230.217 90.2434C230.341 90.4091 230.465 90.6162 230.589 90.7818C224.838 94.1365 213.296 100.929 213.296 100.929L212.965 100.68C212.965 100.68 214.992 92.397 216.026 88.2969L216.068 87.9656ZM215.53 87.7999C215.034 90.2849 214.372 92.6869 213.792 95.1719C213.379 96.8285 212.51 100.39 212.51 100.39L212.427 100.307L210.938 101.757C210.938 101.757 211.228 102.005 211.352 102.13C207.711 104.325 204.112 106.478 200.471 108.632C205.477 101.633 210.524 94.7163 215.53 87.7999ZM201.175 109.419C201.05 109.253 200.885 109.087 200.761 108.88C204.401 106.727 208.001 104.532 211.641 102.378C211.724 102.461 211.848 102.585 211.931 102.668C210.566 109.129 209.118 115.548 207.711 122.009C207.546 122.133 207.38 122.299 207.215 122.423C204.898 118.365 202.622 114.306 200.306 110.289C200.595 109.999 200.885 109.709 201.175 109.419ZM199.851 136.505C199.768 135.966 199.768 135.428 199.768 134.889C199.768 126.938 199.768 119.027 199.768 111.075C199.809 110.91 199.727 110.578 199.975 110.703C202.292 114.72 204.608 118.737 206.884 122.796C206.594 123.044 206.346 123.334 206.098 123.624C206.346 123.873 206.594 124.121 206.884 124.37C204.774 128.056 202.622 131.742 200.513 135.428C200.388 135.8 200.182 136.215 199.851 136.505ZM207.215 124.701C207.38 124.825 207.546 124.991 207.711 125.115C209.118 131.41 211.931 144.498 211.931 144.498L211.683 144.788C211.683 144.788 204.401 140.398 200.761 138.203C200.926 138.037 201.05 137.871 201.216 137.747C200.926 137.457 200.637 137.167 200.347 136.877C202.581 132.736 204.939 128.718 207.215 124.701ZM200.43 138.451C204.07 140.605 207.752 142.841 211.393 145.036C211.269 145.16 210.979 145.409 210.979 145.409L212.593 146.858C212.593 146.858 214.661 155.224 215.613 159.324C210.524 152.408 205.477 145.409 200.43 138.451ZM215.985 158.869C215.985 158.869 213.958 150.627 212.924 146.527C213.006 146.444 213.131 146.279 213.172 146.196C218.964 149.55 230.672 156.384 230.672 156.384L230.258 156.881L217.226 160.07L215.985 158.869ZM240.476 168.187C232.864 165.702 217.557 160.733 217.557 160.733L217.764 160.525L217.64 160.401L230.713 157.212C231.044 157.544 231.375 157.875 231.706 158.206C231.871 157.999 232.037 157.833 232.244 157.668C234.395 159.987 236.463 162.389 238.615 164.708C239.773 166.034 241.014 167.318 242.131 168.684C241.552 168.602 241.014 168.353 240.476 168.187ZM243.083 167.69L242.379 168.312C242.379 168.312 235.802 161.022 232.533 157.378L232.782 157.088C232.782 157.088 246.186 158.455 252.639 159.076C252.805 159.283 253.219 159.49 252.929 159.78C249.95 162.555 243.745 168.353 243.745 168.353L243.083 167.69ZM252.06 166.117C249.371 166.986 246.723 167.897 244.034 168.684C247.137 165.702 250.281 162.803 253.384 159.863C253.632 160.07 253.798 160.318 254.087 160.443C254.501 160.111 254.832 159.697 255.204 159.324C258.307 159.656 261.451 159.946 264.554 160.277C265.878 160.443 267.202 160.443 268.484 160.733C263.023 162.555 257.521 164.294 252.06 166.117ZM269.725 158.993C269.477 159.449 269.022 159.78 268.65 160.111C268.112 160.153 267.574 160.07 267.036 160.029C263.189 159.656 259.3 159.283 255.453 158.91C255.287 158.745 255.163 158.579 254.997 158.455C260.003 153.982 265.009 149.468 270.015 144.953C270.139 145.078 270.263 145.202 270.346 145.285C270.139 149.84 269.974 154.437 269.725 158.993ZM278.703 148.018C275.931 151.828 273.159 155.638 270.429 159.449C270.139 159.159 270.263 158.786 270.263 158.413C270.47 154.065 270.635 149.716 270.842 145.367C271.256 144.953 272.083 144.166 272.083 144.166L271.835 143.835C271.835 143.835 280.688 140.273 285.032 138.534C285.239 138.451 285.446 138.41 285.694 138.368C283.419 141.599 281.019 144.788 278.703 148.018ZM284.867 137.664C284.95 137.747 285.074 137.913 285.156 137.954C280.606 139.776 276.096 141.64 271.546 143.421C271.504 143.338 271.38 143.214 271.297 143.131C274.028 137.002 276.717 130.872 279.489 124.743C279.571 124.825 279.696 124.908 279.82 125.032C279.902 124.95 280.068 124.784 280.151 124.701C282.054 128.677 283.957 132.653 285.86 136.629C285.487 137.043 285.156 137.374 284.867 137.664ZM286.273 119.359C286.273 123.707 286.273 128.056 286.273 132.363C286.273 133.688 286.315 135.055 286.232 136.38C285.86 135.842 285.612 135.221 285.322 134.641C283.709 131.203 282.012 127.849 280.399 124.411C280.688 124.163 280.978 123.873 281.268 123.541C280.978 123.252 280.688 123.003 280.399 122.713C281.681 119.897 283.047 117.122 284.37 114.347C284.991 113.105 285.487 111.821 286.191 110.661C286.315 113.56 286.232 116.459 286.273 119.359Z" fill="#F3E1B8"/>
<path d="M244.531 100.142C242.214 99.6448 239.856 99.1892 237.539 98.6922C237.167 98.568 236.877 98.8579 236.588 99.0235C234.891 100.142 233.154 101.219 231.458 102.378C233.568 102.13 235.636 101.674 237.705 101.343C239.98 100.929 242.255 100.597 244.531 100.142Z" fill="#F3E1B8"/>
<path d="M245.689 99.4377C245.772 99.6448 245.855 99.8104 245.937 100.018C247.716 99.8519 249.495 99.9347 251.274 99.6862C247.84 99.4377 244.407 99.1064 240.973 98.8579C240.394 98.8165 239.814 98.7336 239.235 98.7751C241.014 99.1478 242.835 99.5205 244.613 99.8933C244.986 99.7276 245.317 99.6034 245.689 99.4377Z" fill="#F3E1B8"/>
<path d="M252.474 102.502C254.501 103.165 256.487 103.952 258.514 104.573C256.652 102.999 254.832 101.467 252.97 99.9347C250.736 100.1 248.502 100.142 246.268 100.266C248.295 101.094 250.364 101.757 252.474 102.502Z" fill="#F3E1B8"/>
<path d="M235.967 109.792L236.133 109.999C236.133 109.999 242.048 103.579 244.903 100.432C243.786 100.515 242.669 100.804 241.552 100.97C238.118 101.55 234.726 102.13 231.292 102.71C231.251 102.751 231.127 102.917 231.085 102.958C232.616 105.277 235.677 109.957 235.677 109.957L235.967 109.792Z" fill="#F3E1B8"/>
<path d="M245.441 100.597C245.11 100.722 244.903 101.012 244.696 101.26C242.379 103.786 240.063 106.313 237.787 108.839C237.332 109.336 236.794 109.833 236.422 110.413C237.332 110.578 238.284 110.578 239.194 110.661C243.29 110.993 252.805 111.78 252.805 111.78L252.763 111.697L253.053 111.614C253.012 111.572 247.923 104.242 245.441 100.597Z" fill="#F3E1B8"/>
<path d="M247.427 101.012C246.889 100.846 246.392 100.597 245.813 100.556C248.295 104.201 253.343 111.448 253.343 111.448L253.88 111.283C253.88 111.283 257.397 107.058 258.969 105.112C258.39 104.822 257.769 104.656 257.19 104.449C253.88 103.331 250.654 102.171 247.427 101.012Z" fill="#F3E1B8"/>
<path d="M222.315 114.14C226.576 113.022 235.305 110.578 235.305 110.578L235.14 110.33L235.388 110.164C235.388 110.164 232.327 105.443 230.837 103.124C230.589 103.248 230.382 103.414 230.217 103.662C228.479 105.981 226.742 108.259 225.004 110.578C224.094 111.697 223.142 112.856 222.315 114.14Z" fill="#F3E1B8"/>
<path d="M230.134 103.165C228.065 104.283 226.079 105.443 224.011 106.603C223.68 106.727 223.556 107.058 223.514 107.348C223.101 109.46 222.522 111.572 222.149 113.726C224.838 110.206 227.527 106.727 230.134 103.165Z" fill="#F3E1B8"/>
<path d="M254.211 112.111C254.211 112.111 258.266 114.099 260.293 115.093C262.155 115.962 263.975 116.915 265.836 117.743C264.802 115.797 263.768 113.85 262.734 111.904C261.575 109.75 260.5 107.555 259.259 105.443L254.087 111.697L254.211 112.111Z" fill="#F3E1B8"/>
<path d="M265.63 114.927C265.423 113.436 265.216 111.987 264.968 110.496C264.926 110.164 264.637 109.999 264.43 109.792C262.858 108.466 261.368 107.017 259.796 105.691C261.824 109.584 263.892 113.395 265.919 117.288C265.878 116.501 265.712 115.714 265.63 114.927Z" fill="#F3E1B8"/>
<path d="M221.156 114.14C221.156 114.14 221.612 113.933 221.818 113.85C222.191 112.359 222.522 110.827 222.853 109.295C222.935 108.922 223.018 108.549 223.059 108.218C222.729 108.839 222.48 109.543 222.191 110.206C220.825 113.478 219.419 116.749 218.095 120.063C219.212 118.489 221.446 114.886 221.446 114.886L221.156 114.14Z" fill="#F3E1B8"/>
<path d="M222.398 114.472L222.191 114.761C222.191 114.761 226.121 121.678 228.107 125.115C228.355 125.571 228.562 126.068 228.934 126.399C229.761 124.66 230.423 122.879 231.168 121.139C232.492 117.95 233.816 114.761 235.181 111.572C235.264 111.365 235.305 111.117 235.346 110.91C234.064 111.158 232.823 111.572 231.54 111.904C228.603 112.732 222.398 114.472 222.398 114.472Z" fill="#F3E1B8"/>
<path d="M238.449 114.43C240.187 117.246 243.621 122.837 243.621 122.837L244.158 122.713L252.97 112.359L252.887 112.152C252.887 112.152 243.538 111.365 238.863 110.951C238.118 110.951 236.422 110.744 236.422 110.744L236.339 110.827L238.449 114.43Z" fill="#F3E1B8"/>
<path d="M235.222 112.566C233.361 116.998 231.499 121.429 229.637 125.902C229.555 126.109 229.472 126.358 229.43 126.606C230.382 126.441 231.333 126.192 232.244 125.985C235.843 125.157 243.248 123.376 243.248 123.376L243.124 123.003L243.248 122.962C243.248 122.962 238.366 115.01 235.926 111.117C235.595 111.531 235.429 112.069 235.222 112.566Z" fill="#F3E1B8"/>
<path d="M258.183 128.346C260.748 124.991 263.313 121.636 265.878 118.323C265.795 118.282 265.671 118.157 265.588 118.075C261.823 116.252 254.335 112.608 254.335 112.608L254.129 112.525L253.88 112.608C255.163 117.95 256.404 123.293 257.645 128.636C257.81 128.553 258.059 128.511 258.183 128.346Z" fill="#F3E1B8"/>
<path d="M244.655 123.624C244.655 123.624 253.094 127.227 257.273 128.967C257.025 127.476 256.611 126.026 256.28 124.577C255.37 120.642 253.508 112.732 253.508 112.732L253.26 112.815C250.323 116.211 244.531 123.045 244.531 123.045L244.655 123.624Z" fill="#F3E1B8"/>
<path d="M266.788 118.157C266.788 118.157 266.664 117.246 266.54 116.791C266.209 115.465 265.961 114.099 265.547 112.773C265.712 114.306 266.209 117.453 266.209 117.453L266.788 118.157Z" fill="#F3E1B8"/>
<path d="M221.901 115.01C221.281 119.359 220.577 123.749 219.957 128.097C219.915 128.346 219.957 128.594 219.957 128.843C220.826 128.718 221.653 128.47 222.522 128.304C224.466 127.849 226.369 127.435 228.314 126.979C228.314 126.896 228.272 126.731 228.272 126.648C228.355 126.565 228.603 126.482 228.438 126.316C226.369 122.672 224.301 119.027 222.232 115.383C222.108 115.217 222.025 115.093 221.901 115.01Z" fill="#F3E1B8"/>
<path d="M221.529 115.176C220.246 117.081 219.047 119.069 217.764 121.015C217.557 121.264 217.599 121.554 217.681 121.843C218.219 123.79 218.798 125.695 219.378 127.642C219.419 127.849 219.543 128.056 219.626 128.263C220.246 123.914 220.991 119.566 221.529 115.176Z" fill="#F3E1B8"/>
<path d="M267.946 123.252C267.781 121.636 267.243 120.104 266.953 118.489C266.829 118.53 266.623 118.654 266.498 118.696C266.995 120.228 267.491 121.719 267.946 123.252Z" fill="#F3E1B8"/>
<path d="M266.002 118.737C263.313 122.092 260.789 125.571 258.1 128.967C258.141 129.133 258.224 129.257 258.307 129.423C260.748 130.458 263.189 131.576 265.63 132.653C265.754 130.789 265.754 128.926 265.836 127.062C265.836 124.287 266.043 121.512 266.002 118.737Z" fill="#F3E1B8"/>
<path d="M266.333 119.069C266.209 123.417 266.085 127.766 266.002 132.073C266.871 129.961 267.698 127.807 268.526 125.695C268.36 124.95 268.071 124.204 267.822 123.459C267.326 122.009 266.912 120.518 266.333 119.069Z" fill="#F3E1B8"/>
<path d="M242.462 135.511C242.793 131.907 243.497 124.246 243.497 124.246L243.372 123.79C243.372 123.79 234.147 125.944 229.596 127.02C229.72 127.186 229.762 127.393 229.927 127.559C234.023 131.079 238.077 134.599 242.131 138.12C242.38 137.25 242.338 136.38 242.462 135.511Z" fill="#F3E1B8"/>
<path d="M250.364 133.523C252.557 132.156 254.791 130.872 256.983 129.505C256.983 129.464 256.983 129.381 256.983 129.381C252.929 127.6 244.614 124.08 244.614 124.08L243.993 124.204C243.579 128.346 243.207 132.529 242.835 136.67C242.793 137.126 242.71 137.623 242.835 138.078C245.358 136.587 247.84 135.055 250.364 133.523Z" fill="#F3E1B8"/>
<path d="M218.426 125.447C218.674 126.523 218.881 127.642 219.212 128.718C219.46 128.47 219.253 128.097 219.171 127.807C218.922 127.02 218.757 126.192 218.426 125.447Z" fill="#F3E1B8"/>
<path d="M227.982 140.729C228.231 136.422 228.479 132.115 228.727 127.807C228.603 127.6 228.52 127.393 228.396 127.186C225.666 127.807 222.894 128.47 220.163 129.05C220.122 129.133 220.081 129.298 220.039 129.381C221.611 131.659 223.225 133.937 224.797 136.215C225.873 137.747 226.865 139.279 227.982 140.729Z" fill="#F3E1B8"/>
<path d="M229.72 140.729C233.692 139.983 237.705 139.238 241.717 138.492C241.676 138.368 241.635 138.244 241.593 138.12C237.87 134.931 234.188 131.742 230.465 128.511C230.051 128.139 229.637 127.724 229.182 127.476C228.851 131.949 228.686 136.422 228.355 140.895C228.81 140.977 229.265 140.812 229.72 140.729Z" fill="#F3E1B8"/>
<path d="M219.502 129.671C219.46 130.085 219.584 130.458 219.667 130.872C219.833 131.535 219.957 132.197 220.122 132.86C220.122 132.156 219.915 131.493 219.833 130.831C219.75 130.416 219.791 129.961 219.502 129.671Z" fill="#F3E1B8"/>
<path d="M225.418 137.581C223.597 134.972 221.777 132.322 219.915 129.754C220.246 131.949 220.701 134.102 221.074 136.297C221.115 136.587 221.239 136.919 221.529 137.043C223.556 138.285 225.542 139.528 227.569 140.729C226.907 139.652 226.121 138.617 225.418 137.581Z" fill="#F3E1B8"/>
<path d="M257.687 129.961C257.066 134.31 256.363 138.617 255.825 142.965C256.197 142.675 256.57 142.344 256.859 141.971C259.714 138.989 262.61 136.049 265.464 133.067C263.023 131.907 260.541 130.913 258.059 129.795C257.976 129.837 257.811 129.92 257.687 129.961Z" fill="#F3E1B8"/>
<path d="M244.076 138.989C247.84 140.398 251.564 141.847 255.328 143.255C255.618 142.593 255.577 141.847 255.742 141.102C256.28 137.457 256.818 133.813 257.314 130.209C257.273 130.127 257.149 129.961 257.107 129.878C252.432 132.736 247.716 135.552 243.041 138.451C243.29 138.782 243.703 138.824 244.076 138.989Z" fill="#F3E1B8"/>
<path d="M261.865 137.209C260.045 139.197 258.059 141.06 256.28 143.048C258.266 142.137 260.21 141.226 262.196 140.356C262.485 140.232 262.568 139.901 262.734 139.652C263.602 137.664 264.513 135.676 265.381 133.688C264.14 134.807 263.065 136.049 261.865 137.209Z" fill="#F3E1B8"/>
<path d="M227.859 141.971C227.734 141.64 227.61 141.309 227.445 141.019C227.238 140.812 226.99 140.688 226.742 140.522C225.252 139.611 223.804 138.7 222.315 137.83C222.811 138.368 223.432 138.824 223.97 139.321C226.204 141.267 228.479 143.214 230.713 145.16C231.21 145.575 231.623 145.989 232.161 146.32C230.92 144.788 229.679 143.297 228.396 141.764C228.189 141.806 228.024 141.889 227.859 141.971Z" fill="#F3E1B8"/>
<path d="M241.842 138.782C237.456 139.611 233.071 140.398 228.645 141.267C228.934 141.474 229.224 141.681 229.555 141.847C231.871 143.007 234.23 144.125 236.546 145.326C238.077 146.072 239.525 146.858 241.097 147.521C241.428 144.912 241.718 142.303 242.007 139.735C242.131 139.362 241.966 139.072 241.842 138.782Z" fill="#F3E1B8"/>
<path d="M254.956 143.587C254.253 143.172 253.425 142.965 252.681 142.675C249.454 141.433 246.227 140.232 243 138.99C242.917 139.031 242.71 139.114 242.628 139.155C242.421 140.563 242.297 141.93 242.09 143.338C241.924 144.746 241.718 146.154 241.635 147.563C242.669 147.314 243.621 146.983 244.655 146.693C248.047 145.616 251.522 144.622 254.956 143.587Z" fill="#F3E1B8"/>
<path d="M256.28 143.835C255.949 143.959 255.618 144.125 255.246 144.249C255.204 144.208 255.08 144.125 254.997 144.084C253.591 145.202 252.102 146.196 250.736 147.397C254.129 145.367 257.521 143.297 260.913 141.226C259.3 141.847 257.728 142.675 256.156 143.338C256.197 143.504 256.239 143.669 256.28 143.835Z" fill="#F3E1B8"/>
<path d="M232.947 146.858C233.154 147.231 233.609 147.107 233.981 147.19C236.174 147.273 238.325 147.563 240.518 147.563C236.588 145.657 232.699 143.669 228.81 141.764C230.134 143.504 231.582 145.16 232.947 146.858Z" fill="#F3E1B8"/>
<path d="M250.943 145.078C247.964 145.989 244.986 146.817 242.048 147.77C244.2 148.018 246.351 148.225 248.502 148.474C248.957 148.556 249.247 148.225 249.578 147.977C251.315 146.61 253.094 145.326 254.832 143.959C253.508 144.291 252.226 144.705 250.943 145.078Z" fill="#F3E1B8"/>
<path d="M178.5 445L210.75 477.25L243 445L275.25 477.25L307.5 445L339.75 477.25L372 509.5L339.75 541.75L307.5 574L275.25 541.75L243 574L210.75 541.75L178.5 574L146.25 541.75L114 509.5L146.25 477.25L178.5 445Z" fill="#345E5A"/>
<path d="M114 509.5L146.25 477.25L178.5 509.5L210.75 477.25L243 509.5L275.25 477.25L307.5 509.5L339.75 477.25L372 509.5L339.75 541.75L307.5 509.5L275.25 541.75L243 509.5L210.75 541.75L178.5 509.5L146.25 541.75L114 509.5Z" fill="#3C817A"/>
<path d="M193.8 525.5V517.38C193.45 517.403 193.1 517.427 192.75 517.45C192.423 517.473 192.097 517.485 191.77 517.485C190.183 517.485 188.912 517.298 187.955 516.925C187.022 516.552 186.357 515.992 185.96 515.245C185.563 514.475 185.365 513.542 185.365 512.445V505.27H190.615V512.165C190.615 512.888 190.755 513.437 191.035 513.81C191.338 514.16 191.945 514.358 192.855 514.405C192.995 514.405 193.135 514.393 193.275 514.37C193.438 514.347 193.613 514.335 193.8 514.335V505.27H199.085V525.5H193.8ZM211.279 525.5V508.91H207.569V505.27H220.239V508.91H216.529V525.5H211.279ZM234.827 525.85C233.38 525.85 232.143 525.593 231.117 525.08C230.09 524.543 229.308 523.773 228.772 522.77C228.258 521.767 228.002 520.518 228.002 519.025V511.745C228.002 510.252 228.258 509.003 228.772 508C229.308 506.997 230.09 506.238 231.117 505.725C232.143 505.188 233.38 504.92 234.827 504.92C236.273 504.92 237.51 505.188 238.537 505.725C239.563 506.238 240.345 506.997 240.882 508C241.418 509.003 241.687 510.252 241.687 511.745V519.025C241.687 520.518 241.418 521.767 240.882 522.77C240.345 523.773 239.563 524.543 238.537 525.08C237.51 525.593 236.273 525.85 234.827 525.85ZM234.862 522.28C235.305 522.28 235.643 522.163 235.877 521.93C236.11 521.673 236.262 521.335 236.332 520.915C236.402 520.472 236.437 519.97 236.437 519.41V511.395C236.437 510.812 236.402 510.31 236.332 509.89C236.262 509.47 236.11 509.132 235.877 508.875C235.643 508.618 235.305 508.49 234.862 508.49C234.418 508.49 234.08 508.618 233.847 508.875C233.613 509.132 233.45 509.47 233.357 509.89C233.287 510.31 233.252 510.812 233.252 511.395V519.41C233.252 519.97 233.287 520.472 233.357 520.915C233.45 521.335 233.613 521.673 233.847 521.93C234.08 522.163 234.418 522.28 234.862 522.28ZM251.336 515.315V511.85H260.121V515.315H251.336ZM272.584 525.5V508.91H268.874V505.27H281.544V508.91H277.834V525.5H272.584ZM296.131 525.85C294.685 525.85 293.448 525.593 292.421 525.08C291.395 524.543 290.613 523.773 290.076 522.77C289.563 521.767 289.306 520.518 289.306 519.025V511.745C289.306 510.252 289.563 509.003 290.076 508C290.613 506.997 291.395 506.238 292.421 505.725C293.448 505.188 294.685 504.92 296.131 504.92C297.578 504.92 298.815 505.188 299.841 505.725C300.868 506.238 301.65 506.997 302.186 508C302.723 509.003 302.991 510.252 302.991 511.745V519.025C302.991 520.518 302.723 521.767 302.186 522.77C301.65 523.773 300.868 524.543 299.841 525.08C298.815 525.593 297.578 525.85 296.131 525.85ZM296.166 522.28C296.61 522.28 296.948 522.163 297.181 521.93C297.415 521.673 297.566 521.335 297.636 520.915C297.706 520.472 297.741 519.97 297.741 519.41V511.395C297.741 510.812 297.706 510.31 297.636 509.89C297.566 509.47 297.415 509.132 297.181 508.875C296.948 508.618 296.61 508.49 296.166 508.49C295.723 508.49 295.385 508.618 295.151 508.875C294.918 509.132 294.755 509.47 294.661 509.89C294.591 510.31 294.556 510.812 294.556 511.395V519.41C294.556 519.97 294.591 520.472 294.661 520.915C294.755 521.335 294.918 521.673 295.151 521.93C295.385 522.163 295.723 522.28 296.166 522.28Z" fill="#F3E1B8"/>
<path d="M126.5 389L146 369.5H339L358.5 389L339 408.5H146L126.5 389Z" fill="#F3E1B8" stroke="#345E5A" stroke-width="5"/>
<path d="M179.8 401V376.7H186.49C188.13 376.7 189.55 376.88 190.75 377.24C191.95 377.6 192.88 378.25 193.54 379.19C194.22 380.11 194.56 381.42 194.56 383.12C194.56 384.12 194.48 385.01 194.32 385.79C194.16 386.57 193.86 387.25 193.42 387.83C193 388.39 192.39 388.86 191.59 389.24L194.92 401H189.37L186.7 390.11H185.17V401H179.8ZM185.17 387.02H186.67C187.43 387.02 188.02 386.89 188.44 386.63C188.86 386.35 189.15 385.96 189.31 385.46C189.49 384.94 189.58 384.32 189.58 383.6C189.58 382.56 189.39 381.75 189.01 381.17C188.63 380.59 187.93 380.3 186.91 380.3H185.17V387.02ZM211.288 401V376.7H222.208V380.36H216.658V386.39H220.888V390.11H216.658V397.37H222.268V401H211.288ZM240.396 401V380.69H236.736V376.7H249.426V380.69H245.796V401H240.396ZM265.066 401V376.7H271.756C273.396 376.7 274.816 376.88 276.016 377.24C277.216 377.6 278.146 378.25 278.806 379.19C279.486 380.11 279.826 381.42 279.826 383.12C279.826 384.12 279.746 385.01 279.586 385.79C279.426 386.57 279.126 387.25 278.686 387.83C278.266 388.39 277.656 388.86 276.856 389.24L280.186 401H274.636L271.966 390.11H270.436V401H265.066ZM270.436 387.02H271.936C272.696 387.02 273.286 386.89 273.706 386.63C274.126 386.35 274.416 385.96 274.576 385.46C274.756 384.94 274.846 384.32 274.846 383.6C274.846 382.56 274.656 381.75 274.276 381.17C273.896 380.59 273.196 380.3 272.176 380.3H270.436V387.02ZM303.28 401.36C301.46 401.36 300.02 401.04 298.96 400.4C297.9 399.76 297.14 398.84 296.68 397.64C296.22 396.44 295.99 395.01 295.99 393.35V384.32C295.99 382.64 296.22 381.21 296.68 380.03C297.14 378.85 297.9 377.95 298.96 377.33C300.02 376.69 301.46 376.37 303.28 376.37C305.12 376.37 306.57 376.69 307.63 377.33C308.71 377.95 309.48 378.85 309.94 380.03C310.4 381.21 310.63 382.64 310.63 384.32V393.35C310.63 395.01 310.4 396.44 309.94 397.64C309.48 398.84 308.71 399.76 307.63 400.4C306.57 401.04 305.12 401.36 303.28 401.36ZM303.28 397.55C303.84 397.55 304.25 397.41 304.51 397.13C304.77 396.85 304.94 396.49 305.02 396.05C305.1 395.61 305.14 395.16 305.14 394.7V383C305.14 382.52 305.1 382.07 305.02 381.65C304.94 381.21 304.77 380.85 304.51 380.57C304.25 380.29 303.84 380.15 303.28 380.15C302.76 380.15 302.37 380.29 302.11 380.57C301.85 380.85 301.68 381.21 301.6 381.65C301.52 382.07 301.48 382.52 301.48 383V394.7C301.48 395.16 301.51 395.61 301.57 396.05C301.65 396.49 301.81 396.85 302.05 397.13C302.31 397.41 302.72 397.55 303.28 397.55Z" fill="#DD430F"/>
</svg>
