<svg width="790" height="790" viewBox="0 0 790 790" fill="none" xmlns="http://www.w3.org/2000/svg">
<path d="M446.867 72.4639L502.632 28.4393L525.743 95.6237L528.311 103.09L535.635 100.142L601.544 73.611L604.791 144.585L605.151 152.472L613.01 151.707L683.723 144.82L666.843 213.833L664.967 221.503L672.722 222.983L742.512 236.297L706.872 297.759L702.911 304.589L709.936 308.194L773.147 340.631L721.635 389.562L715.91 395L721.635 400.438L773.147 449.369L709.936 481.806L702.911 485.411L706.872 492.241L742.512 553.703L672.722 567.018L664.967 568.497L666.843 576.167L683.723 645.18L613.01 638.293L605.151 637.528L604.791 645.415L601.544 716.389L535.635 689.858L528.311 686.91L525.743 694.376L502.632 761.561L446.867 717.536L440.67 712.644L436.103 719.084L395 777.036L353.897 719.084L349.33 712.644L343.133 717.536L287.368 761.561L264.257 694.376L261.689 686.91L254.365 689.858L188.456 716.389L185.209 645.415L184.849 637.528L176.99 638.293L106.277 645.18L123.157 576.167L125.033 568.497L117.278 567.018L47.488 553.703L83.1283 492.241L87.089 485.411L80.0643 481.806L16.8528 449.369L68.3653 400.438L74.0899 395L68.3653 389.562L16.8528 340.631L80.0643 308.194L87.089 304.589L83.1283 297.759L47.488 236.297L117.278 222.983L125.033 221.503L123.157 213.833L106.277 144.82L176.99 151.707L184.849 152.472L185.209 144.585L188.456 73.611L254.365 100.142L261.689 103.09L264.257 95.6237L287.368 28.4393L343.133 72.4639L349.33 77.3564L353.897 70.9161L395 12.9642L436.103 70.9161L440.67 77.3564L446.867 72.4639Z" fill="#345E5A" stroke="#DD430F" stroke-width="15"/>
<path d="M228.19 277.88V266.36C227.53 266.42 226.81 266.48 226.03 266.54C225.25 266.6 224.5 266.63 223.78 266.63C220.3 266.63 217.24 266 214.6 264.74C211.96 263.48 209.89 261.5 208.39 258.8C206.95 256.04 206.23 252.47 206.23 248.09V227.93C206.23 223.79 206.95 220.34 208.39 217.58C209.89 214.82 211.96 212.75 214.6 211.37C217.3 209.99 220.45 209.3 224.05 209.3C224.77 209.3 225.52 209.33 226.3 209.39C227.08 209.39 227.71 209.42 228.19 209.48V196.7H239.8V209.48C240.34 209.42 240.97 209.39 241.69 209.39C242.47 209.33 243.19 209.3 243.85 209.3C247.57 209.3 250.75 209.99 253.39 211.37C256.09 212.75 258.16 214.85 259.6 217.67C261.1 220.43 261.85 223.85 261.85 227.93V248.09C261.85 252.47 261.13 256.04 259.69 258.8C258.25 261.5 256.3 263.51 253.84 264.83C251.44 266.09 248.74 266.72 245.74 266.72C244.78 266.72 243.79 266.69 242.77 266.63C241.81 266.57 240.82 266.51 239.8 266.45V277.88H228.19ZM226.03 258.53C226.39 258.53 226.78 258.53 227.2 258.53C227.62 258.47 227.95 258.41 228.19 258.35V217.4C227.77 217.34 227.32 217.31 226.84 217.31C226.42 217.25 226 217.22 225.58 217.22C223.84 217.22 222.4 217.58 221.26 218.3C220.18 219.02 219.37 220.16 218.83 221.72C218.29 223.28 218.02 225.32 218.02 227.84V248.18C218.02 250.64 218.23 252.62 218.65 254.12C219.13 255.62 219.94 256.73 221.08 257.45C222.22 258.17 223.87 258.53 226.03 258.53ZM242.32 258.44C244.3 258.44 245.83 258.11 246.91 257.45C248.05 256.79 248.83 255.71 249.25 254.21C249.73 252.65 249.97 250.64 249.97 248.18V227.84C249.97 225.26 249.73 223.19 249.25 221.63C248.77 220.07 247.99 218.96 246.91 218.3C245.89 217.58 244.45 217.22 242.59 217.22C242.11 217.22 241.63 217.25 241.15 217.31C240.67 217.31 240.22 217.34 239.8 217.4V258.26C240.16 258.32 240.55 258.38 240.97 258.44C241.45 258.44 241.9 258.44 242.32 258.44ZM271.742 275V202.1H282.632V248.09L302.612 202.1H311.522V275H300.542V228.29L280.472 275H271.742ZM322.895 275V202.1H336.125V232.61H350.975V202.1H364.295V275H350.975V242.06H336.125V275H322.895ZM371.759 275L386.339 202.1H400.559L415.139 275H402.809L399.929 258.17H387.239L384.269 275H371.759ZM388.589 249.71H398.489L393.539 219.11L388.589 249.71ZM417.43 275V265.46C419.11 265.52 420.52 265.43 421.66 265.19C422.86 264.89 423.85 264.26 424.63 263.3C425.47 262.34 426.16 260.87 426.7 258.89C427.24 256.85 427.69 254.12 428.05 250.7C428.41 247.28 428.8 242.93 429.22 237.65L431.56 202.1H467.02V275H453.79V212.09H443.35L441.73 239.27C441.37 244.61 440.95 249.32 440.47 253.4C440.05 257.48 439.36 260.96 438.4 263.84C437.5 266.66 436.21 268.94 434.53 270.68C432.85 272.42 430.63 273.65 427.87 274.37C425.11 275.03 421.63 275.24 417.43 275Z" fill="#F3E1B8"/>
<path d="M145.178 335.333L145.881 351.153H142.365C140.52 345.938 138.41 342.306 136.037 340.255C133.693 338.175 130.852 337.135 127.512 337.135C124.67 337.135 122.326 338.028 120.48 339.815C118.635 341.603 117.712 343.668 117.712 346.012C117.712 348.912 118.679 350.904 120.612 351.988C122.546 353.072 125.871 354.112 130.588 355.108C137.824 356.661 142.673 359.005 145.134 362.14C147.624 365.245 148.869 369.2 148.869 374.005C148.869 379.659 147.229 384.537 143.947 388.639C140.695 392.74 136.125 394.791 130.236 394.791C126.047 394.791 122.268 393.473 118.898 390.836C117.258 392.125 115.778 393.385 114.46 394.615H111.516V377.433H114.943C117.521 387.101 122.531 391.935 129.973 391.935C133.898 391.935 136.916 390.777 139.025 388.463C141.135 386.148 142.189 383.556 142.189 380.685C142.189 379.073 141.721 377.623 140.783 376.334C139.875 375.045 138.806 374.02 137.575 373.258C136.345 372.496 132.946 371.544 127.38 370.401C121.813 369.259 117.727 367.12 115.119 363.985C112.541 360.851 111.252 356.939 111.252 352.252C111.252 347.213 112.834 342.95 115.998 339.464C119.191 335.978 123.161 334.234 127.907 334.234C131.511 334.234 135.1 335.494 138.674 338.014C139.816 337.34 141.047 336.446 142.365 335.333H145.178ZM170.139 347.638V358.624H179.016V361.349H170.139V385.343C170.139 388.536 171.12 390.133 173.083 390.133C174.87 390.133 176.218 388.536 177.126 385.343H179.851C179.323 388.683 178.151 391.07 176.335 392.506C174.519 393.912 171.604 394.615 167.59 394.615C164.719 394.615 162.595 394.161 161.218 393.253C159.87 392.345 159.035 391.275 158.713 390.045C158.391 388.814 158.229 387.247 158.229 385.343V361.349H153.308V358.624H158.229V349.703L170.139 347.638ZM223.532 358.624V391.407H228.542V394H221.159C217.468 394 215.065 394.088 213.952 394.264C212.868 394.469 212.062 394.586 211.535 394.615V387.408H211.359C210.188 389.635 208.415 391.393 206.042 392.682C203.698 393.971 201.149 394.615 198.396 394.615C195.759 394.615 193.503 394.088 191.628 393.033C189.782 391.979 188.61 390.821 188.112 389.562C187.644 388.272 187.409 386.236 187.409 383.453V361.349H182.399V358.624H199.406V382.047C199.406 385.621 199.553 387.979 199.846 389.122C200.139 390.265 200.974 390.836 202.351 390.836C203.786 390.836 205.397 390.206 207.185 388.946C208.972 387.687 210.144 386.251 210.7 384.64C211.257 383.028 211.535 380.772 211.535 377.872V361.349H205.69V358.624H223.532ZM267.521 334.234V391.407H272.312V394H266.818C265.031 394 263.361 394.044 261.809 394.132L256.799 394.527H255.568V389.21H255.393C253.518 393.136 250.603 395.099 246.647 395.099C242.81 395.099 239.44 393.253 236.54 389.562C233.669 385.841 232.233 381.256 232.233 375.807C232.233 370.562 233.698 366.212 236.628 362.755C239.558 359.298 242.956 357.569 246.823 357.569C250.104 357.569 253.02 359.063 255.568 362.052V337.75H248.449V335.069H254.733C256.169 335.069 258.571 334.938 261.94 334.674C265.31 334.381 267.17 334.234 267.521 334.234ZM255.568 380.333V370.885C255.568 367.223 254.88 364.513 253.503 362.755C252.155 360.968 250.764 360.074 249.328 360.074C248.215 360.074 247.351 360.704 246.735 361.964C246.12 363.224 245.812 365.772 245.812 369.61V382.838C245.812 386.5 246.032 388.961 246.472 390.221C246.94 391.48 247.775 392.11 248.977 392.11C250.236 392.11 251.643 391.29 253.195 389.649C254.777 388.009 255.568 384.903 255.568 380.333ZM311.379 374.269H289.758V379.981C289.758 384.464 290.153 387.569 290.944 389.298C291.765 390.997 293.625 391.847 296.525 391.847C299.074 391.847 301.447 391.026 303.645 389.386C305.871 387.745 307.57 385.196 308.742 381.739H311.379C310.295 386.192 308.288 389.532 305.358 391.759C302.429 393.985 298.913 395.099 294.812 395.099C289.216 395.099 284.733 393.18 281.364 389.342C278.024 385.504 276.354 381.08 276.354 376.07C276.354 371.266 278.054 366.988 281.452 363.238C284.851 359.459 289.099 357.569 294.196 357.569C298.591 357.569 302.414 358.946 305.666 361.7C308.918 364.454 310.822 368.644 311.379 374.269ZM289.758 371.412H299.206V367.721C299.206 364.527 298.767 362.462 297.888 361.524C297.038 360.558 295.866 360.074 294.372 360.074C292.966 360.074 291.838 360.499 290.988 361.349C290.168 362.198 289.758 364.352 289.758 367.809V371.412ZM330.979 357.569V365.04H331.154C334.26 360.06 338.61 357.569 344.206 357.569C346.696 357.569 348.879 358.097 350.754 359.151C352.629 360.206 353.815 361.29 354.313 362.403C354.841 363.487 355.104 365.143 355.104 367.369V391.319H360.114V394H338.01V391.319H343.107V366.71C343.107 364.483 342.8 363.033 342.185 362.359C341.599 361.686 340.764 361.349 339.68 361.349C338.215 361.349 336.398 362.271 334.23 364.117C332.062 365.963 330.979 369.2 330.979 373.829V391.319H336.12V394H313.884V391.319H318.981V361.349H313.972V358.624H317.18C320.08 358.624 322.951 358.448 325.793 358.097L329.704 357.569H330.979ZM379.318 347.638V358.624H388.195V361.349H379.318V385.343C379.318 388.536 380.3 390.133 382.263 390.133C384.05 390.133 385.397 388.536 386.306 385.343H389.03C388.503 388.683 387.331 391.07 385.515 392.506C383.698 393.912 380.783 394.615 376.77 394.615C373.898 394.615 371.774 394.161 370.397 393.253C369.05 392.345 368.215 391.275 367.893 390.045C367.57 388.814 367.409 387.247 367.409 385.343V361.349H362.487V358.624H367.409V349.703L379.318 347.638Z" fill="#F3E1B8"/>
<path d="M113.05 458V452.1L122.75 437.2C123.483 436.1 124.167 435.033 124.8 434C125.467 432.967 126 431.917 126.4 430.85C126.833 429.783 127.05 428.667 127.05 427.5C127.05 426.333 126.817 425.467 126.35 424.9C125.883 424.333 125.25 424.05 124.45 424.05C123.55 424.05 122.85 424.3 122.35 424.8C121.85 425.3 121.5 425.967 121.3 426.8C121.133 427.633 121.05 428.567 121.05 429.6V431.6H112.95V429.45C112.95 427.05 113.333 424.917 114.1 423.05C114.867 421.15 116.083 419.667 117.75 418.6C119.417 417.5 121.6 416.95 124.3 416.95C127.933 416.95 130.667 417.9 132.5 419.8C134.367 421.667 135.3 424.283 135.3 427.65C135.3 429.283 135.033 430.8 134.5 432.2C134 433.6 133.317 434.967 132.45 436.3C131.617 437.6 130.717 438.967 129.75 440.4L122.35 451.45H134.2V458H113.05ZM138.734 458V452.1L148.434 437.2C149.167 436.1 149.85 435.033 150.484 434C151.15 432.967 151.684 431.917 152.084 430.85C152.517 429.783 152.734 428.667 152.734 427.5C152.734 426.333 152.5 425.467 152.034 424.9C151.567 424.333 150.934 424.05 150.134 424.05C149.234 424.05 148.534 424.3 148.034 424.8C147.534 425.3 147.184 425.967 146.984 426.8C146.817 427.633 146.734 428.567 146.734 429.6V431.6H138.634V429.45C138.634 427.05 139.017 424.917 139.784 423.05C140.55 421.15 141.767 419.667 143.434 418.6C145.1 417.5 147.284 416.95 149.984 416.95C153.617 416.95 156.35 417.9 158.184 419.8C160.05 421.667 160.984 424.283 160.984 427.65C160.984 429.283 160.717 430.8 160.184 432.2C159.684 433.6 159 434.967 158.134 436.3C157.3 437.6 156.4 438.967 155.434 440.4L148.034 451.45H159.884V458H138.734ZM183.66 458.5C182.193 458.5 180.96 458.15 179.96 457.45C178.96 456.75 178.21 455.867 177.71 454.8C177.21 453.7 176.96 452.583 176.96 451.45C176.96 449.65 177.31 448.133 178.01 446.9C178.743 445.667 179.693 444.633 180.86 443.8C182.027 442.967 183.31 442.267 184.71 441.7C186.11 441.1 187.493 440.567 188.86 440.1V437.2C188.86 436.7 188.81 436.267 188.71 435.9C188.61 435.5 188.443 435.2 188.21 435C187.977 434.767 187.627 434.65 187.16 434.65C186.693 434.65 186.327 434.75 186.06 434.95C185.827 435.15 185.66 435.433 185.56 435.8C185.46 436.133 185.393 436.517 185.36 436.95L185.16 439.05L177.56 438.75C177.727 435.283 178.643 432.733 180.31 431.1C182.01 429.433 184.543 428.6 187.91 428.6C190.843 428.6 193.027 429.417 194.46 431.05C195.927 432.65 196.66 434.733 196.66 437.3V450.8C196.66 452 196.677 453.05 196.71 453.95C196.777 454.85 196.843 455.633 196.91 456.3C197.01 456.967 197.093 457.533 197.16 458H189.86C189.76 457.233 189.643 456.4 189.51 455.5C189.377 454.6 189.277 454.067 189.21 453.9C188.877 455.1 188.243 456.167 187.31 457.1C186.41 458.033 185.193 458.5 183.66 458.5ZM186.56 453C186.893 453 187.193 452.933 187.46 452.8C187.76 452.667 188.027 452.483 188.26 452.25C188.493 452.017 188.693 451.783 188.86 451.55V443.65C188.193 444.05 187.577 444.467 187.01 444.9C186.443 445.3 185.96 445.75 185.56 446.25C185.16 446.75 184.843 447.3 184.61 447.9C184.41 448.467 184.31 449.117 184.31 449.85C184.31 450.817 184.51 451.583 184.91 452.15C185.31 452.717 185.86 453 186.56 453ZM201.489 458V429.1H221.989V458H213.839V434.65H209.639V458H201.489ZM227.027 467.5V429.1H235.177V431.2C236.143 430.333 237.177 429.683 238.277 429.25C239.377 428.817 240.427 428.6 241.427 428.6C242.527 428.6 243.46 428.817 244.227 429.25C245.027 429.683 245.677 430.3 246.177 431.1C246.677 431.867 247.043 432.767 247.277 433.8C247.51 434.833 247.627 435.933 247.627 437.1V449.55C247.627 451.35 247.377 452.917 246.877 454.25C246.41 455.583 245.71 456.633 244.777 457.4C243.843 458.133 242.693 458.5 241.327 458.5C240.293 458.5 239.243 458.267 238.177 457.8C237.143 457.3 236.143 456.633 235.177 455.8V467.5H227.027ZM237.327 453.25C237.86 453.25 238.277 453.1 238.577 452.8C238.877 452.5 239.093 452.117 239.227 451.65C239.393 451.15 239.477 450.6 239.477 450V436.5C239.477 435.933 239.41 435.433 239.277 435C239.143 434.533 238.927 434.167 238.627 433.9C238.327 433.633 237.943 433.5 237.477 433.5C237.043 433.5 236.627 433.6 236.227 433.8C235.86 433.967 235.51 434.2 235.177 434.5V452.5C235.543 452.733 235.893 452.917 236.227 453.05C236.593 453.183 236.96 453.25 237.327 453.25ZM261.721 458.5C259.621 458.5 257.821 458.133 256.321 457.4C254.821 456.633 253.671 455.533 252.871 454.1C252.071 452.633 251.671 450.883 251.671 448.85V438.25C251.671 436.183 252.071 434.433 252.871 433C253.671 431.567 254.821 430.483 256.321 429.75C257.854 428.983 259.654 428.6 261.721 428.6C263.854 428.6 265.621 428.967 267.021 429.7C268.454 430.433 269.521 431.517 270.221 432.95C270.954 434.383 271.321 436.15 271.321 438.25V444.05H259.721V449.6C259.721 450.333 259.804 450.933 259.971 451.4C260.137 451.867 260.371 452.2 260.671 452.4C260.971 452.6 261.321 452.7 261.721 452.7C262.121 452.7 262.471 452.617 262.771 452.45C263.104 452.25 263.354 451.95 263.521 451.55C263.721 451.15 263.821 450.6 263.821 449.9V446.85H271.321V449.65C271.321 452.583 270.471 454.8 268.771 456.3C267.071 457.767 264.721 458.5 261.721 458.5ZM259.721 440.25H263.821V437.35C263.821 436.583 263.721 435.983 263.521 435.55C263.354 435.117 263.104 434.817 262.771 434.65C262.471 434.483 262.104 434.4 261.671 434.4C261.271 434.4 260.921 434.5 260.621 434.7C260.354 434.9 260.137 435.25 259.971 435.75C259.804 436.217 259.721 436.9 259.721 437.8V440.25ZM273.857 458.3V452.55C274.924 452.55 275.79 452.383 276.457 452.05C277.157 451.717 277.707 451.15 278.107 450.35C278.54 449.517 278.874 448.4 279.107 447C279.34 445.567 279.54 443.75 279.707 441.55L280.657 429.1H299.007V458H290.857V434.6H287.557L286.857 443.15C286.624 446.15 286.29 448.633 285.857 450.6C285.424 452.567 284.79 454.117 283.957 455.25C283.124 456.35 282.007 457.133 280.607 457.6C279.207 458.067 277.424 458.3 275.257 458.3H273.857ZM302.426 458L306.926 446C306.16 445.567 305.51 444.967 304.976 444.2C304.443 443.433 304.043 442.533 303.776 441.5C303.51 440.467 303.376 439.35 303.376 438.15C303.376 436.817 303.56 435.6 303.926 434.5C304.326 433.4 304.943 432.45 305.776 431.65C306.643 430.85 307.76 430.233 309.126 429.8C310.493 429.333 312.143 429.1 314.076 429.1H324.826V458H316.726V447.7C316.593 447.7 316.226 447.7 315.626 447.7C315.026 447.667 314.576 447.633 314.276 447.6L311.026 458H302.426ZM316.376 442.9C316.443 442.9 316.51 442.9 316.576 442.9C316.643 442.9 316.693 442.9 316.726 442.9V433.7C316.693 433.7 316.643 433.7 316.576 433.7C316.51 433.7 316.443 433.7 316.376 433.7C315.143 433.7 314.11 433.867 313.276 434.2C312.443 434.533 311.81 435.033 311.376 435.7C310.976 436.333 310.776 437.133 310.776 438.1C310.776 439.733 311.26 440.933 312.226 441.7C313.226 442.467 314.61 442.867 316.376 442.9Z" fill="#F3E1B8"/>
<path d="M265.574 505.926V544.158C265.574 550.164 265.149 554.676 264.3 557.693C263.479 560.711 261.458 563.626 258.235 566.438C255.042 569.251 251.043 570.657 246.238 570.657C242.254 570.657 239.163 569.734 236.966 567.889C234.798 566.072 233.714 564.021 233.714 561.736C233.714 560.096 234.285 558.602 235.428 557.254C236.57 555.906 238.094 555.232 239.998 555.232C241.668 555.232 243.089 555.789 244.261 556.902C245.433 558.016 246.019 559.451 246.019 561.209C246.019 562.762 245.213 564.52 243.602 566.482C243.602 567.332 244.568 567.757 246.502 567.757C249.607 567.757 251.16 565.779 251.16 561.824V505.926H243.25V503.069H273.045V505.926H265.574ZM315.101 526.624V559.407H320.11V562H312.728C309.036 562 306.634 562.088 305.521 562.264C304.437 562.469 303.631 562.586 303.104 562.615V555.408H302.928C301.756 557.635 299.983 559.393 297.61 560.682C295.267 561.971 292.718 562.615 289.964 562.615C287.327 562.615 285.071 562.088 283.196 561.033C281.351 559.979 280.179 558.821 279.681 557.562C279.212 556.272 278.978 554.236 278.978 551.453V529.349H273.968V526.624H290.975V550.047C290.975 553.621 291.121 555.979 291.414 557.122C291.707 558.265 292.542 558.836 293.919 558.836C295.354 558.836 296.966 558.206 298.753 556.946C300.54 555.687 301.712 554.251 302.269 552.64C302.825 551.028 303.104 548.772 303.104 545.872V529.349H297.259V526.624H315.101ZM340.018 525.569V533.04H340.193C343.299 528.06 347.649 525.569 353.245 525.569C355.735 525.569 357.918 526.097 359.793 527.151C361.668 528.206 362.854 529.29 363.353 530.403C363.88 531.487 364.144 533.143 364.144 535.369V559.319H369.153V562H347.049V559.319H352.146V534.71C352.146 532.483 351.839 531.033 351.224 530.359C350.638 529.686 349.803 529.349 348.719 529.349C347.254 529.349 345.438 530.271 343.27 532.117C341.102 533.963 340.018 537.2 340.018 541.829V559.319H345.159V562H322.923V559.319H328.021V529.349H323.011V526.624H326.219C329.119 526.624 331.99 526.448 334.832 526.097L338.743 525.569H340.018ZM376.009 510.54C376.009 508.753 376.624 507.244 377.854 506.014C379.114 504.754 380.623 504.124 382.381 504.124C384.168 504.124 385.691 504.754 386.951 506.014C388.24 507.273 388.885 508.782 388.885 510.54C388.885 512.298 388.24 513.821 386.951 515.11C385.691 516.37 384.168 517 382.381 517C380.623 517 379.114 516.37 377.854 515.11C376.624 513.821 376.009 512.298 376.009 510.54ZM388.797 525.569V559.319H392.225V562H372.581V559.319H376.8V529.349H372.581V526.624H378.162C381.062 526.624 383.494 526.448 385.457 526.097C387.42 525.745 388.533 525.569 388.797 525.569ZM416.746 563.099C410.857 563.099 406.155 561.224 402.64 557.474C399.124 553.724 397.366 549.358 397.366 544.378C397.366 539.339 399.153 534.944 402.728 531.194C406.302 527.444 410.975 525.569 416.746 525.569C422.576 525.569 427.278 527.43 430.853 531.15C434.456 534.842 436.258 539.251 436.258 544.378C436.258 549.476 434.471 553.87 430.896 557.562C427.352 561.253 422.635 563.099 416.746 563.099ZM416.746 527.811C415.193 527.811 413.948 528.191 413.011 528.953C412.073 529.686 411.502 530.828 411.297 532.381C411.092 533.904 410.989 537.903 410.989 544.378C410.989 550.677 411.077 554.544 411.253 555.979C411.458 557.415 412.044 558.587 413.011 559.495C414.007 560.374 415.34 560.813 417.01 560.813C418.357 560.813 419.529 560.433 420.525 559.671C421.551 558.88 422.166 557.474 422.371 555.452C422.576 553.401 422.679 549.944 422.679 545.081C422.679 537.493 422.386 532.718 421.8 530.755C421.214 528.792 419.529 527.811 416.746 527.811ZM455.989 526.097V535.809H456.165C456.868 532.352 458.025 529.788 459.637 528.118C461.248 526.419 463.035 525.569 464.998 525.569C466.902 525.569 468.455 526.258 469.656 527.635C470.857 528.982 471.458 530.652 471.458 532.645C471.458 534.344 471.004 535.721 470.096 536.775C469.188 537.801 468.089 538.313 466.8 538.313C465.511 538.313 464.397 537.83 463.46 536.863C462.552 535.896 462.098 534.827 462.098 533.655C462.098 532.19 462.347 531.165 462.845 530.579C463.372 529.993 463.636 529.612 463.636 529.437C463.636 529.114 463.401 528.953 462.933 528.953C461.468 528.953 460.062 530.389 458.714 533.26C457.396 536.131 456.736 540.789 456.736 547.234V559.319H463.284V562H440.169V559.319H444.739V529.349H440.169V526.624H446.014C449.119 526.624 451.404 526.536 452.869 526.36L454.451 526.097H455.989Z" fill="#F3E1B8"/>
<path d="M257.05 630V624.1L266.75 609.2C267.483 608.1 268.167 607.033 268.8 606C269.467 604.967 270 603.917 270.4 602.85C270.833 601.783 271.05 600.667 271.05 599.5C271.05 598.333 270.817 597.467 270.35 596.9C269.883 596.333 269.25 596.05 268.45 596.05C267.55 596.05 266.85 596.3 266.35 596.8C265.85 597.3 265.5 597.967 265.3 598.8C265.133 599.633 265.05 600.567 265.05 601.6V603.6H256.95V601.45C256.95 599.05 257.333 596.917 258.1 595.05C258.867 593.15 260.083 591.667 261.75 590.6C263.417 589.5 265.6 588.95 268.3 588.95C271.933 588.95 274.667 589.9 276.5 591.8C278.367 593.667 279.3 596.283 279.3 599.65C279.3 601.283 279.033 602.8 278.5 604.2C278 605.6 277.317 606.967 276.45 608.3C275.617 609.6 274.717 610.967 273.75 612.4L266.35 623.45H278.2V630H257.05ZM293.734 630.6C291.134 630.6 289.084 630.2 287.584 629.4C286.084 628.6 285.017 627.433 284.384 625.9C283.75 624.333 283.434 622.417 283.434 620.15C283.434 620.05 283.434 619.95 283.434 619.85C283.434 619.717 283.434 619.6 283.434 619.5H291.234C291.234 621.133 291.367 622.35 291.634 623.15C291.934 623.917 292.65 624.3 293.784 624.3C294.55 624.3 295.117 624.067 295.484 623.6C295.85 623.133 296.084 622.317 296.184 621.15C296.317 619.95 296.384 618.317 296.384 616.25V612.65C295.95 613.35 295.284 613.883 294.384 614.25C293.517 614.617 292.534 614.833 291.434 614.9C289.3 614.933 287.584 614.4 286.284 613.3C284.984 612.2 284.05 610.717 283.484 608.85C282.917 606.983 282.634 604.95 282.634 602.75C282.634 599.917 282.984 597.483 283.684 595.45C284.417 593.383 285.6 591.783 287.234 590.65C288.867 589.517 291.034 588.95 293.734 588.95C296.4 588.95 298.55 589.483 300.184 590.55C301.817 591.617 303 593.117 303.734 595.05C304.5 596.95 304.884 599.2 304.884 601.8V616.9C304.884 619.533 304.567 621.883 303.934 623.95C303.334 626.017 302.234 627.65 300.634 628.85C299.034 630.017 296.734 630.6 293.734 630.6ZM293.834 608.5C294.5 608.5 295.034 608.317 295.434 607.95C295.834 607.583 296.15 607.233 296.384 606.9V600.3C296.384 599.367 296.317 598.517 296.184 597.75C296.05 596.95 295.8 596.317 295.434 595.85C295.067 595.35 294.5 595.1 293.734 595.1C293 595.1 292.45 595.367 292.084 595.9C291.717 596.4 291.467 597.167 291.334 598.2C291.234 599.2 291.184 600.45 291.184 601.95C291.184 603.25 291.217 604.4 291.284 605.4C291.384 606.367 291.617 607.133 291.984 607.7C292.35 608.233 292.967 608.5 293.834 608.5ZM328.881 630.5C327.414 630.5 326.181 630.15 325.181 629.45C324.181 628.75 323.431 627.867 322.931 626.8C322.431 625.7 322.181 624.583 322.181 623.45C322.181 621.65 322.531 620.133 323.231 618.9C323.964 617.667 324.914 616.633 326.081 615.8C327.248 614.967 328.531 614.267 329.931 613.7C331.331 613.1 332.714 612.567 334.081 612.1V609.2C334.081 608.7 334.031 608.267 333.931 607.9C333.831 607.5 333.664 607.2 333.431 607C333.198 606.767 332.848 606.65 332.381 606.65C331.914 606.65 331.548 606.75 331.281 606.95C331.048 607.15 330.881 607.433 330.781 607.8C330.681 608.133 330.614 608.517 330.581 608.95L330.381 611.05L322.781 610.75C322.948 607.283 323.864 604.733 325.531 603.1C327.231 601.433 329.764 600.6 333.131 600.6C336.064 600.6 338.248 601.417 339.681 603.05C341.148 604.65 341.881 606.733 341.881 609.3V622.8C341.881 624 341.898 625.05 341.931 625.95C341.998 626.85 342.064 627.633 342.131 628.3C342.231 628.967 342.314 629.533 342.381 630H335.081C334.981 629.233 334.864 628.4 334.731 627.5C334.598 626.6 334.498 626.067 334.431 625.9C334.098 627.1 333.464 628.167 332.531 629.1C331.631 630.033 330.414 630.5 328.881 630.5ZM331.781 625C332.114 625 332.414 624.933 332.681 624.8C332.981 624.667 333.248 624.483 333.481 624.25C333.714 624.017 333.914 623.783 334.081 623.55V615.65C333.414 616.05 332.798 616.467 332.231 616.9C331.664 617.3 331.181 617.75 330.781 618.25C330.381 618.75 330.064 619.3 329.831 619.9C329.631 620.467 329.531 621.117 329.531 621.85C329.531 622.817 329.731 623.583 330.131 624.15C330.531 624.717 331.081 625 331.781 625ZM346.71 630V601.1H367.21V630H359.06V606.65H354.86V630H346.71ZM372.247 639.5V601.1H380.397V603.2C381.364 602.333 382.397 601.683 383.497 601.25C384.597 600.817 385.647 600.6 386.647 600.6C387.747 600.6 388.681 600.817 389.447 601.25C390.247 601.683 390.897 602.3 391.397 603.1C391.897 603.867 392.264 604.767 392.497 605.8C392.731 606.833 392.847 607.933 392.847 609.1V621.55C392.847 623.35 392.597 624.917 392.097 626.25C391.631 627.583 390.931 628.633 389.997 629.4C389.064 630.133 387.914 630.5 386.547 630.5C385.514 630.5 384.464 630.267 383.397 629.8C382.364 629.3 381.364 628.633 380.397 627.8V639.5H372.247ZM382.547 625.25C383.081 625.25 383.497 625.1 383.797 624.8C384.097 624.5 384.314 624.117 384.447 623.65C384.614 623.15 384.697 622.6 384.697 622V608.5C384.697 607.933 384.631 607.433 384.497 607C384.364 606.533 384.147 606.167 383.847 605.9C383.547 605.633 383.164 605.5 382.697 605.5C382.264 605.5 381.847 605.6 381.447 605.8C381.081 605.967 380.731 606.2 380.397 606.5V624.5C380.764 624.733 381.114 624.917 381.447 625.05C381.814 625.183 382.181 625.25 382.547 625.25ZM406.941 630.5C404.841 630.5 403.041 630.133 401.541 629.4C400.041 628.633 398.891 627.533 398.091 626.1C397.291 624.633 396.891 622.883 396.891 620.85V610.25C396.891 608.183 397.291 606.433 398.091 605C398.891 603.567 400.041 602.483 401.541 601.75C403.075 600.983 404.875 600.6 406.941 600.6C409.075 600.6 410.841 600.967 412.241 601.7C413.675 602.433 414.741 603.517 415.441 604.95C416.175 606.383 416.541 608.15 416.541 610.25V616.05H404.941V621.6C404.941 622.333 405.025 622.933 405.191 623.4C405.358 623.867 405.591 624.2 405.891 624.4C406.191 624.6 406.541 624.7 406.941 624.7C407.341 624.7 407.691 624.617 407.991 624.45C408.325 624.25 408.575 623.95 408.741 623.55C408.941 623.15 409.041 622.6 409.041 621.9V618.85H416.541V621.65C416.541 624.583 415.691 626.8 413.991 628.3C412.291 629.767 409.941 630.5 406.941 630.5ZM404.941 612.25H409.041V609.35C409.041 608.583 408.941 607.983 408.741 607.55C408.575 607.117 408.325 606.817 407.991 606.65C407.691 606.483 407.325 606.4 406.891 606.4C406.491 606.4 406.141 606.5 405.841 606.7C405.575 606.9 405.358 607.25 405.191 607.75C405.025 608.217 404.941 608.9 404.941 609.8V612.25ZM419.078 630.3V624.55C420.144 624.55 421.011 624.383 421.678 624.05C422.378 623.717 422.928 623.15 423.328 622.35C423.761 621.517 424.094 620.4 424.328 619C424.561 617.567 424.761 615.75 424.928 613.55L425.878 601.1H444.228V630H436.078V606.6H432.778L432.078 615.15C431.844 618.15 431.511 620.633 431.078 622.6C430.644 624.567 430.011 626.117 429.178 627.25C428.344 628.35 427.228 629.133 425.828 629.6C424.428 630.067 422.644 630.3 420.478 630.3H419.078ZM447.647 630L452.147 618C451.38 617.567 450.73 616.967 450.197 616.2C449.664 615.433 449.264 614.533 448.997 613.5C448.73 612.467 448.597 611.35 448.597 610.15C448.597 608.817 448.78 607.6 449.147 606.5C449.547 605.4 450.164 604.45 450.997 603.65C451.864 602.85 452.98 602.233 454.347 601.8C455.714 601.333 457.364 601.1 459.297 601.1H470.047V630H461.947V619.7C461.814 619.7 461.447 619.7 460.847 619.7C460.247 619.667 459.797 619.633 459.497 619.6L456.247 630H447.647ZM461.597 614.9C461.664 614.9 461.73 614.9 461.797 614.9C461.864 614.9 461.914 614.9 461.947 614.9V605.7C461.914 605.7 461.864 605.7 461.797 605.7C461.73 605.7 461.664 605.7 461.597 605.7C460.364 605.7 459.33 605.867 458.497 606.2C457.664 606.533 457.03 607.033 456.597 607.7C456.197 608.333 455.997 609.133 455.997 610.1C455.997 611.733 456.48 612.933 457.447 613.7C458.447 614.467 459.83 614.867 461.597 614.9Z" fill="#F3E1B8"/>
</svg>
