<svg xmlns="http://www.w3.org/2000/svg" viewBox="0 0 894.91 524.02"><g id="Layer_2" data-name="Layer 2"><g id="Layer_1-2" data-name="Layer 1"><path fill="#F3E1B8" d="M0,444.45q45.42-44.1,90.79-88.24,42-40.77,84.1-81.48c20.52-19.92,40.94-39.94,61.46-59.85S277.67,175,298.26,155q39.86-38.72,79.62-77.53c21.45-20.87,42.71-42.06,67.32-59.22C459.66,8.21,475.4,1.15,494.12,6.86c14.72,4.49,23.25,14.61,26.9,28.7a110.44,110.44,0,0,1,3.25,27c.24,78.91.13,157.82.13,236.73v9c3.15-2.94,5.32-5,7.52-7,21.76-20,43.25-40.23,65.43-59.7,9.68-8.5,20.58-16,33.39-19.2,24.57-6.19,47.53,3.83,53,30.93,3,14.61,2,30,2.85,45.08.15,2.74.25,5.48.44,9.8,8.41-8.26,15.72-15.55,23.14-22.71,19-18.36,38-36.78,59.9-51.7,11.14-7.59,22.88-13.65,37.23-13.1,17.71.67,32.44,10.47,37.22,27.59a111.13,111.13,0,0,1,4.26,28.86c.41,52.27.18,104.54.27,156.82a35.47,35.47,0,0,0,1.31,9.27c2.32,8.48,9,10.91,16.59,6.21,1.13-.7,2.25-1.43,3.34-2.19,6.24-4.38,6.25-4.4,11.29,1.45,3.9,4.53,7.65,9.21,11.71,13.59,2.06,2.21,2.16,3.69-.14,5.73-12.18,10.76-24,21.94-36.47,32.35-11.71,9.79-24.25,18.39-39.39,22.45-20.69,5.55-44.47-7.75-49.33-28.6a133.51,133.51,0,0,1-3.78-29c-.35-50.44-.11-100.88-.18-151.33a53.2,53.2,0,0,0-1.2-13.31c-2-7.81-8.46-10.55-15.38-6.33a83.86,83.86,0,0,0-14.32,11.48c-14.57,14.1-28.92,28.42-43.23,42.79-1.52,1.52-3.14,3.88-3.14,5.86-.09,27.79.09,55.58.22,83.37a16,16,0,0,0,.25,2.49c1.72,10.95,8.51,14.15,18.16,8.64,3-1.74,6.46-4.9,9.21-4.45s4.77,4.66,7.09,7.25c3.21,3.6,6.35,7.26,9.59,10.83,1.74,1.92,2.06,3.58-.07,5.51-19.79,18-38.83,36.85-62.71,49.7-19.24,10.35-41,7.48-54.55-7.82a39.74,39.74,0,0,1-9.88-22.48c-1.25-12.37-1.52-24.85-2.08-37.28-.2-4.27,0-8.55,0-14.56-5.47,5.38-9.71,9.85-14.27,14C567.31,468,547,486.68,526.25,504.79a88.24,88.24,0,0,1-30.68,17.12c-19.44,6.39-44.31-3.22-51.64-25.95-3.54-11-3.89-22.15-3.86-33.45,0-6.49.09-13,0-19.47,0-2-.39-3.9-.71-7-5.51,5.37-10.16,10.17-15.1,14.66-19.66,17.83-39,36-59.31,53.12-8.11,6.84-17.91,12.06-27.6,16.57-21.47,10-50.85-1.12-56.9-28.83a117.09,117.09,0,0,1-2.87-24.15c-.27-50.94-.13-101.88-.23-152.83,0-4.77-.05-9.74-1.31-14.28-2.27-8.15-8.58-10.14-15.93-5.77-1.55.93-3.56,1.45-4.63,2.76-3.68,4.5-6.13,2.3-9-1-4.32-5-8.86-9.89-13.43-14.7-1.82-1.92-2.18-3.51-.1-5.45,18.8-17.54,37.47-35.22,59.88-48.29,12-7,24.84-9.31,38.28-5.74,15.89,4.22,24.72,15.56,28.21,31a113.1,113.1,0,0,1,2.81,24.11c.26,50.94.12,101.88.23,152.82a53.25,53.25,0,0,0,1.41,13.78c2.1,7.7,8.92,10.17,15.64,5.73A94.42,94.42,0,0,0,393,438.66q22.37-21.72,44.31-43.88c1.47-1.48,2.13-3.94,2.67-6.07.44-1.73.15-3.64.15-5.48q0-140.84-.08-281.68a66.77,66.77,0,0,0-2-17.21c-2-7.54-8.32-10.11-14.68-5.71a167.22,167.22,0,0,0-20.59,17.1q-42.47,40.68-84.56,81.75Q266,228.2,214,279.05C179.78,312.3,0,486.8,0,486.8Zm602-96c0-12.81.22-25.63-.13-38.43-.11-4.19-1.4-8.44-2.73-12.46s-4.75-6.06-8.61-4.61c-4.67,1.75-9.67,3.85-13.21,7.2-17.15,16.2-33.91,32.82-50.62,49.47-1.42,1.41-2.17,4.12-2.18,6.23-.15,25.95-.2,51.91,0,77.86a35.71,35.71,0,0,0,2.54,12c2,5.21,6.13,7.33,11.11,4.93a58.55,58.55,0,0,0,15-10.17c15.46-14.83,30.55-30,45.57-45.31a11.79,11.79,0,0,0,3.08-7.29C602.15,374.7,602,361.55,602,348.41Z"/><path fill="#F3E1B8" d="M756.63,0c7,0,12.46-.07,17.92.06a4.47,4.47,0,0,1,3,1.28c14,16.26,25.72,33.83,29.76,55.37,4,21.26,1.2,41.85-9,60.91C792.82,128,785.7,137.43,779,147c-1.18,1.67-4.07,2.76-6.28,3-4.7.45-9.47.14-15.78.14,13.84-24.37,24.55-48,24.2-75.19S770.34,24.14,756.63,0Z"/><path fill="#F3E1B8" d="M622.39,0c6.64,0,12.22-.11,17.79.09A5.27,5.27,0,0,1,643.37,2c15.72,17.67,27.81,37.37,30.56,61.28a93.72,93.72,0,0,1-12.6,59.25c-4.61,7.84-10.26,15-15.3,22.64a9.67,9.67,0,0,1-9.62,4.7c-4.07-.3-8.19-.07-13.58-.07C636.61,126.07,647.2,102.15,646.9,75S636.09,23.87,622.39,0Z"/><path fill="#F3E1B8" d="M689.25,150c33.3-50.52,32-99.84-.15-149.89,7.45,0,13.47,0,19.49,0,.52,0,1.12.6,1.53,1.06,17.83,20.46,31,43.13,31.62,71.12.43,20.23-5.7,38.88-16.39,55.94-3.76,6-8.52,11.38-12.47,17.29-2.36,3.53-5.47,4.49-9.33,4.44C699.44,150,695.32,150,689.25,150Z"/></g></g></svg>