<svg width="702" height="702" viewBox="0 0 702 702" fill="none" xmlns="http://www.w3.org/2000/svg">
<path fill-rule="evenodd" clip-rule="evenodd" d="M350.847 689.511C537.875 689.511 689.492 537.891 689.492 350.857C689.492 163.824 537.875 12.2037 350.847 12.2037C163.82 12.2037 12.2034 163.824 12.2034 350.857C12.2034 537.891 163.82 689.511 350.847 689.511ZM350.847 701.715C544.615 701.715 701.695 544.631 701.695 350.857C701.695 157.084 544.615 0 350.847 0C157.08 0 0 157.084 0 350.857C0 544.631 157.08 701.715 350.847 701.715Z" fill="#345E5A"/>
<path fill-rule="evenodd" clip-rule="evenodd" d="M351.864 673.239C529.344 673.239 673.22 529.359 673.22 351.874C673.22 174.389 529.344 30.5093 351.864 30.5093C174.384 30.5093 30.5084 174.389 30.5084 351.874C30.5084 529.359 174.384 673.239 351.864 673.239ZM351.864 685.443C536.084 685.443 685.424 536.099 685.424 351.874C685.424 167.649 536.084 18.3056 351.864 18.3056C167.645 18.3056 18.3051 167.649 18.3051 351.874C18.3051 536.099 167.645 685.443 351.864 685.443Z" fill="#DD430F"/>
<path d="M486.721 259.493C486.721 233.194 486.592 207.024 486.721 180.726C487.874 179.058 489.54 177.775 490.949 176.236C489.284 174.44 485.824 171.104 485.824 171.104L484.286 172.772L436.872 107.475L439.178 105.165L434.309 100.419L431.105 103.498L355.499 78.7387L356.14 78.0973L351.399 73.2224L346.016 77.969L346.785 78.867C346.785 78.867 296.296 95.4158 271.179 103.37C270.154 102.343 267.847 100.291 267.847 100.291L262.85 105.294C262.85 105.294 264.387 106.833 265.156 107.603C263.106 110.682 260.799 113.632 258.621 116.711C245.037 135.313 231.582 153.914 217.999 172.515C217.486 172.002 216.974 171.489 216.461 170.848C214.795 172.644 212.873 174.183 211.335 176.107C212.873 177.518 214.282 179.058 215.692 180.597C215.564 206.768 215.692 259.236 215.692 259.236L211.591 263.47L211.335 263.726C211.335 263.726 214.795 267.19 216.461 268.858C216.974 268.345 217.614 267.831 218.127 267.447C232.864 287.716 247.6 307.985 262.337 328.382C263.234 329.665 265.156 332.359 265.156 332.359L262.722 334.796C262.722 334.796 266.182 338.132 267.847 339.928C268.873 338.902 271.051 336.721 271.051 336.721C271.051 336.721 281.175 339.928 286.3 341.596C306.291 348.138 346.273 361.095 346.273 361.095L345.76 361.608L351.142 366.868L356.012 361.993L355.371 361.223C355.371 361.223 402.529 345.957 425.979 338.388C427.645 337.875 429.311 337.234 430.977 336.849C432.259 337.747 433.156 338.902 434.309 339.928C435.975 338.132 437.897 336.592 439.435 334.668C438.666 333.898 437.897 333.129 437.128 332.359C452.762 310.935 468.396 289.383 484.03 267.831C484.798 267.575 485.311 268.601 485.952 268.986C487.618 267.318 489.284 265.651 490.949 263.855C489.668 262.315 488.258 260.904 486.721 259.493ZM429.439 220.879H460.835L462.885 222.932L437.513 280.147L436.616 279.377L435.847 280.147L423.417 249.102L422.648 250.769C422.648 250.769 430.849 270.91 434.822 281.045C434.181 281.686 432.771 282.969 432.771 282.969C432.771 282.969 425.851 282.713 422.52 282.328C414.574 281.943 397.787 281.045 397.787 281.045L395.865 282.199L432.387 284.38C432.387 284.38 433.156 285.15 433.668 285.535C418.163 299.39 402.657 313.373 387.151 327.356C386.511 326.714 385.998 326.201 385.357 325.56C385.101 325.688 384.716 325.816 384.46 325.945C381 315.81 377.412 305.804 373.952 295.798C373.696 295.926 373.055 296.183 372.799 296.311C376.259 306.702 379.975 316.965 383.435 327.356C382.794 327.997 382.282 328.51 381.641 329.152C361.522 327.228 320.003 322.994 320.003 322.994L318.593 321.968C318.593 321.968 333.971 309.139 341.531 302.982C343.966 301.057 349.605 296.439 349.605 296.439L347.939 296.183L347.17 296.824L317.696 321.198L315.646 319.659C315.646 319.659 308.598 294.387 305.266 282.328C305.138 281.301 304.113 280.788 303.344 280.147C306.676 293.489 314.364 320.685 314.364 320.685L313.724 321.455L260.031 289.127L260.928 287.844L259.262 286.305L286.941 265.651L286.3 264.881C286.3 264.881 269.129 277.581 260.287 284.252C259.774 284.637 258.365 285.663 258.365 285.663L256.314 283.867C256.314 283.867 247.344 243.201 242.859 223.316C243.243 222.932 243.5 222.547 243.884 222.29C255.545 229.859 267.079 237.556 278.74 245.125C278.612 244.355 278.484 243.586 277.715 243.329C266.694 236.145 255.674 228.833 244.653 221.649C245.037 221.136 245.55 220.622 245.934 220.109C245.55 219.596 245.037 219.083 244.653 218.698C255.93 211.386 267.079 204.074 278.227 196.761C278.355 196.376 278.612 195.607 278.868 195.222C267.207 202.791 255.545 210.488 243.756 218.057C243.372 217.672 243.115 217.287 242.731 217.03C247.216 197.146 255.93 157.249 255.93 157.249L258.493 154.94L286.941 176.107L287.326 175.209L259.134 154.171L260.799 152.503C260.799 152.503 260.031 151.733 259.646 151.477C276.433 141.599 293.22 131.849 309.879 122.099C311.033 121.458 313.083 120.303 313.083 120.303L313.98 121.586C313.98 121.586 306.932 147.243 303.344 159.943C303.856 159.687 304.497 159.302 305.01 158.917C308.213 146.73 315.005 122.484 315.005 122.484L317.696 120.303L345.632 143.523L347.554 143.651L318.721 119.405C318.721 119.405 319.747 118.122 320.644 117.994C320.644 117.994 361.138 113.889 381.385 111.836C382.025 112.478 382.538 112.991 383.179 113.632C379.591 124.28 372.158 145.575 372.158 145.575L373.568 145.704C373.568 145.704 374.849 141.855 375.49 139.931C378.309 131.592 384.332 114.53 384.332 114.53L385.101 115.172C385.101 115.172 386.254 114.017 386.895 113.376C402.401 127.231 433.412 155.197 433.412 155.197L432.13 156.48C432.13 156.48 408.167 157.763 396.378 158.532C396.762 158.789 397.531 159.43 397.915 159.815C409.577 159.174 421.11 158.404 432.771 157.891C433.412 158.532 433.924 159.045 434.565 159.687C431.105 168.667 427.389 177.518 423.801 186.498C423.032 188.551 421.622 190.604 422.52 192.913C426.876 182.393 435.462 160.713 435.462 160.713L436.103 161.226L437.128 160.457L462.501 217.672L460.323 219.724L428.542 219.853L429.439 220.879ZM438.666 159.302L438.538 159.045L439.178 158.404C439.178 158.404 459.81 166.614 470.062 170.591C473.906 172.131 481.723 175.209 481.723 175.209L480.826 176.107C480.826 176.107 482.748 178.032 483.773 178.93C478.007 191.117 465.961 216.389 465.961 216.389L464.936 215.363L464.039 216.132C464.039 216.261 447.124 178.288 438.666 159.302ZM435.719 108.757L435.975 108.501L437.256 110.297L483.261 173.798L482.876 174.183L440.204 157.249L441.101 156.351C441.101 156.351 438.538 153.786 437.384 152.631C436.872 141.855 436.487 131.207 435.975 120.431C435.975 116.583 435.334 112.734 435.719 108.757ZM433.924 109.271C433.924 109.271 435.206 138.648 435.975 152.759C435.59 153.144 435.206 153.529 434.95 153.914C419.444 140.059 403.938 126.076 388.433 112.093C388.945 111.58 389.33 111.067 389.842 110.682C403.426 109.271 430.849 106.448 430.849 106.448L433.924 109.271ZM378.95 88.1035C394.968 93.3632 411.115 98.6229 427.133 103.754C428.03 104.139 430.336 104.909 430.336 104.909C430.336 104.909 402.657 107.859 388.945 109.271C387.792 108.116 385.357 105.679 385.357 105.679L383.179 107.603C383.179 107.603 363.701 89.2581 354.09 80.0216C362.547 82.5873 370.749 85.4095 378.95 88.1035ZM351.27 83.357C351.27 83.357 352.808 81.9458 353.577 81.1761C363.06 90.1561 382.666 108.501 382.666 108.501L381.128 110.04C381.128 110.04 340.25 114.274 319.747 116.198C319.49 115.941 319.106 115.557 318.85 115.3C328.973 104.011 349.348 81.3044 349.348 81.3044L351.27 83.357ZM272.333 104.652C272.333 104.652 321.925 88.6167 346.529 80.5347L347.682 80.0216L348.195 80.5347C348.195 80.5347 334.611 95.8007 327.692 103.498C324.36 107.09 321.156 110.938 317.696 114.53C317.184 114.017 316.03 112.863 316.03 112.863L312.442 115.813L271.82 105.679L272.461 105.037L272.333 104.652ZM267.719 109.784L270.923 106.705C270.923 106.705 298.218 113.504 311.545 116.839C311.93 117.353 312.314 117.994 312.698 118.507C294.886 128.898 259.134 149.937 259.134 149.937L258.108 149.167C258.108 149.167 264.388 123.51 267.591 110.81L267.719 109.784ZM266.053 109.271C264.516 116.968 262.465 124.408 260.671 132.105C259.39 137.237 256.699 148.269 256.699 148.269L256.442 148.013L251.829 152.503C251.829 152.503 252.726 153.273 253.111 153.657C241.834 160.457 230.685 167.127 219.408 173.798C234.914 152.118 250.548 130.694 266.053 109.271ZM221.587 176.236C221.202 175.722 220.69 175.209 220.305 174.568C231.582 167.897 242.731 161.098 254.008 154.427C254.264 154.684 254.648 155.069 254.905 155.325C250.676 175.338 246.191 195.222 241.834 215.234C241.321 215.619 240.809 216.132 240.296 216.517C233.12 203.945 226.072 191.373 218.896 178.93C219.793 178.032 220.69 177.134 221.587 176.236ZM217.486 260.134C217.23 258.467 217.23 256.799 217.23 255.131C217.23 230.5 217.23 205.998 217.23 181.367C217.358 180.854 217.102 179.828 217.871 180.212C225.047 192.656 232.223 205.1 239.271 217.672C238.374 218.442 237.605 219.34 236.836 220.238C237.605 221.007 238.374 221.777 239.271 222.547C232.735 233.964 226.072 245.381 219.536 256.799C219.152 257.953 218.511 259.236 217.486 260.134ZM240.296 223.573C240.809 223.958 241.321 224.471 241.834 224.856C246.191 244.355 254.905 284.893 254.905 284.893L254.136 285.791C254.136 285.791 231.582 272.193 220.305 265.394C220.818 264.881 221.202 264.368 221.715 263.983C220.818 263.085 219.921 262.187 219.024 261.289C225.944 248.46 233.248 236.017 240.296 223.573ZM219.28 266.164C230.557 272.835 241.962 279.762 253.239 286.561C252.854 286.946 251.957 287.716 251.957 287.716L256.955 292.206C256.955 292.206 263.362 318.119 266.31 330.82C250.548 309.396 234.914 287.716 219.28 266.164ZM267.463 329.408C267.463 329.408 261.184 303.88 257.98 291.179C258.237 290.923 258.621 290.41 258.749 290.153C276.689 300.544 312.955 321.711 312.955 321.711L311.673 323.251L271.307 333.129L267.463 329.408ZM343.325 358.273C319.746 350.576 272.333 335.181 272.333 335.181L272.973 334.54L272.589 334.155L313.083 324.277C314.108 325.303 315.133 326.33 316.158 327.356C316.671 326.714 317.184 326.201 317.824 325.688C324.488 332.872 330.895 340.313 337.559 347.497C341.147 351.602 344.991 355.579 348.451 359.812C346.657 359.556 344.991 358.786 343.325 358.273ZM351.399 356.733L349.22 358.658C349.22 358.658 328.845 336.079 318.721 324.79L319.49 323.892C319.49 323.892 361.01 328.126 381 330.05C381.513 330.691 382.794 331.333 381.897 332.231C372.671 340.826 353.449 358.786 353.449 358.786L351.399 356.733ZM379.206 351.858C370.877 354.552 362.675 357.375 354.346 359.812C363.957 350.576 373.696 341.596 383.307 332.487C384.076 333.129 384.588 333.898 385.485 334.283C386.767 333.257 387.792 331.974 388.945 330.82C398.556 331.846 408.295 332.744 417.906 333.77C422.007 334.283 426.108 334.283 430.08 335.181C413.165 340.826 396.121 346.214 379.206 351.858ZM433.924 329.793C433.156 331.204 431.746 332.231 430.593 333.257C428.927 333.385 427.261 333.129 425.595 333C413.677 331.846 401.632 330.691 389.714 329.537C389.202 329.024 388.817 328.51 388.305 328.126C403.81 314.271 419.316 300.288 434.822 286.305C435.206 286.689 435.59 287.074 435.847 287.331C435.206 301.442 434.693 315.682 433.924 329.793ZM461.732 295.798C453.146 307.6 444.561 319.402 436.103 331.204C435.206 330.306 435.59 329.152 435.59 327.997C436.231 314.527 436.744 301.057 437.384 287.587C438.666 286.305 441.229 283.867 441.229 283.867L440.46 282.841C440.46 282.841 467.883 271.808 481.338 266.42C481.979 266.164 482.62 266.035 483.389 265.907C476.341 275.913 468.908 285.791 461.732 295.798ZM480.826 263.726C481.082 263.983 481.467 264.496 481.723 264.624C467.627 270.269 453.659 276.042 439.563 281.558C439.435 281.301 439.05 280.917 438.794 280.66C447.252 261.674 455.581 242.688 464.167 223.701C464.423 223.958 464.808 224.214 465.192 224.599C465.448 224.343 465.961 223.83 466.217 223.573C472.112 235.888 478.007 248.204 483.901 260.519C482.748 261.802 481.723 262.828 480.826 263.726ZM485.183 207.024C485.183 220.494 485.183 233.964 485.183 247.306C485.183 251.411 485.311 255.644 485.055 259.749C483.901 258.082 483.133 256.157 482.236 254.361C477.238 243.714 471.984 233.323 466.986 222.675C467.883 221.905 468.78 221.007 469.677 219.981C468.78 219.083 467.883 218.313 466.986 217.415C470.959 208.692 475.187 200.097 479.288 191.502C481.21 187.653 482.748 183.676 484.927 180.084C485.311 189.064 485.055 198.044 485.183 207.024Z" fill="#DD430F"/>
<path d="M355.884 147.5C348.707 145.96 341.403 144.549 334.227 143.01C333.074 142.625 332.177 143.523 331.28 144.036C326.026 147.5 320.644 150.835 315.39 154.427C321.925 153.657 328.332 152.246 334.74 151.22C341.788 149.937 348.836 148.911 355.884 147.5Z" fill="#DD430F"/>
<path d="M359.472 145.319C359.728 145.96 359.984 146.473 360.241 147.115C365.751 146.602 371.261 146.858 376.771 146.089C366.135 145.319 355.499 144.293 344.863 143.523C343.069 143.395 341.275 143.138 339.481 143.266C344.991 144.421 350.63 145.575 356.14 146.73C357.293 146.217 358.318 145.832 359.472 145.319Z" fill="#DD430F"/>
<path d="M380.488 154.812C386.767 156.865 392.918 159.302 399.197 161.226C393.43 156.351 387.792 151.605 382.025 146.858C375.106 147.371 368.186 147.5 361.266 147.885C367.545 150.45 373.952 152.503 380.488 154.812Z" fill="#DD430F"/>
<path d="M329.357 177.39L329.87 178.032C329.87 178.032 348.195 158.147 357.037 148.398C353.577 148.654 350.117 149.552 346.657 150.065C336.021 151.861 325.513 153.657 314.877 155.453C314.749 155.582 314.364 156.095 314.236 156.223C318.978 163.407 328.46 177.903 328.46 177.903L329.357 177.39Z" fill="#DD430F"/>
<path d="M358.703 148.911C357.678 149.296 357.037 150.194 356.396 150.963C349.22 158.789 342.044 166.614 334.996 174.44C333.586 175.979 331.92 177.518 330.767 179.314C333.586 179.828 336.534 179.828 339.353 180.084C352.039 181.11 381.513 183.548 381.513 183.548L381.385 183.291L382.282 183.035C382.154 182.906 366.392 160.2 358.703 148.911Z" fill="#DD430F"/>
<path d="M364.854 150.194C363.188 149.681 361.65 148.911 359.856 148.783C367.545 160.072 383.179 182.522 383.179 182.522L384.845 182.008C384.845 182.008 395.737 168.923 400.607 162.894C398.813 161.996 396.89 161.483 395.096 160.841C384.845 157.378 374.849 153.786 364.854 150.194Z" fill="#DD430F"/>
<path d="M287.069 190.86C300.268 187.396 327.307 179.828 327.307 179.828L326.795 179.058L327.563 178.545C327.563 178.545 318.081 163.92 313.467 156.736C312.699 157.121 312.058 157.634 311.545 158.404C306.163 165.588 300.781 172.644 295.399 179.828C292.58 183.291 289.632 186.883 287.069 190.86Z" fill="#DD430F"/>
<path d="M311.289 156.865C304.882 160.328 298.731 163.92 292.323 167.512C291.298 167.897 290.914 168.923 290.786 169.821C289.504 176.364 287.71 182.906 286.557 189.577C294.886 178.673 303.216 167.897 311.289 156.865Z" fill="#DD430F"/>
<path d="M385.87 184.574C385.87 184.574 398.428 190.732 404.707 193.811C410.474 196.505 416.112 199.455 421.879 202.021C418.675 195.992 415.471 189.962 412.268 183.933C408.68 177.262 405.348 170.463 401.504 163.92L385.485 183.291L385.87 184.574Z" fill="#DD430F"/>
<path d="M421.238 193.298C420.597 188.679 419.957 184.189 419.188 179.571C419.06 178.545 418.163 178.032 417.522 177.39C412.652 173.285 408.039 168.795 403.169 164.69C409.449 176.749 415.856 188.551 422.135 200.61C422.007 198.172 421.494 195.735 421.238 193.298Z" fill="#DD430F"/>
<path d="M283.481 190.86C283.481 190.86 284.891 190.219 285.532 189.962C286.685 185.344 287.71 180.597 288.735 175.851C288.991 174.696 289.248 173.542 289.376 172.515C288.351 174.44 287.582 176.62 286.685 178.673C282.456 188.808 278.099 198.942 273.998 209.205C277.458 204.33 284.378 193.169 284.378 193.169L283.481 190.86Z" fill="#DD430F"/>
<path d="M287.326 191.886L286.685 192.784C286.685 192.784 298.859 214.208 305.01 224.856C305.779 226.267 306.419 227.806 307.573 228.833C310.136 223.445 312.186 217.928 314.493 212.54C318.593 202.662 322.694 192.784 326.923 182.906C327.179 182.265 327.307 181.495 327.435 180.854C323.463 181.624 319.618 182.906 315.646 183.933C306.548 186.498 287.326 191.886 287.326 191.886Z" fill="#DD430F"/>
<path d="M337.046 191.758C342.428 200.482 353.064 217.8 353.064 217.8L354.73 217.415L382.025 185.344L381.769 184.702C381.769 184.702 352.808 182.265 338.328 180.982C336.021 180.982 330.767 180.341 330.767 180.341L330.511 180.597L337.046 191.758Z" fill="#DD430F"/>
<path d="M327.051 185.985C321.284 199.712 315.518 213.438 309.751 227.293C309.495 227.935 309.238 228.704 309.11 229.474C312.058 228.961 315.005 228.191 317.824 227.55C328.973 224.984 351.911 219.468 351.911 219.468L351.527 218.313L351.911 218.185C351.911 218.185 336.79 193.554 329.229 181.495C328.204 182.778 327.692 184.446 327.051 185.985Z" fill="#DD430F"/>
<path d="M398.172 234.862C406.117 224.471 414.062 214.08 422.007 203.817C421.751 203.689 421.366 203.304 421.11 203.047C409.449 197.403 386.254 186.114 386.254 186.114L385.613 185.857L384.845 186.114C388.817 202.662 392.661 219.211 396.506 235.76C397.018 235.504 397.787 235.375 398.172 234.862Z" fill="#DD430F"/>
<path d="M356.268 220.238C356.268 220.238 382.41 231.398 395.353 236.786C394.584 232.168 393.302 227.678 392.277 223.188C389.458 211.001 383.691 186.498 383.691 186.498L382.922 186.755C373.824 197.274 355.884 218.442 355.884 218.442L356.268 220.238Z" fill="#DD430F"/>
<path d="M424.826 203.304C424.826 203.304 424.442 200.482 424.057 199.07C423.032 194.965 422.263 190.732 420.982 186.627C421.494 191.373 423.032 201.123 423.032 201.123L424.826 203.304Z" fill="#DD430F"/>
<path d="M285.788 193.554C283.866 207.024 281.687 220.622 279.765 234.092C279.637 234.862 279.765 235.632 279.765 236.402C282.456 236.017 285.019 235.247 287.71 234.734C293.733 233.323 299.628 232.04 305.65 230.629C305.65 230.372 305.522 229.859 305.522 229.602C305.779 229.346 306.547 229.089 306.035 228.576C299.628 217.287 293.22 205.998 286.813 194.709C286.429 194.196 286.172 193.811 285.788 193.554Z" fill="#DD430F"/>
<path d="M284.635 194.067C280.662 199.968 276.946 206.126 272.973 212.156C272.332 212.925 272.461 213.823 272.717 214.721C274.383 220.751 276.177 226.652 277.971 232.681C278.099 233.323 278.483 233.964 278.74 234.606C280.662 221.136 282.969 207.666 284.635 194.067Z" fill="#DD430F"/>
<path d="M428.414 219.083C427.902 214.08 426.236 209.333 425.339 204.33C424.954 204.458 424.314 204.843 423.929 204.972C425.467 209.718 427.005 214.336 428.414 219.083Z" fill="#DD430F"/>
<path d="M422.391 205.1C414.062 215.491 406.245 226.267 397.916 236.786C398.044 237.3 398.3 237.684 398.556 238.198C406.117 241.405 413.677 244.868 421.238 248.204C421.623 242.431 421.623 236.658 421.879 230.885C421.879 222.29 422.52 213.695 422.391 205.1Z" fill="#DD430F"/>
<path d="M423.417 206.126C423.032 219.596 422.648 233.066 422.391 246.408C425.082 239.865 427.645 233.194 430.208 226.652C429.696 224.343 428.799 222.034 428.03 219.724C426.492 215.234 425.211 210.616 423.417 206.126Z" fill="#DD430F"/>
<path d="M349.476 257.055C350.502 245.895 352.68 222.162 352.68 222.162L352.296 220.751C352.296 220.751 323.719 227.422 309.623 230.757C310.007 231.27 310.136 231.912 310.648 232.425C323.335 243.329 335.893 254.233 348.451 265.137C349.22 262.443 349.092 259.749 349.476 257.055Z" fill="#DD430F"/>
<path d="M373.952 250.898C380.744 246.664 387.664 242.687 394.456 238.454C394.456 238.326 394.456 238.069 394.456 238.069C381.897 232.553 356.14 221.649 356.14 221.649L354.218 222.034C352.936 234.862 351.783 247.819 350.63 260.647C350.502 262.059 350.245 263.598 350.63 265.009C358.447 260.391 366.135 255.644 373.952 250.898Z" fill="#DD430F"/>
<path d="M275.024 225.882C275.792 229.218 276.433 232.681 277.458 236.017C278.227 235.247 277.586 234.092 277.33 233.194C276.561 230.757 276.049 228.191 275.024 225.882Z" fill="#DD430F"/>
<path d="M304.625 273.219C305.394 259.878 306.163 246.536 306.932 233.194C306.547 232.553 306.291 231.912 305.907 231.27C297.449 233.194 288.863 235.247 280.406 237.043C280.278 237.3 280.149 237.813 280.021 238.069C284.891 245.125 289.888 252.181 294.758 259.236C298.09 263.983 301.165 268.729 304.625 273.219Z" fill="#DD430F"/>
<path d="M310.007 273.219C322.309 270.91 334.74 268.601 347.17 266.292C347.042 265.907 346.913 265.522 346.785 265.137C335.252 255.259 323.847 245.382 312.314 235.375C311.033 234.221 309.751 232.938 308.341 232.168C307.316 246.023 306.804 259.878 305.779 273.733C307.188 273.989 308.598 273.476 310.007 273.219Z" fill="#DD430F"/>
<path d="M278.355 238.967C278.227 240.25 278.612 241.405 278.868 242.687C279.381 244.74 279.765 246.793 280.278 248.845C280.278 246.664 279.637 244.612 279.381 242.559C279.124 241.276 279.252 239.865 278.355 238.967Z" fill="#DD430F"/>
<path d="M296.68 263.47C291.042 255.388 285.403 247.178 279.637 239.224C280.662 246.023 282.072 252.694 283.225 259.493C283.353 260.391 283.738 261.417 284.635 261.802C290.914 265.651 297.065 269.499 303.344 273.219C301.293 269.884 298.859 266.677 296.68 263.47Z" fill="#DD430F"/>
<path d="M396.634 239.865C394.712 253.335 392.533 266.677 390.867 280.147C392.021 279.249 393.174 278.223 394.071 277.068C402.913 267.831 411.883 258.723 420.725 249.487C413.165 245.895 405.476 242.816 397.787 239.352C397.531 239.48 397.018 239.737 396.634 239.865Z" fill="#DD430F"/>
<path d="M354.474 267.831C366.135 272.193 377.668 276.683 389.33 281.045C390.227 278.992 390.099 276.683 390.611 274.374C392.277 263.085 393.943 251.796 395.481 240.635C395.353 240.378 394.968 239.865 394.84 239.609C380.359 248.46 365.751 257.184 351.27 266.164C352.039 267.19 353.321 267.318 354.474 267.831Z" fill="#DD430F"/>
<path d="M409.577 262.315C403.938 268.473 397.787 274.246 392.277 280.403C398.428 277.581 404.451 274.759 410.602 272.065C411.499 271.68 411.755 270.654 412.268 269.884C414.959 263.726 417.778 257.569 420.469 251.411C416.625 254.875 413.293 258.723 409.577 262.315Z" fill="#DD430F"/>
<path d="M304.241 277.068C303.856 276.042 303.472 275.015 302.959 274.117C302.319 273.476 301.55 273.091 300.781 272.578C296.168 269.756 291.683 266.933 287.069 264.239C288.607 265.907 290.529 267.318 292.195 268.858C299.115 274.887 306.163 280.917 313.083 286.946C314.621 288.229 315.902 289.512 317.568 290.538C313.724 285.791 309.879 281.173 305.907 276.427C305.266 276.555 304.753 276.811 304.241 277.068Z" fill="#DD430F"/>
<path d="M347.554 267.19C333.971 269.756 320.387 272.193 306.676 274.887C307.573 275.529 308.47 276.17 309.495 276.683C316.671 280.275 323.975 283.739 331.151 287.459C335.893 289.768 340.378 292.206 345.248 294.258C346.273 286.176 347.17 278.094 348.067 270.141C348.451 268.986 347.939 268.088 347.554 267.19Z" fill="#DD430F"/>
<path d="M388.176 282.071C385.998 280.788 383.435 280.147 381.128 279.249C371.133 275.4 361.138 271.68 351.142 267.831C350.886 267.96 350.245 268.216 349.989 268.345C349.348 272.706 348.964 276.94 348.323 281.301C347.81 285.663 347.17 290.025 346.913 294.387C350.117 293.617 353.064 292.591 356.268 291.693C366.776 288.357 377.54 285.278 388.176 282.071Z" fill="#DD430F"/>
<path d="M392.277 282.841C391.252 283.226 390.227 283.739 389.073 284.124C388.945 283.995 388.561 283.739 388.304 283.611C383.948 287.074 379.334 290.153 375.105 293.873C385.613 287.587 396.121 281.173 406.629 274.759C401.632 276.683 396.762 279.249 391.893 281.301C392.021 281.815 392.149 282.328 392.277 282.841Z" fill="#DD430F"/>
<path d="M320.003 292.206C320.644 293.36 322.053 292.975 323.206 293.232C329.998 293.489 336.662 294.387 343.453 294.387C331.28 288.485 319.234 282.328 307.188 276.427C311.289 281.815 315.774 286.946 320.003 292.206Z" fill="#DD430F"/>
<path d="M375.746 286.689C366.52 289.512 357.293 292.077 348.195 295.028C354.858 295.798 361.522 296.439 368.186 297.209C369.595 297.465 370.492 296.439 371.517 295.669C376.899 291.436 382.41 287.459 387.792 283.226C383.691 284.252 379.719 285.535 375.746 286.689Z" fill="#DD430F"/>
<path d="M139.061 231.014C160.717 192.656 181.99 154.171 203.518 115.813C198.52 131.592 192.626 146.987 187.372 162.637C178.017 189.192 168.791 215.748 159.436 242.303C152.644 238.454 145.724 234.862 139.061 231.014Z" fill="#DD430F"/>
<path d="M496.46 115.813C511.068 157.634 525.933 199.199 540.285 241.02C531.956 237.3 523.755 233.451 515.425 229.731C509.274 191.758 502.611 153.914 496.46 115.813Z" fill="#DD430F"/>
<path d="M201.34 130.181C203.006 125.563 204.671 121.073 206.081 116.455C205.953 118.635 205.825 120.816 205.44 122.997C199.289 158.661 193.651 194.324 187.372 229.859C179.042 233.451 170.841 237.428 162.511 241.148C175.326 204.074 188.397 167.127 201.34 130.181Z" fill="#DD430F"/>
<path d="M499.663 116.326C519.398 151.348 538.876 186.37 558.482 221.52C560.276 224.728 562.199 227.935 563.736 231.27C556.945 234.734 550.409 238.582 543.617 242.174C531.828 208.692 520.167 175.338 508.377 141.855C505.43 133.388 501.97 125.05 499.663 116.326Z" fill="#DD430F"/>
<path d="M162.255 244.227C170.328 239.994 178.786 236.658 186.987 232.681C190.447 255.644 193.907 278.736 197.367 301.699C199.033 313.244 201.083 324.79 202.365 336.464C189.422 305.547 175.454 275.015 162.255 244.227Z" fill="#DD430F"/>
<path d="M505.558 301.314C509.018 278.479 512.222 255.516 515.938 232.681C524.139 236.658 532.469 240.25 540.67 243.97C527.599 274.631 514.016 305.034 500.688 335.566C501.714 324.149 503.892 312.731 505.558 301.314Z" fill="#DD430F"/>
<path d="M138.42 233.836C145.212 237.043 151.619 240.892 158.283 244.484C146.878 277.325 135.216 310.037 124.068 343.007C125.093 330.435 127.271 317.863 128.809 305.291C132.013 281.43 135.088 257.697 138.42 233.836Z" fill="#DD430F"/>
<path d="M544.899 244.227C551.434 240.763 557.97 237.043 564.505 233.579C568.478 264.111 572.706 294.515 576.679 324.918C577.32 330.435 578.473 335.951 578.345 341.596C571.297 320.813 563.993 300.159 556.816 279.505C552.972 267.831 548.487 256.157 544.899 244.227Z" fill="#DD430F"/>
<path d="M507.736 323.251C519.141 297.337 530.418 271.423 541.823 245.51C541.951 282.199 541.183 319.017 540.926 355.707C526.958 351.987 512.99 348.01 498.894 344.418C500.945 337.106 504.789 330.306 507.736 323.251Z" fill="#DD430F"/>
<path d="M160.974 245.638C175.07 276.555 188.269 307.856 202.109 338.902C203.006 340.698 203.518 342.622 203.646 344.546C189.678 348.01 175.839 352.372 161.743 355.707C161.614 319.017 161.358 282.328 160.974 245.638Z" fill="#DD430F"/>
<path d="M544.258 287.587C544.386 274.502 544.258 261.417 544.643 248.332C555.535 280.147 566.684 311.705 577.704 343.52C566.427 347.368 555.022 350.96 543.617 354.809C543.874 332.359 543.489 310.037 544.258 287.587Z" fill="#DD430F"/>
<path d="M158.667 247.562C158.667 247.562 158.795 319.787 159.436 354.809C148.031 351.217 136.754 347.24 125.349 343.648L158.667 247.562Z" fill="#DD430F"/>
<path d="M125.349 346.342C136.626 349.934 147.775 353.526 158.923 357.503C162.512 365.457 165.331 373.667 168.663 381.749C175.582 399.709 182.759 417.412 189.55 435.501C167.894 405.867 146.621 376.104 125.349 346.342Z" fill="#DD430F"/>
<path d="M543.746 357.375C555.022 353.654 566.299 349.806 577.576 346.214C557.201 374.693 536.697 403.044 516.322 431.524C515.425 432.807 514.4 434.089 513.503 435.244C523.242 409.202 533.75 383.417 543.746 357.375Z" fill="#DD430F"/>
<path d="M162.255 358.401C176.351 354.552 190.319 350.576 204.415 346.984C200.571 376.489 196.47 405.867 192.37 435.372C182.118 409.843 172.379 384.058 162.255 358.401Z" fill="#DD430F"/>
<path d="M498.254 346.727C512.35 350.704 526.446 354.424 540.542 358.273C530.803 383.801 520.679 409.202 510.812 434.603C509.659 431.78 509.53 428.701 509.146 425.751C505.558 399.452 501.97 373.154 498.254 346.727Z" fill="#DD430F"/>
<path d="M206.081 347.882C215.82 368.407 225.559 389.061 235.298 409.587C221.587 417.925 207.875 426.392 194.164 434.603C198.008 405.738 201.852 376.746 206.081 347.882Z" fill="#DD430F"/>
<path d="M514.016 437.681C535.416 407.534 557.073 377.644 578.601 347.497C575.013 367.894 570.528 388.163 566.684 408.561C563.352 424.981 560.404 441.53 556.816 457.822C542.592 451.023 528.24 444.352 514.016 437.681Z" fill="#DD430F"/>
<path d="M124.324 347.753C145.084 375.976 165.203 404.584 185.706 432.935C186.859 434.474 187.884 436.142 188.781 437.81C174.429 444.224 160.333 451.536 145.853 457.822C138.805 421.004 131.372 384.443 124.324 347.753Z" fill="#DD430F"/>
<path d="M467.755 409.843C477.238 389.061 487.105 368.407 496.972 347.753C500.817 376.746 504.917 405.61 508.762 434.474C494.922 426.649 481.467 417.925 467.755 409.843Z" fill="#DD430F"/>
<path d="M231.967 414.59C233.376 413.692 234.786 412.794 236.324 412.153C250.932 428.188 265.797 443.967 280.406 460.003C251.445 452.947 222.74 445.122 193.779 437.81C206.466 429.984 219.408 422.415 231.967 414.59Z" fill="#DD430F"/>
<path d="M422.263 460.131C436.872 443.967 451.993 428.188 466.602 412.024C476.213 417.797 485.824 423.698 495.563 429.599C499.92 432.422 504.661 434.731 508.633 437.938C479.801 445.378 451.096 452.947 422.263 460.131Z" fill="#DD430F"/>
<path d="M147.262 460.131C161.615 453.332 175.839 446.661 190.191 439.862C198.264 482.325 206.081 524.787 213.898 567.25C213.257 566.48 212.617 565.71 211.976 564.812C190.319 529.919 168.791 495.025 147.262 460.131Z" fill="#DD430F"/>
<path d="M423.032 461.542C451.224 454.23 479.288 446.918 507.48 439.862C496.972 450.638 486.721 461.414 476.213 472.19C466.217 482.453 456.478 492.972 446.355 502.85C443.279 498.36 440.973 493.357 438.153 488.739C433.156 479.631 427.774 470.779 423.032 461.542Z" fill="#DD430F"/>
<path d="M487.105 569.687C487.105 569.687 460.707 526.84 447.508 505.416C468.652 483.608 489.924 461.671 511.068 439.734C507.865 458.977 504.02 478.22 500.432 497.462" fill="#DD430F"/>
<path d="M512.734 439.862C527.086 446.533 541.311 453.332 555.535 460.131C535.929 492.331 515.938 524.274 496.203 556.474C493.897 560.322 491.334 564.043 489.283 568.019L512.734 439.862Z" fill="#DD430F"/>
<path d="M191.729 439.862C212.232 460.901 232.607 482.068 253.111 503.235C253.879 504.262 255.802 505.416 254.52 506.699C241.706 527.738 228.763 548.777 215.82 569.687C207.747 526.327 199.802 483.094 191.729 439.862Z" fill="#DD430F"/>
<path d="M195.445 439.862C223.637 446.918 251.829 454.23 279.893 461.542C272.204 475.269 264.388 489.124 256.699 502.85C252.854 499.643 249.651 495.666 246.063 492.074C229.276 474.884 212.36 457.437 195.445 439.862Z" fill="#DD430F"/>
<path d="M282.2 462.697C289.632 471.934 296.296 481.683 303.472 491.048C317.952 510.676 332.561 530.175 346.913 549.803C317.44 534.922 288.223 519.656 258.877 504.646C266.566 490.535 274.511 476.68 282.2 462.697Z" fill="#DD430F"/>
<path d="M353.193 485.404C374.849 478.091 396.378 470.394 418.034 463.082C406.117 479.759 393.687 496.18 381.513 512.728C372.158 525.172 363.06 538.001 353.577 550.316C353.705 543.132 353.577 535.948 353.962 528.764C353.577 514.268 353.193 499.772 353.193 485.404Z" fill="#DD430F"/>
<path d="M419.188 464.236C419.572 463.595 420.854 462.312 421.238 463.723C428.799 477.45 436.616 490.92 444.048 504.646C414.703 519.784 385.357 534.922 355.884 549.931C376.9 521.324 398.172 492.844 419.188 464.236Z" fill="#DD430F"/>
<path d="M284.635 462.954C306.419 470.394 328.204 477.963 349.989 485.532C349.861 497.591 349.22 509.521 349.092 521.452C348.836 531.073 349.348 540.566 349.22 550.188C327.692 521.195 306.163 492.074 284.635 462.954Z" fill="#DD430F"/>
<path d="M217.742 571.868C230.813 549.931 244.269 528.379 257.596 506.699C287.838 522.478 318.465 537.872 348.708 553.78C305.01 559.809 261.44 565.839 217.742 571.868Z" fill="#DD430F"/>
<path d="M379.847 540.438C401.632 529.149 423.545 517.988 445.329 506.699C458.657 528.379 471.984 550.188 485.311 571.868C441.741 565.839 398.044 559.937 354.474 553.78C362.675 548.905 371.389 544.928 379.847 540.438Z" fill="#DD430F"/>
<path d="M353.321 555.319C372.286 557.5 391.124 560.451 410.089 563.016C434.821 566.352 459.426 569.944 484.158 573.151C478.263 576.358 471.984 578.539 465.961 581.361C428.414 597.653 390.739 613.946 353.193 630.11C353.321 605.222 352.936 580.206 353.321 555.319Z" fill="#DD430F"/>
<path d="M313.083 560.194C325.257 558.655 337.431 556.474 349.604 555.447C349.861 580.335 349.604 605.222 349.604 630.11C305.907 611.38 262.337 592.137 218.511 573.536C230.301 571.227 242.475 570.072 254.392 568.276C273.998 565.582 293.605 562.888 313.083 560.194Z" fill="#DD430F"/>
<path d="M691.525 505.559C600.153 461.55 472.508 435.267 352.325 435.267C231.737 435.267 104.765 461.279 13.2202 505.559L83.3897 610.187C166.36 577.105 249.406 558.157 352.325 558.157C454.852 558.157 540.633 577.338 623.39 610.187L691.525 505.559Z" fill="#F3E1B8"/>
<path fill-rule="evenodd" clip-rule="evenodd" d="M673.616 510.699C585.205 471.135 465.551 447.47 352.325 447.47C238.757 447.47 119.768 470.87 31.2939 510.599L88.0618 595.244C169.307 563.876 251.511 545.953 352.325 545.953C452.683 545.953 537.368 564.064 618.58 595.21L673.616 510.699ZM691.525 505.559C687.859 503.794 684.135 502.057 680.356 500.349C589.923 459.483 467.686 435.267 352.325 435.267C236.573 435.267 114.937 459.235 24.401 500.321C20.6189 502.038 16.8911 503.784 13.2202 505.559L83.3897 610.187C166.36 577.105 249.406 558.157 352.325 558.157C454.852 558.157 540.633 577.338 623.39 610.187L691.525 505.559Z" fill="#345E5A"/>
<path d="M74.6794 509.437L90.1274 504.538C95.4008 502.866 99.6408 502.887 102.847 504.601C106.034 506.254 108.434 509.624 110.047 514.711L110.874 517.317C111.936 520.667 112.243 523.574 111.796 526.037C111.41 528.481 110.248 530.523 108.31 532.162L108.369 532.348C114.007 532.472 117.987 536.194 120.308 543.515L122.079 549.099C123.672 554.124 123.558 558.394 121.736 561.907C119.957 565.34 116.524 567.862 111.437 569.476L95.3371 574.581L74.6794 509.437ZM97.3283 531.445C99.3756 530.796 100.728 529.786 101.387 528.417C102.107 527.027 102.073 525.092 101.286 522.61L100.135 518.981C99.3879 516.623 98.4125 515.055 97.2095 514.276C96.0685 513.477 94.5985 513.363 92.7993 513.933L87.8671 515.497L93.3267 532.714L97.3283 531.445ZM108.485 560.169C110.285 559.599 111.471 558.71 112.044 557.504C112.598 556.236 112.501 554.423 111.754 552.066L109.953 546.389C109.009 543.411 107.832 541.531 106.424 540.749C105.057 539.885 103.195 539.826 100.838 540.574L96.2778 542.02L102.623 562.029L108.485 560.169Z" fill="#345E5A"/>
<path d="M147.181 560.271C142.149 561.609 137.967 561.206 134.636 559.061C131.287 556.853 128.903 553.076 127.481 547.729L126.478 543.955L136.29 541.346L137.494 545.875C138.631 550.152 140.993 551.814 144.578 550.861C146.339 550.393 147.526 549.539 148.139 548.298C148.799 546.978 148.819 545.154 148.2 542.827C147.464 540.059 146.191 537.805 144.382 536.063C142.555 534.259 139.551 532.33 135.368 530.277C130.088 527.64 126.197 525.038 123.696 522.47C121.178 519.839 119.409 516.605 118.389 512.768C117.001 507.548 117.252 503.171 119.141 499.638C121.014 496.042 124.466 493.575 129.498 492.237C134.467 490.916 138.594 491.368 141.88 493.593C145.211 495.737 147.587 499.483 149.009 504.83L149.736 507.566L139.924 510.175L139.021 506.778C138.419 504.514 137.544 502.995 136.396 502.223C135.231 501.388 133.799 501.196 132.101 501.647C128.641 502.567 127.472 505.134 128.592 509.349C129.228 511.739 130.45 513.805 132.26 515.546C134.133 517.271 137.16 519.16 141.343 521.213C146.686 523.833 150.585 526.467 153.04 529.114C155.495 531.762 157.274 535.161 158.378 539.313C159.816 544.722 159.567 549.233 157.632 552.846C155.759 556.442 152.276 558.917 147.181 560.271Z" fill="#345E5A"/>
<path d="M184.346 551.484C179.256 552.583 175.066 551.989 171.776 549.703C168.473 547.353 166.237 543.474 165.07 538.066L154.07 487.106L164.567 484.84L175.732 536.564C176.226 538.854 177.029 540.412 178.139 541.238C179.313 542.05 180.759 542.27 182.477 541.9C184.194 541.529 185.389 540.738 186.06 539.528C186.794 538.304 186.914 536.547 186.42 534.257L175.255 482.533L185.37 480.349L196.371 531.31C197.538 536.717 197.101 541.173 195.061 544.676C193.007 548.116 189.435 550.385 184.346 551.484Z" fill="#345E5A"/>
<path d="M196.297 478.518L206.875 476.667L218.655 543.985L208.076 545.836L196.297 478.518Z" fill="#345E5A"/>
<path d="M222.302 474.164L238.073 472.041C243.556 471.302 247.729 472.054 250.592 474.295C253.446 476.472 255.23 480.205 255.942 485.495L256.502 489.655C257.449 496.686 255.726 501.45 251.334 503.946L251.36 504.139C254.044 504.566 256.063 505.903 257.417 508.151C258.835 510.39 259.813 513.509 260.351 517.508L261.954 529.409C262.215 531.344 262.492 532.916 262.786 534.124C263.071 535.268 263.55 536.385 264.222 537.477L253.386 538.936C252.851 537.892 252.454 536.895 252.195 535.944C251.936 534.994 251.637 533.261 251.298 530.746L249.63 518.361C249.213 515.265 248.406 513.173 247.209 512.087C246.077 510.991 244.285 510.609 241.834 510.939L238.157 511.434L242.066 540.461L231.423 541.894L222.302 474.164ZM240.724 501.237C242.853 500.95 244.359 500.189 245.244 498.954C246.193 497.709 246.493 495.797 246.146 493.217L245.442 487.992C245.112 485.541 244.422 483.828 243.371 482.853C242.385 481.869 240.957 481.504 239.086 481.755L234.248 482.407L236.854 501.758L240.724 501.237Z" fill="#345E5A"/>
<path d="M307.096 535.208C301.834 535.52 297.717 534.263 294.747 531.44C291.776 528.616 290.13 524.476 289.807 519.018L287.687 483.153C287.364 477.695 288.511 473.389 291.128 470.235C293.745 467.081 297.685 465.349 302.948 465.037C308.21 464.726 312.327 465.982 315.298 468.806C318.268 471.63 319.915 475.77 320.237 481.228L322.358 517.093C322.68 522.551 321.533 526.857 318.916 530.011C316.299 533.165 312.359 534.897 307.096 535.208ZM306.52 525.462C310.224 525.243 311.943 522.892 311.678 518.409L309.477 481.18C309.212 476.697 307.227 474.564 303.524 474.783C299.821 475.002 298.101 477.353 298.367 481.837L300.568 519.066C300.833 523.549 302.817 525.681 306.52 525.462Z" fill="#345E5A"/>
<path d="M330.581 464.847L346.396 464.676C351.732 464.618 355.75 466.007 358.45 468.841C361.149 471.676 362.529 475.86 362.589 481.392L362.662 488.128C362.721 493.66 361.433 497.872 358.795 500.764C356.158 503.657 352.171 505.132 346.834 505.19L341.758 505.245L342.059 533.068L331.321 533.184L330.581 464.847ZM346.729 495.428C348.486 495.409 349.782 494.906 350.618 493.921C351.518 492.935 351.956 491.27 351.931 488.927L351.843 480.824C351.817 478.481 351.344 476.827 350.422 475.86C349.566 474.893 348.259 474.419 346.502 474.438L341.425 474.493L341.652 495.483L346.729 495.428Z" fill="#345E5A"/>
<path d="M371.976 464.843L401.246 465.88L400.9 475.637L382.362 474.98L381.722 493.03L396.455 493.552L396.109 503.309L381.377 502.787L380.633 523.764L399.17 524.421L398.825 534.178L369.555 533.141L371.976 464.843Z" fill="#345E5A"/>
<path d="M411.791 466.64L425.216 467.766L432.207 509.403L432.402 509.419L435.82 468.655L445.354 469.455L439.643 537.557L428.65 536.635L419.977 485.843L419.783 485.827L415.614 535.541L406.08 534.742L411.791 466.64Z" fill="#345E5A"/>
<path d="M468.826 533.957C469.601 529.138 471.033 525.149 473.123 521.991C475.224 518.769 478.602 515.39 483.257 511.854C487.849 508.307 491.121 505.175 493.074 502.456C495.092 499.748 496.359 496.788 496.876 493.575C497.341 490.683 497.179 488.613 496.391 487.366C495.677 486.065 494.421 485.269 492.622 484.98C488.959 484.391 486.771 486.313 486.058 490.747L484.896 497.977L474.871 496.365L475.925 489.81C476.804 484.348 478.825 480.388 481.989 477.93C485.163 475.408 489.32 474.56 494.461 475.387C499.602 476.214 503.284 478.322 505.507 481.712C507.741 485.038 508.419 489.432 507.541 494.894C506.879 499.007 505.237 502.863 502.615 506.463C500.057 510.073 495.96 514.028 490.324 518.33C486.638 521.165 484.078 523.555 482.645 525.5C481.222 527.381 480.319 529.51 479.937 531.888L479.704 533.333L499.849 536.573L498.299 546.212L467.648 541.283L468.826 533.957Z" fill="#345E5A"/>
<path d="M522.065 552.172C516.907 551.08 513.269 548.78 511.152 545.271C509.034 541.762 508.541 537.334 509.674 531.985L517.116 496.836C518.249 491.488 520.494 487.639 523.852 485.289C527.21 482.94 531.468 482.312 536.626 483.404C541.783 484.496 545.421 486.796 547.538 490.305C549.656 493.814 550.149 498.243 549.016 503.591L541.574 538.74C540.441 544.088 538.196 547.937 534.838 550.287C531.48 552.636 527.222 553.265 522.065 552.172ZM524.087 542.621C527.716 543.39 529.996 541.577 530.926 537.184L538.652 500.698C539.582 496.304 538.233 493.723 534.603 492.955C530.974 492.186 528.694 493.999 527.764 498.392L520.038 534.878C519.108 539.272 520.458 541.853 524.087 542.621Z" fill="#345E5A"/>
<path d="M547.648 549.387C548.893 544.667 550.71 540.839 553.1 537.902C555.507 534.902 559.201 531.871 564.182 528.809C569.099 525.731 572.664 522.935 574.875 520.422C577.149 517.925 578.7 515.104 579.53 511.957C580.277 509.125 580.32 507.049 579.658 505.731C579.076 504.365 577.904 503.45 576.141 502.986C572.554 502.039 570.188 503.738 569.043 508.08L567.175 515.16L557.358 512.571L559.051 506.152C560.462 500.802 562.862 497.06 566.252 494.925C569.659 492.727 573.88 492.292 578.914 493.62C583.949 494.948 587.406 497.408 589.286 501C591.182 504.529 591.425 508.969 590.014 514.318C588.952 518.346 586.939 522.022 583.975 525.346C581.075 528.687 576.609 532.221 570.578 535.948C566.631 538.408 563.849 540.535 562.231 542.329C560.63 544.061 559.523 546.091 558.908 548.42L558.535 549.836L578.264 555.039L575.775 564.48L545.756 556.562L547.648 549.387Z" fill="#345E5A"/>
<path d="M598.56 572.658C593.535 571.064 590.162 568.458 588.442 564.84C586.784 561.242 586.781 556.837 588.433 551.625L590.116 546.32L599.794 549.39L597.964 555.16C596.607 559.44 597.696 562.142 601.232 563.263C602.969 563.814 604.439 563.7 605.642 562.92C606.927 562.099 608.002 560.323 608.868 557.593L610.55 552.289C611.494 549.311 611.636 547.034 610.975 545.459C610.333 543.821 608.834 542.629 606.476 541.881L603.033 540.789L605.984 531.483L609.707 532.664C611.754 533.313 613.441 533.267 614.768 532.528C616.157 531.807 617.245 530.206 618.032 527.725L619.537 522.979C620.246 520.745 620.302 518.953 619.706 517.604C619.109 516.254 618.036 515.333 616.485 514.841C613.197 513.798 610.913 515.293 609.634 519.326L608.277 523.607L598.599 520.538L599.691 517.094C601.343 511.883 603.884 508.284 607.313 506.299C610.804 504.334 614.969 504.118 619.808 505.653C624.709 507.207 627.989 509.783 629.647 513.382C631.325 516.919 631.338 521.293 629.685 526.504L628.948 528.831C627.826 532.367 626.332 535.034 624.465 536.832C622.617 538.567 620.305 539.507 617.528 539.65L617.469 539.837C619.822 541.675 621.234 543.898 621.704 546.506C622.175 549.113 621.859 552.154 620.757 555.628L618.928 561.398C617.275 566.609 614.703 570.198 611.212 572.164C607.803 574.087 603.586 574.251 598.56 572.658Z" fill="#345E5A"/>
</svg>
