<svg width="263" height="281" viewBox="0 0 263 281" fill="none" xmlns="http://www.w3.org/2000/svg">
<path fill-rule="evenodd" clip-rule="evenodd" d="M196.032 143.212L179.019 143.212C178.089 145.135 176.119 146.462 173.839 146.462C170.664 146.462 168.089 143.887 168.089 140.712C168.089 137.536 170.664 134.962 173.839 134.962C176.119 134.962 178.089 136.288 179.019 138.212L199.653 138.212C202.771 138.212 204.333 141.982 202.128 144.187L195.398 150.916L195.398 195.454L190.398 195.454L190.398 150.295C190.398 149.367 190.767 148.477 191.423 147.82L196.032 143.212ZM174.589 171.726L174.589 211.462L179.589 211.462L179.589 168.104C179.589 164.986 175.819 163.425 173.614 165.629L168.939 170.305L144.594 145.96L162.628 127.926C164.833 125.721 163.271 121.951 160.153 121.951L145.963 121.951C145.035 121.951 144.145 122.32 143.488 122.976L129.067 137.397L129.067 100.957C129.067 100.029 128.699 99.1383 128.042 98.4819L117.103 87.5426L129.003 75.6421C129.554 75.8175 130.141 75.9121 130.75 75.9121C133.926 75.9121 136.5 73.3377 136.5 70.1621C136.5 66.9865 133.926 64.4121 130.75 64.4121C127.574 64.4121 125 66.9865 125 70.1621C125 70.8805 125.132 71.5681 125.372 72.2021L87.8764 109.698L87.8764 69.9619L82.8764 69.9619L82.8764 113.319C82.8764 116.438 86.6464 117.999 88.8512 115.794L113.567 91.0781L124.067 101.578L124.067 172.127L116.067 164.127L116.067 113.092C117.991 112.162 119.317 110.192 119.317 107.912C119.317 104.736 116.743 102.162 113.567 102.162C110.392 102.162 107.817 104.736 107.817 107.912C107.817 110.192 109.144 112.162 111.067 113.092L111.067 164.748C111.067 165.676 111.436 166.566 112.092 167.223L123.092 178.223C125.297 180.428 129.067 178.866 129.067 175.748L129.067 144.468L146.585 126.951L156.532 126.951L139.998 143.485C138.631 144.852 138.631 147.068 139.998 148.435L162.032 170.469L150.103 170.469L141.794 162.16C142.088 161.47 142.25 160.71 142.25 159.912C142.25 156.736 139.676 154.162 136.5 154.162C133.324 154.162 130.75 156.736 130.75 159.912C130.75 163.088 133.324 165.662 136.5 165.662C137.027 165.662 137.537 165.591 138.021 165.459L147.007 174.444C147.663 175.1 148.553 175.469 149.482 175.469L163.775 175.469L132.818 206.426C132.176 206.178 131.479 206.043 130.75 206.043C127.574 206.043 125 208.617 125 211.793C125 214.968 127.574 217.543 130.75 217.543C133.926 217.543 136.5 214.968 136.5 211.793C136.5 211.195 136.409 210.618 136.239 210.076L174.589 171.726ZM88.6264 134.962C91.802 134.962 94.3764 137.536 94.3764 140.712C94.3764 143.887 91.802 146.462 88.6264 146.462C86.3467 146.462 84.3769 145.135 83.4468 143.212L62.8126 143.212C59.6944 143.212 58.1328 139.442 60.3377 137.237L67.0673 130.507L67.0673 85.9692L72.0673 85.9692L72.0673 131.129C72.0673 132.057 71.6986 132.947 71.0422 133.603L66.4338 138.212L83.4468 138.212C84.3769 136.288 86.3467 134.962 88.6264 134.962Z" fill="#345E5A"/>
<path fill-rule="evenodd" clip-rule="evenodd" d="M56 169.468L75.6312 169.468C76.5595 169.468 77.4497 169.837 78.1061 170.493L100.711 193.098C101.368 193.754 101.736 194.645 101.736 195.573L101.736 215.47L96.7364 210.97L96.7364 196.194L75.0099 174.468L61 174.468L56 169.468Z" fill="#345E5A"/>
<path fill-rule="evenodd" clip-rule="evenodd" d="M205.5 109.47L186.504 109.47C185.576 109.47 184.686 109.101 184.029 108.445L161.424 85.8394C160.768 85.183 160.399 84.2928 160.399 83.3645L160.399 64.4707L165.399 68.9697L165.399 82.7432L187.125 104.47L201 104.47L205.5 109.47Z" fill="#345E5A"/>
<path fill-rule="evenodd" clip-rule="evenodd" d="M50.903 161.045L106.899 217.04C114.159 223.989 118.259 231.197 120.16 240.622C122.038 249.932 121.754 261.34 120.466 276.638L120.104 280.931L25.6199 186.418L25.5791 186.381C25.5279 186.334 25.4538 186.266 25.3583 186.178C25.1672 186 24.8902 185.74 24.5396 185.403C23.8387 184.729 22.8427 183.747 21.6499 182.502C19.2665 180.016 16.0861 176.47 12.9014 172.234C6.59803 163.851 0 152.404 0 140.97C0 129.055 6.57871 117.366 12.8929 108.842C16.0787 104.541 19.2605 100.962 21.6455 98.4579C22.839 97.2046 23.8358 96.2177 24.5375 95.541C24.8884 95.2027 25.1657 94.9417 25.3572 94.7636C25.453 94.6746 25.5272 94.6063 25.5786 94.5593L25.6381 94.5051L25.6546 94.4901L25.6595 94.4857L25.6611 94.4843C25.6611 94.4843 25.6621 94.4834 27 95.97C27 95.97 23.9437 98.7207 19.9683 103.26C12.574 111.704 2 126.337 2 140.97C2 162.47 27 184.97 27 184.97L118.473 276.47C118.547 275.584 118.618 274.713 118.686 273.854C120.948 245.071 119.087 231.465 105.5 218.47L49.5 162.47C21.2743 135.124 16.806 116.737 21.6956 104.324C22.9381 101.17 24.7851 98.4016 27 95.97L25.6621 94.4834L28.4786 97.3168C23.4095 102.882 20.4243 110.27 22.8226 120.398C25.2603 130.692 33.3025 143.993 50.8917 161.034L50.903 161.045Z" fill="#345E5A"/>
<path d="M50.8802 119.918L50.8794 119.918L50.8637 119.934L50.8442 119.953L50.7907 120.005C50.7239 120.071 50.6216 120.174 50.4889 120.312C50.2233 120.588 49.8366 121.002 49.3691 121.54C48.4326 122.617 47.1806 124.182 45.9299 126.118C43.4082 130.021 41.0001 135.262 41.0001 140.97C41.0001 149.465 46.3423 156.336 49.2303 159.407C49.7745 159.945 50.3282 160.488 50.8917 161.034L48.1985 163.989L48.1974 163.988L48.1924 163.983L48.1822 163.974L48.1502 163.947C48.1238 163.923 48.0873 163.891 48.0414 163.85C47.9495 163.767 47.8199 163.649 47.658 163.496C47.3393 163.195 46.8948 162.76 46.3671 162.201C29.4553 145.457 21.2626 131.878 18.8029 120.763C16.307 109.486 19.7585 100.95 25.5215 94.6232L25.5529 94.5887L120.131 0.0107422L120.493 4.30183C121.784 19.6 122.068 31.0081 120.186 40.3183C118.281 49.7441 114.173 56.9524 106.898 63.9006L78.8975 91.901L50.8971 119.901L50.881 119.917L50.8802 119.918Z" fill="#345E5A"/>
<path fill-rule="evenodd" clip-rule="evenodd" d="M105.5 218.47L49.5 162.47C23.1083 136.901 17.487 119.164 20.8649 106.82C22.0177 102.608 24.2187 99.0233 27 95.97C27 95.97 22.9762 99.5912 18.1571 105.381C10.9643 114.023 2 127.497 2 140.97C2 162.47 27 184.97 27 184.97L118.473 276.47C118.586 275.129 118.691 273.819 118.787 272.541C120.888 244.653 118.879 231.265 105.5 218.47ZM115.98 269.733C116.791 257.797 116.728 248.894 115.259 241.611C113.572 233.25 110.011 226.935 103.426 220.638L103.402 220.615L47.3955 164.608C29.5422 147.307 20.7161 133.201 17.9572 121.55C17.1159 117.998 16.845 114.7 17.04 111.644C16.9969 111.702 16.9538 111.76 16.9107 111.818C10.7569 120.125 5 130.718 5 140.97C5 150.694 10.728 161.023 16.8978 169.229C19.9333 173.267 22.9753 176.659 25.2596 179.042C26.4001 180.232 27.3474 181.166 28.005 181.798C28.3337 182.114 28.5896 182.355 28.7607 182.514C28.8462 182.593 28.9105 182.652 28.9521 182.69L28.9971 182.731L29.0065 182.739L29.0076 182.741L29.0657 182.793L115.98 269.733Z" fill="#345E5A"/>
<path fill-rule="evenodd" clip-rule="evenodd" d="M212.097 119.886L156.101 63.8903C148.841 56.9417 144.741 49.7334 142.84 40.3082C140.962 30.9986 141.246 19.591 142.534 4.29284L142.896 -0.00013257L237.38 94.5124L237.421 94.5495C237.472 94.5963 237.546 94.6644 237.642 94.7531C237.833 94.9306 238.11 95.1907 238.46 95.5277C239.161 96.2016 240.157 97.1838 241.35 98.4283C243.734 100.915 246.914 104.461 250.099 108.696C256.402 117.08 263 128.527 263 139.961C263 151.876 256.421 163.564 250.107 172.089C246.921 176.389 243.74 179.969 241.355 182.473C240.161 183.726 239.164 184.713 238.462 185.39C238.112 185.728 237.834 185.989 237.643 186.167C237.547 186.256 237.473 186.324 237.421 186.371L237.362 186.426L237.345 186.441L237.341 186.445L237.339 186.446C237.339 186.446 237.338 186.447 236 184.961C236 184.961 239.056 182.21 243.032 177.67C250.426 169.227 261 154.594 261 139.961C261 118.461 236 95.9607 236 95.9607L144.527 4.46068C144.453 5.3463 144.382 6.21807 144.314 7.07631C142.052 35.8601 143.913 49.466 157.5 62.4607L213.5 118.461C241.726 145.807 246.194 164.194 241.304 176.606C240.062 179.761 238.215 182.529 236 184.961L237.338 186.447L234.521 183.614C239.59 178.049 242.576 170.661 240.177 160.532C237.74 150.238 229.698 136.938 212.108 119.897L212.097 119.886Z" fill="#345E5A"/>
<path d="M212.12 161.013L212.121 161.012L212.136 160.997L212.156 160.978L212.209 160.925C212.276 160.859 212.378 160.756 212.511 160.619C212.777 160.343 213.163 159.929 213.631 159.391C214.567 158.313 215.819 156.748 217.07 154.813C219.592 150.91 222 145.668 222 139.961C222 131.465 216.658 124.594 213.77 121.524C213.226 120.985 212.672 120.443 212.108 119.897L214.801 116.942L214.803 116.943L214.808 116.947L214.818 116.956L214.85 116.984C214.876 117.007 214.913 117.04 214.959 117.081C215.051 117.163 215.18 117.282 215.342 117.434C215.661 117.735 216.105 118.171 216.633 118.73C233.545 135.473 241.737 149.053 244.197 160.167C246.693 171.445 243.242 179.981 237.478 186.307L237.447 186.342L142.869 280.92L142.507 276.629C141.216 261.331 140.932 249.923 142.814 240.612C144.719 231.187 148.827 223.978 156.102 217.03L184.102 189.03L212.103 161.029L212.119 161.014L212.12 161.013Z" fill="#345E5A"/>
<path fill-rule="evenodd" clip-rule="evenodd" d="M157.5 62.4607L213.5 118.461C239.892 144.03 245.513 161.767 242.135 174.11C240.982 178.323 238.781 181.907 236 184.961C236 184.961 240.024 181.339 244.843 175.549C252.036 166.907 261 153.434 261 139.961C261 118.461 236 95.9607 236 95.9607L144.527 4.46068C144.414 5.80169 144.309 7.11117 144.213 8.38988C142.112 36.2775 144.121 49.6653 157.5 62.4607ZM147.02 11.1972C146.209 23.1335 146.272 32.0366 147.741 39.3198C149.428 47.6808 152.989 53.9955 159.574 60.2929L159.598 60.316L215.605 116.323C233.458 133.623 242.284 147.73 245.043 159.38C245.884 162.933 246.155 166.231 245.96 169.287C246.003 169.229 246.046 169.171 246.089 169.113C252.243 160.805 258 150.213 258 139.961C258 130.237 252.272 119.907 246.102 111.701C243.067 107.664 240.025 104.272 237.74 101.888C236.6 100.698 235.653 99.7646 234.995 99.1324C234.666 98.8163 234.41 98.576 234.239 98.4171C234.154 98.3377 234.089 98.2787 234.048 98.2407L234.003 98.1996L233.994 98.1912L233.992 98.1902L233.934 98.1379L147.02 11.1972Z" fill="#345E5A"/>
</svg>
