<svg width="1526" height="837" viewBox="0 0 1526 837" fill="none" xmlns="http://www.w3.org/2000/svg">
<path d="M103.67 406.77C99.6566 406.77 96.4599 406.023 94.0799 404.53C91.6999 403.036 89.9966 400.89 88.9699 398.09C87.9433 395.29 87.4299 391.976 87.4299 388.15V366.94C87.4299 363.113 87.9433 359.846 88.9699 357.14C89.9966 354.386 91.6999 352.286 94.0799 350.84C96.4599 349.393 99.6566 348.67 103.67 348.67C107.777 348.67 110.997 349.393 113.33 350.84C115.71 352.286 117.413 354.386 118.44 357.14C119.513 359.846 120.05 363.113 120.05 366.94V388.22C120.05 392 119.513 395.29 118.44 398.09C117.413 400.843 115.71 402.99 113.33 404.53C110.997 406.023 107.777 406.77 103.67 406.77ZM103.67 399.14C105.397 399.14 106.657 398.766 107.45 398.02C108.29 397.273 108.85 396.246 109.13 394.94C109.41 393.633 109.55 392.21 109.55 390.67V364.56C109.55 362.973 109.41 361.55 109.13 360.29C108.85 359.03 108.29 358.05 107.45 357.35C106.657 356.603 105.397 356.23 103.67 356.23C102.037 356.23 100.8 356.603 99.9599 357.35C99.1199 358.05 98.5599 359.03 98.2799 360.29C97.9999 361.55 97.8599 362.973 97.8599 364.56V390.67C97.8599 392.21 97.9766 393.633 98.2099 394.94C98.4899 396.246 99.0499 397.273 99.8899 398.02C100.73 398.766 101.99 399.14 103.67 399.14Z" fill="#345E5A"/>
<path d="M131.843 406V372.19H124.423V365.54H148.783V372.19H141.293V406H131.843Z" fill="#345E5A"/>
<path d="M165.722 406.63C162.642 406.583 160.168 405.976 158.302 404.81C156.482 403.643 155.152 401.94 154.312 399.7C153.518 397.46 153.122 394.73 153.122 391.51V368.34C153.122 364.7 153.448 361.76 154.102 359.52C154.802 357.28 155.782 355.53 157.042 354.27C158.302 353.01 159.865 352.03 161.732 351.33C163.598 350.583 165.372 350.046 167.052 349.72C168.778 349.346 170.435 348.95 172.022 348.53C173.608 348.063 175.148 347.363 176.642 346.43L177.622 354.2C176.175 354.993 174.635 355.576 173.002 355.95C171.368 356.323 169.758 356.65 168.172 356.93C166.632 357.21 165.185 357.653 163.832 358.26C162.525 358.82 161.545 359.753 160.892 361.06C160.285 362.366 159.982 364.163 159.982 366.45V371.21C160.588 370.556 161.358 369.973 162.292 369.46C163.272 368.946 164.345 368.55 165.512 368.27C166.725 367.99 167.962 367.85 169.222 367.85C171.322 367.85 173.095 368.316 174.542 369.25C176.035 370.136 177.155 371.653 177.902 373.8C178.695 375.9 179.092 378.793 179.092 382.48V391.3C179.092 395.5 178.532 398.72 177.412 400.96C176.292 403.153 174.728 404.646 172.722 405.44C170.715 406.233 168.382 406.63 165.722 406.63ZM166.282 400.19C167.262 400.19 168.008 399.956 168.522 399.49C169.035 398.976 169.385 398.136 169.572 396.97C169.805 395.756 169.922 394.03 169.922 391.79V380.31C169.922 378.676 169.828 377.393 169.642 376.46C169.455 375.48 169.128 374.78 168.662 374.36C168.195 373.893 167.542 373.66 166.702 373.66C166.235 373.66 165.745 373.776 165.232 374.01C164.718 374.243 164.228 374.616 163.762 375.13C163.342 375.643 162.898 376.32 162.432 377.16V391.44C162.432 393.68 162.548 395.43 162.782 396.69C163.015 397.95 163.412 398.86 163.972 399.42C164.532 399.933 165.302 400.19 166.282 400.19Z" fill="#345E5A"/>
<path d="M197.917 406.63C194.977 406.63 192.551 406.093 190.637 405.02C188.724 403.9 187.277 402.29 186.297 400.19C185.364 398.09 184.897 395.546 184.897 392.56V378.98C184.897 375.993 185.364 373.45 186.297 371.35C187.277 369.25 188.724 367.663 190.637 366.59C192.551 365.47 194.977 364.91 197.917 364.91C200.857 364.91 203.284 365.47 205.197 366.59C207.157 367.663 208.604 369.25 209.537 371.35C210.517 373.45 211.007 375.993 211.007 378.98V392.56C211.007 395.546 210.517 398.09 209.537 400.19C208.604 402.29 207.157 403.9 205.197 405.02C203.284 406.093 200.857 406.63 197.917 406.63ZM197.987 400.05C199.061 400.05 199.854 399.746 200.367 399.14C200.881 398.533 201.207 397.716 201.347 396.69C201.487 395.616 201.557 394.45 201.557 393.19V378.35C201.557 377.09 201.487 375.946 201.347 374.92C201.207 373.893 200.881 373.076 200.367 372.47C199.854 371.816 199.061 371.49 197.987 371.49C196.914 371.49 196.121 371.816 195.607 372.47C195.094 373.076 194.744 373.893 194.557 374.92C194.417 375.946 194.347 377.09 194.347 378.35V393.19C194.347 394.45 194.417 395.616 194.557 396.69C194.744 397.716 195.094 398.533 195.607 399.14C196.121 399.746 196.914 400.05 197.987 400.05Z" fill="#345E5A"/>
<path d="M217.523 419.3V365.54H227.043V368.62C228.209 367.5 229.493 366.613 230.893 365.96C232.293 365.26 233.763 364.91 235.303 364.91C237.123 364.91 238.616 365.33 239.783 366.17C240.949 367.01 241.859 368.13 242.513 369.53C243.166 370.883 243.609 372.353 243.843 373.94C244.123 375.48 244.263 376.973 244.263 378.42V392.14C244.263 394.8 243.936 397.226 243.283 399.42C242.676 401.613 241.673 403.363 240.273 404.67C238.919 405.976 237.099 406.63 234.813 406.63C233.366 406.63 231.989 406.28 230.683 405.58C229.423 404.88 228.209 403.993 227.043 402.92V419.3H217.523ZM231.243 399.98C232.269 399.98 233.016 399.653 233.483 399C233.996 398.3 234.323 397.39 234.463 396.27C234.649 395.103 234.743 393.843 234.743 392.49V378C234.743 376.74 234.649 375.62 234.463 374.64C234.276 373.613 233.926 372.796 233.413 372.19C232.899 371.583 232.153 371.28 231.173 371.28C230.426 371.28 229.679 371.466 228.933 371.84C228.233 372.166 227.603 372.563 227.043 373.03V398.58C227.649 399 228.303 399.35 229.003 399.63C229.703 399.863 230.449 399.98 231.243 399.98Z" fill="#345E5A"/>
<path d="M263.064 406.63C260.124 406.63 257.697 406.093 255.784 405.02C253.87 403.9 252.424 402.29 251.444 400.19C250.51 398.09 250.044 395.546 250.044 392.56V378.98C250.044 375.993 250.51 373.45 251.444 371.35C252.424 369.25 253.87 367.663 255.784 366.59C257.697 365.47 260.124 364.91 263.064 364.91C266.004 364.91 268.43 365.47 270.344 366.59C272.304 367.663 273.75 369.25 274.684 371.35C275.664 373.45 276.154 375.993 276.154 378.98V392.56C276.154 395.546 275.664 398.09 274.684 400.19C273.75 402.29 272.304 403.9 270.344 405.02C268.43 406.093 266.004 406.63 263.064 406.63ZM263.134 400.05C264.207 400.05 265 399.746 265.514 399.14C266.027 398.533 266.354 397.716 266.494 396.69C266.634 395.616 266.704 394.45 266.704 393.19V378.35C266.704 377.09 266.634 375.946 266.494 374.92C266.354 373.893 266.027 373.076 265.514 372.47C265 371.816 264.207 371.49 263.134 371.49C262.06 371.49 261.267 371.816 260.754 372.47C260.24 373.076 259.89 373.893 259.704 374.92C259.564 375.946 259.494 377.09 259.494 378.35V393.19C259.494 394.45 259.564 395.616 259.704 396.69C259.89 397.716 260.24 398.533 260.754 399.14C261.267 399.746 262.06 400.05 263.134 400.05Z" fill="#345E5A"/>
<path d="M298.419 406V389.83C297.673 389.876 296.903 389.946 296.109 390.04C295.363 390.086 294.616 390.11 293.869 390.11C291.116 390.11 288.829 389.783 287.009 389.13C285.189 388.43 283.836 387.333 282.949 385.84C282.109 384.346 281.689 382.41 281.689 380.03V365.54H291.139V379.68C291.139 381.126 291.443 382.246 292.049 383.04C292.703 383.786 293.986 384.183 295.899 384.23C296.319 384.23 296.716 384.206 297.089 384.16C297.509 384.113 297.953 384.066 298.419 384.02V365.54H307.939V406H298.419Z" fill="#345E5A"/>
<path d="M315.277 406V365.54H324.797V381.85H332.987V365.54H342.507V406H332.987V388.57H324.797V406H315.277Z" fill="#345E5A"/>
<path d="M349.798 406V365.54H359.318V381.99C359.411 381.99 359.505 381.99 359.598 381.99C359.691 381.99 359.785 381.99 359.878 381.99C359.971 381.99 360.041 381.99 360.088 381.99C362.888 382.036 365.291 382.246 367.298 382.62C369.351 382.993 371.031 383.623 372.338 384.51C373.691 385.396 374.695 386.61 375.348 388.15C376.001 389.643 376.328 391.58 376.328 393.96C376.328 396.153 376.025 398.02 375.418 399.56C374.858 401.053 373.901 402.29 372.548 403.27C371.241 404.203 369.515 404.903 367.368 405.37C365.268 405.79 362.725 406 359.738 406H349.798ZM359.318 400.54H359.668C361.721 400.54 363.331 400.353 364.498 399.98C365.665 399.56 366.481 398.883 366.948 397.95C367.461 396.97 367.718 395.64 367.718 393.96C367.718 392.373 367.485 391.136 367.018 390.25C366.551 389.316 365.735 388.64 364.568 388.22C363.448 387.8 361.885 387.59 359.878 387.59C359.831 387.59 359.738 387.59 359.598 387.59C359.505 387.59 359.411 387.59 359.318 387.59V400.54ZM380.808 406V365.54H390.328V406H380.808Z" fill="#345E5A"/>
<path d="M397.581 406V365.54H405.351V389.9L416.691 365.54H424.111V406H416.341V381.64L405.211 406H397.581ZM411.021 361.06C407.661 361.06 405.118 360.15 403.391 358.33C401.711 356.463 400.871 353.966 400.871 350.84H406.331C406.331 352.52 406.681 353.803 407.381 354.69C408.081 355.576 409.295 356.02 411.021 356.02C412.701 356.02 413.891 355.576 414.591 354.69C415.291 353.756 415.641 352.473 415.641 350.84H421.101C421.101 353.966 420.238 356.463 418.511 358.33C416.831 360.15 414.335 361.06 411.021 361.06Z" fill="#345E5A"/>
<path d="M453.201 406V372.19H445.781V365.54H470.141V372.19H462.651V406H453.201Z" fill="#345E5A"/>
<path d="M475.039 416.99V410.13C476.672 410.13 478.002 410.036 479.029 409.85C480.056 409.663 480.802 409.336 481.269 408.87C481.736 408.403 481.969 407.75 481.969 406.91C481.969 406.303 481.806 405.346 481.479 404.04C481.199 402.733 480.872 401.31 480.499 399.77L471.609 365.54H480.849L486.099 392.21L490.649 365.54H499.819L490.369 407.61C489.856 409.99 488.992 411.856 487.779 413.21C486.566 414.563 485.049 415.52 483.229 416.08C481.409 416.686 479.286 416.99 476.859 416.99H475.039Z" fill="#345E5A"/>
<path d="M504.222 419.3V365.54H513.742V368.62C514.909 367.5 516.192 366.613 517.592 365.96C518.992 365.26 520.462 364.91 522.002 364.91C523.822 364.91 525.315 365.33 526.482 366.17C527.649 367.01 528.559 368.13 529.212 369.53C529.865 370.883 530.309 372.353 530.542 373.94C530.822 375.48 530.962 376.973 530.962 378.42V392.14C530.962 394.8 530.635 397.226 529.982 399.42C529.375 401.613 528.372 403.363 526.972 404.67C525.619 405.976 523.799 406.63 521.512 406.63C520.065 406.63 518.689 406.28 517.382 405.58C516.122 404.88 514.909 403.993 513.742 402.92V419.3H504.222ZM517.942 399.98C518.969 399.98 519.715 399.653 520.182 399C520.695 398.3 521.022 397.39 521.162 396.27C521.349 395.103 521.442 393.843 521.442 392.49V378C521.442 376.74 521.349 375.62 521.162 374.64C520.975 373.613 520.625 372.796 520.112 372.19C519.599 371.583 518.852 371.28 517.872 371.28C517.125 371.28 516.379 371.466 515.632 371.84C514.932 372.166 514.302 372.563 513.742 373.03V398.58C514.349 399 515.002 399.35 515.702 399.63C516.402 399.863 517.149 399.98 517.942 399.98Z" fill="#345E5A"/>
<path d="M94.55 475V442.15C94.35 442.25 93.95 442.4 93.35 442.6C92.7834 442.8 92.15 443 91.45 443.2C90.75 443.367 90.1 443.533 89.5 443.7C88.9334 443.867 88.5334 444 88.3 444.1V438.95C88.7667 438.783 89.35 438.55 90.05 438.25C90.75 437.95 91.4834 437.617 92.25 437.25C93.05 436.85 93.7834 436.417 94.45 435.95C95.15 435.483 95.7167 435 96.15 434.5H101.45V475H94.55Z" fill="#3C817A"/>
<path d="M119.03 475.6C116.33 475.6 114.23 475.1 112.73 474.1C111.263 473.1 110.247 471.683 109.68 469.85C109.113 468.017 108.83 465.867 108.83 463.4H115.58C115.58 464.767 115.663 465.983 115.83 467.05C116.03 468.083 116.397 468.9 116.93 469.5C117.497 470.067 118.313 470.333 119.38 470.3C120.547 470.3 121.363 469.933 121.83 469.2C122.33 468.433 122.647 467.383 122.78 466.05C122.913 464.683 122.98 463.1 122.98 461.3C122.98 459.733 122.88 458.367 122.68 457.2C122.513 456.033 122.163 455.133 121.63 454.5C121.097 453.833 120.263 453.5 119.13 453.5C118.163 453.5 117.363 453.833 116.73 454.5C116.097 455.133 115.63 455.983 115.33 457.05H109.38L109.78 434.5H127.98V440.7H115.58L115.18 450.45C115.68 449.85 116.397 449.367 117.33 449C118.297 448.633 119.363 448.417 120.53 448.35C122.663 448.25 124.397 448.7 125.73 449.7C127.063 450.7 128.047 452.15 128.68 454.05C129.313 455.95 129.63 458.217 129.63 460.85C129.63 462.983 129.48 464.95 129.18 466.75C128.913 468.55 128.397 470.117 127.63 471.45C126.863 472.75 125.78 473.767 124.38 474.5C123.013 475.233 121.23 475.6 119.03 475.6Z" fill="#3C817A"/>
<path d="M146.247 460.95V456.35H158.297V460.95H146.247Z" fill="#3C817A"/>
<path d="M175.378 475V470.1L185.378 454.65C186.112 453.517 186.795 452.433 187.428 451.4C188.095 450.367 188.628 449.3 189.028 448.2C189.462 447.067 189.678 445.833 189.678 444.5C189.678 443 189.412 441.85 188.878 441.05C188.345 440.25 187.512 439.85 186.378 439.85C185.312 439.85 184.478 440.15 183.878 440.75C183.278 441.35 182.862 442.133 182.628 443.1C182.428 444.067 182.328 445.133 182.328 446.3V448H175.528V446.2C175.528 443.8 175.878 441.7 176.578 439.9C177.312 438.067 178.462 436.633 180.028 435.6C181.595 434.567 183.645 434.05 186.178 434.05C189.645 434.05 192.245 434.983 193.978 436.85C195.712 438.717 196.578 441.317 196.578 444.65C196.578 446.317 196.345 447.833 195.878 449.2C195.412 450.533 194.795 451.817 194.028 453.05C193.262 454.283 192.428 455.55 191.528 456.85L183.228 469.45H195.528V475H175.378Z" fill="#3C817A"/>
<path d="M211.532 475.6C209.165 475.6 207.198 475.1 205.632 474.1C204.098 473.1 202.932 471.717 202.132 469.95C201.365 468.183 200.982 466.15 200.982 463.85V445.9C200.982 443.533 201.348 441.467 202.082 439.7C202.848 437.9 203.998 436.5 205.532 435.5C207.098 434.5 209.098 434 211.532 434C213.965 434 215.948 434.5 217.482 435.5C219.048 436.5 220.198 437.9 220.932 439.7C221.698 441.467 222.082 443.533 222.082 445.9V463.85C222.082 466.15 221.682 468.183 220.882 469.95C220.115 471.717 218.948 473.1 217.382 474.1C215.848 475.1 213.898 475.6 211.532 475.6ZM211.532 469.65C212.565 469.65 213.332 469.333 213.832 468.7C214.332 468.067 214.665 467.3 214.832 466.4C214.998 465.5 215.082 464.617 215.082 463.75V446C215.082 445.067 214.998 444.15 214.832 443.25C214.698 442.317 214.382 441.533 213.882 440.9C213.382 440.267 212.598 439.95 211.532 439.95C210.465 439.95 209.682 440.267 209.182 440.9C208.682 441.533 208.348 442.317 208.182 443.25C208.048 444.15 207.982 445.067 207.982 446V463.75C207.982 464.617 208.065 465.5 208.232 466.4C208.432 467.3 208.782 468.067 209.282 468.7C209.782 469.333 210.532 469.65 211.532 469.65Z" fill="#3C817A"/>
<path d="M239.549 475L239.749 446.1H244.799L250.899 461.85L257.099 446.1H262.099L262.299 475H256.849V458.8L251.999 471.3H249.949L245.049 458.85V475H239.549Z" fill="#3C817A"/>
<path d="M273.032 475.45C271.732 475.45 270.615 475.117 269.682 474.45C268.749 473.75 268.032 472.883 267.532 471.85C267.032 470.783 266.782 469.683 266.782 468.55C266.782 466.75 267.115 465.233 267.782 464C268.449 462.767 269.332 461.733 270.432 460.9C271.532 460.067 272.782 459.35 274.182 458.75C275.582 458.117 276.999 457.55 278.432 457.05V454.55C278.432 453.717 278.365 453.017 278.232 452.45C278.132 451.883 277.915 451.45 277.582 451.15C277.282 450.85 276.799 450.7 276.132 450.7C275.565 450.7 275.099 450.833 274.732 451.1C274.399 451.367 274.149 451.75 273.982 452.25C273.849 452.717 273.765 453.267 273.732 453.9L273.632 455.65L267.182 455.4C267.282 452.067 268.099 449.617 269.632 448.05C271.199 446.45 273.565 445.65 276.732 445.65C279.632 445.65 281.732 446.45 283.032 448.05C284.365 449.65 285.032 451.817 285.032 454.55V467.9C285.032 468.967 285.049 469.933 285.082 470.8C285.149 471.667 285.215 472.45 285.282 473.15C285.382 473.85 285.465 474.467 285.532 475H279.432C279.332 474.333 279.199 473.583 279.032 472.75C278.899 471.883 278.799 471.25 278.732 470.85C278.399 472.017 277.765 473.083 276.832 474.05C275.899 474.983 274.632 475.45 273.032 475.45ZM275.532 470.4C275.965 470.4 276.365 470.3 276.732 470.1C277.132 469.867 277.482 469.6 277.782 469.3C278.082 469 278.299 468.733 278.432 468.5V460.45C277.699 460.883 276.999 461.317 276.332 461.75C275.699 462.183 275.132 462.667 274.632 463.2C274.165 463.7 273.799 464.25 273.532 464.85C273.299 465.45 273.182 466.15 273.182 466.95C273.182 468.017 273.382 468.867 273.782 469.5C274.215 470.1 274.799 470.4 275.532 470.4Z" fill="#3C817A"/>
<path d="M290.04 484.5V446.1H296.839V448.3C297.673 447.5 298.589 446.867 299.589 446.4C300.589 445.9 301.64 445.65 302.74 445.65C304.04 445.65 305.106 445.95 305.939 446.55C306.773 447.15 307.423 447.95 307.889 448.95C308.356 449.917 308.673 450.967 308.84 452.1C309.04 453.2 309.139 454.267 309.139 455.3V465.1C309.139 467 308.906 468.733 308.439 470.3C308.006 471.867 307.29 473.117 306.29 474.05C305.323 474.983 304.023 475.45 302.389 475.45C301.356 475.45 300.373 475.2 299.439 474.7C298.539 474.2 297.673 473.567 296.839 472.8V484.5H290.04ZM299.839 470.7C300.573 470.7 301.106 470.467 301.439 470C301.806 469.5 302.039 468.85 302.139 468.05C302.273 467.217 302.339 466.317 302.339 465.35V455C302.339 454.1 302.273 453.3 302.139 452.6C302.006 451.867 301.756 451.283 301.389 450.85C301.023 450.417 300.49 450.2 299.79 450.2C299.256 450.2 298.723 450.333 298.189 450.6C297.689 450.833 297.239 451.117 296.839 451.45V469.7C297.273 470 297.74 470.25 298.24 470.45C298.74 470.617 299.273 470.7 299.839 470.7Z" fill="#3C817A"/>
<path d="M317.219 475V450.85H311.919V446.1H329.319V450.85H323.969V475H317.219Z" fill="#3C817A"/>
<path d="M338.218 475.45C336.918 475.45 335.801 475.117 334.868 474.45C333.934 473.75 333.218 472.883 332.718 471.85C332.218 470.783 331.968 469.683 331.968 468.55C331.968 466.75 332.301 465.233 332.968 464C333.634 462.767 334.518 461.733 335.618 460.9C336.718 460.067 337.968 459.35 339.368 458.75C340.768 458.117 342.184 457.55 343.618 457.05V454.55C343.618 453.717 343.551 453.017 343.418 452.45C343.318 451.883 343.101 451.45 342.768 451.15C342.468 450.85 341.984 450.7 341.318 450.7C340.751 450.7 340.284 450.833 339.918 451.1C339.584 451.367 339.334 451.75 339.168 452.25C339.034 452.717 338.951 453.267 338.918 453.9L338.818 455.65L332.368 455.4C332.468 452.067 333.284 449.617 334.818 448.05C336.384 446.45 338.751 445.65 341.918 445.65C344.818 445.65 346.918 446.45 348.218 448.05C349.551 449.65 350.218 451.817 350.218 454.55V467.9C350.218 468.967 350.234 469.933 350.268 470.8C350.334 471.667 350.401 472.45 350.468 473.15C350.568 473.85 350.651 474.467 350.718 475H344.618C344.518 474.333 344.384 473.583 344.218 472.75C344.084 471.883 343.984 471.25 343.918 470.85C343.584 472.017 342.951 473.083 342.018 474.05C341.084 474.983 339.818 475.45 338.218 475.45ZM340.718 470.4C341.151 470.4 341.551 470.3 341.918 470.1C342.318 469.867 342.668 469.6 342.968 469.3C343.268 469 343.484 468.733 343.618 468.5V460.45C342.884 460.883 342.184 461.317 341.518 461.75C340.884 462.183 340.318 462.667 339.818 463.2C339.351 463.7 338.984 464.25 338.718 464.85C338.484 465.45 338.368 466.15 338.368 466.95C338.368 468.017 338.568 468.867 338.968 469.5C339.401 470.1 339.984 470.4 340.718 470.4Z" fill="#3C817A"/>
<path fill-rule="evenodd" clip-rule="evenodd" d="M216.913 325.668C184.331 264.03 160.693 205.685 145.611 156.736L150.389 155.264C165.373 203.895 188.888 261.95 221.333 323.332L216.913 325.668Z" fill="#345E5A" fill-opacity="0.5"/>
<path d="M1.27002 56.9998V0.299805H17.93C21.3367 0.299805 24.09 0.929806 26.19 2.18981C28.3367 3.44981 29.9 5.29314 30.88 7.71981C31.9067 10.0998 32.42 12.9931 32.42 16.3998C32.42 20.0865 31.79 23.0731 30.53 25.3598C29.27 27.5998 27.4967 29.2331 25.21 30.2598C22.97 31.2865 20.31 31.7998 17.23 31.7998H11.63V56.9998H1.27002ZM11.63 24.5198H15.55C17.4167 24.5198 18.8634 24.2631 19.89 23.7498C20.9634 23.1898 21.6867 22.3265 22.06 21.1598C22.48 19.9465 22.69 18.3365 22.69 16.3298C22.69 14.2765 22.5267 12.6198 22.2 11.3598C21.92 10.0531 21.2667 9.09647 20.24 8.48981C19.26 7.88314 17.6967 7.57981 15.55 7.57981H11.63V24.5198Z" fill="#345E5A"/>
<path d="M49.8041 57.6298C46.7707 57.6298 44.2974 57.0698 42.3841 55.9498C40.4707 54.7831 39.0474 53.1031 38.1141 50.9098C37.2274 48.6698 36.7841 45.9865 36.7841 42.8598V30.6798C36.7841 27.4598 37.2274 24.7531 38.1141 22.5598C39.0474 20.3665 40.4707 18.7098 42.3841 17.5898C44.3441 16.4698 46.8174 15.9098 49.8041 15.9098C53.0241 15.9098 55.5207 16.5165 57.2941 17.7298C59.1141 18.9431 60.3974 20.7165 61.1441 23.0498C61.9374 25.3365 62.3341 28.1365 62.3341 31.4498V37.1898H46.2341V45.1698C46.2341 46.4765 46.3508 47.5498 46.5841 48.3898C46.8641 49.2298 47.2841 49.8365 47.8441 50.2098C48.4041 50.5831 49.0808 50.7698 49.8741 50.7698C50.7141 50.7698 51.3908 50.5831 51.9041 50.2098C52.4174 49.7898 52.7907 49.2065 53.0241 48.4598C53.2574 47.6665 53.3741 46.6865 53.3741 45.5198V42.1598H62.2641V44.8898C62.2641 48.9965 61.2374 52.1465 59.1841 54.3398C57.1307 56.5331 54.0041 57.6298 49.8041 57.6298ZM46.2341 32.4998H53.3741V28.6498C53.3741 27.2498 53.2574 26.1298 53.0241 25.2898C52.7907 24.4031 52.4174 23.7731 51.9041 23.3998C51.3908 22.9798 50.6674 22.7698 49.7341 22.7698C48.8941 22.7698 48.2174 22.9798 47.7041 23.3998C47.1907 23.8198 46.8174 24.5198 46.5841 25.4998C46.3508 26.4798 46.2341 27.8798 46.2341 29.6998V32.4998Z" fill="#345E5A"/>
<path d="M68.7943 56.9998V16.5398H87.1343V23.1198H78.3143V56.9998H68.7943Z" fill="#345E5A"/>
<path d="M91.3529 56.9998V16.5398H99.1229V40.8998L110.463 16.5398H117.883V56.9998H110.113V32.6398L98.9829 56.9998H91.3529Z" fill="#345E5A"/>
<path d="M137.371 57.6298C134.244 57.6298 131.724 57.0465 129.811 55.8798C127.944 54.6665 126.567 52.9631 125.681 50.7698C124.841 48.5298 124.421 45.8931 124.421 42.8598V30.6798C124.421 27.5531 124.841 24.8931 125.681 22.6998C126.567 20.5065 127.967 18.8265 129.881 17.6598C131.794 16.4931 134.291 15.9098 137.371 15.9098C140.264 15.9098 142.621 16.3765 144.441 17.3098C146.307 18.1965 147.661 19.5731 148.501 21.4398C149.341 23.2598 149.761 25.5698 149.761 28.3698V31.7298H140.801V28.1598C140.801 26.7598 140.684 25.6631 140.451 24.8698C140.264 24.0298 139.914 23.4465 139.401 23.1198C138.887 22.7465 138.211 22.5598 137.371 22.5598C136.531 22.5598 135.854 22.7931 135.341 23.2598C134.827 23.6798 134.454 24.3798 134.221 25.3598C134.034 26.3398 133.941 27.6931 133.941 29.4198V44.2598C133.941 46.8731 134.221 48.6465 134.781 49.5798C135.341 50.4665 136.227 50.9098 137.441 50.9098C138.374 50.9098 139.074 50.6998 139.541 50.2798C140.054 49.8598 140.381 49.2531 140.521 48.4598C140.707 47.6198 140.801 46.6165 140.801 45.4498V41.1098H149.761V44.9598C149.761 47.6665 149.317 49.9765 148.431 51.8898C147.591 53.8031 146.237 55.2498 144.371 56.2298C142.551 57.1631 140.217 57.6298 137.371 57.6298Z" fill="#345E5A"/>
<path d="M160.781 56.9998V23.1898H153.361V16.5398H177.721V23.1898H170.231V56.9998H160.781Z" fill="#345E5A"/>
<path d="M182.339 70.2998V16.5398H191.859V19.6198C193.026 18.4998 194.309 17.6131 195.709 16.9598C197.109 16.2598 198.579 15.9098 200.119 15.9098C201.939 15.9098 203.433 16.3298 204.599 17.1698C205.766 18.0098 206.676 19.1298 207.329 20.5298C207.983 21.8831 208.426 23.3531 208.659 24.9398C208.939 26.4798 209.079 27.9731 209.079 29.4198V43.1398C209.079 45.7998 208.753 48.2265 208.099 50.4198C207.493 52.6131 206.489 54.3631 205.089 55.6698C203.736 56.9765 201.916 57.6298 199.629 57.6298C198.183 57.6298 196.806 57.2798 195.499 56.5798C194.239 55.8798 193.026 54.9931 191.859 53.9198V70.2998H182.339ZM196.059 50.9798C197.086 50.9798 197.833 50.6531 198.299 49.9998C198.813 49.2998 199.139 48.3898 199.279 47.2698C199.466 46.1031 199.559 44.8431 199.559 43.4898V28.9998C199.559 27.7398 199.466 26.6198 199.279 25.6398C199.093 24.6131 198.743 23.7965 198.229 23.1898C197.716 22.5831 196.969 22.2798 195.989 22.2798C195.243 22.2798 194.496 22.4665 193.749 22.8398C193.049 23.1665 192.419 23.5631 191.859 24.0298V49.5798C192.466 49.9998 193.119 50.3498 193.819 50.6298C194.519 50.8631 195.266 50.9798 196.059 50.9798Z" fill="#345E5A"/>
<path d="M223.47 57.6298C221.65 57.6298 220.087 57.1631 218.78 56.2298C217.474 55.2498 216.47 54.0365 215.77 52.5898C215.07 51.0965 214.72 49.5565 214.72 47.9698C214.72 45.4498 215.187 43.3265 216.12 41.5998C217.054 39.8731 218.29 38.4265 219.83 37.2598C221.37 36.0931 223.12 35.0898 225.08 34.2498C227.04 33.3631 229.024 32.5698 231.03 31.8698V28.3698C231.03 27.2031 230.937 26.2231 230.75 25.4298C230.61 24.6365 230.307 24.0298 229.84 23.6098C229.42 23.1898 228.744 22.9798 227.81 22.9798C227.017 22.9798 226.364 23.1665 225.85 23.5398C225.384 23.9131 225.034 24.4498 224.8 25.1498C224.614 25.8031 224.497 26.5731 224.45 27.4598L224.31 29.9098L215.28 29.5598C215.42 24.8931 216.564 21.4631 218.71 19.2698C220.904 17.0298 224.217 15.9098 228.65 15.9098C232.71 15.9098 235.65 17.0298 237.47 19.2698C239.337 21.5098 240.27 24.5431 240.27 28.3698V47.0598C240.27 48.5531 240.294 49.9065 240.34 51.1198C240.434 52.3331 240.527 53.4298 240.62 54.4098C240.76 55.3898 240.877 56.2531 240.97 56.9998H232.43C232.29 56.0665 232.104 55.0165 231.87 53.8498C231.684 52.6365 231.544 51.7498 231.45 51.1898C230.984 52.8231 230.097 54.3165 228.79 55.6698C227.484 56.9765 225.71 57.6298 223.47 57.6298ZM226.97 50.5598C227.577 50.5598 228.137 50.4198 228.65 50.1398C229.21 49.8131 229.7 49.4398 230.12 49.0198C230.54 48.5998 230.844 48.2265 231.03 47.8998V36.6298C230.004 37.2365 229.024 37.8431 228.09 38.4498C227.204 39.0565 226.41 39.7331 225.71 40.4798C225.057 41.1798 224.544 41.9498 224.17 42.7898C223.844 43.6298 223.68 44.6098 223.68 45.7298C223.68 47.2231 223.96 48.4131 224.52 49.2998C225.127 50.1398 225.944 50.5598 226.97 50.5598Z" fill="#345E5A"/>
<path d="M272.691 67.6398L271.991 56.9998H247.281V16.5398H256.801V50.8398H264.711V16.5398H274.161V50.8398H279.551V67.6398H272.691Z" fill="#345E5A"/>
<path d="M284.195 56.9998V16.5398H291.965V40.8998L303.305 16.5398H310.725V56.9998H302.955V32.6398L291.825 56.9998H284.195Z" fill="#345E5A"/>
<path d="M315.373 56.9998L322.303 40.0598C321.089 39.4998 320.086 38.7065 319.293 37.6798C318.546 36.6065 317.986 35.3465 317.613 33.8998C317.239 32.4065 317.053 30.7731 317.053 28.9998C317.053 26.9931 317.309 25.2198 317.823 23.6798C318.383 22.1398 319.269 20.8565 320.483 19.8298C321.696 18.7565 323.283 17.9398 325.243 17.3798C327.203 16.8198 329.583 16.5398 332.383 16.5398H343.933V56.9998H334.553V41.8098C334.086 41.8098 333.503 41.8098 332.803 41.8098C332.103 41.7631 331.519 41.7165 331.053 41.6698L325.453 56.9998H315.373ZM333.853 36.2798C333.946 36.2798 334.063 36.2798 334.203 36.2798C334.389 36.2798 334.506 36.2798 334.553 36.2798V21.9298C334.506 21.9298 334.389 21.9298 334.203 21.9298C334.063 21.9298 333.969 21.9298 333.923 21.9298C331.963 21.9298 330.353 22.1865 329.093 22.6998C327.879 23.1665 326.993 23.9131 326.433 24.9398C325.919 25.9665 325.663 27.2965 325.663 28.9298C325.663 31.4031 326.293 33.2465 327.553 34.4598C328.859 35.6265 330.959 36.2331 333.853 36.2798Z" fill="#345E5A"/>
<path d="M0.850098 133.6V121.75C1.91676 121.117 2.8501 120.333 3.6501 119.4C4.48343 118.433 5.2001 117.25 5.8001 115.85C6.4001 114.45 6.86676 112.767 7.2001 110.8C7.56676 108.833 7.78343 106.5 7.8501 103.8L8.3501 97.1H22.9001V121.6H26.7501V133.6H21.8501L21.3501 126H6.3001L5.8501 133.6H0.850098ZM7.9501 121.6H16.5501V101.45H13.5001L13.1501 105.35C13.0834 107.983 12.9001 110.217 12.6001 112.05C12.3001 113.883 11.9168 115.417 11.4501 116.65C10.9834 117.883 10.4501 118.883 9.8501 119.65C9.2501 120.417 8.61676 121.067 7.9501 121.6Z" fill="#3C817A"/>
<path d="M38.4497 126.45C36.3497 126.45 34.6164 126.067 33.2497 125.3C31.883 124.5 30.8497 123.35 30.1497 121.85C29.483 120.35 29.1497 118.533 29.1497 116.4V106.7C29.1497 104.567 29.483 102.75 30.1497 101.25C30.8497 99.75 31.883 98.6167 33.2497 97.85C34.6164 97.05 36.3497 96.65 38.4497 96.65C40.5497 96.65 42.283 97.05 43.6497 97.85C45.0497 98.6167 46.083 99.75 46.7497 101.25C47.4497 102.75 47.7997 104.567 47.7997 106.7V116.4C47.7997 118.533 47.4497 120.35 46.7497 121.85C46.083 123.35 45.0497 124.5 43.6497 125.3C42.283 126.067 40.5497 126.45 38.4497 126.45ZM38.4997 121.75C39.2664 121.75 39.833 121.533 40.1997 121.1C40.5664 120.667 40.7997 120.083 40.8997 119.35C40.9997 118.583 41.0497 117.75 41.0497 116.85V106.25C41.0497 105.35 40.9997 104.533 40.8997 103.8C40.7997 103.067 40.5664 102.483 40.1997 102.05C39.833 101.583 39.2664 101.35 38.4997 101.35C37.733 101.35 37.1664 101.583 36.7997 102.05C36.433 102.483 36.183 103.067 36.0497 103.8C35.9497 104.533 35.8997 105.35 35.8997 106.25V116.85C35.8997 117.75 35.9497 118.583 36.0497 119.35C36.183 120.083 36.433 120.667 36.7997 121.1C37.1664 121.533 37.733 121.75 38.4997 121.75Z" fill="#3C817A"/>
<path d="M64.0618 126V121.1L74.0618 105.65C74.7952 104.517 75.4785 103.433 76.1118 102.4C76.7785 101.367 77.3118 100.3 77.7118 99.2C78.1451 98.0667 78.3618 96.8333 78.3618 95.5C78.3618 94 78.0952 92.85 77.5618 92.05C77.0285 91.25 76.1952 90.85 75.0618 90.85C73.9952 90.85 73.1618 91.15 72.5618 91.75C71.9618 92.35 71.5452 93.1333 71.3118 94.1C71.1118 95.0667 71.0118 96.1333 71.0118 97.3V99H64.2118V97.2C64.2118 94.8 64.5618 92.7 65.2618 90.9C65.9952 89.0667 67.1451 87.6333 68.7118 86.6C70.2785 85.5667 72.3285 85.05 74.8618 85.05C78.3285 85.05 80.9285 85.9833 82.6618 87.85C84.3952 89.7167 85.2618 92.3167 85.2618 95.65C85.2618 97.3167 85.0285 98.8333 84.5618 100.2C84.0952 101.533 83.4785 102.817 82.7118 104.05C81.9452 105.283 81.1118 106.55 80.2118 107.85L71.9118 120.45H84.2118V126H64.0618Z" fill="#3C817A"/>
<path d="M100.215 126.6C97.8487 126.6 95.882 126.1 94.3153 125.1C92.782 124.1 91.6153 122.717 90.8153 120.95C90.0487 119.183 89.6653 117.15 89.6653 114.85V96.9C89.6653 94.5333 90.032 92.4667 90.7653 90.7C91.532 88.9 92.682 87.5 94.2153 86.5C95.782 85.5 97.782 85 100.215 85C102.649 85 104.632 85.5 106.165 86.5C107.732 87.5 108.882 88.9 109.615 90.7C110.382 92.4667 110.765 94.5333 110.765 96.9V114.85C110.765 117.15 110.365 119.183 109.565 120.95C108.799 122.717 107.632 124.1 106.065 125.1C104.532 126.1 102.582 126.6 100.215 126.6ZM100.215 120.65C101.249 120.65 102.015 120.333 102.515 119.7C103.015 119.067 103.349 118.3 103.515 117.4C103.682 116.5 103.765 115.617 103.765 114.75V97C103.765 96.0667 103.682 95.15 103.515 94.25C103.382 93.3167 103.065 92.5333 102.565 91.9C102.065 91.2667 101.282 90.95 100.215 90.95C99.1487 90.95 98.3653 91.2667 97.8653 91.9C97.3653 92.5333 97.032 93.3167 96.8653 94.25C96.732 95.15 96.6653 96.0667 96.6653 97V114.75C96.6653 115.617 96.7487 116.5 96.9153 117.4C97.1153 118.3 97.4653 119.067 97.9653 119.7C98.4653 120.333 99.2153 120.65 100.215 120.65Z" fill="#3C817A"/>
<path d="M128.233 126L128.433 97.1H133.483L139.583 112.85L145.783 97.1H150.783L150.983 126H145.533V109.8L140.683 122.3H138.633L133.733 109.85V126H128.233Z" fill="#3C817A"/>
<path d="M161.716 126.45C160.416 126.45 159.299 126.117 158.366 125.45C157.432 124.75 156.716 123.883 156.216 122.85C155.716 121.783 155.466 120.683 155.466 119.55C155.466 117.75 155.799 116.233 156.466 115C157.132 113.767 158.016 112.733 159.116 111.9C160.216 111.067 161.466 110.35 162.866 109.75C164.266 109.117 165.682 108.55 167.116 108.05V105.55C167.116 104.717 167.049 104.017 166.916 103.45C166.816 102.883 166.599 102.45 166.266 102.15C165.966 101.85 165.482 101.7 164.816 101.7C164.249 101.7 163.782 101.833 163.416 102.1C163.082 102.367 162.832 102.75 162.666 103.25C162.532 103.717 162.449 104.267 162.416 104.9L162.316 106.65L155.866 106.4C155.966 103.067 156.782 100.617 158.316 99.05C159.882 97.45 162.249 96.65 165.416 96.65C168.316 96.65 170.416 97.45 171.716 99.05C173.049 100.65 173.716 102.817 173.716 105.55V118.9C173.716 119.967 173.732 120.933 173.766 121.8C173.832 122.667 173.899 123.45 173.966 124.15C174.066 124.85 174.149 125.467 174.216 126H168.116C168.016 125.333 167.882 124.583 167.716 123.75C167.582 122.883 167.482 122.25 167.416 121.85C167.082 123.017 166.449 124.083 165.516 125.05C164.582 125.983 163.316 126.45 161.716 126.45ZM164.216 121.4C164.649 121.4 165.049 121.3 165.416 121.1C165.816 120.867 166.166 120.6 166.466 120.3C166.766 120 166.982 119.733 167.116 119.5V111.45C166.382 111.883 165.682 112.317 165.016 112.75C164.382 113.183 163.816 113.667 163.316 114.2C162.849 114.7 162.482 115.25 162.216 115.85C161.982 116.45 161.866 117.15 161.866 117.95C161.866 119.017 162.066 119.867 162.466 120.5C162.899 121.1 163.482 121.4 164.216 121.4Z" fill="#3C817A"/>
<path d="M178.723 135.5V97.1H185.523V99.3C186.356 98.5 187.273 97.8667 188.273 97.4C189.273 96.9 190.323 96.65 191.423 96.65C192.723 96.65 193.79 96.95 194.623 97.55C195.456 98.15 196.106 98.95 196.573 99.95C197.04 100.917 197.356 101.967 197.523 103.1C197.723 104.2 197.823 105.267 197.823 106.3V116.1C197.823 118 197.59 119.733 197.123 121.3C196.69 122.867 195.973 124.117 194.973 125.05C194.006 125.983 192.706 126.45 191.073 126.45C190.04 126.45 189.056 126.2 188.123 125.7C187.223 125.2 186.356 124.567 185.523 123.8V135.5H178.723ZM188.523 121.7C189.256 121.7 189.79 121.467 190.123 121C190.49 120.5 190.723 119.85 190.823 119.05C190.956 118.217 191.023 117.317 191.023 116.35V106C191.023 105.1 190.956 104.3 190.823 103.6C190.69 102.867 190.44 102.283 190.073 101.85C189.706 101.417 189.173 101.2 188.473 101.2C187.94 101.2 187.406 101.333 186.873 101.6C186.373 101.833 185.923 102.117 185.523 102.45V120.7C185.956 121 186.423 121.25 186.923 121.45C187.423 121.617 187.956 121.7 188.523 121.7Z" fill="#3C817A"/>
<path d="M205.902 126V101.85H200.602V97.1H218.002V101.85H212.652V126H205.902Z" fill="#3C817A"/>
<path d="M226.901 126.45C225.601 126.45 224.485 126.117 223.551 125.45C222.618 124.75 221.901 123.883 221.401 122.85C220.901 121.783 220.651 120.683 220.651 119.55C220.651 117.75 220.985 116.233 221.651 115C222.318 113.767 223.201 112.733 224.301 111.9C225.401 111.067 226.651 110.35 228.051 109.75C229.451 109.117 230.868 108.55 232.301 108.05V105.55C232.301 104.717 232.235 104.017 232.101 103.45C232.001 102.883 231.785 102.45 231.451 102.15C231.151 101.85 230.668 101.7 230.001 101.7C229.435 101.7 228.968 101.833 228.601 102.1C228.268 102.367 228.018 102.75 227.851 103.25C227.718 103.717 227.635 104.267 227.601 104.9L227.501 106.65L221.051 106.4C221.151 103.067 221.968 100.617 223.501 99.05C225.068 97.45 227.435 96.65 230.601 96.65C233.501 96.65 235.601 97.45 236.901 99.05C238.235 100.65 238.901 102.817 238.901 105.55V118.9C238.901 119.967 238.918 120.933 238.951 121.8C239.018 122.667 239.085 123.45 239.151 124.15C239.251 124.85 239.335 125.467 239.401 126H233.301C233.201 125.333 233.068 124.583 232.901 123.75C232.768 122.883 232.668 122.25 232.601 121.85C232.268 123.017 231.635 124.083 230.701 125.05C229.768 125.983 228.501 126.45 226.901 126.45ZM229.401 121.4C229.835 121.4 230.235 121.3 230.601 121.1C231.001 120.867 231.351 120.6 231.651 120.3C231.951 120 232.168 119.733 232.301 119.5V111.45C231.568 111.883 230.868 112.317 230.201 112.75C229.568 113.183 229.001 113.667 228.501 114.2C228.035 114.7 227.668 115.25 227.401 115.85C227.168 116.45 227.051 117.15 227.051 117.95C227.051 119.017 227.251 119.867 227.651 120.5C228.085 121.1 228.668 121.4 229.401 121.4Z" fill="#3C817A"/>
<path d="M1135 32L1182.22 98.5773L1246.28 48.0003L1272.83 125.184L1348.55 94.7049L1352.28 176.242L1433.52 168.33L1414.13 247.615L1494.3 262.911L1453.36 333.521L1525.98 370.786L1466.8 427L1525.98 483.214L1453.36 520.479L1494.3 591.089L1414.13 606.385L1433.52 685.67L1352.28 677.758L1348.55 759.295L1272.83 728.816L1246.28 806L1182.22 755.423L1135 822L1087.78 755.423L1023.72 806L997.165 728.816L921.447 759.295L917.717 677.758L836.479 685.67L855.872 606.385L775.695 591.089L816.64 520.479L744.021 483.214L803.2 427L744.021 370.786L816.64 333.521L775.695 262.911L855.872 247.615L836.479 168.33L917.717 176.242L921.447 94.7049L997.165 125.184L1023.72 48.0003L1087.78 98.5773L1135 32Z" fill="#345E5A"/>
<path fill-rule="evenodd" clip-rule="evenodd" d="M1135 32L1087.78 98.5773L1023.72 48.0003L997.165 125.184L921.447 94.7049L917.717 176.242L836.479 168.33L855.872 247.615L775.695 262.911L816.64 333.521L744.021 370.786L803.2 427L744.021 483.214L816.64 520.479L775.695 591.089L855.872 606.385L836.479 685.67L917.717 677.758L921.447 759.295L997.165 728.816L1023.72 806L1087.78 755.423L1135 822L1182.22 755.423L1246.28 806L1272.83 728.816L1348.55 759.295L1352.28 677.758L1433.52 685.67L1414.13 606.385L1494.3 591.089L1453.36 520.479L1525.98 483.214L1466.8 427L1525.98 370.786L1453.36 333.521L1494.3 262.911L1414.13 247.615L1433.52 168.33L1352.28 176.242L1348.55 94.7049L1272.83 125.184L1246.28 48.0003L1182.22 98.5773L1135 32ZM1238.98 72.8784L1179.12 120.135L1135 57.9284L1090.88 120.135L1031.02 72.8784L1006.21 144.996L935.465 116.517L931.98 192.702L856.074 185.309L874.194 259.39L799.281 273.682L837.538 339.657L769.685 374.476L824.98 427L769.685 479.524L837.538 514.343L799.281 580.318L874.194 594.61L856.074 668.69L931.98 661.298L935.465 737.483L1006.21 709.004L1031.02 781.122L1090.88 733.865L1135 796.072L1179.12 733.865L1238.98 781.122L1263.79 709.004L1334.54 737.483L1338.02 661.298L1413.93 668.69L1395.81 594.61L1470.72 580.318L1432.46 514.343L1500.31 479.524L1445.02 427L1500.31 374.476L1432.46 339.657L1470.72 273.682L1395.81 259.39L1413.93 185.309L1338.02 192.702L1334.54 116.517L1263.79 144.996L1238.98 72.8784Z" fill="#DD430F"/>
<path d="M968.19 309.88V298.36C967.53 298.42 966.81 298.48 966.03 298.54C965.25 298.6 964.5 298.63 963.78 298.63C960.3 298.63 957.24 298 954.6 296.74C951.96 295.48 949.89 293.5 948.39 290.8C946.95 288.04 946.23 284.47 946.23 280.09V259.93C946.23 255.79 946.95 252.34 948.39 249.58C949.89 246.82 951.96 244.75 954.6 243.37C957.3 241.99 960.45 241.3 964.05 241.3C964.77 241.3 965.52 241.33 966.3 241.39C967.08 241.39 967.71 241.42 968.19 241.48V228.7H979.8V241.48C980.34 241.42 980.97 241.39 981.69 241.39C982.47 241.33 983.19 241.3 983.85 241.3C987.57 241.3 990.75 241.99 993.39 243.37C996.09 244.75 998.16 246.85 999.6 249.67C1001.1 252.43 1001.85 255.85 1001.85 259.93V280.09C1001.85 284.47 1001.13 288.04 999.69 290.8C998.25 293.5 996.3 295.51 993.84 296.83C991.44 298.09 988.74 298.72 985.74 298.72C984.78 298.72 983.79 298.69 982.77 298.63C981.81 298.57 980.82 298.51 979.8 298.45V309.88H968.19ZM966.03 290.53C966.39 290.53 966.78 290.53 967.2 290.53C967.62 290.47 967.95 290.41 968.19 290.35V249.4C967.77 249.34 967.32 249.31 966.84 249.31C966.42 249.25 966 249.22 965.58 249.22C963.84 249.22 962.4 249.58 961.26 250.3C960.18 251.02 959.37 252.16 958.83 253.72C958.29 255.28 958.02 257.32 958.02 259.84V280.18C958.02 282.64 958.23 284.62 958.65 286.12C959.13 287.62 959.94 288.73 961.08 289.45C962.22 290.17 963.87 290.53 966.03 290.53ZM982.32 290.44C984.3 290.44 985.83 290.11 986.91 289.45C988.05 288.79 988.83 287.71 989.25 286.21C989.73 284.65 989.97 282.64 989.97 280.18V259.84C989.97 257.26 989.73 255.19 989.25 253.63C988.77 252.07 987.99 250.96 986.91 250.3C985.89 249.58 984.45 249.22 982.59 249.22C982.11 249.22 981.63 249.25 981.15 249.31C980.67 249.31 980.22 249.34 979.8 249.4V290.26C980.16 290.32 980.55 290.38 980.97 290.44C981.45 290.44 981.9 290.44 982.32 290.44Z" fill="#F3E1B8"/>
<path d="M1011.74 307V234.1H1022.63V280.09L1042.61 234.1H1051.52V307H1040.54V260.29L1020.47 307H1011.74Z" fill="#F3E1B8"/>
<path d="M1062.89 307V234.1H1076.12V264.61H1090.97V234.1H1104.29V307H1090.97V274.06H1076.12V307H1062.89Z" fill="#F3E1B8"/>
<path d="M1111.76 307L1126.34 234.1H1140.56L1155.14 307H1142.81L1139.93 290.17H1127.24L1124.27 307H1111.76ZM1128.59 281.71H1138.49L1133.54 251.11L1128.59 281.71Z" fill="#F3E1B8"/>
<path d="M1157.43 307V297.46C1159.11 297.52 1160.52 297.43 1161.66 297.19C1162.86 296.89 1163.85 296.26 1164.63 295.3C1165.47 294.34 1166.16 292.87 1166.7 290.89C1167.24 288.85 1167.69 286.12 1168.05 282.7C1168.41 279.28 1168.8 274.93 1169.22 269.65L1171.56 234.1H1207.02V307H1193.79V244.09H1183.35L1181.73 271.27C1181.37 276.61 1180.95 281.32 1180.47 285.4C1180.05 289.48 1179.36 292.96 1178.4 295.84C1177.5 298.66 1176.21 300.94 1174.53 302.68C1172.85 304.42 1170.63 305.65 1167.87 306.37C1165.11 307.03 1161.63 307.24 1157.43 307Z" fill="#F3E1B8"/>
<path d="M885.178 367.333L885.881 383.153H882.365C880.52 377.938 878.41 374.306 876.037 372.255C873.693 370.175 870.852 369.135 867.512 369.135C864.67 369.135 862.326 370.028 860.48 371.815C858.635 373.603 857.712 375.668 857.712 378.012C857.712 380.912 858.679 382.904 860.612 383.988C862.546 385.072 865.871 386.112 870.588 387.108C877.824 388.661 882.673 391.005 885.134 394.14C887.624 397.245 888.869 401.2 888.869 406.005C888.869 411.659 887.229 416.537 883.947 420.639C880.695 424.74 876.125 426.791 870.236 426.791C866.047 426.791 862.268 425.473 858.898 422.836C857.258 424.125 855.778 425.385 854.46 426.615H851.516V409.433H854.943C857.521 419.101 862.531 423.935 869.973 423.935C873.898 423.935 876.916 422.777 879.025 420.463C881.135 418.148 882.189 415.556 882.189 412.685C882.189 411.073 881.721 409.623 880.783 408.334C879.875 407.045 878.806 406.02 877.575 405.258C876.345 404.496 872.946 403.544 867.38 402.401C861.813 401.259 857.727 399.12 855.119 395.985C852.541 392.851 851.252 388.939 851.252 384.252C851.252 379.213 852.834 374.95 855.998 371.464C859.191 367.978 863.161 366.234 867.907 366.234C871.511 366.234 875.1 367.494 878.674 370.014C879.816 369.34 881.047 368.446 882.365 367.333H885.178Z" fill="#F3E1B8"/>
<path d="M910.139 379.638V390.624H919.016V393.349H910.139V417.343C910.139 420.536 911.12 422.133 913.083 422.133C914.87 422.133 916.218 420.536 917.126 417.343H919.851C919.323 420.683 918.151 423.07 916.335 424.506C914.519 425.912 911.604 426.615 907.59 426.615C904.719 426.615 902.595 426.161 901.218 425.253C899.87 424.345 899.035 423.275 898.713 422.045C898.391 420.814 898.229 419.247 898.229 417.343V393.349H893.308V390.624H898.229V381.703L910.139 379.638Z" fill="#F3E1B8"/>
<path d="M963.532 390.624V423.407H968.542V426H961.159C957.468 426 955.065 426.088 953.952 426.264C952.868 426.469 952.062 426.586 951.535 426.615V419.408H951.359C950.188 421.635 948.415 423.393 946.042 424.682C943.698 425.971 941.149 426.615 938.396 426.615C935.759 426.615 933.503 426.088 931.628 425.033C929.782 423.979 928.61 422.821 928.112 421.562C927.644 420.272 927.409 418.236 927.409 415.453V393.349H922.399V390.624H939.406V414.047C939.406 417.621 939.553 419.979 939.846 421.122C940.139 422.265 940.974 422.836 942.351 422.836C943.786 422.836 945.397 422.206 947.185 420.946C948.972 419.687 950.144 418.251 950.7 416.64C951.257 415.028 951.535 412.772 951.535 409.872V393.349H945.69V390.624H963.532Z" fill="#F3E1B8"/>
<path d="M1007.52 366.234V423.407H1012.31V426H1006.82C1005.03 426 1003.36 426.044 1001.81 426.132L996.799 426.527H995.568V421.21H995.393C993.518 425.136 990.603 427.099 986.647 427.099C982.81 427.099 979.44 425.253 976.54 421.562C973.669 417.841 972.233 413.256 972.233 407.807C972.233 402.562 973.698 398.212 976.628 394.755C979.558 391.298 982.956 389.569 986.823 389.569C990.104 389.569 993.02 391.063 995.568 394.052V369.75H988.449V367.069H994.733C996.169 367.069 998.571 366.938 1001.94 366.674C1005.31 366.381 1007.17 366.234 1007.52 366.234ZM995.568 412.333V402.885C995.568 399.223 994.88 396.513 993.503 394.755C992.155 392.968 990.764 392.074 989.328 392.074C988.215 392.074 987.351 392.704 986.735 393.964C986.12 395.224 985.812 397.772 985.812 401.61V414.838C985.812 418.5 986.032 420.961 986.472 422.221C986.94 423.48 987.775 424.11 988.977 424.11C990.236 424.11 991.643 423.29 993.195 421.649C994.777 420.009 995.568 416.903 995.568 412.333Z" fill="#F3E1B8"/>
<path d="M1051.38 406.269H1029.76V411.981C1029.76 416.464 1030.15 419.569 1030.94 421.298C1031.76 422.997 1033.62 423.847 1036.53 423.847C1039.07 423.847 1041.45 423.026 1043.64 421.386C1045.87 419.745 1047.57 417.196 1048.74 413.739H1051.38C1050.29 418.192 1048.29 421.532 1045.36 423.759C1042.43 425.985 1038.91 427.099 1034.81 427.099C1029.22 427.099 1024.73 425.18 1021.36 421.342C1018.02 417.504 1016.35 413.08 1016.35 408.07C1016.35 403.266 1018.05 398.988 1021.45 395.238C1024.85 391.459 1029.1 389.569 1034.2 389.569C1038.59 389.569 1042.41 390.946 1045.67 393.7C1048.92 396.454 1050.82 400.644 1051.38 406.269ZM1029.76 403.412H1039.21V399.721C1039.21 396.527 1038.77 394.462 1037.89 393.524C1037.04 392.558 1035.87 392.074 1034.37 392.074C1032.97 392.074 1031.84 392.499 1030.99 393.349C1030.17 394.198 1029.76 396.352 1029.76 399.809V403.412Z" fill="#F3E1B8"/>
<path d="M1070.98 389.569V397.04H1071.15C1074.26 392.06 1078.61 389.569 1084.21 389.569C1086.7 389.569 1088.88 390.097 1090.75 391.151C1092.63 392.206 1093.82 393.29 1094.31 394.403C1094.84 395.487 1095.1 397.143 1095.1 399.369V423.319H1100.11V426H1078.01V423.319H1083.11V398.71C1083.11 396.483 1082.8 395.033 1082.18 394.359C1081.6 393.686 1080.76 393.349 1079.68 393.349C1078.21 393.349 1076.4 394.271 1074.23 396.117C1072.06 397.963 1070.98 401.2 1070.98 405.829V423.319H1076.12V426H1053.88V423.319H1058.98V393.349H1053.97V390.624H1057.18C1060.08 390.624 1062.95 390.448 1065.79 390.097L1069.7 389.569H1070.98Z" fill="#F3E1B8"/>
<path d="M1119.32 379.638V390.624H1128.2V393.349H1119.32V417.343C1119.32 420.536 1120.3 422.133 1122.26 422.133C1124.05 422.133 1125.4 420.536 1126.31 417.343H1129.03C1128.5 420.683 1127.33 423.07 1125.51 424.506C1123.7 425.912 1120.78 426.615 1116.77 426.615C1113.9 426.615 1111.77 426.161 1110.4 425.253C1109.05 424.345 1108.21 423.275 1107.89 422.045C1107.57 420.814 1107.41 419.247 1107.41 417.343V393.349H1102.49V390.624H1107.41V381.703L1119.32 379.638Z" fill="#F3E1B8"/>
<path d="M853.05 490V484.1L862.75 469.2C863.483 468.1 864.167 467.034 864.8 466C865.467 464.967 866 463.917 866.4 462.85C866.833 461.784 867.05 460.667 867.05 459.5C867.05 458.334 866.817 457.467 866.35 456.9C865.883 456.334 865.25 456.05 864.45 456.05C863.55 456.05 862.85 456.3 862.35 456.8C861.85 457.3 861.5 457.967 861.3 458.8C861.133 459.634 861.05 460.567 861.05 461.6V463.6H852.95V461.45C852.95 459.05 853.333 456.917 854.1 455.05C854.867 453.15 856.083 451.667 857.75 450.6C859.417 449.5 861.6 448.95 864.3 448.95C867.933 448.95 870.667 449.9 872.5 451.8C874.367 453.667 875.3 456.284 875.3 459.65C875.3 461.284 875.033 462.8 874.5 464.2C874 465.6 873.317 466.967 872.45 468.3C871.617 469.6 870.717 470.967 869.75 472.4L862.35 483.45H874.2V490H853.05Z" fill="#F3E1B8"/>
<path d="M878.734 490V484.1L888.434 469.2C889.167 468.1 889.85 467.034 890.484 466C891.15 464.967 891.684 463.917 892.084 462.85C892.517 461.784 892.734 460.667 892.734 459.5C892.734 458.334 892.5 457.467 892.034 456.9C891.567 456.334 890.934 456.05 890.134 456.05C889.234 456.05 888.534 456.3 888.034 456.8C887.534 457.3 887.184 457.967 886.984 458.8C886.817 459.634 886.734 460.567 886.734 461.6V463.6H878.634V461.45C878.634 459.05 879.017 456.917 879.784 455.05C880.55 453.15 881.767 451.667 883.434 450.6C885.1 449.5 887.284 448.95 889.984 448.95C893.617 448.95 896.35 449.9 898.184 451.8C900.05 453.667 900.984 456.284 900.984 459.65C900.984 461.284 900.717 462.8 900.184 464.2C899.684 465.6 899 466.967 898.134 468.3C897.3 469.6 896.4 470.967 895.434 472.4L888.034 483.45H899.884V490H878.734Z" fill="#F3E1B8"/>
<path d="M923.66 490.5C922.193 490.5 920.96 490.15 919.96 489.45C918.96 488.75 918.21 487.867 917.71 486.8C917.21 485.7 916.96 484.584 916.96 483.45C916.96 481.65 917.31 480.134 918.01 478.9C918.743 477.667 919.693 476.634 920.86 475.8C922.027 474.967 923.31 474.267 924.71 473.7C926.11 473.1 927.493 472.567 928.86 472.1V469.2C928.86 468.7 928.81 468.267 928.71 467.9C928.61 467.5 928.443 467.2 928.21 467C927.977 466.767 927.627 466.65 927.16 466.65C926.693 466.65 926.327 466.75 926.06 466.95C925.827 467.15 925.66 467.434 925.56 467.8C925.46 468.134 925.393 468.517 925.36 468.95L925.16 471.05L917.56 470.75C917.727 467.284 918.643 464.734 920.31 463.1C922.01 461.434 924.543 460.6 927.91 460.6C930.843 460.6 933.027 461.417 934.46 463.05C935.927 464.65 936.66 466.734 936.66 469.3V482.8C936.66 484 936.677 485.05 936.71 485.95C936.777 486.85 936.843 487.634 936.91 488.3C937.01 488.967 937.093 489.534 937.16 490H929.86C929.76 489.234 929.643 488.4 929.51 487.5C929.377 486.6 929.277 486.067 929.21 485.9C928.877 487.1 928.243 488.167 927.31 489.1C926.41 490.034 925.193 490.5 923.66 490.5ZM926.56 485C926.893 485 927.193 484.934 927.46 484.8C927.76 484.667 928.027 484.484 928.26 484.25C928.493 484.017 928.693 483.784 928.86 483.55V475.65C928.193 476.05 927.577 476.467 927.01 476.9C926.443 477.3 925.96 477.75 925.56 478.25C925.16 478.75 924.843 479.3 924.61 479.9C924.41 480.467 924.31 481.117 924.31 481.85C924.31 482.817 924.51 483.584 924.91 484.15C925.31 484.717 925.86 485 926.56 485Z" fill="#F3E1B8"/>
<path d="M941.489 490V461.1H961.989V490H953.839V466.65H949.639V490H941.489Z" fill="#F3E1B8"/>
<path d="M967.027 499.5V461.1H975.177V463.2C976.143 462.334 977.177 461.684 978.277 461.25C979.377 460.817 980.427 460.6 981.427 460.6C982.527 460.6 983.46 460.817 984.227 461.25C985.027 461.684 985.677 462.3 986.177 463.1C986.677 463.867 987.043 464.767 987.277 465.8C987.51 466.834 987.627 467.934 987.627 469.1V481.55C987.627 483.35 987.377 484.917 986.877 486.25C986.41 487.584 985.71 488.634 984.777 489.4C983.843 490.134 982.693 490.5 981.327 490.5C980.293 490.5 979.243 490.267 978.177 489.8C977.143 489.3 976.143 488.634 975.177 487.8V499.5H967.027ZM977.327 485.25C977.86 485.25 978.277 485.1 978.577 484.8C978.877 484.5 979.093 484.117 979.227 483.65C979.393 483.15 979.477 482.6 979.477 482V468.5C979.477 467.934 979.41 467.434 979.277 467C979.143 466.534 978.927 466.167 978.627 465.9C978.327 465.634 977.943 465.5 977.477 465.5C977.043 465.5 976.627 465.6 976.227 465.8C975.86 465.967 975.51 466.2 975.177 466.5V484.5C975.543 484.734 975.893 484.917 976.227 485.05C976.593 485.184 976.96 485.25 977.327 485.25Z" fill="#F3E1B8"/>
<path d="M1001.72 490.5C999.621 490.5 997.821 490.134 996.321 489.4C994.821 488.634 993.671 487.534 992.871 486.1C992.071 484.634 991.671 482.884 991.671 480.85V470.25C991.671 468.184 992.071 466.434 992.871 465C993.671 463.567 994.821 462.484 996.321 461.75C997.854 460.984 999.654 460.6 1001.72 460.6C1003.85 460.6 1005.62 460.967 1007.02 461.7C1008.45 462.434 1009.52 463.517 1010.22 464.95C1010.95 466.384 1011.32 468.15 1011.32 470.25V476.05H999.721V481.6C999.721 482.334 999.804 482.934 999.971 483.4C1000.14 483.867 1000.37 484.2 1000.67 484.4C1000.97 484.6 1001.32 484.7 1001.72 484.7C1002.12 484.7 1002.47 484.617 1002.77 484.45C1003.1 484.25 1003.35 483.95 1003.52 483.55C1003.72 483.15 1003.82 482.6 1003.82 481.9V478.85H1011.32V481.65C1011.32 484.584 1010.47 486.8 1008.77 488.3C1007.07 489.767 1004.72 490.5 1001.72 490.5ZM999.721 472.25H1003.82V469.35C1003.82 468.584 1003.72 467.984 1003.52 467.55C1003.35 467.117 1003.1 466.817 1002.77 466.65C1002.47 466.484 1002.1 466.4 1001.67 466.4C1001.27 466.4 1000.92 466.5 1000.62 466.7C1000.35 466.9 1000.14 467.25 999.971 467.75C999.804 468.217 999.721 468.9 999.721 469.8V472.25Z" fill="#F3E1B8"/>
<path d="M1013.86 490.3V484.55C1014.92 484.55 1015.79 484.384 1016.46 484.05C1017.16 483.717 1017.71 483.15 1018.11 482.35C1018.54 481.517 1018.87 480.4 1019.11 479C1019.34 477.567 1019.54 475.75 1019.71 473.55L1020.66 461.1H1039.01V490H1030.86V466.6H1027.56L1026.86 475.15C1026.62 478.15 1026.29 480.634 1025.86 482.6C1025.42 484.567 1024.79 486.117 1023.96 487.25C1023.12 488.35 1022.01 489.134 1020.61 489.6C1019.21 490.067 1017.42 490.3 1015.26 490.3H1013.86Z" fill="#F3E1B8"/>
<path d="M1042.43 490L1046.93 478C1046.16 477.567 1045.51 476.967 1044.98 476.2C1044.44 475.434 1044.04 474.534 1043.78 473.5C1043.51 472.467 1043.38 471.35 1043.38 470.15C1043.38 468.817 1043.56 467.6 1043.93 466.5C1044.33 465.4 1044.94 464.45 1045.78 463.65C1046.64 462.85 1047.76 462.234 1049.13 461.8C1050.49 461.334 1052.14 461.1 1054.08 461.1H1064.83V490H1056.73V479.7C1056.59 479.7 1056.23 479.7 1055.63 479.7C1055.03 479.667 1054.58 479.634 1054.28 479.6L1051.03 490H1042.43ZM1056.38 474.9C1056.44 474.9 1056.51 474.9 1056.58 474.9C1056.64 474.9 1056.69 474.9 1056.73 474.9V465.7C1056.69 465.7 1056.64 465.7 1056.58 465.7C1056.51 465.7 1056.44 465.7 1056.38 465.7C1055.14 465.7 1054.11 465.867 1053.28 466.2C1052.44 466.534 1051.81 467.034 1051.38 467.7C1050.98 468.334 1050.78 469.134 1050.78 470.1C1050.78 471.734 1051.26 472.934 1052.23 473.7C1053.23 474.467 1054.61 474.867 1056.38 474.9Z" fill="#F3E1B8"/>
<path d="M1005.57 537.926V576.158C1005.57 582.164 1005.15 586.676 1004.3 589.693C1003.48 592.711 1001.46 595.626 998.235 598.438C995.042 601.251 991.043 602.657 986.238 602.657C982.254 602.657 979.163 601.734 976.966 599.889C974.798 598.072 973.714 596.021 973.714 593.736C973.714 592.096 974.285 590.602 975.428 589.254C976.57 587.906 978.094 587.232 979.998 587.232C981.668 587.232 983.089 587.789 984.261 588.902C985.433 590.016 986.019 591.451 986.019 593.209C986.019 594.762 985.213 596.52 983.602 598.482C983.602 599.332 984.568 599.757 986.502 599.757C989.607 599.757 991.16 597.779 991.16 593.824V537.926H983.25V535.069H1013.04V537.926H1005.57Z" fill="#F3E1B8"/>
<path d="M1055.1 558.624V591.407H1060.11V594H1052.73C1049.04 594 1046.63 594.088 1045.52 594.264C1044.44 594.469 1043.63 594.586 1043.1 594.615V587.408H1042.93C1041.76 589.635 1039.98 591.393 1037.61 592.682C1035.27 593.971 1032.72 594.615 1029.96 594.615C1027.33 594.615 1025.07 594.088 1023.2 593.033C1021.35 591.979 1020.18 590.821 1019.68 589.562C1019.21 588.272 1018.98 586.236 1018.98 583.453V561.349H1013.97V558.624H1030.97V582.047C1030.97 585.621 1031.12 587.979 1031.41 589.122C1031.71 590.265 1032.54 590.836 1033.92 590.836C1035.35 590.836 1036.97 590.206 1038.75 588.946C1040.54 587.687 1041.71 586.251 1042.27 584.64C1042.83 583.028 1043.1 580.772 1043.1 577.872V561.349H1037.26V558.624H1055.1Z" fill="#F3E1B8"/>
<path d="M1080.02 557.569V565.04H1080.19C1083.3 560.06 1087.65 557.569 1093.25 557.569C1095.74 557.569 1097.92 558.097 1099.79 559.151C1101.67 560.206 1102.85 561.29 1103.35 562.403C1103.88 563.487 1104.14 565.143 1104.14 567.369V591.319H1109.15V594H1087.05V591.319H1092.15V566.71C1092.15 564.483 1091.84 563.033 1091.22 562.359C1090.64 561.686 1089.8 561.349 1088.72 561.349C1087.25 561.349 1085.44 562.271 1083.27 564.117C1081.1 565.963 1080.02 569.2 1080.02 573.829V591.319H1085.16V594H1062.92V591.319H1068.02V561.349H1063.01V558.624H1066.22C1069.12 558.624 1071.99 558.448 1074.83 558.097L1078.74 557.569H1080.02Z" fill="#F3E1B8"/>
<path d="M1116.01 542.54C1116.01 540.753 1116.62 539.244 1117.85 538.014C1119.11 536.754 1120.62 536.124 1122.38 536.124C1124.17 536.124 1125.69 536.754 1126.95 538.014C1128.24 539.273 1128.88 540.782 1128.88 542.54C1128.88 544.298 1128.24 545.821 1126.95 547.11C1125.69 548.37 1124.17 549 1122.38 549C1120.62 549 1119.11 548.37 1117.85 547.11C1116.62 545.821 1116.01 544.298 1116.01 542.54ZM1128.8 557.569V591.319H1132.22V594H1112.58V591.319H1116.8V561.349H1112.58V558.624H1118.16C1121.06 558.624 1123.49 558.448 1125.46 558.097C1127.42 557.745 1128.53 557.569 1128.8 557.569Z" fill="#F3E1B8"/>
<path d="M1156.75 595.099C1150.86 595.099 1146.16 593.224 1142.64 589.474C1139.12 585.724 1137.37 581.358 1137.37 576.378C1137.37 571.339 1139.15 566.944 1142.73 563.194C1146.3 559.444 1150.97 557.569 1156.75 557.569C1162.58 557.569 1167.28 559.43 1170.85 563.15C1174.46 566.842 1176.26 571.251 1176.26 576.378C1176.26 581.476 1174.47 585.87 1170.9 589.562C1167.35 593.253 1162.63 595.099 1156.75 595.099ZM1156.75 559.811C1155.19 559.811 1153.95 560.191 1153.01 560.953C1152.07 561.686 1151.5 562.828 1151.3 564.381C1151.09 565.904 1150.99 569.903 1150.99 576.378C1150.99 582.677 1151.08 586.544 1151.25 587.979C1151.46 589.415 1152.04 590.587 1153.01 591.495C1154.01 592.374 1155.34 592.813 1157.01 592.813C1158.36 592.813 1159.53 592.433 1160.53 591.671C1161.55 590.88 1162.17 589.474 1162.37 587.452C1162.58 585.401 1162.68 581.944 1162.68 577.081C1162.68 569.493 1162.39 564.718 1161.8 562.755C1161.21 560.792 1159.53 559.811 1156.75 559.811Z" fill="#F3E1B8"/>
<path d="M1195.99 558.097V567.809H1196.17C1196.87 564.352 1198.03 561.788 1199.64 560.118C1201.25 558.419 1203.04 557.569 1205 557.569C1206.9 557.569 1208.46 558.258 1209.66 559.635C1210.86 560.982 1211.46 562.652 1211.46 564.645C1211.46 566.344 1211 567.721 1210.1 568.775C1209.19 569.801 1208.09 570.313 1206.8 570.313C1205.51 570.313 1204.4 569.83 1203.46 568.863C1202.55 567.896 1202.1 566.827 1202.1 565.655C1202.1 564.19 1202.35 563.165 1202.84 562.579C1203.37 561.993 1203.64 561.612 1203.64 561.437C1203.64 561.114 1203.4 560.953 1202.93 560.953C1201.47 560.953 1200.06 562.389 1198.71 565.26C1197.4 568.131 1196.74 572.789 1196.74 579.234V591.319H1203.28V594H1180.17V591.319H1184.74V561.349H1180.17V558.624H1186.01C1189.12 558.624 1191.4 558.536 1192.87 558.36L1194.45 558.097H1195.99Z" fill="#F3E1B8"/>
<path d="M997.05 662V656.1L1006.75 641.2C1007.48 640.1 1008.17 639.034 1008.8 638C1009.47 636.967 1010 635.917 1010.4 634.85C1010.83 633.784 1011.05 632.667 1011.05 631.5C1011.05 630.334 1010.82 629.467 1010.35 628.9C1009.88 628.334 1009.25 628.05 1008.45 628.05C1007.55 628.05 1006.85 628.3 1006.35 628.8C1005.85 629.3 1005.5 629.967 1005.3 630.8C1005.13 631.634 1005.05 632.567 1005.05 633.6V635.6H996.95V633.45C996.95 631.05 997.333 628.917 998.1 627.05C998.867 625.15 1000.08 623.667 1001.75 622.6C1003.42 621.5 1005.6 620.95 1008.3 620.95C1011.93 620.95 1014.67 621.9 1016.5 623.8C1018.37 625.667 1019.3 628.284 1019.3 631.65C1019.3 633.284 1019.03 634.8 1018.5 636.2C1018 637.6 1017.32 638.967 1016.45 640.3C1015.62 641.6 1014.72 642.967 1013.75 644.4L1006.35 655.45H1018.2V662H997.05Z" fill="#F3E1B8"/>
<path d="M1033.73 662.6C1031.13 662.6 1029.08 662.2 1027.58 661.4C1026.08 660.6 1025.02 659.434 1024.38 657.9C1023.75 656.334 1023.43 654.417 1023.43 652.15C1023.43 652.05 1023.43 651.95 1023.43 651.85C1023.43 651.717 1023.43 651.6 1023.43 651.5H1031.23C1031.23 653.134 1031.37 654.35 1031.63 655.15C1031.93 655.917 1032.65 656.3 1033.78 656.3C1034.55 656.3 1035.12 656.067 1035.48 655.6C1035.85 655.134 1036.08 654.317 1036.18 653.15C1036.32 651.95 1036.38 650.317 1036.38 648.25V644.65C1035.95 645.35 1035.28 645.884 1034.38 646.25C1033.52 646.617 1032.53 646.834 1031.43 646.9C1029.3 646.934 1027.58 646.4 1026.28 645.3C1024.98 644.2 1024.05 642.717 1023.48 640.85C1022.92 638.984 1022.63 636.95 1022.63 634.75C1022.63 631.917 1022.98 629.484 1023.68 627.45C1024.42 625.384 1025.6 623.784 1027.23 622.65C1028.87 621.517 1031.03 620.95 1033.73 620.95C1036.4 620.95 1038.55 621.484 1040.18 622.55C1041.82 623.617 1043 625.117 1043.73 627.05C1044.5 628.95 1044.88 631.2 1044.88 633.8V648.9C1044.88 651.534 1044.57 653.884 1043.93 655.95C1043.33 658.017 1042.23 659.65 1040.63 660.85C1039.03 662.017 1036.73 662.6 1033.73 662.6ZM1033.83 640.5C1034.5 640.5 1035.03 640.317 1035.43 639.95C1035.83 639.584 1036.15 639.234 1036.38 638.9V632.3C1036.38 631.367 1036.32 630.517 1036.18 629.75C1036.05 628.95 1035.8 628.317 1035.43 627.85C1035.07 627.35 1034.5 627.1 1033.73 627.1C1033 627.1 1032.45 627.367 1032.08 627.9C1031.72 628.4 1031.47 629.167 1031.33 630.2C1031.23 631.2 1031.18 632.45 1031.18 633.95C1031.18 635.25 1031.22 636.4 1031.28 637.4C1031.38 638.367 1031.62 639.134 1031.98 639.7C1032.35 640.234 1032.97 640.5 1033.83 640.5Z" fill="#F3E1B8"/>
<path d="M1068.88 662.5C1067.41 662.5 1066.18 662.15 1065.18 661.45C1064.18 660.75 1063.43 659.867 1062.93 658.8C1062.43 657.7 1062.18 656.584 1062.18 655.45C1062.18 653.65 1062.53 652.134 1063.23 650.9C1063.96 649.667 1064.91 648.634 1066.08 647.8C1067.25 646.967 1068.53 646.267 1069.93 645.7C1071.33 645.1 1072.71 644.567 1074.08 644.1V641.2C1074.08 640.7 1074.03 640.267 1073.93 639.9C1073.83 639.5 1073.66 639.2 1073.43 639C1073.2 638.767 1072.85 638.65 1072.38 638.65C1071.91 638.65 1071.55 638.75 1071.28 638.95C1071.05 639.15 1070.88 639.434 1070.78 639.8C1070.68 640.134 1070.61 640.517 1070.58 640.95L1070.38 643.05L1062.78 642.75C1062.95 639.284 1063.86 636.734 1065.53 635.1C1067.23 633.434 1069.76 632.6 1073.13 632.6C1076.06 632.6 1078.25 633.417 1079.68 635.05C1081.15 636.65 1081.88 638.734 1081.88 641.3V654.8C1081.88 656 1081.9 657.05 1081.93 657.95C1082 658.85 1082.06 659.634 1082.13 660.3C1082.23 660.967 1082.31 661.534 1082.38 662H1075.08C1074.98 661.234 1074.86 660.4 1074.73 659.5C1074.6 658.6 1074.5 658.067 1074.43 657.9C1074.1 659.1 1073.46 660.167 1072.53 661.1C1071.63 662.034 1070.41 662.5 1068.88 662.5ZM1071.78 657C1072.11 657 1072.41 656.934 1072.68 656.8C1072.98 656.667 1073.25 656.484 1073.48 656.25C1073.71 656.017 1073.91 655.784 1074.08 655.55V647.65C1073.41 648.05 1072.8 648.467 1072.23 648.9C1071.66 649.3 1071.18 649.75 1070.78 650.25C1070.38 650.75 1070.06 651.3 1069.83 651.9C1069.63 652.467 1069.53 653.117 1069.53 653.85C1069.53 654.817 1069.73 655.584 1070.13 656.15C1070.53 656.717 1071.08 657 1071.78 657Z" fill="#F3E1B8"/>
<path d="M1086.71 662V633.1H1107.21V662H1099.06V638.65H1094.86V662H1086.71Z" fill="#F3E1B8"/>
<path d="M1112.25 671.5V633.1H1120.4V635.2C1121.36 634.334 1122.4 633.684 1123.5 633.25C1124.6 632.817 1125.65 632.6 1126.65 632.6C1127.75 632.6 1128.68 632.817 1129.45 633.25C1130.25 633.684 1130.9 634.3 1131.4 635.1C1131.9 635.867 1132.26 636.767 1132.5 637.8C1132.73 638.834 1132.85 639.934 1132.85 641.1V653.55C1132.85 655.35 1132.6 656.917 1132.1 658.25C1131.63 659.584 1130.93 660.634 1130 661.4C1129.06 662.134 1127.91 662.5 1126.55 662.5C1125.51 662.5 1124.46 662.267 1123.4 661.8C1122.36 661.3 1121.36 660.634 1120.4 659.8V671.5H1112.25ZM1122.55 657.25C1123.08 657.25 1123.5 657.1 1123.8 656.8C1124.1 656.5 1124.31 656.117 1124.45 655.65C1124.61 655.15 1124.7 654.6 1124.7 654V640.5C1124.7 639.934 1124.63 639.434 1124.5 639C1124.36 638.534 1124.15 638.167 1123.85 637.9C1123.55 637.634 1123.16 637.5 1122.7 637.5C1122.26 637.5 1121.85 637.6 1121.45 637.8C1121.08 637.967 1120.73 638.2 1120.4 638.5V656.5C1120.76 656.734 1121.11 656.917 1121.45 657.05C1121.81 657.184 1122.18 657.25 1122.55 657.25Z" fill="#F3E1B8"/>
<path d="M1146.94 662.5C1144.84 662.5 1143.04 662.134 1141.54 661.4C1140.04 660.634 1138.89 659.534 1138.09 658.1C1137.29 656.634 1136.89 654.884 1136.89 652.85V642.25C1136.89 640.184 1137.29 638.434 1138.09 637C1138.89 635.567 1140.04 634.484 1141.54 633.75C1143.07 632.984 1144.87 632.6 1146.94 632.6C1149.07 632.6 1150.84 632.967 1152.24 633.7C1153.67 634.434 1154.74 635.517 1155.44 636.95C1156.17 638.384 1156.54 640.15 1156.54 642.25V648.05H1144.94V653.6C1144.94 654.334 1145.02 654.934 1145.19 655.4C1145.36 655.867 1145.59 656.2 1145.89 656.4C1146.19 656.6 1146.54 656.7 1146.94 656.7C1147.34 656.7 1147.69 656.617 1147.99 656.45C1148.32 656.25 1148.57 655.95 1148.74 655.55C1148.94 655.15 1149.04 654.6 1149.04 653.9V650.85H1156.54V653.65C1156.54 656.584 1155.69 658.8 1153.99 660.3C1152.29 661.767 1149.94 662.5 1146.94 662.5ZM1144.94 644.25H1149.04V641.35C1149.04 640.584 1148.94 639.984 1148.74 639.55C1148.57 639.117 1148.32 638.817 1147.99 638.65C1147.69 638.484 1147.32 638.4 1146.89 638.4C1146.49 638.4 1146.14 638.5 1145.84 638.7C1145.57 638.9 1145.36 639.25 1145.19 639.75C1145.02 640.217 1144.94 640.9 1144.94 641.8V644.25Z" fill="#F3E1B8"/>
<path d="M1159.08 662.3V656.55C1160.14 656.55 1161.01 656.384 1161.68 656.05C1162.38 655.717 1162.93 655.15 1163.33 654.35C1163.76 653.517 1164.09 652.4 1164.33 651C1164.56 649.567 1164.76 647.75 1164.93 645.55L1165.88 633.1H1184.23V662H1176.08V638.6H1172.78L1172.08 647.15C1171.84 650.15 1171.51 652.634 1171.08 654.6C1170.64 656.567 1170.01 658.117 1169.18 659.25C1168.34 660.35 1167.23 661.134 1165.83 661.6C1164.43 662.067 1162.64 662.3 1160.48 662.3H1159.08Z" fill="#F3E1B8"/>
<path d="M1187.65 662L1192.15 650C1191.38 649.567 1190.73 648.967 1190.2 648.2C1189.66 647.434 1189.26 646.534 1189 645.5C1188.73 644.467 1188.6 643.35 1188.6 642.15C1188.6 640.817 1188.78 639.6 1189.15 638.5C1189.55 637.4 1190.16 636.45 1191 635.65C1191.86 634.85 1192.98 634.234 1194.35 633.8C1195.71 633.334 1197.36 633.1 1199.3 633.1H1210.05V662H1201.95V651.7C1201.81 651.7 1201.45 651.7 1200.85 651.7C1200.25 651.667 1199.8 651.634 1199.5 651.6L1196.25 662H1187.65ZM1201.6 646.9C1201.66 646.9 1201.73 646.9 1201.8 646.9C1201.86 646.9 1201.91 646.9 1201.95 646.9V637.7C1201.91 637.7 1201.86 637.7 1201.8 637.7C1201.73 637.7 1201.66 637.7 1201.6 637.7C1200.36 637.7 1199.33 637.867 1198.5 638.2C1197.66 638.534 1197.03 639.034 1196.6 639.7C1196.2 640.334 1196 641.134 1196 642.1C1196 643.734 1196.48 644.934 1197.45 645.7C1198.45 646.467 1199.83 646.867 1201.6 646.9Z" fill="#F3E1B8"/>
<path fill-rule="evenodd" clip-rule="evenodd" d="M1052.69 834.493C908.951 845.266 783.172 820.221 674.504 773.017L676.496 768.431C784.436 815.319 909.404 840.218 1052.31 829.507L1052.69 834.493Z" fill="#345E5A" fill-opacity="0.5"/>
<path d="M365.27 688V631.3H397.96V688H387.74V638.65H375.49V688H365.27Z" fill="#345E5A"/>
<path d="M418.111 688.63C415.171 688.63 412.744 688.093 410.831 687.02C408.917 685.9 407.471 684.29 406.491 682.19C405.557 680.09 405.091 677.546 405.091 674.56V660.98C405.091 657.993 405.557 655.45 406.491 653.35C407.471 651.25 408.917 649.663 410.831 648.59C412.744 647.47 415.171 646.91 418.111 646.91C421.051 646.91 423.477 647.47 425.391 648.59C427.351 649.663 428.797 651.25 429.731 653.35C430.711 655.45 431.201 657.993 431.201 660.98V674.56C431.201 677.546 430.711 680.09 429.731 682.19C428.797 684.29 427.351 685.9 425.391 687.02C423.477 688.093 421.051 688.63 418.111 688.63ZM418.181 682.05C419.254 682.05 420.047 681.746 420.561 681.14C421.074 680.533 421.401 679.716 421.541 678.69C421.681 677.616 421.751 676.45 421.751 675.19V660.35C421.751 659.09 421.681 657.946 421.541 656.92C421.401 655.893 421.074 655.076 420.561 654.47C420.047 653.816 419.254 653.49 418.181 653.49C417.107 653.49 416.314 653.816 415.801 654.47C415.287 655.076 414.937 655.893 414.751 656.92C414.611 657.946 414.541 659.09 414.541 660.35V675.19C414.541 676.45 414.611 677.616 414.751 678.69C414.937 679.716 415.287 680.533 415.801 681.14C416.314 681.746 417.107 682.05 418.181 682.05Z" fill="#345E5A"/>
<path d="M434.648 688.42V681.49C436.094 681.49 437.261 681.233 438.148 680.72C439.034 680.206 439.734 679.343 440.248 678.13C440.761 676.87 441.158 675.19 441.438 673.09C441.718 670.943 441.974 668.26 442.208 665.04L443.328 647.54H466.848V688H457.328V654.26H451.518L450.678 666.16C450.398 670.593 449.978 674.256 449.418 677.15C448.904 680.043 448.111 682.306 447.038 683.94C446.011 685.573 444.611 686.74 442.838 687.44C441.064 688.093 438.801 688.42 436.048 688.42H434.648Z" fill="#345E5A"/>
<path d="M474.432 698.99V692.13C476.065 692.13 477.395 692.036 478.422 691.85C479.448 691.663 480.195 691.336 480.662 690.87C481.128 690.403 481.362 689.75 481.362 688.91C481.362 688.303 481.198 687.346 480.872 686.04C480.592 684.733 480.265 683.31 479.892 681.77L471.002 647.54H480.242L485.492 674.21L490.042 647.54H499.212L489.762 689.61C489.248 691.99 488.385 693.856 487.172 695.21C485.958 696.563 484.442 697.52 482.622 698.08C480.802 698.686 478.678 698.99 476.252 698.99H474.432Z" fill="#345E5A"/>
<path d="M518.525 700.67V686.6H517.615C516.075 686.6 514.465 686.39 512.785 685.97C511.105 685.55 509.518 684.803 508.025 683.73C506.531 682.656 505.295 681.14 504.315 679.18C503.381 677.22 502.915 674.746 502.915 671.76V662.31C502.915 659.79 503.311 657.62 504.105 655.8C504.945 653.98 506.065 652.486 507.465 651.32C508.865 650.153 510.428 649.313 512.155 648.8C513.881 648.24 515.655 647.96 517.475 647.96H518.525V631.37H526.995V647.96H528.325C530.751 647.96 533.061 648.45 535.255 649.43C537.448 650.41 539.221 651.95 540.575 654.05C541.975 656.15 542.675 658.903 542.675 662.31V671.76C542.675 674.746 542.208 677.22 541.275 679.18C540.341 681.14 539.128 682.656 537.635 683.73C536.188 684.803 534.625 685.55 532.945 685.97C531.265 686.39 529.678 686.6 528.185 686.6H526.995V700.67H518.525ZM517.825 680.58H518.525V653.63H517.685C516.565 653.63 515.538 653.863 514.605 654.33C513.718 654.796 512.995 655.59 512.435 656.71C511.921 657.83 511.665 659.346 511.665 661.26V672.11C511.665 674.163 511.898 675.82 512.365 677.08C512.878 678.293 513.601 679.18 514.535 679.74C515.468 680.3 516.565 680.58 517.825 680.58ZM526.995 680.58H527.625C528.885 680.58 529.981 680.3 530.915 679.74C531.848 679.18 532.571 678.293 533.085 677.08C533.645 675.82 533.925 674.163 533.925 672.11V661.26C533.925 659.346 533.645 657.83 533.085 656.71C532.571 655.59 531.848 654.796 530.915 654.33C529.981 653.863 528.931 653.63 527.765 653.63H526.995V680.58Z" fill="#345E5A"/>
<path d="M549.347 688V647.54H557.117V671.9L568.457 647.54H575.877V688H568.107V663.64L556.977 688H549.347Z" fill="#345E5A"/>
<path d="M583.185 688V647.54H592.705V663.85H600.895V647.54H610.415V688H600.895V670.57H592.705V688H583.185Z" fill="#345E5A"/>
<path d="M625.546 688.63C623.726 688.63 622.163 688.163 620.856 687.23C619.55 686.25 618.546 685.036 617.846 683.59C617.146 682.096 616.796 680.556 616.796 678.97C616.796 676.45 617.263 674.326 618.196 672.6C619.13 670.873 620.366 669.426 621.906 668.26C623.446 667.093 625.196 666.09 627.156 665.25C629.116 664.363 631.1 663.57 633.106 662.87V659.37C633.106 658.203 633.013 657.223 632.826 656.43C632.686 655.636 632.383 655.03 631.916 654.61C631.496 654.19 630.82 653.98 629.886 653.98C629.093 653.98 628.44 654.166 627.926 654.54C627.46 654.913 627.11 655.45 626.876 656.15C626.69 656.803 626.573 657.573 626.526 658.46L626.386 660.91L617.356 660.56C617.496 655.893 618.64 652.463 620.786 650.27C622.98 648.03 626.293 646.91 630.726 646.91C634.786 646.91 637.726 648.03 639.546 650.27C641.413 652.51 642.346 655.543 642.346 659.37V678.06C642.346 679.553 642.37 680.906 642.416 682.12C642.51 683.333 642.603 684.43 642.696 685.41C642.836 686.39 642.953 687.253 643.046 688H634.506C634.366 687.066 634.18 686.016 633.946 684.85C633.76 683.636 633.62 682.75 633.526 682.19C633.06 683.823 632.173 685.316 630.866 686.67C629.56 687.976 627.786 688.63 625.546 688.63ZM629.046 681.56C629.653 681.56 630.213 681.42 630.726 681.14C631.286 680.813 631.776 680.44 632.196 680.02C632.616 679.6 632.92 679.226 633.106 678.9V667.63C632.08 668.236 631.1 668.843 630.166 669.45C629.28 670.056 628.486 670.733 627.786 671.48C627.133 672.18 626.62 672.95 626.246 673.79C625.92 674.63 625.756 675.61 625.756 676.73C625.756 678.223 626.036 679.413 626.596 680.3C627.203 681.14 628.02 681.56 629.046 681.56Z" fill="#345E5A"/>
<path d="M646.767 688.42V681.49C648.213 681.49 649.38 681.233 650.267 680.72C651.153 680.206 651.853 679.343 652.367 678.13C652.88 676.87 653.277 675.19 653.557 673.09C653.837 670.943 654.093 668.26 654.327 665.04L655.447 647.54H678.967V688H669.447V654.26H663.637L662.797 666.16C662.517 670.593 662.097 674.256 661.537 677.15C661.024 680.043 660.23 682.306 659.157 683.94C658.13 685.573 656.73 686.74 654.957 687.44C653.183 688.093 650.92 688.42 648.167 688.42H646.767Z" fill="#345E5A"/>
<path d="M377.35 757.55C374.85 757.55 372.817 756.966 371.25 755.8C369.683 754.633 368.533 753.05 367.8 751.05C367.1 749.016 366.75 746.75 366.75 744.25V730.05C366.75 727.416 367.05 725.05 367.65 722.95C368.25 720.816 369.317 719.133 370.85 717.9C372.383 716.666 374.533 716.05 377.3 716.05C379.667 716.05 381.583 716.45 383.05 717.25C384.55 718.016 385.65 719.15 386.35 720.65C387.05 722.15 387.4 724 387.4 726.2C387.4 726.3 387.4 726.416 387.4 726.55C387.433 726.65 387.45 726.75 387.45 726.85H380.8C380.8 725.05 380.583 723.7 380.15 722.8C379.717 721.9 378.783 721.45 377.35 721.45C376.483 721.45 375.783 721.716 375.25 722.25C374.717 722.783 374.317 723.666 374.05 724.9C373.817 726.1 373.7 727.716 373.7 729.75V734.6C374.167 733.833 374.867 733.233 375.8 732.8C376.767 732.333 377.883 732.1 379.15 732.1C381.35 732.066 383.083 732.55 384.35 733.55C385.617 734.55 386.517 735.933 387.05 737.7C387.617 739.466 387.9 741.483 387.9 743.75C387.9 746.383 387.567 748.75 386.9 750.85C386.233 752.916 385.133 754.55 383.6 755.75C382.067 756.95 379.983 757.55 377.35 757.55ZM377.4 752.2C378.367 752.2 379.1 751.9 379.6 751.3C380.1 750.7 380.45 749.866 380.65 748.8C380.85 747.733 380.95 746.483 380.95 745.05C380.95 743.583 380.883 742.283 380.75 741.15C380.65 739.983 380.35 739.066 379.85 738.4C379.35 737.7 378.517 737.35 377.35 737.35C376.783 737.35 376.25 737.466 375.75 737.7C375.283 737.9 374.867 738.166 374.5 738.5C374.167 738.833 373.9 739.166 373.7 739.5V745.85C373.7 746.983 373.8 748.033 374 749C374.233 749.966 374.617 750.75 375.15 751.35C375.717 751.916 376.467 752.2 377.4 752.2Z" fill="#3C817A"/>
<path d="M410.432 757.45C409.132 757.45 408.016 757.116 407.082 756.45C406.149 755.75 405.432 754.883 404.932 753.85C404.432 752.783 404.182 751.683 404.182 750.55C404.182 748.75 404.516 747.233 405.182 746C405.849 744.766 406.732 743.733 407.832 742.9C408.932 742.066 410.182 741.35 411.582 740.75C412.982 740.116 414.399 739.55 415.832 739.05V736.55C415.832 735.716 415.766 735.016 415.632 734.45C415.532 733.883 415.316 733.45 414.982 733.15C414.682 732.85 414.199 732.7 413.532 732.7C412.966 732.7 412.499 732.833 412.132 733.1C411.799 733.366 411.549 733.75 411.382 734.25C411.249 734.716 411.166 735.266 411.132 735.9L411.032 737.65L404.582 737.4C404.682 734.066 405.499 731.616 407.032 730.05C408.599 728.45 410.966 727.65 414.132 727.65C417.032 727.65 419.132 728.45 420.432 730.05C421.766 731.65 422.432 733.816 422.432 736.55V749.9C422.432 750.966 422.449 751.933 422.482 752.8C422.549 753.666 422.616 754.45 422.682 755.15C422.782 755.85 422.866 756.466 422.932 757H416.832C416.732 756.333 416.599 755.583 416.432 754.75C416.299 753.883 416.199 753.25 416.132 752.85C415.799 754.016 415.166 755.083 414.232 756.05C413.299 756.983 412.032 757.45 410.432 757.45ZM412.932 752.4C413.366 752.4 413.766 752.3 414.132 752.1C414.532 751.866 414.882 751.6 415.182 751.3C415.482 751 415.699 750.733 415.832 750.5V742.45C415.099 742.883 414.399 743.316 413.732 743.75C413.099 744.183 412.532 744.666 412.032 745.2C411.566 745.7 411.199 746.25 410.932 746.85C410.699 747.45 410.582 748.15 410.582 748.95C410.582 750.016 410.782 750.866 411.182 751.5C411.616 752.1 412.199 752.4 412.932 752.4Z" fill="#3C817A"/>
<path d="M427.44 757V728.1H446.19V757H439.39V732.9H434.24V757H427.44Z" fill="#3C817A"/>
<path d="M451.366 766.5V728.1H458.166V730.3C458.999 729.5 459.916 728.866 460.916 728.4C461.916 727.9 462.966 727.65 464.066 727.65C465.366 727.65 466.432 727.95 467.266 728.55C468.099 729.15 468.749 729.95 469.216 730.95C469.682 731.916 469.999 732.966 470.166 734.1C470.366 735.2 470.466 736.266 470.466 737.3V747.1C470.466 749 470.232 750.733 469.766 752.3C469.332 753.866 468.616 755.116 467.616 756.05C466.649 756.983 465.349 757.45 463.716 757.45C462.682 757.45 461.699 757.2 460.766 756.7C459.866 756.2 458.999 755.566 458.166 754.8V766.5H451.366ZM461.166 752.7C461.899 752.7 462.432 752.466 462.766 752C463.132 751.5 463.366 750.85 463.466 750.05C463.599 749.216 463.666 748.316 463.666 747.35V737C463.666 736.1 463.599 735.3 463.466 734.6C463.332 733.866 463.082 733.283 462.716 732.85C462.349 732.416 461.816 732.2 461.116 732.2C460.582 732.2 460.049 732.333 459.516 732.6C459.016 732.833 458.566 733.116 458.166 733.45V751.7C458.599 752 459.066 752.25 459.566 752.45C460.066 752.616 460.599 752.7 461.166 752.7Z" fill="#3C817A"/>
<path d="M483.895 757.45C481.728 757.45 479.962 757.05 478.595 756.25C477.228 755.416 476.212 754.216 475.545 752.65C474.912 751.05 474.595 749.133 474.595 746.9V738.2C474.595 735.9 474.912 733.966 475.545 732.4C476.212 730.833 477.228 729.65 478.595 728.85C479.995 728.05 481.762 727.65 483.895 727.65C486.195 727.65 487.978 728.083 489.245 728.95C490.545 729.816 491.462 731.083 491.995 732.75C492.562 734.383 492.845 736.383 492.845 738.75V742.85H481.345V748.55C481.345 749.483 481.428 750.25 481.595 750.85C481.795 751.45 482.095 751.883 482.495 752.15C482.895 752.416 483.378 752.55 483.945 752.55C484.545 752.55 485.028 752.416 485.395 752.15C485.762 751.85 486.028 751.433 486.195 750.9C486.362 750.333 486.445 749.633 486.445 748.8V746.4H492.795V748.35C492.795 751.283 492.062 753.533 490.595 755.1C489.128 756.666 486.895 757.45 483.895 757.45ZM481.345 739.5H486.445V736.75C486.445 735.75 486.362 734.95 486.195 734.35C486.028 733.716 485.762 733.266 485.395 733C485.028 732.7 484.512 732.55 483.845 732.55C483.245 732.55 482.762 732.7 482.395 733C482.028 733.3 481.762 733.8 481.595 734.5C481.428 735.2 481.345 736.2 481.345 737.5V739.5Z" fill="#3C817A"/>
<path d="M495.609 757.3V752.35C496.643 752.35 497.476 752.166 498.109 751.8C498.743 751.433 499.243 750.816 499.609 749.95C499.976 749.05 500.259 747.85 500.459 746.35C500.659 744.816 500.843 742.9 501.009 740.6L501.809 728.1H518.609V757H511.809V732.9H507.659L507.059 741.4C506.859 744.566 506.559 747.183 506.159 749.25C505.793 751.316 505.226 752.933 504.459 754.1C503.726 755.266 502.726 756.1 501.459 756.6C500.193 757.066 498.576 757.3 496.609 757.3H495.609Z" fill="#3C817A"/>
<path d="M521.927 757L526.877 744.9C526.01 744.5 525.293 743.933 524.727 743.2C524.193 742.433 523.793 741.533 523.527 740.5C523.26 739.433 523.127 738.266 523.127 737C523.127 735.566 523.31 734.3 523.677 733.2C524.077 732.1 524.71 731.183 525.577 730.45C526.443 729.683 527.577 729.1 528.977 728.7C530.377 728.3 532.077 728.1 534.077 728.1H542.327V757H535.627V746.15C535.293 746.15 534.877 746.15 534.377 746.15C533.877 746.116 533.46 746.083 533.127 746.05L529.127 757H521.927ZM535.127 742.2C535.193 742.2 535.277 742.2 535.377 742.2C535.51 742.2 535.593 742.2 535.627 742.2V731.95C535.593 731.95 535.51 731.95 535.377 731.95C535.277 731.95 535.21 731.95 535.177 731.95C533.777 731.95 532.627 732.133 531.727 732.5C530.86 732.833 530.227 733.366 529.827 734.1C529.46 734.833 529.277 735.783 529.277 736.95C529.277 738.716 529.727 740.033 530.627 740.9C531.56 741.733 533.06 742.166 535.127 742.2Z" fill="#3C817A"/>
<path fill-rule="evenodd" clip-rule="evenodd" d="M425.771 605.252C396.936 577.644 370.282 548.703 345.763 519.094L349.614 515.905C374.019 545.377 400.543 574.175 429.229 601.64L425.771 605.252Z" fill="#345E5A" fill-opacity="0.5"/>
</svg>
