<svg width="485" height="905" viewBox="0 0 485 905" fill="none" xmlns="http://www.w3.org/2000/svg">
<path d="M199.835 193.385C197.828 193.385 196.23 193.012 195.04 192.265C193.85 191.518 192.998 190.445 192.485 189.045C191.972 187.645 191.715 185.988 191.715 184.075V173.47C191.715 171.557 191.972 169.923 192.485 168.57C192.998 167.193 193.85 166.143 195.04 165.42C196.23 164.697 197.828 164.335 199.835 164.335C201.888 164.335 203.498 164.697 204.665 165.42C205.855 166.143 206.707 167.193 207.22 168.57C207.757 169.923 208.025 171.557 208.025 173.47V184.11C208.025 186 207.757 187.645 207.22 189.045C206.707 190.422 205.855 191.495 204.665 192.265C203.498 193.012 201.888 193.385 199.835 193.385ZM199.835 189.57C200.698 189.57 201.328 189.383 201.725 189.01C202.145 188.637 202.425 188.123 202.565 187.47C202.705 186.817 202.775 186.105 202.775 185.335V172.28C202.775 171.487 202.705 170.775 202.565 170.145C202.425 169.515 202.145 169.025 201.725 168.675C201.328 168.302 200.698 168.115 199.835 168.115C199.018 168.115 198.4 168.302 197.98 168.675C197.56 169.025 197.28 169.515 197.14 170.145C197 170.775 196.93 171.487 196.93 172.28V185.335C196.93 186.105 196.988 186.817 197.105 187.47C197.245 188.123 197.525 188.637 197.945 189.01C198.365 189.383 198.995 189.57 199.835 189.57Z" fill="#345E5A"/>
<path d="M213.922 193V176.095H210.212V172.77H222.392V176.095H218.647V193H213.922Z" fill="#345E5A"/>
<path d="M230.861 193.315C229.321 193.292 228.084 192.988 227.151 192.405C226.241 191.822 225.576 190.97 225.156 189.85C224.759 188.73 224.561 187.365 224.561 185.755V174.17C224.561 172.35 224.724 170.88 225.051 169.76C225.401 168.64 225.891 167.765 226.521 167.135C227.151 166.505 227.932 166.015 228.866 165.665C229.799 165.292 230.686 165.023 231.526 164.86C232.389 164.673 233.217 164.475 234.011 164.265C234.804 164.032 235.574 163.682 236.321 163.215L236.811 167.1C236.087 167.497 235.317 167.788 234.501 167.975C233.684 168.162 232.879 168.325 232.086 168.465C231.316 168.605 230.592 168.827 229.916 169.13C229.262 169.41 228.772 169.877 228.446 170.53C228.142 171.183 227.991 172.082 227.991 173.225V175.605C228.294 175.278 228.679 174.987 229.146 174.73C229.636 174.473 230.172 174.275 230.756 174.135C231.362 173.995 231.981 173.925 232.611 173.925C233.661 173.925 234.547 174.158 235.271 174.625C236.017 175.068 236.577 175.827 236.951 176.9C237.347 177.95 237.546 179.397 237.546 181.24V185.65C237.546 187.75 237.266 189.36 236.706 190.48C236.146 191.577 235.364 192.323 234.361 192.72C233.357 193.117 232.191 193.315 230.861 193.315ZM231.141 190.095C231.631 190.095 232.004 189.978 232.261 189.745C232.517 189.488 232.692 189.068 232.786 188.485C232.902 187.878 232.961 187.015 232.961 185.895V180.155C232.961 179.338 232.914 178.697 232.821 178.23C232.727 177.74 232.564 177.39 232.331 177.18C232.097 176.947 231.771 176.83 231.351 176.83C231.117 176.83 230.872 176.888 230.616 177.005C230.359 177.122 230.114 177.308 229.881 177.565C229.671 177.822 229.449 178.16 229.216 178.58V185.72C229.216 186.84 229.274 187.715 229.391 188.345C229.507 188.975 229.706 189.43 229.986 189.71C230.266 189.967 230.651 190.095 231.141 190.095Z" fill="#345E5A"/>
<path d="M246.959 193.315C245.489 193.315 244.275 193.047 243.319 192.51C242.362 191.95 241.639 191.145 241.149 190.095C240.682 189.045 240.449 187.773 240.449 186.28V179.49C240.449 177.997 240.682 176.725 241.149 175.675C241.639 174.625 242.362 173.832 243.319 173.295C244.275 172.735 245.489 172.455 246.959 172.455C248.429 172.455 249.642 172.735 250.599 173.295C251.579 173.832 252.302 174.625 252.769 175.675C253.259 176.725 253.504 177.997 253.504 179.49V186.28C253.504 187.773 253.259 189.045 252.769 190.095C252.302 191.145 251.579 191.95 250.599 192.51C249.642 193.047 248.429 193.315 246.959 193.315ZM246.994 190.025C247.53 190.025 247.927 189.873 248.184 189.57C248.44 189.267 248.604 188.858 248.674 188.345C248.744 187.808 248.779 187.225 248.779 186.595V179.175C248.779 178.545 248.744 177.973 248.674 177.46C248.604 176.947 248.44 176.538 248.184 176.235C247.927 175.908 247.53 175.745 246.994 175.745C246.457 175.745 246.06 175.908 245.804 176.235C245.547 176.538 245.372 176.947 245.279 177.46C245.209 177.973 245.174 178.545 245.174 179.175V186.595C245.174 187.225 245.209 187.808 245.279 188.345C245.372 188.858 245.547 189.267 245.804 189.57C246.06 189.873 246.457 190.025 246.994 190.025Z" fill="#345E5A"/>
<path d="M256.761 199.65V172.77H261.521V174.31C262.105 173.75 262.746 173.307 263.446 172.98C264.146 172.63 264.881 172.455 265.651 172.455C266.561 172.455 267.308 172.665 267.891 173.085C268.475 173.505 268.93 174.065 269.256 174.765C269.583 175.442 269.805 176.177 269.921 176.97C270.061 177.74 270.131 178.487 270.131 179.21V186.07C270.131 187.4 269.968 188.613 269.641 189.71C269.338 190.807 268.836 191.682 268.136 192.335C267.46 192.988 266.55 193.315 265.406 193.315C264.683 193.315 263.995 193.14 263.341 192.79C262.711 192.44 262.105 191.997 261.521 191.46V199.65H256.761ZM263.621 189.99C264.135 189.99 264.508 189.827 264.741 189.5C264.998 189.15 265.161 188.695 265.231 188.135C265.325 187.552 265.371 186.922 265.371 186.245V179C265.371 178.37 265.325 177.81 265.231 177.32C265.138 176.807 264.963 176.398 264.706 176.095C264.45 175.792 264.076 175.64 263.586 175.64C263.213 175.64 262.84 175.733 262.466 175.92C262.116 176.083 261.801 176.282 261.521 176.515V189.29C261.825 189.5 262.151 189.675 262.501 189.815C262.851 189.932 263.225 189.99 263.621 189.99Z" fill="#345E5A"/>
<path d="M279.532 193.315C278.062 193.315 276.848 193.047 275.892 192.51C274.935 191.95 274.212 191.145 273.722 190.095C273.255 189.045 273.022 187.773 273.022 186.28V179.49C273.022 177.997 273.255 176.725 273.722 175.675C274.212 174.625 274.935 173.832 275.892 173.295C276.848 172.735 278.062 172.455 279.532 172.455C281.002 172.455 282.215 172.735 283.172 173.295C284.152 173.832 284.875 174.625 285.342 175.675C285.832 176.725 286.077 177.997 286.077 179.49V186.28C286.077 187.773 285.832 189.045 285.342 190.095C284.875 191.145 284.152 191.95 283.172 192.51C282.215 193.047 281.002 193.315 279.532 193.315ZM279.567 190.025C280.103 190.025 280.5 189.873 280.757 189.57C281.013 189.267 281.177 188.858 281.247 188.345C281.317 187.808 281.352 187.225 281.352 186.595V179.175C281.352 178.545 281.317 177.973 281.247 177.46C281.177 176.947 281.013 176.538 280.757 176.235C280.5 175.908 280.103 175.745 279.567 175.745C279.03 175.745 278.633 175.908 278.377 176.235C278.12 176.538 277.945 176.947 277.852 177.46C277.782 177.973 277.747 178.545 277.747 179.175V186.595C277.747 187.225 277.782 187.808 277.852 188.345C277.945 188.858 278.12 189.267 278.377 189.57C278.633 189.873 279.03 190.025 279.567 190.025Z" fill="#345E5A"/>
<path d="M297.209 193V184.915C296.836 184.938 296.451 184.973 296.054 185.02C295.681 185.043 295.308 185.055 294.934 185.055C293.558 185.055 292.414 184.892 291.504 184.565C290.594 184.215 289.918 183.667 289.474 182.92C289.054 182.173 288.844 181.205 288.844 180.015V172.77H293.569V179.84C293.569 180.563 293.721 181.123 294.024 181.52C294.351 181.893 294.993 182.092 295.949 182.115C296.159 182.115 296.358 182.103 296.544 182.08C296.754 182.057 296.976 182.033 297.209 182.01V172.77H301.969V193H297.209Z" fill="#345E5A"/>
<path d="M305.638 193V172.77H310.398V180.925H314.493V172.77H319.253V193H314.493V184.285H310.398V193H305.638Z" fill="#345E5A"/>
<path d="M322.899 193V172.77H327.659V180.995C327.706 180.995 327.752 180.995 327.799 180.995C327.846 180.995 327.892 180.995 327.939 180.995C327.986 180.995 328.021 180.995 328.044 180.995C329.444 181.018 330.646 181.123 331.649 181.31C332.676 181.497 333.516 181.812 334.169 182.255C334.846 182.698 335.347 183.305 335.674 184.075C336.001 184.822 336.164 185.79 336.164 186.98C336.164 188.077 336.012 189.01 335.709 189.78C335.429 190.527 334.951 191.145 334.274 191.635C333.621 192.102 332.757 192.452 331.684 192.685C330.634 192.895 329.362 193 327.869 193H322.899ZM327.659 190.27H327.834C328.861 190.27 329.666 190.177 330.249 189.99C330.832 189.78 331.241 189.442 331.474 188.975C331.731 188.485 331.859 187.82 331.859 186.98C331.859 186.187 331.742 185.568 331.509 185.125C331.276 184.658 330.867 184.32 330.284 184.11C329.724 183.9 328.942 183.795 327.939 183.795C327.916 183.795 327.869 183.795 327.799 183.795C327.752 183.795 327.706 183.795 327.659 183.795V190.27ZM338.404 193V172.77H343.164V193H338.404Z" fill="#345E5A"/>
<path d="M346.791 193V172.77H350.676V184.95L356.346 172.77H360.056V193H356.171V180.82L350.606 193H346.791ZM353.511 170.53C351.831 170.53 350.559 170.075 349.696 169.165C348.856 168.232 348.436 166.983 348.436 165.42H351.166C351.166 166.26 351.341 166.902 351.691 167.345C352.041 167.788 352.647 168.01 353.511 168.01C354.351 168.01 354.946 167.788 355.296 167.345C355.646 166.878 355.821 166.237 355.821 165.42H358.551C358.551 166.983 358.119 168.232 357.256 169.165C356.416 170.075 355.167 170.53 353.511 170.53Z" fill="#345E5A"/>
<path d="M374.6 193V176.095H370.89V172.77H383.07V176.095H379.325V193H374.6Z" fill="#345E5A"/>
<path d="M385.519 198.495V195.065C386.336 195.065 387.001 195.018 387.514 194.925C388.028 194.832 388.401 194.668 388.634 194.435C388.868 194.202 388.984 193.875 388.984 193.455C388.984 193.152 388.903 192.673 388.739 192.02C388.599 191.367 388.436 190.655 388.249 189.885L383.804 172.77H388.424L391.049 186.105L393.324 172.77H397.909L393.184 193.805C392.928 194.995 392.496 195.928 391.889 196.605C391.283 197.282 390.524 197.76 389.614 198.04C388.704 198.343 387.643 198.495 386.429 198.495H385.519Z" fill="#345E5A"/>
<path d="M400.111 199.65V172.77H404.871V174.31C405.454 173.75 406.096 173.307 406.796 172.98C407.496 172.63 408.231 172.455 409.001 172.455C409.911 172.455 410.658 172.665 411.241 173.085C411.824 173.505 412.279 174.065 412.606 174.765C412.933 175.442 413.154 176.177 413.271 176.97C413.411 177.74 413.481 178.487 413.481 179.21V186.07C413.481 187.4 413.318 188.613 412.991 189.71C412.688 190.807 412.186 191.682 411.486 192.335C410.809 192.988 409.899 193.315 408.756 193.315C408.033 193.315 407.344 193.14 406.691 192.79C406.061 192.44 405.454 191.997 404.871 191.46V199.65H400.111ZM406.971 189.99C407.484 189.99 407.858 189.827 408.091 189.5C408.348 189.15 408.511 188.695 408.581 188.135C408.674 187.552 408.721 186.922 408.721 186.245V179C408.721 178.37 408.674 177.81 408.581 177.32C408.488 176.807 408.313 176.398 408.056 176.095C407.799 175.792 407.426 175.64 406.936 175.64C406.563 175.64 406.189 175.733 405.816 175.92C405.466 176.083 405.151 176.282 404.871 176.515V189.29C405.174 189.5 405.501 189.675 405.851 189.815C406.201 189.932 406.574 189.99 406.971 189.99Z" fill="#345E5A"/>
<path d="M194.53 229.5V209.79C194.41 209.85 194.17 209.94 193.81 210.06C193.47 210.18 193.09 210.3 192.67 210.42C192.25 210.52 191.86 210.62 191.5 210.72C191.16 210.82 190.92 210.9 190.78 210.96V207.87C191.06 207.77 191.41 207.63 191.83 207.45C192.25 207.27 192.69 207.07 193.15 206.85C193.63 206.61 194.07 206.35 194.47 206.07C194.89 205.79 195.23 205.5 195.49 205.2H198.67V229.5H194.53Z" fill="#3C817A"/>
<path d="M209.218 229.86C207.598 229.86 206.338 229.56 205.438 228.96C204.558 228.36 203.948 227.51 203.608 226.41C203.268 225.31 203.098 224.02 203.098 222.54H207.148C207.148 223.36 207.198 224.09 207.298 224.73C207.418 225.35 207.638 225.84 207.958 226.2C208.298 226.54 208.788 226.7 209.428 226.68C210.128 226.68 210.618 226.46 210.898 226.02C211.198 225.56 211.388 224.93 211.468 224.13C211.548 223.31 211.588 222.36 211.588 221.28C211.588 220.34 211.528 219.52 211.408 218.82C211.308 218.12 211.098 217.58 210.778 217.2C210.458 216.8 209.958 216.6 209.278 216.6C208.698 216.6 208.218 216.8 207.838 217.2C207.458 217.58 207.178 218.09 206.998 218.73H203.428L203.668 205.2H214.588V208.92H207.148L206.908 214.77C207.208 214.41 207.638 214.12 208.198 213.9C208.778 213.68 209.418 213.55 210.118 213.51C211.398 213.45 212.438 213.72 213.238 214.32C214.038 214.92 214.628 215.79 215.008 216.93C215.388 218.07 215.578 219.43 215.578 221.01C215.578 222.29 215.488 223.47 215.308 224.55C215.148 225.63 214.838 226.57 214.378 227.37C213.918 228.15 213.268 228.76 212.428 229.2C211.608 229.64 210.538 229.86 209.218 229.86Z" fill="#3C817A"/>
<path d="M225.548 221.07V218.31H232.778V221.07H225.548Z" fill="#3C817A"/>
<path d="M243.027 229.5V226.56L249.027 217.29C249.467 216.61 249.877 215.96 250.257 215.34C250.657 214.72 250.977 214.08 251.217 213.42C251.477 212.74 251.607 212 251.607 211.2C251.607 210.3 251.447 209.61 251.127 209.13C250.807 208.65 250.307 208.41 249.627 208.41C248.987 208.41 248.487 208.59 248.127 208.95C247.767 209.31 247.517 209.78 247.377 210.36C247.257 210.94 247.197 211.58 247.197 212.28V213.3H243.117V212.22C243.117 210.78 243.327 209.52 243.747 208.44C244.187 207.34 244.877 206.48 245.817 205.86C246.757 205.24 247.987 204.93 249.507 204.93C251.587 204.93 253.147 205.49 254.187 206.61C255.227 207.73 255.747 209.29 255.747 211.29C255.747 212.29 255.607 213.2 255.327 214.02C255.047 214.82 254.677 215.59 254.217 216.33C253.757 217.07 253.257 217.83 252.717 218.61L247.737 226.17H255.117V229.5H243.027Z" fill="#3C817A"/>
<path d="M264.719 229.86C263.299 229.86 262.119 229.56 261.179 228.96C260.259 228.36 259.559 227.53 259.079 226.47C258.619 225.41 258.389 224.19 258.389 222.81V212.04C258.389 210.62 258.609 209.38 259.049 208.32C259.509 207.24 260.199 206.4 261.119 205.8C262.059 205.2 263.259 204.9 264.719 204.9C266.179 204.9 267.369 205.2 268.289 205.8C269.229 206.4 269.919 207.24 270.359 208.32C270.819 209.38 271.049 210.62 271.049 212.04V222.81C271.049 224.19 270.809 225.41 270.329 226.47C269.869 227.53 269.169 228.36 268.229 228.96C267.309 229.56 266.139 229.86 264.719 229.86ZM264.719 226.29C265.339 226.29 265.799 226.1 266.099 225.72C266.399 225.34 266.599 224.88 266.699 224.34C266.799 223.8 266.849 223.27 266.849 222.75V212.1C266.849 211.54 266.799 210.99 266.699 210.45C266.619 209.89 266.429 209.42 266.129 209.04C265.829 208.66 265.359 208.47 264.719 208.47C264.079 208.47 263.609 208.66 263.309 209.04C263.009 209.42 262.809 209.89 262.709 210.45C262.629 210.99 262.589 211.54 262.589 212.1V222.75C262.589 223.27 262.639 223.8 262.739 224.34C262.859 224.88 263.069 225.34 263.369 225.72C263.669 226.1 264.119 226.29 264.719 226.29Z" fill="#3C817A"/>
<path d="M281.529 229.5L281.649 212.16H284.679L288.339 221.61L292.059 212.16H295.059L295.179 229.5H291.909V219.78L288.999 227.28H287.769L284.829 219.81V229.5H281.529Z" fill="#3C817A"/>
<path d="M301.619 229.77C300.839 229.77 300.169 229.57 299.609 229.17C299.049 228.75 298.619 228.23 298.319 227.61C298.019 226.97 297.869 226.31 297.869 225.63C297.869 224.55 298.069 223.64 298.469 222.9C298.869 222.16 299.399 221.54 300.059 221.04C300.719 220.54 301.469 220.11 302.309 219.75C303.149 219.37 303.999 219.03 304.859 218.73V217.23C304.859 216.73 304.819 216.31 304.739 215.97C304.679 215.63 304.549 215.37 304.349 215.19C304.169 215.01 303.879 214.92 303.479 214.92C303.139 214.92 302.859 215 302.639 215.16C302.439 215.32 302.289 215.55 302.189 215.85C302.109 216.13 302.059 216.46 302.039 216.84L301.979 217.89L298.109 217.74C298.169 215.74 298.659 214.27 299.579 213.33C300.519 212.37 301.939 211.89 303.839 211.89C305.579 211.89 306.839 212.37 307.619 213.33C308.419 214.29 308.819 215.59 308.819 217.23V225.24C308.819 225.88 308.829 226.46 308.849 226.98C308.889 227.5 308.929 227.97 308.969 228.39C309.029 228.81 309.079 229.18 309.119 229.5H305.459C305.399 229.1 305.319 228.65 305.219 228.15C305.139 227.63 305.079 227.25 305.039 227.01C304.839 227.71 304.459 228.35 303.899 228.93C303.339 229.49 302.579 229.77 301.619 229.77ZM303.119 226.74C303.379 226.74 303.619 226.68 303.839 226.56C304.079 226.42 304.289 226.26 304.469 226.08C304.649 225.9 304.779 225.74 304.859 225.6V220.77C304.419 221.03 303.999 221.29 303.599 221.55C303.219 221.81 302.879 222.1 302.579 222.42C302.299 222.72 302.079 223.05 301.919 223.41C301.779 223.77 301.709 224.19 301.709 224.67C301.709 225.31 301.829 225.82 302.069 226.2C302.329 226.56 302.679 226.74 303.119 226.74Z" fill="#3C817A"/>
<path d="M311.823 235.2V212.16H315.903V213.48C316.403 213 316.953 212.62 317.553 212.34C318.153 212.04 318.783 211.89 319.443 211.89C320.223 211.89 320.863 212.07 321.363 212.43C321.863 212.79 322.253 213.27 322.533 213.87C322.813 214.45 323.003 215.08 323.103 215.76C323.223 216.42 323.283 217.06 323.283 217.68V223.56C323.283 224.7 323.143 225.74 322.863 226.68C322.603 227.62 322.173 228.37 321.573 228.93C320.993 229.49 320.213 229.77 319.233 229.77C318.613 229.77 318.023 229.62 317.463 229.32C316.923 229.02 316.403 228.64 315.903 228.18V235.2H311.823ZM317.703 226.92C318.143 226.92 318.463 226.78 318.663 226.5C318.883 226.2 319.023 225.81 319.083 225.33C319.163 224.83 319.203 224.29 319.203 223.71V217.5C319.203 216.96 319.163 216.48 319.083 216.06C319.003 215.62 318.853 215.27 318.633 215.01C318.413 214.75 318.093 214.62 317.673 214.62C317.353 214.62 317.033 214.7 316.713 214.86C316.413 215 316.143 215.17 315.903 215.37V226.32C316.163 226.5 316.443 226.65 316.743 226.77C317.043 226.87 317.363 226.92 317.703 226.92Z" fill="#3C817A"/>
<path d="M328.131 229.5V215.01H324.951V212.16H335.391V215.01H332.181V229.5H328.131Z" fill="#3C817A"/>
<path d="M340.73 229.77C339.95 229.77 339.28 229.57 338.72 229.17C338.16 228.75 337.73 228.23 337.43 227.61C337.13 226.97 336.98 226.31 336.98 225.63C336.98 224.55 337.18 223.64 337.58 222.9C337.98 222.16 338.51 221.54 339.17 221.04C339.83 220.54 340.58 220.11 341.42 219.75C342.26 219.37 343.11 219.03 343.97 218.73V217.23C343.97 216.73 343.93 216.31 343.85 215.97C343.79 215.63 343.66 215.37 343.46 215.19C343.28 215.01 342.99 214.92 342.59 214.92C342.25 214.92 341.97 215 341.75 215.16C341.55 215.32 341.4 215.55 341.3 215.85C341.22 216.13 341.17 216.46 341.15 216.84L341.09 217.89L337.22 217.74C337.28 215.74 337.77 214.27 338.69 213.33C339.63 212.37 341.05 211.89 342.95 211.89C344.69 211.89 345.95 212.37 346.73 213.33C347.53 214.29 347.93 215.59 347.93 217.23V225.24C347.93 225.88 347.94 226.46 347.96 226.98C348 227.5 348.04 227.97 348.08 228.39C348.14 228.81 348.19 229.18 348.23 229.5H344.57C344.51 229.1 344.43 228.65 344.33 228.15C344.25 227.63 344.19 227.25 344.15 227.01C343.95 227.71 343.57 228.35 343.01 228.93C342.45 229.49 341.69 229.77 340.73 229.77ZM342.23 226.74C342.49 226.74 342.73 226.68 342.95 226.56C343.19 226.42 343.4 226.26 343.58 226.08C343.76 225.9 343.89 225.74 343.97 225.6V220.77C343.53 221.03 343.11 221.29 342.71 221.55C342.33 221.81 341.99 222.1 341.69 222.42C341.41 222.72 341.19 223.05 341.03 223.41C340.89 223.77 340.82 224.19 340.82 224.67C340.82 225.31 340.94 225.82 341.18 226.2C341.44 226.56 341.79 226.74 342.23 226.74Z" fill="#3C817A"/>
<path d="M70.1348 28.9999V0.649902H78.4648C80.1681 0.649902 81.5448 0.964903 82.5948 1.5949C83.6681 2.2249 84.4498 3.14657 84.9398 4.3599C85.4531 5.5499 85.7098 6.99657 85.7098 8.6999C85.7098 10.5432 85.3948 12.0366 84.7648 13.1799C84.1348 14.2999 83.2481 15.1166 82.1048 15.6299C80.9848 16.1432 79.6548 16.3999 78.1148 16.3999H75.3148V28.9999H70.1348ZM75.3148 12.7599H77.2748C78.2081 12.7599 78.9314 12.6316 79.4448 12.3749C79.9814 12.0949 80.3431 11.6632 80.5298 11.0799C80.7398 10.4732 80.8448 9.66824 80.8448 8.6649C80.8448 7.63824 80.7631 6.80991 80.5998 6.1799C80.4598 5.52657 80.1331 5.04824 79.6198 4.7449C79.1298 4.44157 78.3481 4.2899 77.2748 4.2899H75.3148V12.7599Z" fill="#345E5A"/>
<path d="M94.4018 29.3149C92.8851 29.3149 91.6485 29.0349 90.6918 28.4749C89.7351 27.8916 89.0235 27.0516 88.5568 25.9549C88.1135 24.8349 87.8918 23.4932 87.8918 21.9299V15.8399C87.8918 14.2299 88.1135 12.8766 88.5568 11.7799C89.0235 10.6832 89.7351 9.8549 90.6918 9.2949C91.6718 8.7349 92.9085 8.4549 94.4018 8.4549C96.0118 8.4549 97.2601 8.75824 98.1468 9.3649C99.0568 9.97157 99.6985 10.8582 100.072 12.0249C100.468 13.1682 100.667 14.5682 100.667 16.2249V19.0949H92.6168V23.0849C92.6168 23.7382 92.6751 24.2749 92.7918 24.6949C92.9318 25.1149 93.1418 25.4182 93.4218 25.6049C93.7018 25.7916 94.0401 25.8849 94.4368 25.8849C94.8568 25.8849 95.1951 25.7916 95.4518 25.6049C95.7085 25.3949 95.8951 25.1032 96.0118 24.7299C96.1285 24.3332 96.1868 23.8432 96.1868 23.2599V21.5799H100.632V22.9449C100.632 24.9982 100.118 26.5732 99.0918 27.6699C98.0651 28.7666 96.5018 29.3149 94.4018 29.3149ZM92.6168 16.7499H96.1868V14.8249C96.1868 14.1249 96.1285 13.5649 96.0118 13.1449C95.8951 12.7016 95.7085 12.3866 95.4518 12.1999C95.1951 11.9899 94.8335 11.8849 94.3668 11.8849C93.9468 11.8849 93.6085 11.9899 93.3518 12.1999C93.0951 12.4099 92.9085 12.7599 92.7918 13.2499C92.6751 13.7399 92.6168 14.4399 92.6168 15.3499V16.7499Z" fill="#345E5A"/>
<path d="M103.897 28.9999V8.76991H113.067V12.0599H108.657V28.9999H103.897Z" fill="#345E5A"/>
<path d="M115.176 28.9999V8.76991H119.061V20.9499L124.731 8.76991H128.441V28.9999H124.556V16.8199L118.991 28.9999H115.176Z" fill="#345E5A"/>
<path d="M138.185 29.3149C136.622 29.3149 135.362 29.0232 134.405 28.4399C133.472 27.8332 132.783 26.9816 132.34 25.8849C131.92 24.7649 131.71 23.4466 131.71 21.9299V15.8399C131.71 14.2766 131.92 12.9466 132.34 11.8499C132.783 10.7532 133.483 9.91324 134.44 9.3299C135.397 8.74657 136.645 8.4549 138.185 8.4549C139.632 8.4549 140.81 8.68824 141.72 9.1549C142.653 9.59824 143.33 10.2866 143.75 11.2199C144.17 12.1299 144.38 13.2849 144.38 14.6849V16.3649H139.9V14.5799C139.9 13.8799 139.842 13.3316 139.725 12.9349C139.632 12.5149 139.457 12.2232 139.2 12.0599C138.943 11.8732 138.605 11.7799 138.185 11.7799C137.765 11.7799 137.427 11.8966 137.17 12.1299C136.913 12.3399 136.727 12.6899 136.61 13.1799C136.517 13.6699 136.47 14.3466 136.47 15.2099V22.6299C136.47 23.9366 136.61 24.8232 136.89 25.2899C137.17 25.7332 137.613 25.9549 138.22 25.9549C138.687 25.9549 139.037 25.8499 139.27 25.6399C139.527 25.4299 139.69 25.1266 139.76 24.7299C139.853 24.3099 139.9 23.8082 139.9 23.2249V21.0549H144.38V22.9799C144.38 24.3332 144.158 25.4882 143.715 26.4449C143.295 27.4016 142.618 28.1249 141.685 28.6149C140.775 29.0816 139.608 29.3149 138.185 29.3149Z" fill="#345E5A"/>
<path d="M149.89 28.9999V12.0949H146.18V8.76991H158.36V12.0949H154.615V28.9999H149.89Z" fill="#345E5A"/>
<path d="M160.669 35.6499V8.76991H165.429V10.3099C166.013 9.7499 166.654 9.30657 167.354 8.9799C168.054 8.6299 168.789 8.4549 169.559 8.4549C170.469 8.4549 171.216 8.6649 171.799 9.0849C172.383 9.5049 172.838 10.0649 173.164 10.7649C173.491 11.4416 173.713 12.1766 173.829 12.9699C173.969 13.7399 174.039 14.4866 174.039 15.2099V22.0699C174.039 23.3999 173.876 24.6132 173.549 25.7099C173.246 26.8066 172.744 27.6816 172.044 28.3349C171.368 28.9882 170.458 29.3149 169.314 29.3149C168.591 29.3149 167.903 29.1399 167.249 28.7899C166.619 28.4399 166.013 27.9966 165.429 27.4599V35.6499H160.669ZM167.529 25.9899C168.043 25.9899 168.416 25.8266 168.649 25.4999C168.906 25.1499 169.069 24.6949 169.139 24.1349C169.233 23.5516 169.279 22.9216 169.279 22.2449V14.9999C169.279 14.3699 169.233 13.8099 169.139 13.3199C169.046 12.8066 168.871 12.3982 168.614 12.0949C168.358 11.7916 167.984 11.6399 167.494 11.6399C167.121 11.6399 166.748 11.7332 166.374 11.9199C166.024 12.0832 165.709 12.2816 165.429 12.5149V25.2899C165.733 25.4999 166.059 25.6749 166.409 25.8149C166.759 25.9316 167.133 25.9899 167.529 25.9899Z" fill="#345E5A"/>
<path d="M181.235 29.3149C180.325 29.3149 179.543 29.0816 178.89 28.6149C178.237 28.1249 177.735 27.5182 177.385 26.7949C177.035 26.0482 176.86 25.2782 176.86 24.4849C176.86 23.2249 177.093 22.1632 177.56 21.2999C178.027 20.4366 178.645 19.7132 179.415 19.1299C180.185 18.5466 181.06 18.0449 182.04 17.6249C183.02 17.1816 184.012 16.7849 185.015 16.4349V14.6849C185.015 14.1016 184.968 13.6116 184.875 13.2149C184.805 12.8182 184.653 12.5149 184.42 12.3049C184.21 12.0949 183.872 11.9899 183.405 11.9899C183.008 11.9899 182.682 12.0832 182.425 12.2699C182.192 12.4566 182.017 12.7249 181.9 13.0749C181.807 13.4016 181.748 13.7866 181.725 14.2299L181.655 15.4549L177.14 15.2799C177.21 12.9466 177.782 11.2316 178.855 10.1349C179.952 9.0149 181.608 8.4549 183.825 8.4549C185.855 8.4549 187.325 9.0149 188.235 10.1349C189.168 11.2549 189.635 12.7716 189.635 14.6849V24.0299C189.635 24.7766 189.647 25.4532 189.67 26.0599C189.717 26.6666 189.763 27.2149 189.81 27.7049C189.88 28.1949 189.938 28.6266 189.985 28.9999H185.715C185.645 28.5332 185.552 28.0082 185.435 27.4249C185.342 26.8182 185.272 26.3749 185.225 26.0949C184.992 26.9116 184.548 27.6582 183.895 28.3349C183.242 28.9882 182.355 29.3149 181.235 29.3149ZM182.985 25.7799C183.288 25.7799 183.568 25.7099 183.825 25.5699C184.105 25.4066 184.35 25.2199 184.56 25.0099C184.77 24.7999 184.922 24.6132 185.015 24.4499V18.8149C184.502 19.1182 184.012 19.4216 183.545 19.7249C183.102 20.0282 182.705 20.3666 182.355 20.7399C182.028 21.0899 181.772 21.4749 181.585 21.8949C181.422 22.3149 181.34 22.8049 181.34 23.3649C181.34 24.1116 181.48 24.7066 181.76 25.1499C182.063 25.5699 182.472 25.7799 182.985 25.7799Z" fill="#345E5A"/>
<path d="M205.845 34.3199L205.495 28.9999H193.14V8.76991H197.9V25.9199H201.855V8.76991H206.58V25.9199H209.275V34.3199H205.845Z" fill="#345E5A"/>
<path d="M211.597 28.9999V8.76991H215.482V20.9499L221.152 8.76991H224.862V28.9999H220.977V16.8199L215.412 28.9999H211.597Z" fill="#345E5A"/>
<path d="M227.186 28.9999L230.651 20.5299C230.044 20.2499 229.543 19.8532 229.146 19.3399C228.773 18.8032 228.493 18.1732 228.306 17.4499C228.119 16.7032 228.026 15.8866 228.026 14.9999C228.026 13.9966 228.154 13.1099 228.411 12.3399C228.691 11.5699 229.134 10.9282 229.741 10.4149C230.348 9.87824 231.141 9.4699 232.121 9.1899C233.101 8.9099 234.291 8.76991 235.691 8.76991H241.466V28.9999H236.776V21.4049C236.543 21.4049 236.251 21.4049 235.901 21.4049C235.551 21.3816 235.259 21.3582 235.026 21.3349L232.226 28.9999H227.186ZM236.426 18.6399C236.473 18.6399 236.531 18.6399 236.601 18.6399C236.694 18.6399 236.753 18.6399 236.776 18.6399V11.4649C236.753 11.4649 236.694 11.4649 236.601 11.4649C236.531 11.4649 236.484 11.4649 236.461 11.4649C235.481 11.4649 234.676 11.5932 234.046 11.8499C233.439 12.0832 232.996 12.4566 232.716 12.9699C232.459 13.4832 232.331 14.1482 232.331 14.9649C232.331 16.2016 232.646 17.1232 233.276 17.7299C233.929 18.3132 234.979 18.6166 236.426 18.6399Z" fill="#345E5A"/>
<path d="M68.5098 65.0599V57.9499C69.1498 57.5699 69.7098 57.0999 70.1898 56.5399C70.6898 55.9599 71.1198 55.2499 71.4798 54.4099C71.8398 53.5699 72.1198 52.5599 72.3198 51.3799C72.5398 50.1999 72.6698 48.7999 72.7098 47.1799L73.0098 43.1599H81.7398V57.8599H84.0498V65.0599H81.1098L80.8098 60.4999H71.7798L71.5098 65.0599H68.5098ZM72.7698 57.8599H77.9298V45.7699H76.0998L75.8898 48.1099C75.8498 49.6899 75.7398 51.0299 75.5598 52.1299C75.3798 53.2299 75.1498 54.1499 74.8698 54.8899C74.5898 55.6299 74.2698 56.2299 73.9098 56.6899C73.5498 57.1499 73.1698 57.5399 72.7698 57.8599Z" fill="#3C817A"/>
<path d="M91.0695 60.7699C89.8095 60.7699 88.7695 60.5399 87.9495 60.0799C87.1295 59.5999 86.5095 58.9099 86.0895 58.0099C85.6895 57.1099 85.4895 56.0199 85.4895 54.7399V48.9199C85.4895 47.6399 85.6895 46.5499 86.0895 45.6499C86.5095 44.7499 87.1295 44.0699 87.9495 43.6099C88.7695 43.1299 89.8095 42.8899 91.0695 42.8899C92.3295 42.8899 93.3695 43.1299 94.1895 43.6099C95.0295 44.0699 95.6495 44.7499 96.0495 45.6499C96.4695 46.5499 96.6795 47.6399 96.6795 48.9199V54.7399C96.6795 56.0199 96.4695 57.1099 96.0495 58.0099C95.6495 58.9099 95.0295 59.5999 94.1895 60.0799C93.3695 60.5399 92.3295 60.7699 91.0695 60.7699ZM91.0995 57.9499C91.5595 57.9499 91.8995 57.8199 92.1195 57.5599C92.3395 57.2999 92.4795 56.9499 92.5395 56.5099C92.5995 56.0499 92.6295 55.5499 92.6295 55.0099V48.6499C92.6295 48.1099 92.5995 47.6199 92.5395 47.1799C92.4795 46.7399 92.3395 46.3899 92.1195 46.1299C91.8995 45.8499 91.5595 45.7099 91.0995 45.7099C90.6395 45.7099 90.2995 45.8499 90.0795 46.1299C89.8595 46.3899 89.7095 46.7399 89.6295 47.1799C89.5695 47.6199 89.5395 48.1099 89.5395 48.6499V55.0099C89.5395 55.5499 89.5695 56.0499 89.6295 56.5099C89.7095 56.9499 89.8595 57.2999 90.0795 57.5599C90.2995 57.8199 90.6395 57.9499 91.0995 57.9499Z" fill="#3C817A"/>
<path d="M106.437 60.4999V57.5599L112.437 48.2899C112.877 47.6099 113.287 46.9599 113.667 46.3399C114.067 45.7199 114.387 45.0799 114.627 44.4199C114.887 43.7399 115.017 42.9999 115.017 42.1999C115.017 41.2999 114.857 40.6099 114.537 40.1299C114.217 39.6499 113.717 39.4099 113.037 39.4099C112.397 39.4099 111.897 39.5899 111.537 39.9499C111.177 40.3099 110.927 40.7799 110.787 41.3599C110.667 41.9399 110.607 42.5799 110.607 43.2799V44.2999H106.527V43.2199C106.527 41.7799 106.737 40.5199 107.157 39.4399C107.597 38.3399 108.287 37.4799 109.227 36.8599C110.167 36.2399 111.397 35.9299 112.917 35.9299C114.997 35.9299 116.557 36.4899 117.597 37.6099C118.637 38.7299 119.157 40.2899 119.157 42.2899C119.157 43.2899 119.017 44.1999 118.737 45.0199C118.457 45.8199 118.087 46.5899 117.627 47.3299C117.167 48.0699 116.667 48.8299 116.127 49.6099L111.147 57.1699H118.527V60.4999H106.437Z" fill="#3C817A"/>
<path d="M128.129 60.8599C126.709 60.8599 125.529 60.5599 124.589 59.9599C123.669 59.3599 122.969 58.5299 122.489 57.4699C122.029 56.4099 121.799 55.1899 121.799 53.8099V43.0399C121.799 41.6199 122.019 40.3799 122.459 39.3199C122.919 38.2399 123.609 37.3999 124.529 36.7999C125.469 36.1999 126.669 35.8999 128.129 35.8999C129.589 35.8999 130.779 36.1999 131.699 36.7999C132.639 37.3999 133.329 38.2399 133.769 39.3199C134.229 40.3799 134.459 41.6199 134.459 43.0399V53.8099C134.459 55.1899 134.219 56.4099 133.739 57.4699C133.279 58.5299 132.579 59.3599 131.639 59.9599C130.719 60.5599 129.549 60.8599 128.129 60.8599ZM128.129 57.2899C128.749 57.2899 129.209 57.0999 129.509 56.7199C129.809 56.3399 130.009 55.8799 130.109 55.3399C130.209 54.7999 130.259 54.2699 130.259 53.7499V43.0999C130.259 42.5399 130.209 41.9899 130.109 41.4499C130.029 40.8899 129.839 40.4199 129.539 40.0399C129.239 39.6599 128.769 39.4699 128.129 39.4699C127.489 39.4699 127.019 39.6599 126.719 40.0399C126.419 40.4199 126.219 40.8899 126.119 41.4499C126.039 41.9899 125.999 42.5399 125.999 43.0999V53.7499C125.999 54.2699 126.049 54.7999 126.149 55.3399C126.269 55.8799 126.479 56.3399 126.779 56.7199C127.079 57.0999 127.529 57.2899 128.129 57.2899Z" fill="#3C817A"/>
<path d="M144.939 60.4999L145.059 43.1599H148.089L151.749 52.6099L155.469 43.1599H158.469L158.589 60.4999H155.319V50.7799L152.409 58.2799H151.179L148.239 50.8099V60.4999H144.939Z" fill="#3C817A"/>
<path d="M165.029 60.7699C164.249 60.7699 163.579 60.5699 163.019 60.1699C162.459 59.7499 162.029 59.2299 161.729 58.6099C161.429 57.9699 161.279 57.3099 161.279 56.6299C161.279 55.5499 161.479 54.6399 161.879 53.8999C162.279 53.1599 162.809 52.5399 163.469 52.0399C164.129 51.5399 164.879 51.1099 165.719 50.7499C166.559 50.3699 167.409 50.0299 168.269 49.7299V48.2299C168.269 47.7299 168.229 47.3099 168.149 46.9699C168.089 46.6299 167.959 46.3699 167.759 46.1899C167.579 46.0099 167.289 45.9199 166.889 45.9199C166.549 45.9199 166.269 45.9999 166.049 46.1599C165.849 46.3199 165.699 46.5499 165.599 46.8499C165.519 47.1299 165.469 47.4599 165.449 47.8399L165.389 48.8899L161.519 48.7399C161.579 46.7399 162.069 45.2699 162.989 44.3299C163.929 43.3699 165.349 42.8899 167.249 42.8899C168.989 42.8899 170.249 43.3699 171.029 44.3299C171.829 45.2899 172.229 46.5899 172.229 48.2299V56.2399C172.229 56.8799 172.239 57.4599 172.259 57.9799C172.299 58.4999 172.339 58.9699 172.379 59.3899C172.439 59.8099 172.489 60.1799 172.529 60.4999H168.869C168.809 60.0999 168.729 59.6499 168.629 59.1499C168.549 58.6299 168.489 58.2499 168.449 58.0099C168.249 58.7099 167.869 59.3499 167.309 59.9299C166.749 60.4899 165.989 60.7699 165.029 60.7699ZM166.529 57.7399C166.789 57.7399 167.029 57.6799 167.249 57.5599C167.489 57.4199 167.699 57.2599 167.879 57.0799C168.059 56.8999 168.189 56.7399 168.269 56.5999V51.7699C167.829 52.0299 167.409 52.2899 167.009 52.5499C166.629 52.8099 166.289 53.0999 165.989 53.4199C165.709 53.7199 165.489 54.0499 165.329 54.4099C165.189 54.7699 165.119 55.1899 165.119 55.6699C165.119 56.3099 165.239 56.8199 165.479 57.1999C165.739 57.5599 166.089 57.7399 166.529 57.7399Z" fill="#3C817A"/>
<path d="M175.234 66.1999V43.1599H179.314V44.4799C179.814 43.9999 180.364 43.6199 180.964 43.3399C181.564 43.0399 182.194 42.8899 182.854 42.8899C183.634 42.8899 184.274 43.0699 184.774 43.4299C185.274 43.7899 185.664 44.2699 185.944 44.8699C186.224 45.4499 186.414 46.0799 186.514 46.7599C186.634 47.4199 186.694 48.0599 186.694 48.6799V54.5599C186.694 55.6999 186.554 56.7399 186.274 57.6799C186.014 58.6199 185.584 59.3699 184.984 59.9299C184.404 60.4899 183.624 60.7699 182.644 60.7699C182.024 60.7699 181.434 60.6199 180.874 60.3199C180.334 60.0199 179.814 59.6399 179.314 59.1799V66.1999H175.234ZM181.114 57.9199C181.554 57.9199 181.874 57.7799 182.074 57.4999C182.294 57.1999 182.434 56.8099 182.494 56.3299C182.574 55.8299 182.614 55.2899 182.614 54.7099V48.4999C182.614 47.9599 182.574 47.4799 182.494 47.0599C182.414 46.6199 182.264 46.2699 182.044 46.0099C181.824 45.7499 181.504 45.6199 181.084 45.6199C180.764 45.6199 180.444 45.6999 180.124 45.8599C179.824 45.9999 179.554 46.1699 179.314 46.3699V57.3199C179.574 57.4999 179.854 57.6499 180.154 57.7699C180.454 57.8699 180.774 57.9199 181.114 57.9199Z" fill="#3C817A"/>
<path d="M191.541 60.4999V46.0099H188.361V43.1599H198.801V46.0099H195.591V60.4999H191.541Z" fill="#3C817A"/>
<path d="M204.14 60.7699C203.36 60.7699 202.69 60.5699 202.13 60.1699C201.57 59.7499 201.14 59.2299 200.84 58.6099C200.54 57.9699 200.39 57.3099 200.39 56.6299C200.39 55.5499 200.59 54.6399 200.99 53.8999C201.39 53.1599 201.92 52.5399 202.58 52.0399C203.24 51.5399 203.99 51.1099 204.83 50.7499C205.67 50.3699 206.52 50.0299 207.38 49.7299V48.2299C207.38 47.7299 207.34 47.3099 207.26 46.9699C207.2 46.6299 207.07 46.3699 206.87 46.1899C206.69 46.0099 206.4 45.9199 206 45.9199C205.66 45.9199 205.38 45.9999 205.16 46.1599C204.96 46.3199 204.81 46.5499 204.71 46.8499C204.63 47.1299 204.58 47.4599 204.56 47.8399L204.5 48.8899L200.63 48.7399C200.69 46.7399 201.18 45.2699 202.1 44.3299C203.04 43.3699 204.46 42.8899 206.36 42.8899C208.1 42.8899 209.36 43.3699 210.14 44.3299C210.94 45.2899 211.34 46.5899 211.34 48.2299V56.2399C211.34 56.8799 211.35 57.4599 211.37 57.9799C211.41 58.4999 211.45 58.9699 211.49 59.3899C211.55 59.8099 211.6 60.1799 211.64 60.4999H207.98C207.92 60.0999 207.84 59.6499 207.74 59.1499C207.66 58.6299 207.6 58.2499 207.56 58.0099C207.36 58.7099 206.98 59.3499 206.42 59.9299C205.86 60.4899 205.1 60.7699 204.14 60.7699ZM205.64 57.7399C205.9 57.7399 206.14 57.6799 206.36 57.5599C206.6 57.4199 206.81 57.2599 206.99 57.0799C207.17 56.8999 207.3 56.7399 207.38 56.5999V51.7699C206.94 52.0299 206.52 52.2899 206.12 52.5499C205.74 52.8099 205.4 53.0999 205.1 53.4199C204.82 53.7199 204.6 54.0499 204.44 54.4099C204.3 54.7699 204.23 55.1899 204.23 55.6699C204.23 56.3099 204.35 56.8199 204.59 57.1999C204.85 57.5599 205.2 57.7399 205.64 57.7399Z" fill="#3C817A"/>
<path d="M104.135 357V328.65H120.48V357H115.37V332.325H109.245V357H104.135Z" fill="#345E5A"/>
<path d="M130.555 357.315C129.085 357.315 127.872 357.047 126.915 356.51C125.958 355.95 125.235 355.145 124.745 354.095C124.278 353.045 124.045 351.773 124.045 350.28V343.49C124.045 341.997 124.278 340.725 124.745 339.675C125.235 338.625 125.958 337.832 126.915 337.295C127.872 336.735 129.085 336.455 130.555 336.455C132.025 336.455 133.238 336.735 134.195 337.295C135.175 337.832 135.898 338.625 136.365 339.675C136.855 340.725 137.1 341.997 137.1 343.49V350.28C137.1 351.773 136.855 353.045 136.365 354.095C135.898 355.145 135.175 355.95 134.195 356.51C133.238 357.047 132.025 357.315 130.555 357.315ZM130.59 354.025C131.127 354.025 131.523 353.873 131.78 353.57C132.037 353.267 132.2 352.858 132.27 352.345C132.34 351.808 132.375 351.225 132.375 350.595V343.175C132.375 342.545 132.34 341.973 132.27 341.46C132.2 340.947 132.037 340.538 131.78 340.235C131.523 339.908 131.127 339.745 130.59 339.745C130.053 339.745 129.657 339.908 129.4 340.235C129.143 340.538 128.968 340.947 128.875 341.46C128.805 341.973 128.77 342.545 128.77 343.175V350.595C128.77 351.225 128.805 351.808 128.875 352.345C128.968 352.858 129.143 353.267 129.4 353.57C129.657 353.873 130.053 354.025 130.59 354.025Z" fill="#345E5A"/>
<path d="M138.824 357.21V353.745C139.547 353.745 140.13 353.617 140.574 353.36C141.017 353.103 141.367 352.672 141.624 352.065C141.88 351.435 142.079 350.595 142.219 349.545C142.359 348.472 142.487 347.13 142.604 345.52L143.164 336.77H154.924V357H150.164V340.13H147.259L146.839 346.08C146.699 348.297 146.489 350.128 146.209 351.575C145.952 353.022 145.555 354.153 145.019 354.97C144.505 355.787 143.805 356.37 142.919 356.72C142.032 357.047 140.9 357.21 139.524 357.21H138.824Z" fill="#345E5A"/>
<path d="M158.716 362.495V359.065C159.532 359.065 160.197 359.018 160.711 358.925C161.224 358.832 161.597 358.668 161.831 358.435C162.064 358.202 162.181 357.875 162.181 357.455C162.181 357.152 162.099 356.673 161.936 356.02C161.796 355.367 161.632 354.655 161.446 353.885L157.001 336.77H161.621L164.246 350.105L166.521 336.77H171.106L166.381 357.805C166.124 358.995 165.692 359.928 165.086 360.605C164.479 361.282 163.721 361.76 162.811 362.04C161.901 362.343 160.839 362.495 159.626 362.495H158.716Z" fill="#345E5A"/>
<path d="M180.762 363.335V356.3H180.307C179.537 356.3 178.732 356.195 177.892 355.985C177.052 355.775 176.259 355.402 175.512 354.865C174.765 354.328 174.147 353.57 173.657 352.59C173.19 351.61 172.957 350.373 172.957 348.88V344.155C172.957 342.895 173.155 341.81 173.552 340.9C173.972 339.99 174.532 339.243 175.232 338.66C175.932 338.077 176.714 337.657 177.577 337.4C178.44 337.12 179.327 336.98 180.237 336.98H180.762V328.685H184.997V336.98H185.662C186.875 336.98 188.03 337.225 189.127 337.715C190.224 338.205 191.11 338.975 191.787 340.025C192.487 341.075 192.837 342.452 192.837 344.155V348.88C192.837 350.373 192.604 351.61 192.137 352.59C191.67 353.57 191.064 354.328 190.317 354.865C189.594 355.402 188.812 355.775 187.972 355.985C187.132 356.195 186.339 356.3 185.592 356.3H184.997V363.335H180.762ZM180.412 353.29H180.762V339.815H180.342C179.782 339.815 179.269 339.932 178.802 340.165C178.359 340.398 177.997 340.795 177.717 341.355C177.46 341.915 177.332 342.673 177.332 343.63V349.055C177.332 350.082 177.449 350.91 177.682 351.54C177.939 352.147 178.3 352.59 178.767 352.87C179.234 353.15 179.782 353.29 180.412 353.29ZM184.997 353.29H185.312C185.942 353.29 186.49 353.15 186.957 352.87C187.424 352.59 187.785 352.147 188.042 351.54C188.322 350.91 188.462 350.082 188.462 349.055V343.63C188.462 342.673 188.322 341.915 188.042 341.355C187.785 340.795 187.424 340.398 186.957 340.165C186.49 339.932 185.965 339.815 185.382 339.815H184.997V353.29Z" fill="#345E5A"/>
<path d="M196.173 357V336.77H200.058V348.95L205.728 336.77H209.438V357H205.553V344.82L199.988 357H196.173Z" fill="#345E5A"/>
<path d="M213.092 357V336.77H217.852V344.925H221.947V336.77H226.707V357H221.947V348.285H217.852V357H213.092Z" fill="#345E5A"/>
<path d="M234.273 357.315C233.363 357.315 232.581 357.082 231.928 356.615C231.275 356.125 230.773 355.518 230.423 354.795C230.073 354.048 229.898 353.278 229.898 352.485C229.898 351.225 230.131 350.163 230.598 349.3C231.065 348.437 231.683 347.713 232.453 347.13C233.223 346.547 234.098 346.045 235.078 345.625C236.058 345.182 237.05 344.785 238.053 344.435V342.685C238.053 342.102 238.006 341.612 237.913 341.215C237.843 340.818 237.691 340.515 237.458 340.305C237.248 340.095 236.91 339.99 236.443 339.99C236.046 339.99 235.72 340.083 235.463 340.27C235.23 340.457 235.055 340.725 234.938 341.075C234.845 341.402 234.786 341.787 234.763 342.23L234.693 343.455L230.178 343.28C230.248 340.947 230.82 339.232 231.893 338.135C232.99 337.015 234.646 336.455 236.863 336.455C238.893 336.455 240.363 337.015 241.273 338.135C242.206 339.255 242.673 340.772 242.673 342.685V352.03C242.673 352.777 242.685 353.453 242.708 354.06C242.755 354.667 242.801 355.215 242.848 355.705C242.918 356.195 242.976 356.627 243.023 357H238.753C238.683 356.533 238.59 356.008 238.473 355.425C238.38 354.818 238.31 354.375 238.263 354.095C238.03 354.912 237.586 355.658 236.933 356.335C236.28 356.988 235.393 357.315 234.273 357.315ZM236.023 353.78C236.326 353.78 236.606 353.71 236.863 353.57C237.143 353.407 237.388 353.22 237.598 353.01C237.808 352.8 237.96 352.613 238.053 352.45V346.815C237.54 347.118 237.05 347.422 236.583 347.725C236.14 348.028 235.743 348.367 235.393 348.74C235.066 349.09 234.81 349.475 234.623 349.895C234.46 350.315 234.378 350.805 234.378 351.365C234.378 352.112 234.518 352.707 234.798 353.15C235.101 353.57 235.51 353.78 236.023 353.78Z" fill="#345E5A"/>
<path d="M244.883 357.21V353.745C245.606 353.745 246.19 353.617 246.633 353.36C247.076 353.103 247.426 352.672 247.683 352.065C247.94 351.435 248.138 350.595 248.278 349.545C248.418 348.472 248.546 347.13 248.663 345.52L249.223 336.77H260.983V357H256.223V340.13H253.318L252.898 346.08C252.758 348.297 252.548 350.128 252.268 351.575C252.012 353.022 251.615 354.153 251.078 354.97C250.565 355.787 249.865 356.37 248.978 356.72C248.091 357.047 246.96 357.21 245.583 357.21H244.883Z" fill="#345E5A"/>
<path d="M110.01 391.83C108.51 391.83 107.29 391.48 106.35 390.78C105.41 390.08 104.72 389.13 104.28 387.93C103.86 386.71 103.65 385.35 103.65 383.85V375.33C103.65 373.75 103.83 372.33 104.19 371.07C104.55 369.79 105.19 368.78 106.11 368.04C107.03 367.3 108.32 366.93 109.98 366.93C111.4 366.93 112.55 367.17 113.43 367.65C114.33 368.11 114.99 368.79 115.41 369.69C115.83 370.59 116.04 371.7 116.04 373.02C116.04 373.08 116.04 373.15 116.04 373.23C116.06 373.29 116.07 373.35 116.07 373.41H112.08C112.08 372.33 111.95 371.52 111.69 370.98C111.43 370.44 110.87 370.17 110.01 370.17C109.49 370.17 109.07 370.33 108.75 370.65C108.43 370.97 108.19 371.5 108.03 372.24C107.89 372.96 107.82 373.93 107.82 375.15V378.06C108.1 377.6 108.52 377.24 109.08 376.98C109.66 376.7 110.33 376.56 111.09 376.56C112.41 376.54 113.45 376.83 114.21 377.43C114.97 378.03 115.51 378.86 115.83 379.92C116.17 380.98 116.34 382.19 116.34 383.55C116.34 385.13 116.14 386.55 115.74 387.81C115.34 389.05 114.68 390.03 113.76 390.75C112.84 391.47 111.59 391.83 110.01 391.83ZM110.04 388.62C110.62 388.62 111.06 388.44 111.36 388.08C111.66 387.72 111.87 387.22 111.99 386.58C112.11 385.94 112.17 385.19 112.17 384.33C112.17 383.45 112.13 382.67 112.05 381.99C111.99 381.29 111.81 380.74 111.51 380.34C111.21 379.92 110.71 379.71 110.01 379.71C109.67 379.71 109.35 379.78 109.05 379.92C108.77 380.04 108.52 380.2 108.3 380.4C108.1 380.6 107.94 380.8 107.82 381V384.81C107.82 385.49 107.88 386.12 108 386.7C108.14 387.28 108.37 387.75 108.69 388.11C109.03 388.45 109.48 388.62 110.04 388.62Z" fill="#3C817A"/>
<path d="M129.859 391.77C129.079 391.77 128.409 391.57 127.849 391.17C127.289 390.75 126.859 390.23 126.559 389.61C126.259 388.97 126.109 388.31 126.109 387.63C126.109 386.55 126.309 385.64 126.709 384.9C127.109 384.16 127.639 383.54 128.299 383.04C128.959 382.54 129.709 382.11 130.549 381.75C131.389 381.37 132.239 381.03 133.099 380.73V379.23C133.099 378.73 133.059 378.31 132.979 377.97C132.919 377.63 132.789 377.37 132.589 377.19C132.409 377.01 132.119 376.92 131.719 376.92C131.379 376.92 131.099 377 130.879 377.16C130.679 377.32 130.529 377.55 130.429 377.85C130.349 378.13 130.299 378.46 130.279 378.84L130.219 379.89L126.349 379.74C126.409 377.74 126.899 376.27 127.819 375.33C128.759 374.37 130.179 373.89 132.079 373.89C133.819 373.89 135.079 374.37 135.859 375.33C136.659 376.29 137.059 377.59 137.059 379.23V387.24C137.059 387.88 137.069 388.46 137.089 388.98C137.129 389.5 137.169 389.97 137.209 390.39C137.269 390.81 137.319 391.18 137.359 391.5H133.699C133.639 391.1 133.559 390.65 133.459 390.15C133.379 389.63 133.319 389.25 133.279 389.01C133.079 389.71 132.699 390.35 132.139 390.93C131.579 391.49 130.819 391.77 129.859 391.77ZM131.359 388.74C131.619 388.74 131.859 388.68 132.079 388.56C132.319 388.42 132.529 388.26 132.709 388.08C132.889 387.9 133.019 387.74 133.099 387.6V382.77C132.659 383.03 132.239 383.29 131.839 383.55C131.459 383.81 131.119 384.1 130.819 384.42C130.539 384.72 130.319 385.05 130.159 385.41C130.019 385.77 129.949 386.19 129.949 386.67C129.949 387.31 130.069 387.82 130.309 388.2C130.569 388.56 130.919 388.74 131.359 388.74Z" fill="#3C817A"/>
<path d="M140.064 391.5V374.16H151.314V391.5H147.234V377.04H144.144V391.5H140.064Z" fill="#3C817A"/>
<path d="M154.419 397.2V374.16H158.499V375.48C158.999 375 159.549 374.62 160.149 374.34C160.749 374.04 161.379 373.89 162.039 373.89C162.819 373.89 163.459 374.07 163.959 374.43C164.459 374.79 164.849 375.27 165.129 375.87C165.409 376.45 165.599 377.08 165.699 377.76C165.819 378.42 165.879 379.06 165.879 379.68V385.56C165.879 386.7 165.739 387.74 165.459 388.68C165.199 389.62 164.769 390.37 164.169 390.93C163.589 391.49 162.809 391.77 161.829 391.77C161.209 391.77 160.619 391.62 160.059 391.32C159.519 391.02 158.999 390.64 158.499 390.18V397.2H154.419ZM160.299 388.92C160.739 388.92 161.059 388.78 161.259 388.5C161.479 388.2 161.619 387.81 161.679 387.33C161.759 386.83 161.799 386.29 161.799 385.71V379.5C161.799 378.96 161.759 378.48 161.679 378.06C161.599 377.62 161.449 377.27 161.229 377.01C161.009 376.75 160.689 376.62 160.269 376.62C159.949 376.62 159.629 376.7 159.309 376.86C159.009 377 158.739 377.17 158.499 377.37V388.32C158.759 388.5 159.039 388.65 159.339 388.77C159.639 388.87 159.959 388.92 160.299 388.92Z" fill="#3C817A"/>
<path d="M173.937 391.77C172.637 391.77 171.577 391.53 170.757 391.05C169.937 390.55 169.327 389.83 168.927 388.89C168.547 387.93 168.357 386.78 168.357 385.44V380.22C168.357 378.84 168.547 377.68 168.927 376.74C169.327 375.8 169.937 375.09 170.757 374.61C171.597 374.13 172.657 373.89 173.937 373.89C175.317 373.89 176.387 374.15 177.147 374.67C177.927 375.19 178.477 375.95 178.797 376.95C179.137 377.93 179.307 379.13 179.307 380.55V383.01H172.407V386.43C172.407 386.99 172.457 387.45 172.557 387.81C172.677 388.17 172.857 388.43 173.097 388.59C173.337 388.75 173.627 388.83 173.967 388.83C174.327 388.83 174.617 388.75 174.837 388.59C175.057 388.41 175.217 388.16 175.317 387.84C175.417 387.5 175.467 387.08 175.467 386.58V385.14H179.277V386.31C179.277 388.07 178.837 389.42 177.957 390.36C177.077 391.3 175.737 391.77 173.937 391.77ZM172.407 381H175.467V379.35C175.467 378.75 175.417 378.27 175.317 377.91C175.217 377.53 175.057 377.26 174.837 377.1C174.617 376.92 174.307 376.83 173.907 376.83C173.547 376.83 173.257 376.92 173.037 377.1C172.817 377.28 172.657 377.58 172.557 378C172.457 378.42 172.407 379.02 172.407 379.8V381Z" fill="#3C817A"/>
<path d="M180.966 391.68V388.71C181.586 388.71 182.086 388.6 182.466 388.38C182.846 388.16 183.146 387.79 183.366 387.27C183.586 386.73 183.756 386.01 183.876 385.11C183.996 384.19 184.106 383.04 184.206 381.66L184.686 374.16H194.766V391.5H190.686V377.04H188.196L187.836 382.14C187.716 384.04 187.536 385.61 187.296 386.85C187.076 388.09 186.736 389.06 186.276 389.76C185.836 390.46 185.236 390.96 184.476 391.26C183.716 391.54 182.746 391.68 181.566 391.68H180.966Z" fill="#3C817A"/>
<path d="M196.756 391.5L199.726 384.24C199.206 384 198.776 383.66 198.436 383.22C198.116 382.76 197.876 382.22 197.716 381.6C197.556 380.96 197.476 380.26 197.476 379.5C197.476 378.64 197.586 377.88 197.806 377.22C198.046 376.56 198.426 376.01 198.946 375.57C199.466 375.11 200.146 374.76 200.986 374.52C201.826 374.28 202.846 374.16 204.046 374.16H208.996V391.5H204.976V384.99C204.776 384.99 204.526 384.99 204.226 384.99C203.926 384.97 203.676 384.95 203.476 384.93L201.076 391.5H196.756ZM204.676 382.62C204.716 382.62 204.766 382.62 204.826 382.62C204.906 382.62 204.956 382.62 204.976 382.62V376.47C204.956 376.47 204.906 376.47 204.826 376.47C204.766 376.47 204.726 376.47 204.706 376.47C203.866 376.47 203.176 376.58 202.636 376.8C202.116 377 201.736 377.32 201.496 377.76C201.276 378.2 201.166 378.77 201.166 379.47C201.166 380.53 201.436 381.32 201.976 381.84C202.536 382.34 203.436 382.6 204.676 382.62Z" fill="#3C817A"/>
<path d="M242.011 416L271.24 457.21L310.895 425.904L327.329 473.68L374.198 454.814L376.507 505.284L426.792 500.387L414.788 549.463L464.416 558.931L436 602.638L484.023 625.704L476.011 660.5L484.023 695.296L471.511 718.362L464.416 762.069L414.788 771.537L426.792 820.613L376.507 815.716L374.198 866.186L327.329 847.32L310.895 895.096L271.24 863.79L242.011 905L212.783 863.79L173.128 895.096L156.693 847.32L109.825 866.186L107.516 815.716L57.2306 820.613L69.2347 771.537L19.6063 762.069L9.51123 718.362L0 695.296L19.6063 660.5L0 625.704L48 602.638L19.6063 558.931L69.2347 549.463L57.2306 500.387L107.516 505.284L109.825 454.814L156.693 473.68L173.128 425.904L212.783 457.21L242.011 416Z" fill="#345E5A"/>
<path fill-rule="evenodd" clip-rule="evenodd" d="M242.011 416L212.783 457.21L173.128 425.904L156.693 473.68L109.825 454.814L107.516 505.284L57.2306 500.387L69.2347 549.463L19.6063 558.931L48 602.638L0 625.704L19.6063 660.5L0 695.296L9.51123 718.362L19.6063 762.069L69.2347 771.537L57.2306 820.613L107.516 815.716L109.825 866.186L156.693 847.32L173.128 895.096L212.783 863.79L242.011 905L271.24 863.79L310.895 895.096L327.329 847.32L374.198 866.186L376.507 815.716L426.792 820.613L414.788 771.537L464.416 762.069L471.511 718.362L484.023 695.296L476.011 660.5L484.023 625.704L436 602.638L464.416 558.931L414.788 549.463L426.792 500.387L376.507 505.284L374.198 454.814L327.329 473.68L310.895 425.904L271.24 457.21L242.011 416ZM303.59 450.782L268.14 478.769L242.011 441.928L215.882 478.769L180.433 450.782L165.741 493.491L123.843 476.626L121.779 521.744L76.8259 517.366L87.5571 561.238L44.3477 569.482L69.871 608.77L20.9279 632.289L36.8236 660.5L16.6444 696.313L23.8488 713.785L32.0212 749.167L87.5571 759.762L76.8259 803.634L121.779 799.256L123.843 844.374L165.741 827.509L180.433 870.218L215.882 842.231L242.011 879.072L268.14 842.231L303.59 870.218L318.282 827.509L360.18 844.374L362.244 799.256L407.197 803.634L396.466 759.762L451.292 749.302L457.113 713.447L468.132 693.132L460.619 660.5L466.713 634.031L414.122 608.77L439.666 569.48L396.466 561.238L407.197 517.366L362.244 521.744L360.18 476.626L318.282 493.491L303.59 450.782Z" fill="#DD430F"/>
<path d="M180.55 552.6V546.2C180.183 546.233 179.783 546.267 179.35 546.3C178.917 546.333 178.5 546.35 178.1 546.35C176.167 546.35 174.467 546 173 545.3C171.533 544.6 170.383 543.5 169.55 542C168.75 540.467 168.35 538.483 168.35 536.05V524.85C168.35 522.55 168.75 520.633 169.55 519.1C170.383 517.567 171.533 516.417 173 515.65C174.5 514.883 176.25 514.5 178.25 514.5C178.65 514.5 179.067 514.517 179.5 514.55C179.933 514.55 180.283 514.567 180.55 514.6V507.5H187V514.6C187.3 514.567 187.65 514.55 188.05 514.55C188.483 514.517 188.883 514.5 189.25 514.5C191.317 514.5 193.083 514.883 194.55 515.65C196.05 516.417 197.2 517.583 198 519.15C198.833 520.683 199.25 522.583 199.25 524.85V536.05C199.25 538.483 198.85 540.467 198.05 542C197.25 543.5 196.167 544.617 194.8 545.35C193.467 546.05 191.967 546.4 190.3 546.4C189.767 546.4 189.217 546.383 188.65 546.35C188.117 546.317 187.567 546.283 187 546.25V552.6H180.55ZM179.35 541.85C179.55 541.85 179.767 541.85 180 541.85C180.233 541.817 180.417 541.783 180.55 541.75V519C180.317 518.967 180.067 518.95 179.8 518.95C179.567 518.917 179.333 518.9 179.1 518.9C178.133 518.9 177.333 519.1 176.7 519.5C176.1 519.9 175.65 520.533 175.35 521.4C175.05 522.267 174.9 523.4 174.9 524.8V536.1C174.9 537.467 175.017 538.567 175.25 539.4C175.517 540.233 175.967 540.85 176.6 541.25C177.233 541.65 178.15 541.85 179.35 541.85ZM188.4 541.8C189.5 541.8 190.35 541.617 190.95 541.25C191.583 540.883 192.017 540.283 192.25 539.45C192.517 538.583 192.65 537.467 192.65 536.1V524.8C192.65 523.367 192.517 522.217 192.25 521.35C191.983 520.483 191.55 519.867 190.95 519.5C190.383 519.1 189.583 518.9 188.55 518.9C188.283 518.9 188.017 518.917 187.75 518.95C187.483 518.95 187.233 518.967 187 519V541.7C187.2 541.733 187.417 541.767 187.65 541.8C187.917 541.8 188.167 541.8 188.4 541.8Z" fill="#F3E1B8"/>
<path d="M204.746 551V510.5H210.796V536.05L221.896 510.5H226.846V551H220.746V525.05L209.596 551H204.746Z" fill="#F3E1B8"/>
<path d="M233.164 551V510.5H240.514V527.45H248.764V510.5H256.164V551H248.764V532.7H240.514V551H233.164Z" fill="#F3E1B8"/>
<path d="M260.311 551L268.411 510.5H276.311L284.411 551H277.561L275.961 541.65H268.911L267.261 551H260.311ZM269.661 536.95H275.161L272.411 519.95L269.661 536.95Z" fill="#F3E1B8"/>
<path d="M285.684 551V545.7C286.617 545.733 287.4 545.683 288.034 545.55C288.7 545.383 289.25 545.033 289.684 544.5C290.15 543.967 290.534 543.15 290.834 542.05C291.134 540.917 291.384 539.4 291.584 537.5C291.784 535.6 292 533.183 292.234 530.25L293.534 510.5H313.234V551H305.884V516.05H300.084L299.184 531.15C298.984 534.117 298.75 536.733 298.484 539C298.25 541.267 297.867 543.2 297.334 544.8C296.834 546.367 296.117 547.633 295.184 548.6C294.25 549.567 293.017 550.25 291.484 550.65C289.95 551.017 288.017 551.133 285.684 551Z" fill="#F3E1B8"/>
<path d="M114.523 580.926L114.836 587.957H113.273C112.453 585.639 111.516 584.025 110.461 583.113C109.419 582.189 108.156 581.727 106.672 581.727C105.409 581.727 104.367 582.124 103.547 582.918C102.727 583.712 102.316 584.63 102.316 585.672C102.316 586.961 102.746 587.846 103.605 588.328C104.465 588.81 105.943 589.272 108.039 589.715C111.255 590.405 113.41 591.447 114.504 592.84C115.611 594.22 116.164 595.978 116.164 598.113C116.164 600.626 115.435 602.794 113.977 604.617C112.531 606.44 110.5 607.352 107.883 607.352C106.021 607.352 104.341 606.766 102.844 605.594C102.115 606.167 101.457 606.727 100.871 607.273H99.5625V599.637H101.086C102.232 603.934 104.458 606.082 107.766 606.082C109.51 606.082 110.852 605.568 111.789 604.539C112.727 603.51 113.195 602.358 113.195 601.082C113.195 600.366 112.987 599.721 112.57 599.148C112.167 598.576 111.691 598.12 111.145 597.781C110.598 597.443 109.087 597.02 106.613 596.512C104.139 596.004 102.323 595.053 101.164 593.66C100.018 592.267 99.4453 590.529 99.4453 588.445C99.4453 586.206 100.148 584.311 101.555 582.762C102.974 581.212 104.738 580.438 106.848 580.438C108.449 580.438 110.044 580.997 111.633 582.117C112.141 581.818 112.688 581.421 113.273 580.926H114.523Z" fill="#F3E1B8"/>
<path d="M125.617 586.395V591.277H129.562V592.488H125.617V603.152C125.617 604.572 126.053 605.281 126.926 605.281C127.72 605.281 128.319 604.572 128.723 603.152H129.934C129.699 604.637 129.178 605.698 128.371 606.336C127.564 606.961 126.268 607.273 124.484 607.273C123.208 607.273 122.264 607.072 121.652 606.668C121.053 606.264 120.682 605.789 120.539 605.242C120.396 604.695 120.324 603.999 120.324 603.152V592.488H118.137V591.277H120.324V587.312L125.617 586.395Z" fill="#F3E1B8"/>
<path d="M149.348 591.277V605.848H151.574V607H148.293C146.652 607 145.585 607.039 145.09 607.117C144.608 607.208 144.25 607.26 144.016 607.273V604.07H143.938C143.417 605.06 142.629 605.841 141.574 606.414C140.533 606.987 139.4 607.273 138.176 607.273C137.004 607.273 136.001 607.039 135.168 606.57C134.348 606.102 133.827 605.587 133.605 605.027C133.397 604.454 133.293 603.549 133.293 602.312V592.488H131.066V591.277H138.625V601.688C138.625 603.276 138.69 604.324 138.82 604.832C138.951 605.34 139.322 605.594 139.934 605.594C140.572 605.594 141.288 605.314 142.082 604.754C142.876 604.194 143.397 603.556 143.645 602.84C143.892 602.124 144.016 601.121 144.016 599.832V592.488H141.418V591.277H149.348Z" fill="#F3E1B8"/>
<path d="M168.898 580.438V605.848H171.027V607H168.586C167.792 607 167.049 607.02 166.359 607.059L164.133 607.234H163.586V604.871H163.508C162.674 606.616 161.379 607.488 159.621 607.488C157.915 607.488 156.418 606.668 155.129 605.027C153.853 603.374 153.215 601.336 153.215 598.914C153.215 596.583 153.866 594.65 155.168 593.113C156.47 591.577 157.98 590.809 159.699 590.809C161.158 590.809 162.453 591.473 163.586 592.801V582H160.422V580.809H163.215C163.853 580.809 164.921 580.75 166.418 580.633C167.915 580.503 168.742 580.438 168.898 580.438ZM163.586 600.926V596.727C163.586 595.099 163.28 593.895 162.668 593.113C162.069 592.319 161.451 591.922 160.812 591.922C160.318 591.922 159.934 592.202 159.66 592.762C159.387 593.322 159.25 594.454 159.25 596.16V602.039C159.25 603.667 159.348 604.76 159.543 605.32C159.751 605.88 160.122 606.16 160.656 606.16C161.216 606.16 161.841 605.796 162.531 605.066C163.234 604.337 163.586 602.957 163.586 600.926Z" fill="#F3E1B8"/>
<path d="M188.391 598.23H178.781V600.77C178.781 602.762 178.957 604.142 179.309 604.91C179.673 605.665 180.5 606.043 181.789 606.043C182.922 606.043 183.977 605.678 184.953 604.949C185.943 604.22 186.698 603.087 187.219 601.551H188.391C187.909 603.53 187.017 605.014 185.715 606.004C184.413 606.993 182.85 607.488 181.027 607.488C178.54 607.488 176.548 606.635 175.051 604.93C173.566 603.224 172.824 601.258 172.824 599.031C172.824 596.896 173.579 594.995 175.09 593.328C176.6 591.648 178.488 590.809 180.754 590.809C182.707 590.809 184.406 591.421 185.852 592.645C187.297 593.868 188.143 595.73 188.391 598.23ZM178.781 596.961H182.98V595.32C182.98 593.901 182.785 592.983 182.395 592.566C182.017 592.137 181.496 591.922 180.832 591.922C180.207 591.922 179.706 592.111 179.328 592.488C178.964 592.866 178.781 593.823 178.781 595.359V596.961Z" fill="#F3E1B8"/>
<path d="M197.102 590.809V594.129H197.18C198.56 591.915 200.493 590.809 202.98 590.809C204.087 590.809 205.057 591.043 205.891 591.512C206.724 591.98 207.251 592.462 207.473 592.957C207.707 593.439 207.824 594.174 207.824 595.164V605.809H210.051V607H200.227V605.809H202.492V594.871C202.492 593.882 202.355 593.237 202.082 592.938C201.822 592.638 201.451 592.488 200.969 592.488C200.318 592.488 199.51 592.898 198.547 593.719C197.583 594.539 197.102 595.978 197.102 598.035V605.809H199.387V607H189.504V605.809H191.77V592.488H189.543V591.277H190.969C192.258 591.277 193.534 591.199 194.797 591.043L196.535 590.809H197.102Z" fill="#F3E1B8"/>
<path d="M218.586 586.395V591.277H222.531V592.488H218.586V603.152C218.586 604.572 219.022 605.281 219.895 605.281C220.689 605.281 221.288 604.572 221.691 603.152H222.902C222.668 604.637 222.147 605.698 221.34 606.336C220.533 606.961 219.237 607.273 217.453 607.273C216.177 607.273 215.233 607.072 214.621 606.668C214.022 606.264 213.651 605.789 213.508 605.242C213.365 604.695 213.293 603.999 213.293 603.152V592.488H211.105V591.277H213.293V587.312L218.586 586.395Z" fill="#F3E1B8"/>
<path d="M99.2299 650V646.46L105.05 637.52C105.49 636.86 105.9 636.22 106.28 635.6C106.68 634.98 107 634.35 107.24 633.71C107.5 633.07 107.63 632.4 107.63 631.7C107.63 631 107.49 630.48 107.21 630.14C106.93 629.8 106.55 629.63 106.07 629.63C105.53 629.63 105.11 629.78 104.81 630.08C104.51 630.38 104.3 630.78 104.18 631.28C104.08 631.78 104.03 632.34 104.03 632.96V634.16H99.1699V632.87C99.1699 631.43 99.3999 630.15 99.8599 629.03C100.32 627.89 101.05 627 102.05 626.36C103.05 625.7 104.36 625.37 105.98 625.37C108.16 625.37 109.8 625.94 110.9 627.08C112.02 628.2 112.58 629.77 112.58 631.79C112.58 632.77 112.42 633.68 112.1 634.52C111.8 635.36 111.39 636.18 110.87 636.98C110.37 637.76 109.83 638.58 109.25 639.44L104.81 646.07H111.92V650H99.2299Z" fill="#F3E1B8"/>
<path d="M114.64 650V646.46L120.46 637.52C120.9 636.86 121.31 636.22 121.69 635.6C122.09 634.98 122.41 634.35 122.65 633.71C122.91 633.07 123.04 632.4 123.04 631.7C123.04 631 122.9 630.48 122.62 630.14C122.34 629.8 121.96 629.63 121.48 629.63C120.94 629.63 120.52 629.78 120.22 630.08C119.92 630.38 119.71 630.78 119.59 631.28C119.49 631.78 119.44 632.34 119.44 632.96V634.16H114.58V632.87C114.58 631.43 114.81 630.15 115.27 629.03C115.73 627.89 116.46 627 117.46 626.36C118.46 625.7 119.77 625.37 121.39 625.37C123.57 625.37 125.21 625.94 126.31 627.08C127.43 628.2 127.99 629.77 127.99 631.79C127.99 632.77 127.83 633.68 127.51 634.52C127.21 635.36 126.8 636.18 126.28 636.98C125.78 637.76 125.24 638.58 124.66 639.44L120.22 646.07H127.33V650H114.64Z" fill="#F3E1B8"/>
<path d="M141.596 650.3C140.716 650.3 139.976 650.09 139.376 649.67C138.776 649.25 138.326 648.72 138.026 648.08C137.726 647.42 137.576 646.75 137.576 646.07C137.576 644.99 137.786 644.08 138.206 643.34C138.646 642.6 139.216 641.98 139.916 641.48C140.616 640.98 141.386 640.56 142.226 640.22C143.066 639.86 143.896 639.54 144.716 639.26V637.52C144.716 637.22 144.686 636.96 144.626 636.74C144.566 636.5 144.466 636.32 144.326 636.2C144.186 636.06 143.976 635.99 143.696 635.99C143.416 635.99 143.196 636.05 143.036 636.17C142.896 636.29 142.796 636.46 142.736 636.68C142.676 636.88 142.636 637.11 142.616 637.37L142.496 638.63L137.936 638.45C138.036 636.37 138.586 634.84 139.586 633.86C140.606 632.86 142.126 632.36 144.146 632.36C145.906 632.36 147.216 632.85 148.076 633.83C148.956 634.79 149.396 636.04 149.396 637.58V645.68C149.396 646.4 149.406 647.03 149.426 647.57C149.466 648.11 149.506 648.58 149.546 648.98C149.606 649.38 149.656 649.72 149.696 650H145.316C145.256 649.54 145.186 649.04 145.106 648.5C145.026 647.96 144.966 647.64 144.926 647.54C144.726 648.26 144.346 648.9 143.786 649.46C143.246 650.02 142.516 650.3 141.596 650.3ZM143.336 647C143.536 647 143.716 646.96 143.876 646.88C144.056 646.8 144.216 646.69 144.356 646.55C144.496 646.41 144.616 646.27 144.716 646.13V641.39C144.316 641.63 143.946 641.88 143.606 642.14C143.266 642.38 142.976 642.65 142.736 642.95C142.496 643.25 142.306 643.58 142.166 643.94C142.046 644.28 141.986 644.67 141.986 645.11C141.986 645.69 142.106 646.15 142.346 646.49C142.586 646.83 142.916 647 143.336 647Z" fill="#F3E1B8"/>
<path d="M152.294 650V632.66H164.594V650H159.704V635.99H157.184V650H152.294Z" fill="#F3E1B8"/>
<path d="M167.616 655.7V632.66H172.506V633.92C173.086 633.4 173.706 633.01 174.366 632.75C175.026 632.49 175.656 632.36 176.256 632.36C176.916 632.36 177.476 632.49 177.936 632.75C178.416 633.01 178.806 633.38 179.106 633.86C179.406 634.32 179.626 634.86 179.766 635.48C179.906 636.1 179.976 636.76 179.976 637.46V644.93C179.976 646.01 179.826 646.95 179.526 647.75C179.246 648.55 178.826 649.18 178.266 649.64C177.706 650.08 177.016 650.3 176.196 650.3C175.576 650.3 174.946 650.16 174.306 649.88C173.686 649.58 173.086 649.18 172.506 648.68V655.7H167.616ZM173.796 647.15C174.116 647.15 174.366 647.06 174.546 646.88C174.726 646.7 174.856 646.47 174.936 646.19C175.036 645.89 175.086 645.56 175.086 645.2V637.1C175.086 636.76 175.046 636.46 174.966 636.2C174.886 635.92 174.756 635.7 174.576 635.54C174.396 635.38 174.166 635.3 173.886 635.3C173.626 635.3 173.376 635.36 173.136 635.48C172.916 635.58 172.706 635.72 172.506 635.9V646.7C172.726 646.84 172.936 646.95 173.136 647.03C173.356 647.11 173.576 647.15 173.796 647.15Z" fill="#F3E1B8"/>
<path d="M188.432 650.3C187.172 650.3 186.092 650.08 185.192 649.64C184.292 649.18 183.602 648.52 183.122 647.66C182.642 646.78 182.402 645.73 182.402 644.51V638.15C182.402 636.91 182.642 635.86 183.122 635C183.602 634.14 184.292 633.49 185.192 633.05C186.112 632.59 187.192 632.36 188.432 632.36C189.712 632.36 190.772 632.58 191.612 633.02C192.472 633.46 193.112 634.11 193.532 634.97C193.972 635.83 194.192 636.89 194.192 638.15V641.63H187.232V644.96C187.232 645.4 187.282 645.76 187.382 646.04C187.482 646.32 187.622 646.52 187.802 646.64C187.982 646.76 188.192 646.82 188.432 646.82C188.672 646.82 188.882 646.77 189.062 646.67C189.262 646.55 189.412 646.37 189.512 646.13C189.632 645.89 189.692 645.56 189.692 645.14V643.31H194.192V644.99C194.192 646.75 193.682 648.08 192.662 648.98C191.642 649.86 190.232 650.3 188.432 650.3ZM187.232 639.35H189.692V637.61C189.692 637.15 189.632 636.79 189.512 636.53C189.412 636.27 189.262 636.09 189.062 635.99C188.882 635.89 188.662 635.84 188.402 635.84C188.162 635.84 187.952 635.9 187.772 636.02C187.612 636.14 187.482 636.35 187.382 636.65C187.282 636.93 187.232 637.34 187.232 637.88V639.35Z" fill="#F3E1B8"/>
<path d="M195.714 650.18V646.73C196.354 646.73 196.874 646.63 197.274 646.43C197.694 646.23 198.024 645.89 198.264 645.41C198.524 644.91 198.724 644.24 198.864 643.4C199.004 642.54 199.124 641.45 199.224 640.13L199.794 632.66H210.804V650H205.914V635.96H203.934L203.514 641.09C203.374 642.89 203.174 644.38 202.914 645.56C202.654 646.74 202.274 647.67 201.774 648.35C201.274 649.01 200.604 649.48 199.764 649.76C198.924 650.04 197.854 650.18 196.554 650.18H195.714Z" fill="#F3E1B8"/>
<path d="M212.856 650L215.556 642.8C215.096 642.54 214.706 642.18 214.386 641.72C214.066 641.26 213.826 640.72 213.666 640.1C213.506 639.48 213.426 638.81 213.426 638.09C213.426 637.29 213.536 636.56 213.756 635.9C213.996 635.24 214.366 634.67 214.866 634.19C215.386 633.71 216.056 633.34 216.876 633.08C217.696 632.8 218.686 632.66 219.846 632.66H226.296V650H221.436V643.82C221.356 643.82 221.136 643.82 220.776 643.82C220.416 643.8 220.146 643.78 219.966 643.76L218.016 650H212.856ZM221.226 640.94C221.266 640.94 221.306 640.94 221.346 640.94C221.386 640.94 221.416 640.94 221.436 640.94V635.42C221.416 635.42 221.386 635.42 221.346 635.42C221.306 635.42 221.266 635.42 221.226 635.42C220.486 635.42 219.866 635.52 219.366 635.72C218.866 635.92 218.486 636.22 218.226 636.62C217.986 637 217.866 637.48 217.866 638.06C217.866 639.04 218.156 639.76 218.736 640.22C219.336 640.68 220.166 640.92 221.226 640.94Z" fill="#F3E1B8"/>
<path d="M280.922 582.078V599.07C280.922 601.74 280.733 603.745 280.355 605.086C279.991 606.427 279.092 607.723 277.66 608.973C276.241 610.223 274.464 610.848 272.328 610.848C270.557 610.848 269.184 610.438 268.207 609.617C267.243 608.81 266.762 607.898 266.762 606.883C266.762 606.154 267.016 605.49 267.523 604.891C268.031 604.292 268.708 603.992 269.555 603.992C270.297 603.992 270.928 604.24 271.449 604.734C271.97 605.229 272.23 605.867 272.23 606.648C272.23 607.339 271.872 608.12 271.156 608.992C271.156 609.37 271.586 609.559 272.445 609.559C273.826 609.559 274.516 608.68 274.516 606.922V582.078H271V580.809H284.242V582.078H280.922Z" fill="#F3E1B8"/>
<path d="M302.934 591.277V605.848H305.16V607H301.879C300.238 607 299.171 607.039 298.676 607.117C298.194 607.208 297.836 607.26 297.602 607.273V604.07H297.523C297.003 605.06 296.215 605.841 295.16 606.414C294.118 606.987 292.986 607.273 291.762 607.273C290.59 607.273 289.587 607.039 288.754 606.57C287.934 606.102 287.413 605.587 287.191 605.027C286.983 604.454 286.879 603.549 286.879 602.312V592.488H284.652V591.277H292.211V601.688C292.211 603.276 292.276 604.324 292.406 604.832C292.536 605.34 292.908 605.594 293.52 605.594C294.158 605.594 294.874 605.314 295.668 604.754C296.462 604.194 296.983 603.556 297.23 602.84C297.478 602.124 297.602 601.121 297.602 599.832V592.488H295.004V591.277H302.934Z" fill="#F3E1B8"/>
<path d="M314.008 590.809V594.129H314.086C315.466 591.915 317.4 590.809 319.887 590.809C320.993 590.809 321.964 591.043 322.797 591.512C323.63 591.98 324.158 592.462 324.379 592.957C324.613 593.439 324.73 594.174 324.73 595.164V605.809H326.957V607H317.133V605.809H319.398V594.871C319.398 593.882 319.262 593.237 318.988 592.938C318.728 592.638 318.357 592.488 317.875 592.488C317.224 592.488 316.417 592.898 315.453 593.719C314.49 594.539 314.008 595.978 314.008 598.035V605.809H316.293V607H306.41V605.809H308.676V592.488H306.449V591.277H307.875C309.164 591.277 310.44 591.199 311.703 591.043L313.441 590.809H314.008Z" fill="#F3E1B8"/>
<path d="M330.004 584.129C330.004 583.335 330.277 582.664 330.824 582.117C331.384 581.557 332.055 581.277 332.836 581.277C333.63 581.277 334.307 581.557 334.867 582.117C335.44 582.677 335.727 583.348 335.727 584.129C335.727 584.91 335.44 585.587 334.867 586.16C334.307 586.72 333.63 587 332.836 587C332.055 587 331.384 586.72 330.824 586.16C330.277 585.587 330.004 584.91 330.004 584.129ZM335.688 590.809V605.809H337.211V607H328.48V605.809H330.355V592.488H328.48V591.277H330.961C332.25 591.277 333.331 591.199 334.203 591.043C335.076 590.887 335.57 590.809 335.688 590.809Z" fill="#F3E1B8"/>
<path d="M348.109 607.488C345.492 607.488 343.402 606.655 341.84 604.988C340.277 603.322 339.496 601.382 339.496 599.168C339.496 596.928 340.29 594.975 341.879 593.309C343.467 591.642 345.544 590.809 348.109 590.809C350.701 590.809 352.79 591.635 354.379 593.289C355.98 594.93 356.781 596.889 356.781 599.168C356.781 601.434 355.987 603.387 354.398 605.027C352.823 606.668 350.727 607.488 348.109 607.488ZM348.109 591.805C347.419 591.805 346.866 591.974 346.449 592.312C346.033 592.638 345.779 593.146 345.688 593.836C345.596 594.513 345.551 596.29 345.551 599.168C345.551 601.967 345.59 603.686 345.668 604.324C345.759 604.962 346.02 605.483 346.449 605.887C346.892 606.277 347.484 606.473 348.227 606.473C348.826 606.473 349.346 606.303 349.789 605.965C350.245 605.613 350.518 604.988 350.609 604.09C350.701 603.178 350.746 601.642 350.746 599.48C350.746 596.108 350.616 593.986 350.355 593.113C350.095 592.241 349.346 591.805 348.109 591.805Z" fill="#F3E1B8"/>
<path d="M365.551 591.043V595.359H365.629C365.941 593.823 366.456 592.684 367.172 591.941C367.888 591.186 368.682 590.809 369.555 590.809C370.401 590.809 371.091 591.115 371.625 591.727C372.159 592.326 372.426 593.068 372.426 593.953C372.426 594.708 372.224 595.32 371.82 595.789C371.417 596.245 370.928 596.473 370.355 596.473C369.783 596.473 369.288 596.258 368.871 595.828C368.467 595.398 368.266 594.923 368.266 594.402C368.266 593.751 368.376 593.296 368.598 593.035C368.832 592.775 368.949 592.605 368.949 592.527C368.949 592.384 368.845 592.312 368.637 592.312C367.986 592.312 367.361 592.951 366.762 594.227C366.176 595.503 365.883 597.573 365.883 600.438V605.809H368.793V607H358.52V605.809H360.551V592.488H358.52V591.277H361.117C362.497 591.277 363.513 591.238 364.164 591.16L364.867 591.043H365.551Z" fill="#F3E1B8"/>
<path d="M264.23 652V648.46L270.05 639.52C270.49 638.86 270.9 638.22 271.28 637.6C271.68 636.98 272 636.35 272.24 635.71C272.5 635.07 272.63 634.4 272.63 633.7C272.63 633 272.49 632.48 272.21 632.14C271.93 631.8 271.55 631.63 271.07 631.63C270.53 631.63 270.11 631.78 269.81 632.08C269.51 632.38 269.3 632.78 269.18 633.28C269.08 633.78 269.03 634.34 269.03 634.96V636.16H264.17V634.87C264.17 633.43 264.4 632.15 264.86 631.03C265.32 629.89 266.05 629 267.05 628.36C268.05 627.7 269.36 627.37 270.98 627.37C273.16 627.37 274.8 627.94 275.9 629.08C277.02 630.2 277.58 631.77 277.58 633.79C277.58 634.77 277.42 635.68 277.1 636.52C276.8 637.36 276.39 638.18 275.87 638.98C275.37 639.76 274.83 640.58 274.25 641.44L269.81 648.07H276.92V652H264.23Z" fill="#F3E1B8"/>
<path d="M286.24 652.36C284.68 652.36 283.45 652.12 282.55 651.64C281.65 651.16 281.01 650.46 280.63 649.54C280.25 648.6 280.06 647.45 280.06 646.09C280.06 646.03 280.06 645.97 280.06 645.91C280.06 645.83 280.06 645.76 280.06 645.7H284.74C284.74 646.68 284.82 647.41 284.98 647.89C285.16 648.35 285.59 648.58 286.27 648.58C286.73 648.58 287.07 648.44 287.29 648.16C287.51 647.88 287.65 647.39 287.71 646.69C287.79 645.97 287.83 644.99 287.83 643.75V641.59C287.57 642.01 287.17 642.33 286.63 642.55C286.11 642.77 285.52 642.9 284.86 642.94C283.58 642.96 282.55 642.64 281.77 641.98C280.99 641.32 280.43 640.43 280.09 639.31C279.75 638.19 279.58 636.97 279.58 635.65C279.58 633.95 279.79 632.49 280.21 631.27C280.65 630.03 281.36 629.07 282.34 628.39C283.32 627.71 284.62 627.37 286.24 627.37C287.84 627.37 289.13 627.69 290.11 628.33C291.09 628.97 291.8 629.87 292.24 631.03C292.7 632.17 292.93 633.52 292.93 635.08V644.14C292.93 645.72 292.74 647.13 292.36 648.37C292 649.61 291.34 650.59 290.38 651.31C289.42 652.01 288.04 652.36 286.24 652.36ZM286.3 639.1C286.7 639.1 287.02 638.99 287.26 638.77C287.5 638.55 287.69 638.34 287.83 638.14V634.18C287.83 633.62 287.79 633.11 287.71 632.65C287.63 632.17 287.48 631.79 287.26 631.51C287.04 631.21 286.7 631.06 286.24 631.06C285.8 631.06 285.47 631.22 285.25 631.54C285.03 631.84 284.88 632.3 284.8 632.92C284.74 633.52 284.71 634.27 284.71 635.17C284.71 635.95 284.73 636.64 284.77 637.24C284.83 637.82 284.97 638.28 285.19 638.62C285.41 638.94 285.78 639.1 286.3 639.1Z" fill="#F3E1B8"/>
<path d="M307.328 652.3C306.448 652.3 305.708 652.09 305.108 651.67C304.508 651.25 304.058 650.72 303.758 650.08C303.458 649.42 303.308 648.75 303.308 648.07C303.308 646.99 303.518 646.08 303.938 645.34C304.378 644.6 304.948 643.98 305.648 643.48C306.348 642.98 307.118 642.56 307.958 642.22C308.798 641.86 309.628 641.54 310.448 641.26V639.52C310.448 639.22 310.418 638.96 310.358 638.74C310.298 638.5 310.198 638.32 310.058 638.2C309.918 638.06 309.708 637.99 309.428 637.99C309.148 637.99 308.928 638.05 308.768 638.17C308.628 638.29 308.528 638.46 308.468 638.68C308.408 638.88 308.368 639.11 308.348 639.37L308.228 640.63L303.668 640.45C303.768 638.37 304.318 636.84 305.318 635.86C306.338 634.86 307.858 634.36 309.878 634.36C311.638 634.36 312.948 634.85 313.808 635.83C314.688 636.79 315.128 638.04 315.128 639.58V647.68C315.128 648.4 315.138 649.03 315.158 649.57C315.198 650.11 315.238 650.58 315.278 650.98C315.338 651.38 315.388 651.72 315.428 652H311.048C310.988 651.54 310.918 651.04 310.838 650.5C310.758 649.96 310.698 649.64 310.658 649.54C310.458 650.26 310.078 650.9 309.518 651.46C308.978 652.02 308.248 652.3 307.328 652.3ZM309.068 649C309.268 649 309.448 648.96 309.608 648.88C309.788 648.8 309.948 648.69 310.088 648.55C310.228 648.41 310.348 648.27 310.448 648.13V643.39C310.048 643.63 309.678 643.88 309.338 644.14C308.998 644.38 308.708 644.65 308.468 644.95C308.228 645.25 308.038 645.58 307.898 645.94C307.778 646.28 307.718 646.67 307.718 647.11C307.718 647.69 307.838 648.15 308.078 648.49C308.318 648.83 308.648 649 309.068 649Z" fill="#F3E1B8"/>
<path d="M318.026 652V634.66H330.326V652H325.436V637.99H322.916V652H318.026Z" fill="#F3E1B8"/>
<path d="M333.348 657.7V634.66H338.238V635.92C338.818 635.4 339.438 635.01 340.098 634.75C340.758 634.49 341.388 634.36 341.988 634.36C342.648 634.36 343.208 634.49 343.668 634.75C344.148 635.01 344.538 635.38 344.838 635.86C345.138 636.32 345.358 636.86 345.498 637.48C345.638 638.1 345.708 638.76 345.708 639.46V646.93C345.708 648.01 345.558 648.95 345.258 649.75C344.978 650.55 344.558 651.18 343.998 651.64C343.438 652.08 342.748 652.3 341.928 652.3C341.308 652.3 340.678 652.16 340.038 651.88C339.418 651.58 338.818 651.18 338.238 650.68V657.7H333.348ZM339.528 649.15C339.848 649.15 340.098 649.06 340.278 648.88C340.458 648.7 340.588 648.47 340.668 648.19C340.768 647.89 340.818 647.56 340.818 647.2V639.1C340.818 638.76 340.778 638.46 340.698 638.2C340.618 637.92 340.488 637.7 340.308 637.54C340.128 637.38 339.898 637.3 339.618 637.3C339.358 637.3 339.108 637.36 338.868 637.48C338.648 637.58 338.438 637.72 338.238 637.9V648.7C338.458 648.84 338.668 648.95 338.868 649.03C339.088 649.11 339.308 649.15 339.528 649.15Z" fill="#F3E1B8"/>
<path d="M354.165 652.3C352.905 652.3 351.825 652.08 350.925 651.64C350.025 651.18 349.335 650.52 348.855 649.66C348.375 648.78 348.135 647.73 348.135 646.51V640.15C348.135 638.91 348.375 637.86 348.855 637C349.335 636.14 350.025 635.49 350.925 635.05C351.845 634.59 352.925 634.36 354.165 634.36C355.445 634.36 356.505 634.58 357.345 635.02C358.205 635.46 358.845 636.11 359.265 636.97C359.705 637.83 359.925 638.89 359.925 640.15V643.63H352.965V646.96C352.965 647.4 353.015 647.76 353.115 648.04C353.215 648.32 353.355 648.52 353.535 648.64C353.715 648.76 353.925 648.82 354.165 648.82C354.405 648.82 354.615 648.77 354.795 648.67C354.995 648.55 355.145 648.37 355.245 648.13C355.365 647.89 355.425 647.56 355.425 647.14V645.31H359.925V646.99C359.925 648.75 359.415 650.08 358.395 650.98C357.375 651.86 355.965 652.3 354.165 652.3ZM352.965 641.35H355.425V639.61C355.425 639.15 355.365 638.79 355.245 638.53C355.145 638.27 354.995 638.09 354.795 637.99C354.615 637.89 354.395 637.84 354.135 637.84C353.895 637.84 353.685 637.9 353.505 638.02C353.345 638.14 353.215 638.35 353.115 638.65C353.015 638.93 352.965 639.34 352.965 639.88V641.35Z" fill="#F3E1B8"/>
<path d="M361.447 652.18V648.73C362.087 648.73 362.607 648.63 363.007 648.43C363.427 648.23 363.757 647.89 363.997 647.41C364.257 646.91 364.457 646.24 364.597 645.4C364.737 644.54 364.857 643.45 364.957 642.13L365.527 634.66H376.537V652H371.647V637.96H369.667L369.247 643.09C369.107 644.89 368.907 646.38 368.647 647.56C368.387 648.74 368.007 649.67 367.507 650.35C367.007 651.01 366.337 651.48 365.497 651.76C364.657 652.04 363.587 652.18 362.287 652.18H361.447Z" fill="#F3E1B8"/>
<path d="M378.588 652L381.288 644.8C380.828 644.54 380.438 644.18 380.118 643.72C379.798 643.26 379.558 642.72 379.398 642.1C379.238 641.48 379.158 640.81 379.158 640.09C379.158 639.29 379.268 638.56 379.488 637.9C379.728 637.24 380.098 636.67 380.598 636.19C381.118 635.71 381.788 635.34 382.608 635.08C383.428 634.8 384.418 634.66 385.578 634.66H392.028V652H387.168V645.82C387.088 645.82 386.868 645.82 386.508 645.82C386.148 645.8 385.878 645.78 385.698 645.76L383.748 652H378.588ZM386.958 642.94C386.998 642.94 387.038 642.94 387.078 642.94C387.118 642.94 387.148 642.94 387.168 642.94V637.42C387.148 637.42 387.118 637.42 387.078 637.42C387.038 637.42 386.998 637.42 386.958 637.42C386.218 637.42 385.598 637.52 385.098 637.72C384.598 637.92 384.218 638.22 383.958 638.62C383.718 639 383.598 639.48 383.598 640.06C383.598 641.04 383.888 641.76 384.468 642.22C385.068 642.68 385.898 642.92 386.958 642.94Z" fill="#F3E1B8"/>
<path fill-rule="evenodd" clip-rule="evenodd" d="M246.21 87.8317C258.165 110.449 266.847 131.871 272.392 149.869L267.614 151.341C262.167 133.662 253.609 112.528 241.79 90.1683L246.21 87.8317Z" fill="#345E5A" fill-opacity="0.5"/>
<path fill-rule="evenodd" clip-rule="evenodd" d="M265.667 260.595C261.034 279.524 255.305 297.856 248.773 315.445L244.086 313.704C250.555 296.283 256.226 278.136 260.811 259.406L265.667 260.595Z" fill="#345E5A" fill-opacity="0.5"/>
</svg>
