<svg width="493" height="276" viewBox="0 0 493 276" fill="none" xmlns="http://www.w3.org/2000/svg">
<g filter="url(#filter0_d_20_13)">
<mask id="path-1-inside-1_20_13" fill="white">
<path fill-rule="evenodd" clip-rule="evenodd" d="M275.24 41.2105L246.011 0L216.783 41.2105L177.128 9.90396L160.693 57.6798L113.825 38.8135L111.516 89.2842L61.2306 84.3866L73.2347 133.463L23.6063 142.931L52 186.638L4 209.704L23.6063 244.5L10.3649 268H485.422L480.011 244.5L488.023 209.704L440 186.638L468.416 142.931L418.788 133.463L430.792 84.3866L380.507 89.2842L378.198 38.8135L331.329 57.6798L314.895 9.90396L275.24 41.2105Z"/>
</mask>
<path fill-rule="evenodd" clip-rule="evenodd" d="M275.24 41.2105L246.011 0L216.783 41.2105L177.128 9.90396L160.693 57.6798L113.825 38.8135L111.516 89.2842L61.2306 84.3866L73.2347 133.463L23.6063 142.931L52 186.638L4 209.704L23.6063 244.5L10.3649 268H485.422L480.011 244.5L488.023 209.704L440 186.638L468.416 142.931L418.788 133.463L430.792 84.3866L380.507 89.2842L378.198 38.8135L331.329 57.6798L314.895 9.90396L275.24 41.2105Z" fill="#345E5A"/>
<path d="M246.011 0L258.246 -8.67774L246.011 -25.9284L233.776 -8.67774L246.011 0ZM275.24 41.2105L263.005 49.8882L272.14 62.7686L284.535 52.9837L275.24 41.2105ZM216.783 41.2105L207.488 52.9837L219.882 62.7686L229.018 49.8882L216.783 41.2105ZM177.128 9.90396L186.422 -1.86929L169.823 -14.9742L162.943 5.02474L177.128 9.90396ZM160.693 57.6798L155.092 71.5947L169.741 77.4914L174.878 62.559L160.693 57.6798ZM113.825 38.8135L119.426 24.8985L99.8067 17.0012L98.8403 38.1281L113.825 38.8135ZM111.516 89.2842L110.062 104.214L125.779 105.744L126.5 89.9696L111.516 89.2842ZM61.2306 84.3866L62.6846 69.4572L41.6352 67.4071L46.6601 87.9505L61.2306 84.3866ZM73.2347 133.463L76.0456 148.197L91.5571 145.238L87.8052 129.899L73.2347 133.463ZM23.6063 142.931L20.7954 128.197L-1.13508 132.381L11.0276 151.103L23.6063 142.931ZM52 186.638L58.497 200.158L73.871 192.77L64.5787 178.466L52 186.638ZM4 209.704L-2.49698 196.184L-16.9279 203.119L-9.06824 217.068L4 209.704ZM23.6063 244.5L36.6746 251.863L40.8236 244.5L36.6745 237.137L23.6063 244.5ZM10.3649 268L-2.70335 260.637L-15.3044 283H10.3649V268ZM485.422 268V283H504.268L500.039 264.634L485.422 268ZM480.011 244.5L465.394 241.134L464.619 244.5L465.394 247.866L480.011 244.5ZM488.023 209.704L502.64 213.07L505.332 201.378L494.517 196.183L488.023 209.704ZM440 186.638L427.424 178.462L418.122 192.77L433.506 200.159L440 186.638ZM468.416 142.931L480.992 151.107L493.166 132.382L471.227 128.197L468.416 142.931ZM418.788 133.463L404.218 129.899L400.466 145.238L415.977 148.197L418.788 133.463ZM430.792 84.3866L445.363 87.9505L450.388 67.4071L429.338 69.4572L430.792 84.3866ZM380.507 89.2842L365.522 89.9696L366.244 105.744L381.961 104.214L380.507 89.2842ZM378.198 38.8135L393.182 38.1281L392.216 17.0012L372.597 24.8986L378.198 38.8135ZM331.329 57.6798L317.145 62.559L322.282 77.4914L336.931 71.5947L331.329 57.6798ZM314.895 9.90396L329.079 5.02474L322.2 -14.9741L305.6 -1.86929L314.895 9.90396ZM233.776 8.67774L263.005 49.8882L287.475 32.5327L258.246 -8.67774L233.776 8.67774ZM229.018 49.8882L258.246 8.67774L233.776 -8.67774L204.548 32.5327L229.018 49.8882ZM167.833 21.6772L207.488 52.9837L226.077 29.4372L186.422 -1.86929L167.833 21.6772ZM174.878 62.559L191.312 14.7832L162.943 5.02474L146.509 52.8006L174.878 62.559ZM108.223 52.7285L155.092 71.5947L166.295 43.7648L119.426 24.8985L108.223 52.7285ZM126.5 89.9696L128.809 39.4989L98.8403 38.1281L96.5317 88.5988L126.5 89.9696ZM59.7765 99.3159L110.062 104.214L112.97 74.3548L62.6846 69.4572L59.7765 99.3159ZM87.8052 129.899L75.801 80.8226L46.6601 87.9505L58.6642 137.027L87.8052 129.899ZM26.4172 157.665L76.0456 148.197L70.4238 118.729L20.7954 128.197L26.4172 157.665ZM64.5787 178.466L36.185 134.759L11.0276 151.103L39.4213 194.809L64.5787 178.466ZM10.497 223.224L58.497 200.158L45.503 173.118L-2.49698 196.184L10.497 223.224ZM36.6745 237.137L17.0682 202.341L-9.06824 217.068L10.5381 251.863L36.6745 237.137ZM23.4331 275.363L36.6746 251.863L10.5381 237.137L-2.70335 260.637L23.4331 275.363ZM10.3649 283H485.422V253H10.3649V283ZM465.394 247.866L470.804 271.366L500.039 264.634L494.629 241.134L465.394 247.866ZM473.405 206.338L465.394 241.134L494.629 247.866L502.64 213.07L473.405 206.338ZM433.506 200.159L481.528 223.225L494.517 196.183L446.494 173.117L433.506 200.159ZM455.841 134.755L427.424 178.462L452.576 194.814L480.992 151.107L455.841 134.755ZM415.977 148.197L465.605 157.665L471.227 128.197L421.599 118.729L415.977 148.197ZM416.222 80.8226L404.218 129.899L433.358 137.027L445.363 87.9505L416.222 80.8226ZM381.961 104.214L432.246 99.3159L429.338 69.4572L379.053 74.3548L381.961 104.214ZM363.214 39.4989L365.522 89.9696L395.491 88.5987L393.182 38.1281L363.214 39.4989ZM336.931 71.5947L383.799 52.7285L372.597 24.8986L325.728 43.7648L336.931 71.5947ZM300.711 14.7832L317.145 62.559L345.514 52.8006L329.079 5.02474L300.711 14.7832ZM284.535 52.9837L324.19 21.6772L305.6 -1.86929L265.945 29.4372L284.535 52.9837Z" fill="#DD430F" mask="url(#path-1-inside-1_20_13)"/>
<path d="M118.523 164.926L118.836 171.957H117.273C116.453 169.639 115.516 168.025 114.461 167.113C113.419 166.189 112.156 165.727 110.672 165.727C109.409 165.727 108.367 166.124 107.547 166.918C106.727 167.712 106.316 168.63 106.316 169.672C106.316 170.961 106.746 171.846 107.605 172.328C108.465 172.81 109.943 173.272 112.039 173.715C115.255 174.405 117.41 175.447 118.504 176.84C119.611 178.22 120.164 179.978 120.164 182.113C120.164 184.626 119.435 186.794 117.977 188.617C116.531 190.44 114.5 191.352 111.883 191.352C110.021 191.352 108.341 190.766 106.844 189.594C106.115 190.167 105.457 190.727 104.871 191.273H103.562V183.637H105.086C106.232 187.934 108.458 190.082 111.766 190.082C113.51 190.082 114.852 189.568 115.789 188.539C116.727 187.51 117.195 186.358 117.195 185.082C117.195 184.366 116.987 183.721 116.57 183.148C116.167 182.576 115.691 182.12 115.145 181.781C114.598 181.443 113.087 181.02 110.613 180.512C108.139 180.004 106.323 179.053 105.164 177.66C104.018 176.267 103.445 174.529 103.445 172.445C103.445 170.206 104.148 168.311 105.555 166.762C106.974 165.212 108.738 164.438 110.848 164.438C112.449 164.438 114.044 164.997 115.633 166.117C116.141 165.818 116.688 165.421 117.273 164.926H118.523ZM129.617 170.395V175.277H133.562V176.488H129.617V187.152C129.617 188.572 130.053 189.281 130.926 189.281C131.72 189.281 132.319 188.572 132.723 187.152H133.934C133.699 188.637 133.178 189.698 132.371 190.336C131.564 190.961 130.268 191.273 128.484 191.273C127.208 191.273 126.264 191.072 125.652 190.668C125.053 190.264 124.682 189.789 124.539 189.242C124.396 188.695 124.324 187.999 124.324 187.152V176.488H122.137V175.277H124.324V171.312L129.617 170.395ZM153.348 175.277V189.848H155.574V191H152.293C150.652 191 149.585 191.039 149.09 191.117C148.608 191.208 148.25 191.26 148.016 191.273V188.07H147.938C147.417 189.06 146.629 189.841 145.574 190.414C144.533 190.987 143.4 191.273 142.176 191.273C141.004 191.273 140.001 191.039 139.168 190.57C138.348 190.102 137.827 189.587 137.605 189.027C137.397 188.454 137.293 187.549 137.293 186.312V176.488H135.066V175.277H142.625V185.688C142.625 187.276 142.69 188.324 142.82 188.832C142.951 189.34 143.322 189.594 143.934 189.594C144.572 189.594 145.288 189.314 146.082 188.754C146.876 188.194 147.397 187.556 147.645 186.84C147.892 186.124 148.016 185.121 148.016 183.832V176.488H145.418V175.277H153.348ZM172.898 164.438V189.848H175.027V191H172.586C171.792 191 171.049 191.02 170.359 191.059L168.133 191.234H167.586V188.871H167.508C166.674 190.616 165.379 191.488 163.621 191.488C161.915 191.488 160.418 190.668 159.129 189.027C157.853 187.374 157.215 185.336 157.215 182.914C157.215 180.583 157.866 178.65 159.168 177.113C160.47 175.577 161.98 174.809 163.699 174.809C165.158 174.809 166.453 175.473 167.586 176.801V166H164.422V164.809H167.215C167.853 164.809 168.921 164.75 170.418 164.633C171.915 164.503 172.742 164.438 172.898 164.438ZM167.586 184.926V180.727C167.586 179.099 167.28 177.895 166.668 177.113C166.069 176.319 165.451 175.922 164.812 175.922C164.318 175.922 163.934 176.202 163.66 176.762C163.387 177.322 163.25 178.454 163.25 180.16V186.039C163.25 187.667 163.348 188.76 163.543 189.32C163.751 189.88 164.122 190.16 164.656 190.16C165.216 190.16 165.841 189.796 166.531 189.066C167.234 188.337 167.586 186.957 167.586 184.926ZM192.391 182.23H182.781V184.77C182.781 186.762 182.957 188.142 183.309 188.91C183.673 189.665 184.5 190.043 185.789 190.043C186.922 190.043 187.977 189.678 188.953 188.949C189.943 188.22 190.698 187.087 191.219 185.551H192.391C191.909 187.53 191.017 189.014 189.715 190.004C188.413 190.993 186.85 191.488 185.027 191.488C182.54 191.488 180.548 190.635 179.051 188.93C177.566 187.224 176.824 185.258 176.824 183.031C176.824 180.896 177.579 178.995 179.09 177.328C180.6 175.648 182.488 174.809 184.754 174.809C186.707 174.809 188.406 175.421 189.852 176.645C191.297 177.868 192.143 179.73 192.391 182.23ZM182.781 180.961H186.98V179.32C186.98 177.901 186.785 176.983 186.395 176.566C186.017 176.137 185.496 175.922 184.832 175.922C184.207 175.922 183.706 176.111 183.328 176.488C182.964 176.866 182.781 177.823 182.781 179.359V180.961ZM201.102 174.809V178.129H201.18C202.56 175.915 204.493 174.809 206.98 174.809C208.087 174.809 209.057 175.043 209.891 175.512C210.724 175.98 211.251 176.462 211.473 176.957C211.707 177.439 211.824 178.174 211.824 179.164V189.809H214.051V191H204.227V189.809H206.492V178.871C206.492 177.882 206.355 177.237 206.082 176.938C205.822 176.638 205.451 176.488 204.969 176.488C204.318 176.488 203.51 176.898 202.547 177.719C201.583 178.539 201.102 179.978 201.102 182.035V189.809H203.387V191H193.504V189.809H195.77V176.488H193.543V175.277H194.969C196.258 175.277 197.534 175.199 198.797 175.043L200.535 174.809H201.102ZM222.586 170.395V175.277H226.531V176.488H222.586V187.152C222.586 188.572 223.022 189.281 223.895 189.281C224.689 189.281 225.288 188.572 225.691 187.152H226.902C226.668 188.637 226.147 189.698 225.34 190.336C224.533 190.961 223.237 191.273 221.453 191.273C220.177 191.273 219.233 191.072 218.621 190.668C218.022 190.264 217.651 189.789 217.508 189.242C217.365 188.695 217.293 187.999 217.293 187.152V176.488H215.105V175.277H217.293V171.312L222.586 170.395Z" fill="#F3E1B8"/>
<path d="M103.23 234V230.46L109.05 221.52C109.49 220.86 109.9 220.22 110.28 219.6C110.68 218.98 111 218.35 111.24 217.71C111.5 217.07 111.63 216.4 111.63 215.7C111.63 215 111.49 214.48 111.21 214.14C110.93 213.8 110.55 213.63 110.07 213.63C109.53 213.63 109.11 213.78 108.81 214.08C108.51 214.38 108.3 214.78 108.18 215.28C108.08 215.78 108.03 216.34 108.03 216.96V218.16H103.17V216.87C103.17 215.43 103.4 214.15 103.86 213.03C104.32 211.89 105.05 211 106.05 210.36C107.05 209.7 108.36 209.37 109.98 209.37C112.16 209.37 113.8 209.94 114.9 211.08C116.02 212.2 116.58 213.77 116.58 215.79C116.58 216.77 116.42 217.68 116.1 218.52C115.8 219.36 115.39 220.18 114.87 220.98C114.37 221.76 113.83 222.58 113.25 223.44L108.81 230.07H115.92V234H103.23ZM118.64 234V230.46L124.46 221.52C124.9 220.86 125.31 220.22 125.69 219.6C126.09 218.98 126.41 218.35 126.65 217.71C126.91 217.07 127.04 216.4 127.04 215.7C127.04 215 126.9 214.48 126.62 214.14C126.34 213.8 125.96 213.63 125.48 213.63C124.94 213.63 124.52 213.78 124.22 214.08C123.92 214.38 123.71 214.78 123.59 215.28C123.49 215.78 123.44 216.34 123.44 216.96V218.16H118.58V216.87C118.58 215.43 118.81 214.15 119.27 213.03C119.73 211.89 120.46 211 121.46 210.36C122.46 209.7 123.77 209.37 125.39 209.37C127.57 209.37 129.21 209.94 130.31 211.08C131.43 212.2 131.99 213.77 131.99 215.79C131.99 216.77 131.83 217.68 131.51 218.52C131.21 219.36 130.8 220.18 130.28 220.98C129.78 221.76 129.24 222.58 128.66 223.44L124.22 230.07H131.33V234H118.64ZM145.596 234.3C144.716 234.3 143.976 234.09 143.376 233.67C142.776 233.25 142.326 232.72 142.026 232.08C141.726 231.42 141.576 230.75 141.576 230.07C141.576 228.99 141.786 228.08 142.206 227.34C142.646 226.6 143.216 225.98 143.916 225.48C144.616 224.98 145.386 224.56 146.226 224.22C147.066 223.86 147.896 223.54 148.716 223.26V221.52C148.716 221.22 148.686 220.96 148.626 220.74C148.566 220.5 148.466 220.32 148.326 220.2C148.186 220.06 147.976 219.99 147.696 219.99C147.416 219.99 147.196 220.05 147.036 220.17C146.896 220.29 146.796 220.46 146.736 220.68C146.676 220.88 146.636 221.11 146.616 221.37L146.496 222.63L141.936 222.45C142.036 220.37 142.586 218.84 143.586 217.86C144.606 216.86 146.126 216.36 148.146 216.36C149.906 216.36 151.216 216.85 152.076 217.83C152.956 218.79 153.396 220.04 153.396 221.58V229.68C153.396 230.4 153.406 231.03 153.426 231.57C153.466 232.11 153.506 232.58 153.546 232.98C153.606 233.38 153.656 233.72 153.696 234H149.316C149.256 233.54 149.186 233.04 149.106 232.5C149.026 231.96 148.966 231.64 148.926 231.54C148.726 232.26 148.346 232.9 147.786 233.46C147.246 234.02 146.516 234.3 145.596 234.3ZM147.336 231C147.536 231 147.716 230.96 147.876 230.88C148.056 230.8 148.216 230.69 148.356 230.55C148.496 230.41 148.616 230.27 148.716 230.13V225.39C148.316 225.63 147.946 225.88 147.606 226.14C147.266 226.38 146.976 226.65 146.736 226.95C146.496 227.25 146.306 227.58 146.166 227.94C146.046 228.28 145.986 228.67 145.986 229.11C145.986 229.69 146.106 230.15 146.346 230.49C146.586 230.83 146.916 231 147.336 231ZM156.294 234V216.66H168.594V234H163.704V219.99H161.184V234H156.294ZM171.616 239.7V216.66H176.506V217.92C177.086 217.4 177.706 217.01 178.366 216.75C179.026 216.49 179.656 216.36 180.256 216.36C180.916 216.36 181.476 216.49 181.936 216.75C182.416 217.01 182.806 217.38 183.106 217.86C183.406 218.32 183.626 218.86 183.766 219.48C183.906 220.1 183.976 220.76 183.976 221.46V228.93C183.976 230.01 183.826 230.95 183.526 231.75C183.246 232.55 182.826 233.18 182.266 233.64C181.706 234.08 181.016 234.3 180.196 234.3C179.576 234.3 178.946 234.16 178.306 233.88C177.686 233.58 177.086 233.18 176.506 232.68V239.7H171.616ZM177.796 231.15C178.116 231.15 178.366 231.06 178.546 230.88C178.726 230.7 178.856 230.47 178.936 230.19C179.036 229.89 179.086 229.56 179.086 229.2V221.1C179.086 220.76 179.046 220.46 178.966 220.2C178.886 219.92 178.756 219.7 178.576 219.54C178.396 219.38 178.166 219.3 177.886 219.3C177.626 219.3 177.376 219.36 177.136 219.48C176.916 219.58 176.706 219.72 176.506 219.9V230.7C176.726 230.84 176.936 230.95 177.136 231.03C177.356 231.11 177.576 231.15 177.796 231.15ZM192.432 234.3C191.172 234.3 190.092 234.08 189.192 233.64C188.292 233.18 187.602 232.52 187.122 231.66C186.642 230.78 186.402 229.73 186.402 228.51V222.15C186.402 220.91 186.642 219.86 187.122 219C187.602 218.14 188.292 217.49 189.192 217.05C190.112 216.59 191.192 216.36 192.432 216.36C193.712 216.36 194.772 216.58 195.612 217.02C196.472 217.46 197.112 218.11 197.532 218.97C197.972 219.83 198.192 220.89 198.192 222.15V225.63H191.232V228.96C191.232 229.4 191.282 229.76 191.382 230.04C191.482 230.32 191.622 230.52 191.802 230.64C191.982 230.76 192.192 230.82 192.432 230.82C192.672 230.82 192.882 230.77 193.062 230.67C193.262 230.55 193.412 230.37 193.512 230.13C193.632 229.89 193.692 229.56 193.692 229.14V227.31H198.192V228.99C198.192 230.75 197.682 232.08 196.662 232.98C195.642 233.86 194.232 234.3 192.432 234.3ZM191.232 223.35H193.692V221.61C193.692 221.15 193.632 220.79 193.512 220.53C193.412 220.27 193.262 220.09 193.062 219.99C192.882 219.89 192.662 219.84 192.402 219.84C192.162 219.84 191.952 219.9 191.772 220.02C191.612 220.14 191.482 220.35 191.382 220.65C191.282 220.93 191.232 221.34 191.232 221.88V223.35ZM199.714 234.18V230.73C200.354 230.73 200.874 230.63 201.274 230.43C201.694 230.23 202.024 229.89 202.264 229.41C202.524 228.91 202.724 228.24 202.864 227.4C203.004 226.54 203.124 225.45 203.224 224.13L203.794 216.66H214.804V234H209.914V219.96H207.934L207.514 225.09C207.374 226.89 207.174 228.38 206.914 229.56C206.654 230.74 206.274 231.67 205.774 232.35C205.274 233.01 204.604 233.48 203.764 233.76C202.924 234.04 201.854 234.18 200.554 234.18H199.714ZM216.856 234L219.556 226.8C219.096 226.54 218.706 226.18 218.386 225.72C218.066 225.26 217.826 224.72 217.666 224.1C217.506 223.48 217.426 222.81 217.426 222.09C217.426 221.29 217.536 220.56 217.756 219.9C217.996 219.24 218.366 218.67 218.866 218.19C219.386 217.71 220.056 217.34 220.876 217.08C221.696 216.8 222.686 216.66 223.846 216.66H230.296V234H225.436V227.82C225.356 227.82 225.136 227.82 224.776 227.82C224.416 227.8 224.146 227.78 223.966 227.76L222.016 234H216.856ZM225.226 224.94C225.266 224.94 225.306 224.94 225.346 224.94C225.386 224.94 225.416 224.94 225.436 224.94V219.42C225.416 219.42 225.386 219.42 225.346 219.42C225.306 219.42 225.266 219.42 225.226 219.42C224.486 219.42 223.866 219.52 223.366 219.72C222.866 219.92 222.486 220.22 222.226 220.62C221.986 221 221.866 221.48 221.866 222.06C221.866 223.04 222.156 223.76 222.736 224.22C223.336 224.68 224.166 224.92 225.226 224.94Z" fill="#F3E1B8"/>
<path d="M284.922 166.078V183.07C284.922 185.74 284.733 187.745 284.355 189.086C283.991 190.427 283.092 191.723 281.66 192.973C280.241 194.223 278.464 194.848 276.328 194.848C274.557 194.848 273.184 194.438 272.207 193.617C271.243 192.81 270.762 191.898 270.762 190.883C270.762 190.154 271.016 189.49 271.523 188.891C272.031 188.292 272.708 187.992 273.555 187.992C274.297 187.992 274.928 188.24 275.449 188.734C275.97 189.229 276.23 189.867 276.23 190.648C276.23 191.339 275.872 192.12 275.156 192.992C275.156 193.37 275.586 193.559 276.445 193.559C277.826 193.559 278.516 192.68 278.516 190.922V166.078H275V164.809H288.242V166.078H284.922ZM306.934 175.277V189.848H309.16V191H305.879C304.238 191 303.171 191.039 302.676 191.117C302.194 191.208 301.836 191.26 301.602 191.273V188.07H301.523C301.003 189.06 300.215 189.841 299.16 190.414C298.118 190.987 296.986 191.273 295.762 191.273C294.59 191.273 293.587 191.039 292.754 190.57C291.934 190.102 291.413 189.587 291.191 189.027C290.983 188.454 290.879 187.549 290.879 186.312V176.488H288.652V175.277H296.211V185.688C296.211 187.276 296.276 188.324 296.406 188.832C296.536 189.34 296.908 189.594 297.52 189.594C298.158 189.594 298.874 189.314 299.668 188.754C300.462 188.194 300.983 187.556 301.23 186.84C301.478 186.124 301.602 185.121 301.602 183.832V176.488H299.004V175.277H306.934ZM318.008 174.809V178.129H318.086C319.466 175.915 321.4 174.809 323.887 174.809C324.993 174.809 325.964 175.043 326.797 175.512C327.63 175.98 328.158 176.462 328.379 176.957C328.613 177.439 328.73 178.174 328.73 179.164V189.809H330.957V191H321.133V189.809H323.398V178.871C323.398 177.882 323.262 177.237 322.988 176.938C322.728 176.638 322.357 176.488 321.875 176.488C321.224 176.488 320.417 176.898 319.453 177.719C318.49 178.539 318.008 179.978 318.008 182.035V189.809H320.293V191H310.41V189.809H312.676V176.488H310.449V175.277H311.875C313.164 175.277 314.44 175.199 315.703 175.043L317.441 174.809H318.008ZM334.004 168.129C334.004 167.335 334.277 166.664 334.824 166.117C335.384 165.557 336.055 165.277 336.836 165.277C337.63 165.277 338.307 165.557 338.867 166.117C339.44 166.677 339.727 167.348 339.727 168.129C339.727 168.91 339.44 169.587 338.867 170.16C338.307 170.72 337.63 171 336.836 171C336.055 171 335.384 170.72 334.824 170.16C334.277 169.587 334.004 168.91 334.004 168.129ZM339.688 174.809V189.809H341.211V191H332.48V189.809H334.355V176.488H332.48V175.277H334.961C336.25 175.277 337.331 175.199 338.203 175.043C339.076 174.887 339.57 174.809 339.688 174.809ZM352.109 191.488C349.492 191.488 347.402 190.655 345.84 188.988C344.277 187.322 343.496 185.382 343.496 183.168C343.496 180.928 344.29 178.975 345.879 177.309C347.467 175.642 349.544 174.809 352.109 174.809C354.701 174.809 356.79 175.635 358.379 177.289C359.98 178.93 360.781 180.889 360.781 183.168C360.781 185.434 359.987 187.387 358.398 189.027C356.823 190.668 354.727 191.488 352.109 191.488ZM352.109 175.805C351.419 175.805 350.866 175.974 350.449 176.312C350.033 176.638 349.779 177.146 349.688 177.836C349.596 178.513 349.551 180.29 349.551 183.168C349.551 185.967 349.59 187.686 349.668 188.324C349.759 188.962 350.02 189.483 350.449 189.887C350.892 190.277 351.484 190.473 352.227 190.473C352.826 190.473 353.346 190.303 353.789 189.965C354.245 189.613 354.518 188.988 354.609 188.09C354.701 187.178 354.746 185.642 354.746 183.48C354.746 180.108 354.616 177.986 354.355 177.113C354.095 176.241 353.346 175.805 352.109 175.805ZM369.551 175.043V179.359H369.629C369.941 177.823 370.456 176.684 371.172 175.941C371.888 175.186 372.682 174.809 373.555 174.809C374.401 174.809 375.091 175.115 375.625 175.727C376.159 176.326 376.426 177.068 376.426 177.953C376.426 178.708 376.224 179.32 375.82 179.789C375.417 180.245 374.928 180.473 374.355 180.473C373.783 180.473 373.288 180.258 372.871 179.828C372.467 179.398 372.266 178.923 372.266 178.402C372.266 177.751 372.376 177.296 372.598 177.035C372.832 176.775 372.949 176.605 372.949 176.527C372.949 176.384 372.845 176.312 372.637 176.312C371.986 176.312 371.361 176.951 370.762 178.227C370.176 179.503 369.883 181.573 369.883 184.438V189.809H372.793V191H362.52V189.809H364.551V176.488H362.52V175.277H365.117C366.497 175.277 367.513 175.238 368.164 175.16L368.867 175.043H369.551Z" fill="#F3E1B8"/>
<path d="M268.23 236V232.46L274.05 223.52C274.49 222.86 274.9 222.22 275.28 221.6C275.68 220.98 276 220.35 276.24 219.71C276.5 219.07 276.63 218.4 276.63 217.7C276.63 217 276.49 216.48 276.21 216.14C275.93 215.8 275.55 215.63 275.07 215.63C274.53 215.63 274.11 215.78 273.81 216.08C273.51 216.38 273.3 216.78 273.18 217.28C273.08 217.78 273.03 218.34 273.03 218.96V220.16H268.17V218.87C268.17 217.43 268.4 216.15 268.86 215.03C269.32 213.89 270.05 213 271.05 212.36C272.05 211.7 273.36 211.37 274.98 211.37C277.16 211.37 278.8 211.94 279.9 213.08C281.02 214.2 281.58 215.77 281.58 217.79C281.58 218.77 281.42 219.68 281.1 220.52C280.8 221.36 280.39 222.18 279.87 222.98C279.37 223.76 278.83 224.58 278.25 225.44L273.81 232.07H280.92V236H268.23ZM290.24 236.36C288.68 236.36 287.45 236.12 286.55 235.64C285.65 235.16 285.01 234.46 284.63 233.54C284.25 232.6 284.06 231.45 284.06 230.09C284.06 230.03 284.06 229.97 284.06 229.91C284.06 229.83 284.06 229.76 284.06 229.7H288.74C288.74 230.68 288.82 231.41 288.98 231.89C289.16 232.35 289.59 232.58 290.27 232.58C290.73 232.58 291.07 232.44 291.29 232.16C291.51 231.88 291.65 231.39 291.71 230.69C291.79 229.97 291.83 228.99 291.83 227.75V225.59C291.57 226.01 291.17 226.33 290.63 226.55C290.11 226.77 289.52 226.9 288.86 226.94C287.58 226.96 286.55 226.64 285.77 225.98C284.99 225.32 284.43 224.43 284.09 223.31C283.75 222.19 283.58 220.97 283.58 219.65C283.58 217.95 283.79 216.49 284.21 215.27C284.65 214.03 285.36 213.07 286.34 212.39C287.32 211.71 288.62 211.37 290.24 211.37C291.84 211.37 293.13 211.69 294.11 212.33C295.09 212.97 295.8 213.87 296.24 215.03C296.7 216.17 296.93 217.52 296.93 219.08V228.14C296.93 229.72 296.74 231.13 296.36 232.37C296 233.61 295.34 234.59 294.38 235.31C293.42 236.01 292.04 236.36 290.24 236.36ZM290.3 223.1C290.7 223.1 291.02 222.99 291.26 222.77C291.5 222.55 291.69 222.34 291.83 222.14V218.18C291.83 217.62 291.79 217.11 291.71 216.65C291.63 216.17 291.48 215.79 291.26 215.51C291.04 215.21 290.7 215.06 290.24 215.06C289.8 215.06 289.47 215.22 289.25 215.54C289.03 215.84 288.88 216.3 288.8 216.92C288.74 217.52 288.71 218.27 288.71 219.17C288.71 219.95 288.73 220.64 288.77 221.24C288.83 221.82 288.97 222.28 289.19 222.62C289.41 222.94 289.78 223.1 290.3 223.1ZM311.329 236.3C310.449 236.3 309.709 236.09 309.109 235.67C308.509 235.25 308.059 234.72 307.759 234.08C307.459 233.42 307.309 232.75 307.309 232.07C307.309 230.99 307.519 230.08 307.939 229.34C308.379 228.6 308.949 227.98 309.649 227.48C310.349 226.98 311.119 226.56 311.959 226.22C312.799 225.86 313.629 225.54 314.449 225.26V223.52C314.449 223.22 314.419 222.96 314.359 222.74C314.299 222.5 314.199 222.32 314.059 222.2C313.919 222.06 313.709 221.99 313.429 221.99C313.149 221.99 312.929 222.05 312.769 222.17C312.629 222.29 312.529 222.46 312.469 222.68C312.409 222.88 312.369 223.11 312.349 223.37L312.229 224.63L307.669 224.45C307.769 222.37 308.319 220.84 309.319 219.86C310.339 218.86 311.859 218.36 313.879 218.36C315.639 218.36 316.949 218.85 317.809 219.83C318.689 220.79 319.129 222.04 319.129 223.58V231.68C319.129 232.4 319.139 233.03 319.159 233.57C319.199 234.11 319.239 234.58 319.279 234.98C319.339 235.38 319.389 235.72 319.429 236H315.049C314.989 235.54 314.919 235.04 314.839 234.5C314.759 233.96 314.699 233.64 314.659 233.54C314.459 234.26 314.079 234.9 313.519 235.46C312.979 236.02 312.249 236.3 311.329 236.3ZM313.069 233C313.269 233 313.449 232.96 313.609 232.88C313.789 232.8 313.949 232.69 314.089 232.55C314.229 232.41 314.349 232.27 314.449 232.13V227.39C314.049 227.63 313.679 227.88 313.339 228.14C312.999 228.38 312.709 228.65 312.469 228.95C312.229 229.25 312.039 229.58 311.899 229.94C311.779 230.28 311.719 230.67 311.719 231.11C311.719 231.69 311.839 232.15 312.079 232.49C312.319 232.83 312.649 233 313.069 233ZM322.026 236V218.66H334.326V236H329.436V221.99H326.916V236H322.026ZM337.348 241.7V218.66H342.238V219.92C342.818 219.4 343.438 219.01 344.098 218.75C344.758 218.49 345.388 218.36 345.988 218.36C346.648 218.36 347.208 218.49 347.668 218.75C348.148 219.01 348.538 219.38 348.838 219.86C349.138 220.32 349.358 220.86 349.498 221.48C349.638 222.1 349.708 222.76 349.708 223.46V230.93C349.708 232.01 349.558 232.95 349.258 233.75C348.978 234.55 348.558 235.18 347.998 235.64C347.438 236.08 346.748 236.3 345.928 236.3C345.308 236.3 344.678 236.16 344.038 235.88C343.418 235.58 342.818 235.18 342.238 234.68V241.7H337.348ZM343.528 233.15C343.848 233.15 344.098 233.06 344.278 232.88C344.458 232.7 344.588 232.47 344.668 232.19C344.768 231.89 344.818 231.56 344.818 231.2V223.1C344.818 222.76 344.778 222.46 344.698 222.2C344.618 221.92 344.488 221.7 344.308 221.54C344.128 221.38 343.898 221.3 343.618 221.3C343.358 221.3 343.108 221.36 342.868 221.48C342.648 221.58 342.438 221.72 342.238 221.9V232.7C342.458 232.84 342.668 232.95 342.868 233.03C343.088 233.11 343.308 233.15 343.528 233.15ZM358.165 236.3C356.905 236.3 355.825 236.08 354.925 235.64C354.025 235.18 353.335 234.52 352.855 233.66C352.375 232.78 352.135 231.73 352.135 230.51V224.15C352.135 222.91 352.375 221.86 352.855 221C353.335 220.14 354.025 219.49 354.925 219.05C355.845 218.59 356.925 218.36 358.165 218.36C359.445 218.36 360.505 218.58 361.345 219.02C362.205 219.46 362.845 220.11 363.265 220.97C363.705 221.83 363.925 222.89 363.925 224.15V227.63H356.965V230.96C356.965 231.4 357.015 231.76 357.115 232.04C357.215 232.32 357.355 232.52 357.535 232.64C357.715 232.76 357.925 232.82 358.165 232.82C358.405 232.82 358.615 232.77 358.795 232.67C358.995 232.55 359.145 232.37 359.245 232.13C359.365 231.89 359.425 231.56 359.425 231.14V229.31H363.925V230.99C363.925 232.75 363.415 234.08 362.395 234.98C361.375 235.86 359.965 236.3 358.165 236.3ZM356.965 225.35H359.425V223.61C359.425 223.15 359.365 222.79 359.245 222.53C359.145 222.27 358.995 222.09 358.795 221.99C358.615 221.89 358.395 221.84 358.135 221.84C357.895 221.84 357.685 221.9 357.505 222.02C357.345 222.14 357.215 222.35 357.115 222.65C357.015 222.93 356.965 223.34 356.965 223.88V225.35ZM365.447 236.18V232.73C366.087 232.73 366.607 232.63 367.007 232.43C367.427 232.23 367.757 231.89 367.997 231.41C368.257 230.91 368.457 230.24 368.597 229.4C368.737 228.54 368.857 227.45 368.957 226.13L369.527 218.66H380.537V236H375.647V221.96H373.667L373.247 227.09C373.107 228.89 372.907 230.38 372.647 231.56C372.387 232.74 372.007 233.67 371.507 234.35C371.007 235.01 370.337 235.48 369.497 235.76C368.657 236.04 367.587 236.18 366.287 236.18H365.447ZM382.588 236L385.288 228.8C384.828 228.54 384.438 228.18 384.118 227.72C383.798 227.26 383.558 226.72 383.398 226.1C383.238 225.48 383.158 224.81 383.158 224.09C383.158 223.29 383.268 222.56 383.488 221.9C383.728 221.24 384.098 220.67 384.598 220.19C385.118 219.71 385.788 219.34 386.608 219.08C387.428 218.8 388.418 218.66 389.578 218.66H396.028V236H391.168V229.82C391.088 229.82 390.868 229.82 390.508 229.82C390.148 229.8 389.878 229.78 389.698 229.76L387.748 236H382.588ZM390.958 226.94C390.998 226.94 391.038 226.94 391.078 226.94C391.118 226.94 391.148 226.94 391.168 226.94V221.42C391.148 221.42 391.118 221.42 391.078 221.42C391.038 221.42 390.998 221.42 390.958 221.42C390.218 221.42 389.598 221.52 389.098 221.72C388.598 221.92 388.218 222.22 387.958 222.62C387.718 223 387.598 223.48 387.598 224.06C387.598 225.04 387.888 225.76 388.468 226.22C389.068 226.68 389.898 226.92 390.958 226.94Z" fill="#F3E1B8"/>
<path d="M184.55 136.6V130.2C184.183 130.233 183.783 130.267 183.35 130.3C182.917 130.333 182.5 130.35 182.1 130.35C180.167 130.35 178.467 130 177 129.3C175.533 128.6 174.383 127.5 173.55 126C172.75 124.467 172.35 122.483 172.35 120.05V108.85C172.35 106.55 172.75 104.633 173.55 103.1C174.383 101.567 175.533 100.417 177 99.65C178.5 98.8833 180.25 98.5 182.25 98.5C182.65 98.5 183.067 98.5167 183.5 98.55C183.933 98.55 184.283 98.5667 184.55 98.6V91.5H191V98.6C191.3 98.5667 191.65 98.55 192.05 98.55C192.483 98.5167 192.883 98.5 193.25 98.5C195.317 98.5 197.083 98.8833 198.55 99.65C200.05 100.417 201.2 101.583 202 103.15C202.833 104.683 203.25 106.583 203.25 108.85V120.05C203.25 122.483 202.85 124.467 202.05 126C201.25 127.5 200.167 128.617 198.8 129.35C197.467 130.05 195.967 130.4 194.3 130.4C193.767 130.4 193.217 130.383 192.65 130.35C192.117 130.317 191.567 130.283 191 130.25V136.6H184.55ZM183.35 125.85C183.55 125.85 183.767 125.85 184 125.85C184.233 125.817 184.417 125.783 184.55 125.75V103C184.317 102.967 184.067 102.95 183.8 102.95C183.567 102.917 183.333 102.9 183.1 102.9C182.133 102.9 181.333 103.1 180.7 103.5C180.1 103.9 179.65 104.533 179.35 105.4C179.05 106.267 178.9 107.4 178.9 108.8V120.1C178.9 121.467 179.017 122.567 179.25 123.4C179.517 124.233 179.967 124.85 180.6 125.25C181.233 125.65 182.15 125.85 183.35 125.85ZM192.4 125.8C193.5 125.8 194.35 125.617 194.95 125.25C195.583 124.883 196.017 124.283 196.25 123.45C196.517 122.583 196.65 121.467 196.65 120.1V108.8C196.65 107.367 196.517 106.217 196.25 105.35C195.983 104.483 195.55 103.867 194.95 103.5C194.383 103.1 193.583 102.9 192.55 102.9C192.283 102.9 192.017 102.917 191.75 102.95C191.483 102.95 191.233 102.967 191 103V125.7C191.2 125.733 191.417 125.767 191.65 125.8C191.917 125.8 192.167 125.8 192.4 125.8ZM208.746 135V94.5H214.796V120.05L225.896 94.5H230.846V135H224.746V109.05L213.596 135H208.746ZM237.164 135V94.5H244.514V111.45H252.764V94.5H260.164V135H252.764V116.7H244.514V135H237.164ZM264.311 135L272.411 94.5H280.311L288.411 135H281.561L279.961 125.65H272.911L271.261 135H264.311ZM273.661 120.95H279.161L276.411 103.95L273.661 120.95ZM289.684 135V129.7C290.617 129.733 291.4 129.683 292.034 129.55C292.7 129.383 293.25 129.033 293.684 128.5C294.15 127.967 294.534 127.15 294.834 126.05C295.134 124.917 295.384 123.4 295.584 121.5C295.784 119.6 296 117.183 296.234 114.25L297.534 94.5H317.234V135H309.884V100.05H304.084L303.184 115.15C302.984 118.117 302.75 120.733 302.484 123C302.25 125.267 301.867 127.2 301.334 128.8C300.834 130.367 300.117 131.633 299.184 132.6C298.25 133.567 297.017 134.25 295.484 134.65C293.95 135.017 292.017 135.133 289.684 135Z" fill="#F3E1B8"/>
</g>
<defs>
<filter id="filter0_d_20_13" x="0" y="0" width="492.023" height="276" filterUnits="userSpaceOnUse" color-interpolation-filters="sRGB">
<feFlood flood-opacity="0" result="BackgroundImageFix"/>
<feColorMatrix in="SourceAlpha" type="matrix" values="0 0 0 0 0 0 0 0 0 0 0 0 0 0 0 0 0 0 127 0" result="hardAlpha"/>
<feOffset dy="4"/>
<feGaussianBlur stdDeviation="2"/>
<feComposite in2="hardAlpha" operator="out"/>
<feColorMatrix type="matrix" values="0 0 0 0 0 0 0 0 0 0 0 0 0 0 0 0 0 0 0.25 0"/>
<feBlend mode="normal" in2="BackgroundImageFix" result="effect1_dropShadow_20_13"/>
<feBlend mode="normal" in="SourceGraphic" in2="effect1_dropShadow_20_13" result="shape"/>
</filter>
</defs>
</svg>
