<svg width="790" height="790" viewBox="0 0 790 790" fill="none" xmlns="http://www.w3.org/2000/svg">
<path d="M446.867 72.4639L502.632 28.4393L525.743 95.6237L528.311 103.09L535.635 100.142L601.544 73.611L604.791 144.585L605.151 152.472L613.01 151.707L683.723 144.82L666.843 213.833L664.967 221.503L672.722 222.983L742.512 236.297L706.872 297.759L702.911 304.589L709.936 308.194L773.147 340.631L721.635 389.562L715.91 395L721.635 400.438L773.147 449.369L709.936 481.806L702.911 485.411L706.872 492.241L742.512 553.703L672.722 567.018L664.967 568.497L666.843 576.167L683.723 645.18L613.01 638.293L605.151 637.528L604.791 645.415L601.544 716.389L535.635 689.858L528.311 686.91L525.743 694.376L502.632 761.561L446.867 717.536L440.67 712.644L436.103 719.084L395 777.036L353.897 719.084L349.33 712.644L343.133 717.536L287.368 761.561L264.257 694.376L261.689 686.91L254.365 689.858L188.456 716.389L185.209 645.415L184.849 637.528L176.99 638.293L106.277 645.18L123.157 576.167L125.033 568.497L117.278 567.018L47.488 553.703L83.1283 492.241L87.089 485.411L80.0643 481.806L16.8528 449.369L68.3653 400.438L74.0899 395L68.3653 389.562L16.8528 340.631L80.0643 308.194L87.089 304.589L83.1283 297.759L47.488 236.297L117.278 222.983L125.033 221.503L123.157 213.833L106.277 144.82L176.99 151.707L184.849 152.472L185.209 144.585L188.456 73.611L254.365 100.142L261.689 103.09L264.257 95.6237L287.368 28.4393L343.133 72.4639L349.33 77.3564L353.897 70.9161L395 12.9642L436.103 70.9161L440.67 77.3564L446.867 72.4639Z" fill="#345E5A" stroke="#DD430F" stroke-width="15"/>
<path d="M258.19 280.88V269.36C257.53 269.42 256.81 269.48 256.03 269.54C255.25 269.6 254.5 269.63 253.78 269.63C250.3 269.63 247.24 269 244.6 267.74C241.96 266.48 239.89 264.5 238.39 261.8C236.95 259.04 236.23 255.47 236.23 251.09V230.93C236.23 226.79 236.95 223.34 238.39 220.58C239.89 217.82 241.96 215.75 244.6 214.37C247.3 212.99 250.45 212.3 254.05 212.3C254.77 212.3 255.52 212.33 256.3 212.39C257.08 212.39 257.71 212.42 258.19 212.48V199.7H269.8V212.48C270.34 212.42 270.97 212.39 271.69 212.39C272.47 212.33 273.19 212.3 273.85 212.3C277.57 212.3 280.75 212.99 283.39 214.37C286.09 215.75 288.16 217.85 289.6 220.67C291.1 223.43 291.85 226.85 291.85 230.93V251.09C291.85 255.47 291.13 259.04 289.69 261.8C288.25 264.5 286.3 266.51 283.84 267.83C281.44 269.09 278.74 269.72 275.74 269.72C274.78 269.72 273.79 269.69 272.77 269.63C271.81 269.57 270.82 269.51 269.8 269.45V280.88H258.19ZM256.03 261.53C256.39 261.53 256.78 261.53 257.2 261.53C257.62 261.47 257.95 261.41 258.19 261.35V220.4C257.77 220.34 257.32 220.31 256.84 220.31C256.42 220.25 256 220.22 255.58 220.22C253.84 220.22 252.4 220.58 251.26 221.3C250.18 222.02 249.37 223.16 248.83 224.72C248.29 226.28 248.02 228.32 248.02 230.84V251.18C248.02 253.64 248.23 255.62 248.65 257.12C249.13 258.62 249.94 259.73 251.08 260.45C252.22 261.17 253.87 261.53 256.03 261.53ZM272.32 261.44C274.3 261.44 275.83 261.11 276.91 260.45C278.05 259.79 278.83 258.71 279.25 257.21C279.73 255.65 279.97 253.64 279.97 251.18V230.84C279.97 228.26 279.73 226.19 279.25 224.63C278.77 223.07 277.99 221.96 276.91 221.3C275.89 220.58 274.45 220.22 272.59 220.22C272.11 220.22 271.63 220.25 271.15 220.31C270.67 220.31 270.22 220.34 269.8 220.4V261.26C270.16 261.32 270.55 261.38 270.97 261.44C271.45 261.44 271.9 261.44 272.32 261.44ZM301.742 278V205.1H312.632V251.09L332.612 205.1H341.522V278H330.542V231.29L310.472 278H301.742ZM352.895 278V205.1H366.125V235.61H380.975V205.1H394.295V278H380.975V245.06H366.125V278H352.895ZM401.759 278L416.339 205.1H430.559L445.139 278H432.809L429.929 261.17H417.239L414.269 278H401.759ZM418.589 252.71H428.489L423.539 222.11L418.589 252.71ZM447.43 278V268.46C449.11 268.52 450.52 268.43 451.66 268.19C452.86 267.89 453.85 267.26 454.63 266.3C455.47 265.34 456.16 263.87 456.7 261.89C457.24 259.85 457.69 257.12 458.05 253.7C458.41 250.28 458.8 245.93 459.22 240.65L461.56 205.1H497.02V278H483.79V215.09H473.35L471.73 242.27C471.37 247.61 470.95 252.32 470.47 256.4C470.05 260.48 469.36 263.96 468.4 266.84C467.5 269.66 466.21 271.94 464.53 273.68C462.85 275.42 460.63 276.65 457.87 277.37C455.11 278.03 451.63 278.24 447.43 278Z" fill="#F3E1B8"/>
<path d="M178.178 311.333L178.881 327.153H175.365C173.52 321.938 171.41 318.306 169.037 316.255C166.693 314.175 163.852 313.135 160.512 313.135C157.67 313.135 155.326 314.028 153.48 315.815C151.635 317.603 150.712 319.668 150.712 322.012C150.712 324.912 151.679 326.904 153.612 327.988C155.546 329.072 158.871 330.112 163.588 331.108C170.824 332.661 175.673 335.005 178.134 338.14C180.624 341.245 181.869 345.2 181.869 350.005C181.869 355.659 180.229 360.537 176.947 364.639C173.695 368.74 169.125 370.791 163.236 370.791C159.047 370.791 155.268 369.473 151.898 366.836C150.258 368.125 148.778 369.385 147.46 370.615H144.516V353.433H147.943C150.521 363.101 155.531 367.935 162.973 367.935C166.898 367.935 169.916 366.777 172.025 364.463C174.135 362.148 175.189 359.556 175.189 356.685C175.189 355.073 174.721 353.623 173.783 352.334C172.875 351.045 171.806 350.02 170.575 349.258C169.345 348.496 165.946 347.544 160.38 346.401C154.813 345.259 150.727 343.12 148.119 339.985C145.541 336.851 144.252 332.939 144.252 328.252C144.252 323.213 145.834 318.95 148.998 315.464C152.191 311.978 156.161 310.234 160.907 310.234C164.511 310.234 168.1 311.494 171.674 314.014C172.816 313.34 174.047 312.446 175.365 311.333H178.178ZM203.139 323.638V334.624H212.016V337.349H203.139V361.343C203.139 364.536 204.12 366.133 206.083 366.133C207.87 366.133 209.218 364.536 210.126 361.343H212.851C212.323 364.683 211.151 367.07 209.335 368.506C207.519 369.912 204.604 370.615 200.59 370.615C197.719 370.615 195.595 370.161 194.218 369.253C192.87 368.345 192.035 367.275 191.713 366.045C191.391 364.814 191.229 363.247 191.229 361.343V337.349H186.308V334.624H191.229V325.703L203.139 323.638ZM256.532 334.624V367.407H261.542V370H254.159C250.468 370 248.065 370.088 246.952 370.264C245.868 370.469 245.062 370.586 244.535 370.615V363.408H244.359C243.188 365.635 241.415 367.393 239.042 368.682C236.698 369.971 234.149 370.615 231.396 370.615C228.759 370.615 226.503 370.088 224.628 369.033C222.782 367.979 221.61 366.821 221.112 365.562C220.644 364.272 220.409 362.236 220.409 359.453V337.349H215.399V334.624H232.406V358.047C232.406 361.621 232.553 363.979 232.846 365.122C233.139 366.265 233.974 366.836 235.351 366.836C236.786 366.836 238.397 366.206 240.185 364.946C241.972 363.687 243.144 362.251 243.7 360.64C244.257 359.028 244.535 356.772 244.535 353.872V337.349H238.69V334.624H256.532ZM300.521 310.234V367.407H305.312V370H299.818C298.031 370 296.361 370.044 294.809 370.132L289.799 370.527H288.568V365.21H288.393C286.518 369.136 283.603 371.099 279.647 371.099C275.81 371.099 272.44 369.253 269.54 365.562C266.669 361.841 265.233 357.256 265.233 351.807C265.233 346.562 266.698 342.212 269.628 338.755C272.558 335.298 275.956 333.569 279.823 333.569C283.104 333.569 286.02 335.063 288.568 338.052V313.75H281.449V311.069H287.733C289.169 311.069 291.571 310.938 294.94 310.674C298.31 310.381 300.17 310.234 300.521 310.234ZM288.568 356.333V346.885C288.568 343.223 287.88 340.513 286.503 338.755C285.155 336.968 283.764 336.074 282.328 336.074C281.215 336.074 280.351 336.704 279.735 337.964C279.12 339.224 278.812 341.772 278.812 345.61V358.838C278.812 362.5 279.032 364.961 279.472 366.221C279.94 367.48 280.775 368.11 281.977 368.11C283.236 368.11 284.643 367.29 286.195 365.649C287.777 364.009 288.568 360.903 288.568 356.333ZM344.379 350.269H322.758V355.981C322.758 360.464 323.153 363.569 323.944 365.298C324.765 366.997 326.625 367.847 329.525 367.847C332.074 367.847 334.447 367.026 336.645 365.386C338.871 363.745 340.57 361.196 341.742 357.739H344.379C343.295 362.192 341.288 365.532 338.358 367.759C335.429 369.985 331.913 371.099 327.812 371.099C322.216 371.099 317.733 369.18 314.364 365.342C311.024 361.504 309.354 357.08 309.354 352.07C309.354 347.266 311.054 342.988 314.452 339.238C317.851 335.459 322.099 333.569 327.196 333.569C331.591 333.569 335.414 334.946 338.666 337.7C341.918 340.454 343.822 344.644 344.379 350.269ZM322.758 347.412H332.206V343.721C332.206 340.527 331.767 338.462 330.888 337.524C330.038 336.558 328.866 336.074 327.372 336.074C325.966 336.074 324.838 336.499 323.988 337.349C323.168 338.198 322.758 340.352 322.758 343.809V347.412ZM363.979 333.569V341.04H364.154C367.26 336.06 371.61 333.569 377.206 333.569C379.696 333.569 381.879 334.097 383.754 335.151C385.629 336.206 386.815 337.29 387.313 338.403C387.841 339.487 388.104 341.143 388.104 343.369V367.319H393.114V370H371.01V367.319H376.107V342.71C376.107 340.483 375.8 339.033 375.185 338.359C374.599 337.686 373.764 337.349 372.68 337.349C371.215 337.349 369.398 338.271 367.23 340.117C365.062 341.963 363.979 345.2 363.979 349.829V367.319H369.12V370H346.884V367.319H351.981V337.349H346.972V334.624H350.18C353.08 334.624 355.951 334.448 358.793 334.097L362.704 333.569H363.979ZM412.318 323.638V334.624H421.195V337.349H412.318V361.343C412.318 364.536 413.3 366.133 415.263 366.133C417.05 366.133 418.397 364.536 419.306 361.343H422.03C421.503 364.683 420.331 367.07 418.515 368.506C416.698 369.912 413.783 370.615 409.77 370.615C406.898 370.615 404.774 370.161 403.397 369.253C402.05 368.345 401.215 367.275 400.893 366.045C400.57 364.814 400.409 363.247 400.409 361.343V337.349H395.487V334.624H400.409V325.703L412.318 323.638Z" fill="#F3E1B8"/>
<path d="M396.05 430V424.1L405.75 409.2C406.483 408.1 407.167 407.033 407.8 406C408.467 404.967 409 403.917 409.4 402.85C409.833 401.783 410.05 400.667 410.05 399.5C410.05 398.333 409.817 397.467 409.35 396.9C408.883 396.333 408.25 396.05 407.45 396.05C406.55 396.05 405.85 396.3 405.35 396.8C404.85 397.3 404.5 397.967 404.3 398.8C404.133 399.633 404.05 400.567 404.05 401.6V403.6H395.95V401.45C395.95 399.05 396.333 396.917 397.1 395.05C397.867 393.15 399.083 391.667 400.75 390.6C402.417 389.5 404.6 388.95 407.3 388.95C410.933 388.95 413.667 389.9 415.5 391.8C417.367 393.667 418.3 396.283 418.3 399.65C418.3 401.283 418.033 402.8 417.5 404.2C417 405.6 416.317 406.967 415.45 408.3C414.617 409.6 413.717 410.967 412.75 412.4L405.35 423.45H417.2V430H396.05ZM421.734 430V424.1L431.434 409.2C432.167 408.1 432.85 407.033 433.484 406C434.15 404.967 434.684 403.917 435.084 402.85C435.517 401.783 435.734 400.667 435.734 399.5C435.734 398.333 435.5 397.467 435.034 396.9C434.567 396.333 433.934 396.05 433.134 396.05C432.234 396.05 431.534 396.3 431.034 396.8C430.534 397.3 430.184 397.967 429.984 398.8C429.817 399.633 429.734 400.567 429.734 401.6V403.6H421.634V401.45C421.634 399.05 422.017 396.917 422.784 395.05C423.55 393.15 424.767 391.667 426.434 390.6C428.1 389.5 430.284 388.95 432.984 388.95C436.617 388.95 439.35 389.9 441.184 391.8C443.05 393.667 443.984 396.283 443.984 399.65C443.984 401.283 443.717 402.8 443.184 404.2C442.684 405.6 442 406.967 441.134 408.3C440.3 409.6 439.4 410.967 438.434 412.4L431.034 423.45H442.884V430H421.734ZM466.66 430.5C465.193 430.5 463.96 430.15 462.96 429.45C461.96 428.75 461.21 427.867 460.71 426.8C460.21 425.7 459.96 424.583 459.96 423.45C459.96 421.65 460.31 420.133 461.01 418.9C461.743 417.667 462.693 416.633 463.86 415.8C465.027 414.967 466.31 414.267 467.71 413.7C469.11 413.1 470.493 412.567 471.86 412.1V409.2C471.86 408.7 471.81 408.267 471.71 407.9C471.61 407.5 471.443 407.2 471.21 407C470.977 406.767 470.627 406.65 470.16 406.65C469.693 406.65 469.327 406.75 469.06 406.95C468.827 407.15 468.66 407.433 468.56 407.8C468.46 408.133 468.393 408.517 468.36 408.95L468.16 411.05L460.56 410.75C460.727 407.283 461.643 404.733 463.31 403.1C465.01 401.433 467.543 400.6 470.91 400.6C473.843 400.6 476.027 401.417 477.46 403.05C478.927 404.65 479.66 406.733 479.66 409.3V422.8C479.66 424 479.677 425.05 479.71 425.95C479.777 426.85 479.843 427.633 479.91 428.3C480.01 428.967 480.093 429.533 480.16 430H472.86C472.76 429.233 472.643 428.4 472.51 427.5C472.377 426.6 472.277 426.067 472.21 425.9C471.877 427.1 471.243 428.167 470.31 429.1C469.41 430.033 468.193 430.5 466.66 430.5ZM469.56 425C469.893 425 470.193 424.933 470.46 424.8C470.76 424.667 471.027 424.483 471.26 424.25C471.493 424.017 471.693 423.783 471.86 423.55V415.65C471.193 416.05 470.577 416.467 470.01 416.9C469.443 417.3 468.96 417.75 468.56 418.25C468.16 418.75 467.843 419.3 467.61 419.9C467.41 420.467 467.31 421.117 467.31 421.85C467.31 422.817 467.51 423.583 467.91 424.15C468.31 424.717 468.86 425 469.56 425ZM484.489 430V401.1H504.989V430H496.839V406.65H492.639V430H484.489ZM510.027 439.5V401.1H518.177V403.2C519.143 402.333 520.177 401.683 521.277 401.25C522.377 400.817 523.427 400.6 524.427 400.6C525.527 400.6 526.46 400.817 527.227 401.25C528.027 401.683 528.677 402.3 529.177 403.1C529.677 403.867 530.043 404.767 530.277 405.8C530.51 406.833 530.627 407.933 530.627 409.1V421.55C530.627 423.35 530.377 424.917 529.877 426.25C529.41 427.583 528.71 428.633 527.777 429.4C526.843 430.133 525.693 430.5 524.327 430.5C523.293 430.5 522.243 430.267 521.177 429.8C520.143 429.3 519.143 428.633 518.177 427.8V439.5H510.027ZM520.327 425.25C520.86 425.25 521.277 425.1 521.577 424.8C521.877 424.5 522.093 424.117 522.227 423.65C522.393 423.15 522.477 422.6 522.477 422V408.5C522.477 407.933 522.41 407.433 522.277 407C522.143 406.533 521.927 406.167 521.627 405.9C521.327 405.633 520.943 405.5 520.477 405.5C520.043 405.5 519.627 405.6 519.227 405.8C518.86 405.967 518.51 406.2 518.177 406.5V424.5C518.543 424.733 518.893 424.917 519.227 425.05C519.593 425.183 519.96 425.25 520.327 425.25ZM544.721 430.5C542.621 430.5 540.821 430.133 539.321 429.4C537.821 428.633 536.671 427.533 535.871 426.1C535.071 424.633 534.671 422.883 534.671 420.85V410.25C534.671 408.183 535.071 406.433 535.871 405C536.671 403.567 537.821 402.483 539.321 401.75C540.854 400.983 542.654 400.6 544.721 400.6C546.854 400.6 548.621 400.967 550.021 401.7C551.454 402.433 552.521 403.517 553.221 404.95C553.954 406.383 554.321 408.15 554.321 410.25V416.05H542.721V421.6C542.721 422.333 542.804 422.933 542.971 423.4C543.137 423.867 543.371 424.2 543.671 424.4C543.971 424.6 544.321 424.7 544.721 424.7C545.121 424.7 545.471 424.617 545.771 424.45C546.104 424.25 546.354 423.95 546.521 423.55C546.721 423.15 546.821 422.6 546.821 421.9V418.85H554.321V421.65C554.321 424.583 553.471 426.8 551.771 428.3C550.071 429.767 547.721 430.5 544.721 430.5ZM542.721 412.25H546.821V409.35C546.821 408.583 546.721 407.983 546.521 407.55C546.354 407.117 546.104 406.817 545.771 406.65C545.471 406.483 545.104 406.4 544.671 406.4C544.271 406.4 543.921 406.5 543.621 406.7C543.354 406.9 543.137 407.25 542.971 407.75C542.804 408.217 542.721 408.9 542.721 409.8V412.25ZM556.857 430.3V424.55C557.924 424.55 558.79 424.383 559.457 424.05C560.157 423.717 560.707 423.15 561.107 422.35C561.54 421.517 561.874 420.4 562.107 419C562.34 417.567 562.54 415.75 562.707 413.55L563.657 401.1H582.007V430H573.857V406.6H570.557L569.857 415.15C569.624 418.15 569.29 420.633 568.857 422.6C568.424 424.567 567.79 426.117 566.957 427.25C566.124 428.35 565.007 429.133 563.607 429.6C562.207 430.067 560.424 430.3 558.257 430.3H556.857ZM585.426 430L589.926 418C589.16 417.567 588.51 416.967 587.976 416.2C587.443 415.433 587.043 414.533 586.776 413.5C586.51 412.467 586.376 411.35 586.376 410.15C586.376 408.817 586.56 407.6 586.926 406.5C587.326 405.4 587.943 404.45 588.776 403.65C589.643 402.85 590.76 402.233 592.126 401.8C593.493 401.333 595.143 401.1 597.076 401.1H607.826V430H599.726V419.7C599.593 419.7 599.226 419.7 598.626 419.7C598.026 419.667 597.576 419.633 597.276 419.6L594.026 430H585.426ZM599.376 414.9C599.443 414.9 599.51 414.9 599.576 414.9C599.643 414.9 599.693 414.9 599.726 414.9V405.7C599.693 405.7 599.643 405.7 599.576 405.7C599.51 405.7 599.443 405.7 599.376 405.7C598.143 405.7 597.11 405.867 596.276 406.2C595.443 406.533 594.81 407.033 594.376 407.7C593.976 408.333 593.776 409.133 593.776 410.1C593.776 411.733 594.26 412.933 595.226 413.7C596.226 414.467 597.61 414.867 599.376 414.9Z" fill="#F3E1B8"/>
<path d="M174.574 456.926V495.158C174.574 501.164 174.149 505.676 173.3 508.693C172.479 511.711 170.458 514.626 167.235 517.438C164.042 520.251 160.043 521.657 155.238 521.657C151.254 521.657 148.163 520.734 145.966 518.889C143.798 517.072 142.714 515.021 142.714 512.736C142.714 511.096 143.285 509.602 144.428 508.254C145.57 506.906 147.094 506.232 148.998 506.232C150.668 506.232 152.089 506.789 153.261 507.902C154.433 509.016 155.019 510.451 155.019 512.209C155.019 513.762 154.213 515.52 152.602 517.482C152.602 518.332 153.568 518.757 155.502 518.757C158.607 518.757 160.16 516.779 160.16 512.824V456.926H152.25V454.069H182.045V456.926H174.574ZM224.101 477.624V510.407H229.11V513H221.728C218.036 513 215.634 513.088 214.521 513.264C213.437 513.469 212.631 513.586 212.104 513.615V506.408H211.928C210.756 508.635 208.983 510.393 206.61 511.682C204.267 512.971 201.718 513.615 198.964 513.615C196.327 513.615 194.071 513.088 192.196 512.033C190.351 510.979 189.179 509.821 188.681 508.562C188.212 507.272 187.978 505.236 187.978 502.453V480.349H182.968V477.624H199.975V501.047C199.975 504.621 200.121 506.979 200.414 508.122C200.707 509.265 201.542 509.836 202.919 509.836C204.354 509.836 205.966 509.206 207.753 507.946C209.54 506.687 210.712 505.251 211.269 503.64C211.825 502.028 212.104 499.772 212.104 496.872V480.349H206.259V477.624H224.101ZM249.018 476.569V484.04H249.193C252.299 479.06 256.649 476.569 262.245 476.569C264.735 476.569 266.918 477.097 268.793 478.151C270.668 479.206 271.854 480.29 272.353 481.403C272.88 482.487 273.144 484.143 273.144 486.369V510.319H278.153V513H256.049V510.319H261.146V485.71C261.146 483.483 260.839 482.033 260.224 481.359C259.638 480.686 258.803 480.349 257.719 480.349C256.254 480.349 254.438 481.271 252.27 483.117C250.102 484.963 249.018 488.2 249.018 492.829V510.319H254.159V513H231.923V510.319H237.021V480.349H232.011V477.624H235.219C238.119 477.624 240.99 477.448 243.832 477.097L247.743 476.569H249.018ZM285.009 461.54C285.009 459.753 285.624 458.244 286.854 457.014C288.114 455.754 289.623 455.124 291.381 455.124C293.168 455.124 294.691 455.754 295.951 457.014C297.24 458.273 297.885 459.782 297.885 461.54C297.885 463.298 297.24 464.821 295.951 466.11C294.691 467.37 293.168 468 291.381 468C289.623 468 288.114 467.37 286.854 466.11C285.624 464.821 285.009 463.298 285.009 461.54ZM297.797 476.569V510.319H301.225V513H281.581V510.319H285.8V480.349H281.581V477.624H287.162C290.062 477.624 292.494 477.448 294.457 477.097C296.42 476.745 297.533 476.569 297.797 476.569ZM325.746 514.099C319.857 514.099 315.155 512.224 311.64 508.474C308.124 504.724 306.366 500.358 306.366 495.378C306.366 490.339 308.153 485.944 311.728 482.194C315.302 478.444 319.975 476.569 325.746 476.569C331.576 476.569 336.278 478.43 339.853 482.15C343.456 485.842 345.258 490.251 345.258 495.378C345.258 500.476 343.471 504.87 339.896 508.562C336.352 512.253 331.635 514.099 325.746 514.099ZM325.746 478.811C324.193 478.811 322.948 479.191 322.011 479.953C321.073 480.686 320.502 481.828 320.297 483.381C320.092 484.904 319.989 488.903 319.989 495.378C319.989 501.677 320.077 505.544 320.253 506.979C320.458 508.415 321.044 509.587 322.011 510.495C323.007 511.374 324.34 511.813 326.01 511.813C327.357 511.813 328.529 511.433 329.525 510.671C330.551 509.88 331.166 508.474 331.371 506.452C331.576 504.401 331.679 500.944 331.679 496.081C331.679 488.493 331.386 483.718 330.8 481.755C330.214 479.792 328.529 478.811 325.746 478.811ZM364.989 477.097V486.809H365.165C365.868 483.352 367.025 480.788 368.637 479.118C370.248 477.419 372.035 476.569 373.998 476.569C375.902 476.569 377.455 477.258 378.656 478.635C379.857 479.982 380.458 481.652 380.458 483.645C380.458 485.344 380.004 486.721 379.096 487.775C378.188 488.801 377.089 489.313 375.8 489.313C374.511 489.313 373.397 488.83 372.46 487.863C371.552 486.896 371.098 485.827 371.098 484.655C371.098 483.19 371.347 482.165 371.845 481.579C372.372 480.993 372.636 480.612 372.636 480.437C372.636 480.114 372.401 479.953 371.933 479.953C370.468 479.953 369.062 481.389 367.714 484.26C366.396 487.131 365.736 491.789 365.736 498.234V510.319H372.284V513H349.169V510.319H353.739V480.349H349.169V477.624H355.014C358.119 477.624 360.404 477.536 361.869 477.36L363.451 477.097H364.989Z" fill="#F3E1B8"/>
<path d="M370.05 570V564.1L379.75 549.2C380.483 548.1 381.167 547.033 381.8 546C382.467 544.967 383 543.917 383.4 542.85C383.833 541.783 384.05 540.667 384.05 539.5C384.05 538.333 383.817 537.467 383.35 536.9C382.883 536.333 382.25 536.05 381.45 536.05C380.55 536.05 379.85 536.3 379.35 536.8C378.85 537.3 378.5 537.967 378.3 538.8C378.133 539.633 378.05 540.567 378.05 541.6V543.6H369.95V541.45C369.95 539.05 370.333 536.917 371.1 535.05C371.867 533.15 373.083 531.667 374.75 530.6C376.417 529.5 378.6 528.95 381.3 528.95C384.933 528.95 387.667 529.9 389.5 531.8C391.367 533.667 392.3 536.283 392.3 539.65C392.3 541.283 392.033 542.8 391.5 544.2C391 545.6 390.317 546.967 389.45 548.3C388.617 549.6 387.717 550.967 386.75 552.4L379.35 563.45H391.2V570H370.05ZM406.734 570.6C404.134 570.6 402.084 570.2 400.584 569.4C399.084 568.6 398.017 567.433 397.384 565.9C396.75 564.333 396.434 562.417 396.434 560.15C396.434 560.05 396.434 559.95 396.434 559.85C396.434 559.717 396.434 559.6 396.434 559.5H404.234C404.234 561.133 404.367 562.35 404.634 563.15C404.934 563.917 405.65 564.3 406.784 564.3C407.55 564.3 408.117 564.067 408.484 563.6C408.85 563.133 409.084 562.317 409.184 561.15C409.317 559.95 409.384 558.317 409.384 556.25V552.65C408.95 553.35 408.284 553.883 407.384 554.25C406.517 554.617 405.534 554.833 404.434 554.9C402.3 554.933 400.584 554.4 399.284 553.3C397.984 552.2 397.05 550.717 396.484 548.85C395.917 546.983 395.634 544.95 395.634 542.75C395.634 539.917 395.984 537.483 396.684 535.45C397.417 533.383 398.6 531.783 400.234 530.65C401.867 529.517 404.034 528.95 406.734 528.95C409.4 528.95 411.55 529.483 413.184 530.55C414.817 531.617 416 533.117 416.734 535.05C417.5 536.95 417.884 539.2 417.884 541.8V556.9C417.884 559.533 417.567 561.883 416.934 563.95C416.334 566.017 415.234 567.65 413.634 568.85C412.034 570.017 409.734 570.6 406.734 570.6ZM406.834 548.5C407.5 548.5 408.034 548.317 408.434 547.95C408.834 547.583 409.15 547.233 409.384 546.9V540.3C409.384 539.367 409.317 538.517 409.184 537.75C409.05 536.95 408.8 536.317 408.434 535.85C408.067 535.35 407.5 535.1 406.734 535.1C406 535.1 405.45 535.367 405.084 535.9C404.717 536.4 404.467 537.167 404.334 538.2C404.234 539.2 404.184 540.45 404.184 541.95C404.184 543.25 404.217 544.4 404.284 545.4C404.384 546.367 404.617 547.133 404.984 547.7C405.35 548.233 405.967 548.5 406.834 548.5ZM441.881 570.5C440.414 570.5 439.181 570.15 438.181 569.45C437.181 568.75 436.431 567.867 435.931 566.8C435.431 565.7 435.181 564.583 435.181 563.45C435.181 561.65 435.531 560.133 436.231 558.9C436.964 557.667 437.914 556.633 439.081 555.8C440.248 554.967 441.531 554.267 442.931 553.7C444.331 553.1 445.714 552.567 447.081 552.1V549.2C447.081 548.7 447.031 548.267 446.931 547.9C446.831 547.5 446.664 547.2 446.431 547C446.198 546.767 445.848 546.65 445.381 546.65C444.914 546.65 444.548 546.75 444.281 546.95C444.048 547.15 443.881 547.433 443.781 547.8C443.681 548.133 443.614 548.517 443.581 548.95L443.381 551.05L435.781 550.75C435.948 547.283 436.864 544.733 438.531 543.1C440.231 541.433 442.764 540.6 446.131 540.6C449.064 540.6 451.248 541.417 452.681 543.05C454.148 544.65 454.881 546.733 454.881 549.3V562.8C454.881 564 454.898 565.05 454.931 565.95C454.998 566.85 455.064 567.633 455.131 568.3C455.231 568.967 455.314 569.533 455.381 570H448.081C447.981 569.233 447.864 568.4 447.731 567.5C447.598 566.6 447.498 566.067 447.431 565.9C447.098 567.1 446.464 568.167 445.531 569.1C444.631 570.033 443.414 570.5 441.881 570.5ZM444.781 565C445.114 565 445.414 564.933 445.681 564.8C445.981 564.667 446.248 564.483 446.481 564.25C446.714 564.017 446.914 563.783 447.081 563.55V555.65C446.414 556.05 445.798 556.467 445.231 556.9C444.664 557.3 444.181 557.75 443.781 558.25C443.381 558.75 443.064 559.3 442.831 559.9C442.631 560.467 442.531 561.117 442.531 561.85C442.531 562.817 442.731 563.583 443.131 564.15C443.531 564.717 444.081 565 444.781 565ZM459.71 570V541.1H480.21V570H472.06V546.65H467.86V570H459.71ZM485.247 579.5V541.1H493.397V543.2C494.364 542.333 495.397 541.683 496.497 541.25C497.597 540.817 498.647 540.6 499.647 540.6C500.747 540.6 501.681 540.817 502.447 541.25C503.247 541.683 503.897 542.3 504.397 543.1C504.897 543.867 505.264 544.767 505.497 545.8C505.731 546.833 505.847 547.933 505.847 549.1V561.55C505.847 563.35 505.597 564.917 505.097 566.25C504.631 567.583 503.931 568.633 502.997 569.4C502.064 570.133 500.914 570.5 499.547 570.5C498.514 570.5 497.464 570.267 496.397 569.8C495.364 569.3 494.364 568.633 493.397 567.8V579.5H485.247ZM495.547 565.25C496.081 565.25 496.497 565.1 496.797 564.8C497.097 564.5 497.314 564.117 497.447 563.65C497.614 563.15 497.697 562.6 497.697 562V548.5C497.697 547.933 497.631 547.433 497.497 547C497.364 546.533 497.147 546.167 496.847 545.9C496.547 545.633 496.164 545.5 495.697 545.5C495.264 545.5 494.847 545.6 494.447 545.8C494.081 545.967 493.731 546.2 493.397 546.5V564.5C493.764 564.733 494.114 564.917 494.447 565.05C494.814 565.183 495.181 565.25 495.547 565.25ZM519.941 570.5C517.841 570.5 516.041 570.133 514.541 569.4C513.041 568.633 511.891 567.533 511.091 566.1C510.291 564.633 509.891 562.883 509.891 560.85V550.25C509.891 548.183 510.291 546.433 511.091 545C511.891 543.567 513.041 542.483 514.541 541.75C516.075 540.983 517.875 540.6 519.941 540.6C522.075 540.6 523.841 540.967 525.241 541.7C526.675 542.433 527.741 543.517 528.441 544.95C529.175 546.383 529.541 548.15 529.541 550.25V556.05H517.941V561.6C517.941 562.333 518.025 562.933 518.191 563.4C518.358 563.867 518.591 564.2 518.891 564.4C519.191 564.6 519.541 564.7 519.941 564.7C520.341 564.7 520.691 564.617 520.991 564.45C521.325 564.25 521.575 563.95 521.741 563.55C521.941 563.15 522.041 562.6 522.041 561.9V558.85H529.541V561.65C529.541 564.583 528.691 566.8 526.991 568.3C525.291 569.767 522.941 570.5 519.941 570.5ZM517.941 552.25H522.041V549.35C522.041 548.583 521.941 547.983 521.741 547.55C521.575 547.117 521.325 546.817 520.991 546.65C520.691 546.483 520.325 546.4 519.891 546.4C519.491 546.4 519.141 546.5 518.841 546.7C518.575 546.9 518.358 547.25 518.191 547.75C518.025 548.217 517.941 548.9 517.941 549.8V552.25ZM532.078 570.3V564.55C533.144 564.55 534.011 564.383 534.678 564.05C535.378 563.717 535.928 563.15 536.328 562.35C536.761 561.517 537.094 560.4 537.328 559C537.561 557.567 537.761 555.75 537.928 553.55L538.878 541.1H557.228V570H549.078V546.6H545.778L545.078 555.15C544.844 558.15 544.511 560.633 544.078 562.6C543.644 564.567 543.011 566.117 542.178 567.25C541.344 568.35 540.228 569.133 538.828 569.6C537.428 570.067 535.644 570.3 533.478 570.3H532.078ZM560.647 570L565.147 558C564.38 557.567 563.73 556.967 563.197 556.2C562.664 555.433 562.264 554.533 561.997 553.5C561.73 552.467 561.597 551.35 561.597 550.15C561.597 548.817 561.78 547.6 562.147 546.5C562.547 545.4 563.164 544.45 563.997 543.65C564.864 542.85 565.98 542.233 567.347 541.8C568.714 541.333 570.364 541.1 572.297 541.1H583.047V570H574.947V559.7C574.814 559.7 574.447 559.7 573.847 559.7C573.247 559.667 572.797 559.633 572.497 559.6L569.247 570H560.647ZM574.597 554.9C574.664 554.9 574.73 554.9 574.797 554.9C574.864 554.9 574.914 554.9 574.947 554.9V545.7C574.914 545.7 574.864 545.7 574.797 545.7C574.73 545.7 574.664 545.7 574.597 545.7C573.364 545.7 572.33 545.867 571.497 546.2C570.664 546.533 570.03 547.033 569.597 547.7C569.197 548.333 568.997 549.133 568.997 550.1C568.997 551.733 569.48 552.933 570.447 553.7C571.447 554.467 572.83 554.867 574.597 554.9Z" fill="#F3E1B8"/>
</svg>
