<svg width="49" height="50" viewBox="0 0 49 50" fill="none" xmlns="http://www.w3.org/2000/svg">
<path d="M24.3071 50V24.853M24.3071 0V12.2577V24.853M0 24.853H11.672H24.3071M49 24.853H36.9421H24.3071M24.3071 24.853L18.1088 9.14718M24.3071 24.853L10.4801 10.8318M24.3071 24.853L8.85259 17.9612M24.3071 24.853L30.5054 9.14674M24.3071 24.853L38.1341 10.8314M24.3071 24.853L39.7616 17.961M24.3071 24.853L18.1088 40.5589M24.3071 24.853L10.4801 38.8743M24.3071 24.853L8.85259 31.7448M24.3071 24.853L30.5054 40.5593M24.3071 24.853L38.1341 38.8747M24.3071 24.853L39.7616 31.745" stroke="#F3E1B8" stroke-width="2"/>
<path fill-rule="evenodd" clip-rule="evenodd" d="M24.5 36C30.8513 36 36 30.8513 36 24.5C36 18.1487 30.8513 13 24.5 13C18.1487 13 13 18.1487 13 24.5C13 30.8513 18.1487 36 24.5 36Z" fill="#F3E1B8"/>
</svg>
